<svg width="822" height="161" viewBox="0 0 822 161" fill="none" xmlns="http://www.w3.org/2000/svg">
<g opacity="0.7">
<mask id="path-1-outside-1_54_589" maskUnits="userSpaceOnUse" x="0" y="-1" width="822" height="163" fill="black">
<rect fill="white" y="-1" width="822" height="163"/>
<path d="M48.9563 127.68C34.2874 127.68 22.6139 123.369 13.9358 114.746C5.25764 106.124 0.918567 94.4508 0.918567 79.7259C0.918567 64.8331 5.50958 52.8796 14.6916 43.8656C23.8737 34.8515 36.219 30.3445 51.7277 30.3445C62.5334 30.3445 73.2271 31.9121 83.8088 35.0475V63.7693H82.969C78.8819 54.1394 73.3671 46.609 66.4245 41.1782C59.482 35.6913 52.0356 32.9479 44.0853 32.9479C35.6311 32.9479 29.3605 35.6913 25.2734 41.1782C21.1862 46.665 19.1427 54.4193 19.1427 64.4412C19.0867 74.407 20.8223 83.5051 24.3496 91.7353C27.8768 99.9096 32.8037 106.376 39.1304 111.135C45.513 115.894 52.6235 118.274 60.4618 118.274C66.3406 118.274 71.6034 116.874 76.2504 114.075C80.9534 111.219 84.5087 107.328 86.9162 102.401L88.5118 103.325C84.9846 111.051 79.7497 117.042 72.8072 121.297C65.8647 125.552 57.9144 127.68 48.9563 127.68ZM170.603 126L164.976 64.1052C163.072 43.5576 153.778 33.2838 137.094 33.2838C127.52 33.2838 119.541 38.0988 113.159 47.7287C111.423 50.3602 110.219 52.4317 109.548 53.9434H108.708V32.1081C123.321 30.9323 134.378 30.3445 141.881 30.3445C151.231 30.3445 158.985 31.1563 165.144 32.7799C170.855 34.4596 175.11 37.287 177.909 41.2621C180.764 45.1813 182.528 50.6121 183.2 57.5546L188.659 111.891C189.163 118.89 191.066 123.481 194.369 125.664L194.202 126H188.323H170.603ZM129.199 127.68C120.521 127.68 113.467 125.076 108.036 119.869C102.661 114.662 99.9737 108 99.9737 99.8816C99.9737 92.3232 102.549 85.4927 107.7 79.39C117.946 67.5205 139.081 58.2265 171.106 51.5079V52.3478C152.071 56.3229 138.605 61.3338 130.711 67.3805C122.817 73.4273 118.87 81.9654 118.87 92.9951C118.87 101.505 120.717 108.644 124.412 114.41C128.164 120.177 132.615 123.061 137.766 123.061C143.308 123.005 148.347 120.345 152.882 115.082C157.417 109.763 160.805 102.569 163.044 93.499C165.284 84.3729 165.928 74.575 164.976 64.1052H166.152C167.663 76.7585 167.047 87.9561 164.304 97.6981C161.616 107.384 157.221 114.802 151.119 119.953C145.016 125.104 137.71 127.68 129.199 127.68ZM257.732 31.2683L257.564 36.2232C238.248 34.9355 219.436 34.2916 201.128 34.2916H197.685V31.4362L257.732 31.2683ZM259.244 113.067L260.252 113.991C256.668 122.557 249.278 126.84 238.08 126.84C230.074 126.84 223.692 124.824 218.933 120.793C214.174 116.762 211.794 111.275 211.794 104.333V32.1081L197.685 31.4362C206.251 31.1003 213.362 29.3367 219.017 26.1454C224.727 22.9541 228.786 18.447 231.194 12.6243H232.118V101.897C232.118 108.672 233.349 113.795 235.813 117.266C238.332 120.681 241.972 122.389 246.731 122.389C249.53 122.389 252.049 121.549 254.289 119.869C256.528 118.19 258.18 115.922 259.244 113.067ZM334.112 126L328.485 64.1052C326.582 43.5576 317.288 33.2838 300.603 33.2838C291.029 33.2838 283.051 38.0988 276.669 47.7287C274.933 50.3602 273.729 52.4317 273.057 53.9434H272.217V32.1081C286.83 30.9323 297.888 30.3445 305.39 30.3445C314.74 30.3445 322.495 31.1563 328.653 32.7799C334.364 34.4596 338.619 37.287 341.419 41.2621C344.274 45.1813 346.038 50.6121 346.71 57.5546L352.168 111.891C352.672 118.89 354.576 123.481 357.879 125.664L357.711 126H351.832H334.112ZM292.709 127.68C284.031 127.68 276.976 125.076 271.546 119.869C266.171 114.662 263.483 108 263.483 99.8816C263.483 92.3232 266.059 85.4927 271.21 79.39C281.455 67.5205 302.591 58.2265 334.616 51.5079V52.3478C315.58 56.3229 302.115 61.3338 294.221 67.3805C286.326 73.4273 282.379 81.9654 282.379 92.9951C282.379 101.505 284.227 108.644 287.922 114.41C291.673 120.177 296.124 123.061 301.275 123.061C306.818 123.005 311.857 120.345 316.392 115.082C320.927 109.763 324.314 102.569 326.554 93.499C328.793 84.3729 329.437 74.575 328.485 64.1052H329.661C331.173 76.7585 330.557 87.9561 327.814 97.6981C325.126 107.384 320.731 114.802 314.628 119.953C308.526 125.104 301.219 127.68 292.709 127.68ZM393.78 126H376.06H370.181L370.013 125.664C373.204 123.76 374.8 119.169 374.8 111.891V19.1749C374.8 11.8964 373.036 7.83729 369.509 6.99747V6.66154L375.22 5.06588L394.956 0.614832V111.891C394.956 119.169 396.551 123.76 399.742 125.664L399.575 126H393.78ZM492.499 113.655C483.429 123.005 471.839 127.68 457.73 127.68C443.621 127.68 432.284 123.285 423.718 114.494C415.207 105.704 410.952 94.1148 410.952 79.7259C410.952 65.169 415.403 53.2996 424.306 44.1175C433.264 34.9355 444.881 30.3445 459.158 30.3445C473.323 30.3445 484.689 34.7675 493.255 43.6136C501.821 52.4597 506.104 63.8253 506.104 77.7103C506.104 92.3232 501.569 104.305 492.499 113.655ZM464.785 125.496C471.783 125.496 477.354 122.445 481.497 116.342C485.64 110.239 487.712 101.981 487.712 91.5674C487.712 81.6575 485.976 72.0835 482.505 62.8455C479.034 53.7755 474.471 46.525 468.816 41.0942C463.217 35.6633 457.366 32.9479 451.264 32.9479C444.321 32.9479 438.918 35.8593 435.055 41.682C431.248 47.5048 429.344 55.4831 429.344 65.6169C429.344 75.6948 431.024 85.4367 434.383 94.8427C437.743 104.193 442.082 111.639 447.401 117.182C452.775 122.725 458.57 125.496 464.785 125.496ZM561.74 104.501C549.815 104.501 539.933 101.057 532.095 94.1708C524.312 87.2283 520.421 78.5781 520.421 68.2204C520.421 57.3587 524.34 48.3726 532.179 41.2621C540.017 34.0957 550.095 30.5124 562.412 30.5124C567.787 30.5124 575.458 30.7084 585.423 31.1003C589.007 31.1563 592.898 31.2123 597.097 31.2683C601.296 31.3243 604.515 31.3802 606.755 31.4362C609.05 31.4362 610.786 31.4362 611.962 31.4362L610.534 40.1704C595.809 36.5311 584.416 34.1237 576.353 32.9479V33.1159C584.919 35.4114 591.638 39.5545 596.509 45.5452C601.38 51.4799 603.815 58.5624 603.815 66.7927C603.815 77.5424 599.84 86.5284 591.89 93.7509C583.94 100.917 573.89 104.501 561.74 104.501ZM557.961 160.433C549.171 160.433 541.641 159.565 535.37 157.829C529.659 156.094 525.348 153.91 522.437 151.279C519.525 148.647 518.07 145.848 518.07 142.88C518.07 140.585 519.441 139.437 522.185 139.437C522.185 142.349 523.557 145.26 526.3 148.171C529.099 151.307 533.746 153.798 540.241 155.646C546.792 157.549 554.994 158.501 564.848 158.501C575.262 158.501 583.8 156.709 590.462 153.126C597.125 149.599 600.456 145.036 600.456 139.437C600.456 132.663 595.165 129.275 584.584 129.275C581 129.275 573.834 130.255 563.084 132.215C554.126 134.006 547.603 134.902 543.516 134.902C537.078 134.902 532.039 133.53 528.4 130.787C524.816 128.1 523.025 124.376 523.025 119.617C523.025 115.306 524.816 111.191 528.4 107.272C532.039 103.353 537.19 100.19 543.852 97.782L544.188 98.2859C540.829 100.022 538.337 101.841 536.714 103.745C535.146 105.592 534.362 107.86 534.362 110.547C534.362 116.37 538.561 119.281 546.96 119.281C550.823 119.281 557.877 118.19 568.123 116.006C577.417 113.823 584.64 112.731 589.79 112.731C596.677 112.731 601.912 114.41 605.495 117.77C609.078 121.073 610.87 125.3 610.87 130.451C610.87 135.938 608.826 140.977 604.739 145.568C600.428 150.159 594.213 153.77 586.095 156.401C578.033 159.089 568.655 160.433 557.961 160.433ZM570.475 101.897C575.513 101.897 579.433 99.8256 582.232 95.6825C585.087 91.5394 586.515 86.1085 586.515 79.39C586.515 71.5517 585.115 64.0493 582.316 56.8828C579.573 49.7163 575.709 43.8936 570.727 39.4145C565.8 34.8795 560.453 32.612 554.686 32.612C549.311 32.612 545.056 34.7115 541.921 38.9106C538.841 43.1097 537.302 48.5126 537.302 55.1192C537.246 63.0135 538.701 70.5719 541.669 77.7943C544.636 84.9608 548.695 90.7835 553.846 95.2626C558.997 99.6856 564.54 101.897 570.475 101.897ZM711.605 31.4362V111.891C711.605 119.169 713.2 123.76 716.392 125.664L716.224 126H710.429H692.205V86.2765L691.281 85.6046V49.9963C691.281 42.6618 689.517 38.5747 685.99 37.7349V37.399L691.617 35.8873L711.605 31.4362ZM629.89 96.7743L629.722 49.9963C629.722 42.6618 628.015 38.5747 624.599 37.7349V37.399L630.058 35.8873L650.046 31.4362V93.331C649.99 102.401 651.558 109.372 654.749 114.243C657.996 119.113 662.447 121.549 668.102 121.549C674.989 121.549 680.559 117.49 684.814 109.372C689.126 101.253 691.281 90.9235 691.281 78.3822H692.541C692.541 93.443 689.657 105.284 683.891 113.907C678.18 122.529 670.342 126.84 660.376 126.84C651.418 126.84 644.111 124.124 638.456 118.694C632.802 113.207 629.946 105.9 629.89 96.7743ZM777.655 127.008C763.714 127.008 752.516 122.697 744.062 114.075C735.608 105.396 731.381 93.9469 731.381 79.7259C731.381 65.337 736.028 53.5235 745.322 44.2855C754.616 34.9915 766.597 30.3445 781.266 30.3445C792.52 30.3445 801.534 33.4798 808.308 39.7505C815.139 46.0211 819.366 55.1752 820.99 67.2126L743.306 66.7927L743.642 64.6091L802.933 62.0057L802.094 63.0135C801.59 54.7832 798.482 47.7287 792.772 41.85C787.061 35.9153 780.482 32.9479 773.036 32.9479C765.701 32.9479 759.991 35.7473 755.904 41.3461C751.816 46.8889 749.773 54.7552 749.773 64.9451C749.773 74.575 751.508 83.2811 754.98 91.0635C758.451 98.9578 763.154 105.116 769.089 109.54C775.023 113.963 781.602 116.174 788.824 116.174C797.895 116.174 805.285 113.459 810.996 108.028C816.707 102.541 819.646 95.3466 819.814 86.4445H821.158C821.158 97.922 817.098 107.552 808.98 115.334C800.918 123.117 790.476 127.008 777.655 127.008Z"/>
</mask>
<path d="M14.6916 43.8656L14.1239 43.2873L14.6916 43.8656ZM83.8088 35.0475H84.6192V34.4424L84.0391 34.2705L83.8088 35.0475ZM83.8088 63.7693V64.5797H84.6192V63.7693H83.8088ZM82.969 63.7693L82.223 64.0859L82.4326 64.5797H82.969V63.7693ZM66.4246 41.1782L65.9221 41.814L65.9252 41.8165L66.4246 41.1782ZM25.2733 41.1782L24.6234 40.694L25.2733 41.1782ZM19.1427 64.4412L19.9531 64.4457V64.4412H19.1427ZM24.3495 91.7353L23.6047 92.0546L23.6055 92.0564L24.3495 91.7353ZM39.1304 111.135L38.6432 111.783L38.646 111.785L39.1304 111.135ZM76.2505 114.075L76.6686 114.769L76.671 114.767L76.2505 114.075ZM86.9162 102.401L87.3222 101.7L86.5698 101.264L86.188 102.045L86.9162 102.401ZM88.5118 103.325L89.249 103.661L89.5546 102.992L88.9178 102.624L88.5118 103.325ZM48.9563 126.869C34.4559 126.869 23.0038 122.613 14.507 114.172L13.3646 115.321C22.2241 124.124 34.119 128.49 48.9563 128.49V126.869ZM14.507 114.172C6.01236 105.732 1.72896 94.282 1.72896 79.7259H0.10817C0.10817 94.6195 4.50291 106.517 13.3646 115.321L14.507 114.172ZM1.72896 79.7259C1.72896 65.0134 6.2572 53.2814 15.2593 44.4439L14.1239 43.2873C4.76198 52.4779 0.10817 64.6527 0.10817 79.7259H1.72896ZM15.2593 44.4439C24.2596 35.6082 36.3849 31.1549 51.7277 31.1549V29.5341C36.0531 29.5341 23.4877 34.0948 14.1239 43.2873L15.2593 44.4439ZM51.7277 31.1549C62.4538 31.1549 73.07 32.7108 83.5786 35.8245L84.0391 34.2705C73.3842 31.1135 62.613 29.5341 51.7277 29.5341V31.1549ZM82.9984 35.0475V63.7693H84.6192V35.0475H82.9984ZM83.8088 62.9589H82.969V64.5797H83.8088V62.9589ZM83.715 63.4527C79.5843 53.72 73.9931 46.0698 66.9239 40.5398L65.9252 41.8165C72.741 47.1482 78.1795 54.5587 82.223 64.0859L83.715 63.4527ZM66.927 40.5424C59.8586 34.956 52.2387 32.1375 44.0853 32.1375V33.7583C51.8326 33.7583 59.1055 36.4267 65.9221 41.814L66.927 40.5424ZM44.0853 32.1375C35.4424 32.1375 28.8997 34.9534 24.6234 40.694L25.9232 41.6623C29.8213 36.4293 35.8199 33.7583 44.0853 33.7583V32.1375ZM24.6234 40.694C20.3937 46.3724 18.3323 54.3226 18.3323 64.4412H19.9531C19.9531 54.516 21.9788 46.9576 25.9232 41.6623L24.6234 40.694ZM18.3323 64.4366C18.2757 74.5012 20.0289 83.7111 23.6047 92.0546L25.0944 91.4161C21.6157 83.2991 19.8976 74.3129 19.9531 64.4457L18.3323 64.4366ZM23.6055 92.0564C27.1814 100.344 32.1906 106.929 38.6432 111.783L39.6176 110.488C33.417 105.823 28.5722 99.4756 25.0936 91.4143L23.6055 92.0564ZM38.646 111.785C45.1662 116.646 52.446 119.084 60.4618 119.084V117.463C52.801 117.463 45.8599 115.142 39.6148 110.486L38.646 111.785ZM60.4618 119.084C66.4752 119.084 71.8849 117.65 76.6686 114.769L75.8323 113.38C71.322 116.097 66.206 117.463 60.4618 117.463V119.084ZM76.671 114.767C81.5062 111.832 85.1684 107.824 87.6443 102.757L86.188 102.045C83.8489 106.832 80.4007 110.607 75.8299 113.382L76.671 114.767ZM86.5101 103.102L88.1058 104.026L88.9178 102.624L87.3222 101.7L86.5101 103.102ZM87.7746 102.988C84.3113 110.575 79.1826 116.439 72.3837 120.606L73.2307 121.988C80.3168 117.645 85.6579 111.528 89.249 103.661L87.7746 102.988ZM72.3837 120.606C65.5812 124.775 57.7804 126.869 48.9563 126.869V128.49C58.0484 128.49 66.1481 126.329 73.2307 121.988L72.3837 120.606ZM170.603 126L169.796 126.073L169.863 126.81H170.603V126ZM164.976 64.1052L165.783 64.0319L165.783 64.0305L164.976 64.1052ZM113.159 47.7288L112.483 47.281L112.482 47.2825L113.159 47.7288ZM109.548 53.9434V54.7538H110.074L110.288 54.2726L109.548 53.9434ZM108.708 53.9434H107.897V54.7538H108.708V53.9434ZM108.708 32.1081L108.643 31.3003L107.897 31.3603V32.1081H108.708ZM165.144 32.7799L165.372 32.0025L165.361 31.9992L165.35 31.9963L165.144 32.7799ZM177.909 41.2621L177.246 41.7288L177.254 41.7393L177.909 41.2621ZM183.2 57.5546L182.393 57.6327L182.394 57.6357L183.2 57.5546ZM188.659 111.891L189.467 111.833L189.466 111.821L189.465 111.81L188.659 111.891ZM194.369 125.664L195.094 126.026L195.416 125.384L194.816 124.988L194.369 125.664ZM194.202 126V126.81H194.702L194.926 126.362L194.202 126ZM108.036 119.869L107.472 120.451L107.475 120.454L108.036 119.869ZM107.7 79.39L107.087 78.8604L107.081 78.8673L107.7 79.39ZM171.106 51.5079H171.917V50.5099L170.94 50.7148L171.106 51.5079ZM171.106 52.3478L171.272 53.141L171.917 53.0064V52.3478H171.106ZM124.412 114.41L123.73 114.848L123.733 114.852L124.412 114.41ZM137.766 123.061V123.871L137.774 123.871L137.766 123.061ZM152.882 115.082L153.496 115.611L153.499 115.608L152.882 115.082ZM163.044 93.499L163.831 93.6932L163.831 93.6921L163.044 93.499ZM164.976 64.1052V63.2948H164.088L164.169 64.1786L164.976 64.1052ZM166.152 64.1052L166.956 64.0091L166.871 63.2948H166.152V64.1052ZM164.304 97.6981L163.524 97.4784L163.523 97.4814L164.304 97.6981ZM171.41 125.927L165.783 64.0319L164.169 64.1786L169.796 126.073L171.41 125.927ZM165.783 64.0305C164.822 53.6636 161.988 45.7621 157.179 40.4455C152.347 35.1044 145.614 32.4734 137.094 32.4734V34.0942C145.258 34.0942 151.514 36.6002 155.977 41.5329C160.461 46.4901 163.226 53.9993 164.169 64.18L165.783 64.0305ZM137.094 32.4734C127.189 32.4734 118.98 37.4784 112.483 47.281L113.834 48.1765C120.103 38.7193 127.85 34.0942 137.094 34.0942V32.4734ZM112.482 47.2825C110.74 49.9243 109.507 52.0404 108.807 53.6143L110.288 54.2726C110.932 52.8231 112.107 50.7961 113.835 48.1749L112.482 47.2825ZM109.548 53.133H108.708V54.7538H109.548V53.133ZM109.518 53.9434V32.1081H107.897V53.9434H109.518ZM108.773 32.9159C123.38 31.7406 134.412 31.1549 141.881 31.1549V29.5341C134.345 29.5341 123.261 30.1241 108.643 31.3003L108.773 32.9159ZM141.881 31.1549C151.19 31.1549 158.869 31.9639 164.937 33.5636L165.35 31.9963C159.101 30.3487 151.271 29.5341 141.881 29.5341V31.1549ZM164.915 33.5574C170.491 35.1973 174.574 37.9345 177.246 41.7287L178.572 40.7955C175.645 36.6395 171.218 33.7218 165.372 32.0025L164.915 33.5574ZM177.254 41.7393C179.995 45.501 181.73 50.7748 182.393 57.6327L184.007 57.4766C183.326 50.4494 181.534 44.8616 178.564 40.7849L177.254 41.7393ZM182.394 57.6357L187.852 111.972L189.465 111.81L184.006 57.4736L182.394 57.6357ZM187.85 111.949C188.359 119.013 190.292 123.94 193.923 126.34L194.816 124.988C191.84 123.021 189.966 118.766 189.467 111.833L187.85 111.949ZM193.645 125.302L193.477 125.638L194.926 126.362L195.094 126.026L193.645 125.302ZM194.202 125.19H188.323V126.81H194.202V125.19ZM188.323 125.19H170.603V126.81H188.323V125.19ZM129.199 126.869C120.696 126.869 113.854 124.324 108.597 119.284L107.475 120.454C113.08 125.828 120.347 128.49 129.199 128.49V126.869ZM108.6 119.287C103.397 114.247 100.784 107.801 100.784 99.8816H99.1633C99.1633 108.199 101.925 115.078 107.472 120.451L108.6 119.287ZM100.784 99.8816C100.784 92.5259 103.284 85.8781 108.319 79.9127L107.081 78.8673C101.814 85.1072 99.1633 92.1205 99.1633 99.8816H100.784ZM108.313 79.9195C118.371 68.2687 139.267 59.0157 171.273 52.3011L170.94 50.7148C138.896 57.4373 117.521 66.7723 107.087 78.8604L108.313 79.9195ZM170.296 51.5079V52.3478H171.917V51.5079H170.296ZM170.941 51.5545C151.878 55.5351 138.263 60.5751 130.218 66.7372L131.204 68.0239C138.948 62.0925 152.263 57.1107 171.272 53.141L170.941 51.5545ZM130.218 66.7372C122.1 72.9555 118.059 81.7448 118.059 92.9951H119.68C119.68 82.186 123.534 73.899 131.204 68.0239L130.218 66.7372ZM118.059 92.9951C118.059 101.623 119.933 108.922 123.73 114.848L125.095 113.973C121.501 108.365 119.68 101.388 119.68 92.9951H118.059ZM123.733 114.852C127.578 120.763 132.252 123.871 137.766 123.871V122.25C132.978 122.25 128.749 119.591 125.092 113.969L123.733 114.852ZM137.774 123.871C143.606 123.812 148.851 121.003 153.496 115.611L152.268 114.553C147.844 119.688 143.01 122.197 137.757 122.25L137.774 123.871ZM153.499 115.608C158.138 110.167 161.571 102.846 163.831 93.6932L162.257 93.3047C160.038 102.292 156.696 109.36 152.266 114.557L153.499 115.608ZM163.831 93.6921C166.095 84.4692 166.742 74.5805 165.783 64.0319L164.169 64.1786C165.113 74.5696 164.473 84.2766 162.257 93.3058L163.831 93.6921ZM164.976 64.9156H166.152V63.2948H164.976V64.9156ZM165.347 64.2014C166.849 76.7752 166.232 87.8619 163.524 97.4784L165.084 97.9177C167.863 88.0503 168.477 76.7418 166.956 64.0091L165.347 64.2014ZM163.523 97.4814C160.868 107.051 156.545 114.313 150.596 119.334L151.641 120.573C157.898 115.292 162.365 107.717 165.085 97.9147L163.523 97.4814ZM150.596 119.334C144.65 124.353 137.532 126.869 129.199 126.869V128.49C137.887 128.49 145.382 125.855 151.641 120.573L150.596 119.334ZM257.732 31.2683L258.542 31.2957L258.571 30.4555L257.73 30.4579L257.732 31.2683ZM257.564 36.2232L257.51 37.0318L258.346 37.0875L258.374 36.2507L257.564 36.2232ZM197.685 34.2916H196.875V35.102H197.685V34.2916ZM197.685 31.4362L197.683 30.6258L196.875 30.6281V31.4362H197.685ZM259.244 113.067L259.792 112.469L258.905 111.656L258.484 112.784L259.244 113.067ZM260.252 113.991L260.999 114.303L261.219 113.778L260.799 113.393L260.252 113.991ZM218.933 120.793L218.409 121.411L218.933 120.793ZM211.794 32.1081H212.604V31.3354L211.833 31.2986L211.794 32.1081ZM197.685 31.4362L197.653 30.6265L197.647 32.2457L197.685 31.4362ZM219.017 26.1454L218.621 25.4379L218.618 25.4396L219.017 26.1454ZM231.194 12.6243V11.8139H230.652L230.445 12.3146L231.194 12.6243ZM232.118 12.6243H232.928V11.8139H232.118V12.6243ZM235.813 117.266L235.152 117.735L235.156 117.741L235.161 117.747L235.813 117.266ZM256.922 31.2408L256.754 36.1958L258.374 36.2507L258.542 31.2957L256.922 31.2408ZM257.618 35.4146C238.285 34.1258 219.455 33.4812 201.128 33.4812V35.102C219.417 35.102 238.211 35.7452 257.51 37.0318L257.618 35.4146ZM201.128 33.4812H197.685V35.102H201.128V33.4812ZM198.495 34.2916V31.4362H196.875V34.2916H198.495ZM197.687 32.2466L257.734 32.0787L257.73 30.4579L197.683 30.6258L197.687 32.2466ZM258.696 113.664L259.704 114.588L260.799 113.393L259.792 112.469L258.696 113.664ZM259.504 113.678C257.774 117.813 255.144 120.881 251.615 122.926C248.076 124.977 243.58 126.029 238.08 126.029V127.65C243.779 127.65 248.577 126.561 252.428 124.329C256.29 122.091 259.146 118.735 260.999 114.303L259.504 113.678ZM238.08 126.029C230.21 126.029 224.031 124.05 219.456 120.175L218.409 121.411C223.352 125.598 229.938 127.65 238.08 127.65V126.029ZM219.456 120.175C214.901 116.316 212.604 111.067 212.604 104.333H210.984C210.984 111.483 213.446 117.208 218.409 121.411L219.456 120.175ZM212.604 104.333V32.1081H210.984V104.333H212.604ZM211.833 31.2986L197.724 30.6268L197.647 32.2457L211.756 32.9176L211.833 31.2986ZM197.717 32.246C206.372 31.9066 213.618 30.1227 219.415 26.8511L218.618 25.4396C213.106 28.5506 206.13 30.294 197.653 30.6265L197.717 32.246ZM219.412 26.8528C225.275 23.5761 229.463 18.9321 231.943 12.9339L230.445 12.3146C228.11 17.9619 224.179 22.332 218.621 25.4379L219.412 26.8528ZM231.194 13.4347H232.118V11.8139H231.194V13.4347ZM231.307 12.6243V101.897H232.928V12.6243H231.307ZM231.307 101.897C231.307 108.748 232.549 114.067 235.152 117.735L236.474 116.797C234.15 113.522 232.928 108.595 232.928 101.897H231.307ZM235.161 117.747C237.853 121.397 241.75 123.199 246.731 123.199V121.578C242.193 121.578 238.812 119.966 236.465 116.785L235.161 117.747ZM246.731 123.199C249.705 123.199 252.395 122.302 254.775 120.518L253.803 119.221C251.703 120.795 249.355 121.578 246.731 121.578V123.199ZM254.775 120.518C257.15 118.737 258.89 116.337 260.003 113.35L258.484 112.784C257.47 115.507 255.907 117.643 253.803 119.221L254.775 120.518ZM334.112 126L333.305 126.073L333.372 126.81H334.112V126ZM328.485 64.1052L329.292 64.0319L329.292 64.0305L328.485 64.1052ZM276.669 47.7288L275.993 47.281L275.992 47.2825L276.669 47.7288ZM273.057 53.9434V54.7538H273.584L273.798 54.2726L273.057 53.9434ZM272.217 53.9434H271.407V54.7538H272.217V53.9434ZM272.217 32.1081L272.152 31.3003L271.407 31.3603V32.1081H272.217ZM328.653 32.7799L328.882 32.0025L328.871 31.9992L328.86 31.9963L328.653 32.7799ZM341.419 41.2621L340.756 41.7288L340.764 41.7393L341.419 41.2621ZM346.71 57.5546L345.903 57.6327L345.903 57.6357L346.71 57.5546ZM352.168 111.891L352.977 111.833L352.976 111.821L352.975 111.81L352.168 111.891ZM357.879 125.664L358.604 126.026L358.925 125.384L358.326 124.988L357.879 125.664ZM357.711 126V126.81H358.212L358.436 126.362L357.711 126ZM271.546 119.869L270.982 120.451L270.985 120.454L271.546 119.869ZM271.21 79.39L270.596 78.8604L270.59 78.8673L271.21 79.39ZM334.616 51.5079H335.427V50.5099L334.45 50.7148L334.616 51.5079ZM334.616 52.3478L334.782 53.141L335.427 53.0064V52.3478H334.616ZM287.922 114.41L287.24 114.848L287.243 114.852L287.922 114.41ZM301.275 123.061V123.871L301.283 123.871L301.275 123.061ZM316.392 115.082L317.006 115.611L317.009 115.608L316.392 115.082ZM326.554 93.499L327.341 93.6932L327.341 93.6921L326.554 93.499ZM328.485 64.1052V63.2948H327.598L327.678 64.1786L328.485 64.1052ZM329.661 64.1052L330.466 64.0091L330.38 63.2948H329.661V64.1052ZM327.814 97.6981L327.034 97.4784L327.033 97.4814L327.814 97.6981ZM334.919 125.927L329.292 64.0319L327.678 64.1786L333.305 126.073L334.919 125.927ZM329.292 64.0305C328.332 53.6636 325.498 45.7621 320.688 40.4455C315.856 35.1044 309.124 32.4734 300.603 32.4734V34.0942C308.767 34.0942 315.024 36.6002 319.486 41.5329C323.971 46.4901 326.735 53.9993 327.678 64.18L329.292 64.0305ZM300.603 32.4734C290.699 32.4734 282.49 37.4784 275.993 47.281L277.344 48.1765C283.612 38.7193 291.36 34.0942 300.603 34.0942V32.4734ZM275.992 47.2825C274.25 49.9243 273.016 52.0404 272.317 53.6143L273.798 54.2726C274.442 52.8231 275.616 50.7961 277.345 48.1749L275.992 47.2825ZM273.057 53.133H272.217V54.7538H273.057V53.133ZM273.028 53.9434V32.1081H271.407V53.9434H273.028ZM272.282 32.9159C286.89 31.7406 297.921 31.1549 305.39 31.1549V29.5341C297.854 29.5341 286.771 30.1241 272.152 31.3003L272.282 32.9159ZM305.39 31.1549C314.7 31.1549 322.379 31.9639 328.447 33.5636L328.86 31.9963C322.61 30.3487 314.781 29.5341 305.39 29.5341V31.1549ZM328.425 33.5574C334 35.1973 338.084 37.9345 340.756 41.7287L342.081 40.7955C339.154 36.6395 334.728 33.7218 328.882 32.0025L328.425 33.5574ZM340.764 41.7393C343.504 45.501 345.239 50.7748 345.903 57.6327L347.516 57.4766C346.836 50.4494 345.044 44.8616 342.074 40.7849L340.764 41.7393ZM345.903 57.6357L351.362 111.972L352.975 111.81L347.516 57.4736L345.903 57.6357ZM351.36 111.949C351.869 119.013 353.802 123.94 357.432 126.34L358.326 124.988C355.35 123.021 353.476 118.766 352.977 111.833L351.36 111.949ZM357.154 125.302L356.986 125.638L358.436 126.362L358.604 126.026L357.154 125.302ZM357.711 125.19H351.832V126.81H357.711V125.19ZM351.832 125.19H334.112V126.81H351.832V125.19ZM292.709 126.869C284.205 126.869 277.363 124.324 272.106 119.284L270.985 120.454C276.59 125.828 283.856 128.49 292.709 128.49V126.869ZM272.109 119.287C266.906 114.247 264.294 107.801 264.294 99.8816H262.673C262.673 108.199 265.435 115.078 270.982 120.451L272.109 119.287ZM264.294 99.8816C264.294 92.5259 266.794 85.8781 271.829 79.9127L270.59 78.8673C265.324 85.1072 262.673 92.1205 262.673 99.8816H264.294ZM271.823 79.9195C281.88 68.2687 302.776 59.0157 334.782 52.3011L334.45 50.7148C302.406 57.4373 281.031 66.7723 270.596 78.8604L271.823 79.9195ZM333.806 51.5079V52.3478H335.427V51.5079H333.806ZM334.45 51.5545C315.388 55.5351 301.773 60.5751 293.728 66.7372L294.714 68.0239C302.457 62.0925 315.772 57.1107 334.782 53.141L334.45 51.5545ZM293.728 66.7372C285.61 72.9555 281.569 81.7448 281.569 92.9951H283.19C283.19 82.186 287.043 73.899 294.714 68.0239L293.728 66.7372ZM281.569 92.9951C281.569 101.623 283.443 108.922 287.24 114.848L288.604 113.973C285.011 108.365 283.19 101.388 283.19 92.9951H281.569ZM287.243 114.852C291.088 120.763 295.761 123.871 301.275 123.871V122.25C296.487 122.25 292.259 119.591 288.601 113.969L287.243 114.852ZM301.283 123.871C307.116 123.812 312.36 121.003 317.006 115.611L315.778 114.553C311.354 119.688 306.52 122.197 301.267 122.25L301.283 123.871ZM317.009 115.608C321.648 110.167 325.081 102.846 327.341 93.6932L325.767 93.3047C323.548 102.292 320.206 109.36 315.775 114.557L317.009 115.608ZM327.341 93.6921C329.604 84.4692 330.251 74.5805 329.292 64.0319L327.678 64.1786C328.623 74.5696 327.983 84.2766 325.767 93.3058L327.341 93.6921ZM328.485 64.9156H329.661V63.2948H328.485V64.9156ZM328.857 64.2014C330.359 76.7752 329.742 87.8619 327.034 97.4784L328.594 97.9177C331.372 88.0503 331.987 76.7418 330.466 64.0091L328.857 64.2014ZM327.033 97.4814C324.378 107.051 320.055 114.313 314.106 119.334L315.151 120.573C321.407 115.292 325.875 107.717 328.594 97.9147L327.033 97.4814ZM314.106 119.334C308.159 124.353 301.042 126.869 292.709 126.869V128.49C301.397 128.49 308.892 125.855 315.151 120.573L314.106 119.334ZM370.181 126L369.456 126.362L369.68 126.81H370.181V126ZM370.013 125.664L369.598 124.968L368.952 125.354L369.288 126.026L370.013 125.664ZM369.509 6.99747H368.699V7.63757L369.321 7.78583L369.509 6.99747ZM369.509 6.66154L369.291 5.88103L368.699 6.04654V6.66154H369.509ZM375.22 5.06588L375.041 4.27534L375.021 4.27985L375.002 4.28538L375.22 5.06588ZM394.956 0.614834H395.766V-0.398689L394.777 -0.175709L394.956 0.614834ZM399.742 125.664L400.467 126.026L400.804 125.354L400.158 124.968L399.742 125.664ZM399.575 126V126.81H400.075L400.299 126.362L399.575 126ZM393.78 125.19H376.06V126.81H393.78V125.19ZM376.06 125.19H370.181V126.81H376.06V125.19ZM370.906 125.638L370.738 125.302L369.288 126.026L369.456 126.362L370.906 125.638ZM370.428 126.36C374.027 124.214 375.61 119.194 375.61 111.891H373.989C373.989 119.145 372.382 123.307 369.598 124.968L370.428 126.36ZM375.61 111.891V19.1749H373.989V111.891H375.61ZM375.61 19.1749C375.61 15.4872 375.166 12.5252 374.22 10.3487C373.262 8.14294 371.764 6.70128 369.697 6.20911L369.321 7.78583C370.781 8.13347 371.929 9.14128 372.734 10.9946C373.552 12.8773 373.989 15.5841 373.989 19.1749H375.61ZM370.319 6.99747V6.66154H368.699V6.99747H370.319ZM369.727 7.44204L375.438 5.84638L375.002 4.28538L369.291 5.88103L369.727 7.44204ZM375.398 5.85642L395.134 1.40537L394.777 -0.175709L375.041 4.27534L375.398 5.85642ZM394.145 0.614834V111.891H395.766V0.614834H394.145ZM394.145 111.891C394.145 119.194 395.729 124.214 399.327 126.36L400.158 124.968C397.374 123.307 395.766 119.145 395.766 111.891H394.145ZM399.018 125.302L398.85 125.638L400.299 126.362L400.467 126.026L399.018 125.302ZM399.575 125.19H393.78V126.81H399.575V125.19ZM492.499 113.655L491.917 113.09L492.499 113.655ZM423.718 114.494L423.135 115.058L423.137 115.06L423.718 114.494ZM424.306 44.1175L423.725 43.5516L423.724 43.5534L424.306 44.1175ZM482.505 62.8455L483.264 62.5605L483.262 62.5559L482.505 62.8455ZM468.816 41.0942L468.252 41.6759L468.255 41.6787L468.816 41.0942ZM435.055 41.682L434.38 41.234L434.377 41.2386L435.055 41.682ZM434.383 94.8427L433.62 95.1152L433.621 95.1167L434.383 94.8427ZM447.401 117.182L446.816 117.743L446.819 117.746L447.401 117.182ZM491.917 113.09C483.013 122.269 471.64 126.869 457.73 126.869V128.49C472.038 128.49 483.844 123.74 493.081 114.219L491.917 113.09ZM457.73 126.869C443.804 126.869 432.688 122.539 424.298 113.929L423.137 115.06C431.879 124.03 443.438 128.49 457.73 128.49V126.869ZM424.3 113.931C415.961 105.318 411.763 93.9441 411.763 79.7259H410.142C410.142 94.2855 414.453 106.091 423.135 115.058L424.3 113.931ZM411.763 79.7259C411.763 65.3481 416.152 53.6913 424.887 44.6816L423.724 43.5534C414.654 52.9079 410.142 64.9899 410.142 79.7259H411.763ZM424.886 44.6834C433.673 35.6761 445.072 31.1549 459.158 31.1549V29.5341C444.69 29.5341 432.854 34.1948 423.725 43.5516L424.886 44.6834ZM459.158 31.1549C473.14 31.1549 484.282 35.513 492.673 44.1774L493.837 43.0499C485.095 34.022 473.507 29.5341 459.158 29.5341V31.1549ZM492.673 44.1774C501.073 52.8526 505.294 64.0066 505.294 77.7103H506.914C506.914 63.644 502.569 52.0669 493.837 43.0499L492.673 44.1774ZM505.294 77.7103C505.294 92.1404 500.822 103.91 491.917 113.09L493.081 114.219C502.316 104.699 506.914 92.506 506.914 77.7103H505.294ZM464.785 126.307C472.069 126.307 477.883 123.108 482.168 116.797L480.827 115.887C476.825 121.782 471.498 124.686 464.785 124.686V126.307ZM482.168 116.797C486.432 110.515 488.522 102.079 488.522 91.5674H486.902C486.902 101.883 484.848 109.963 480.827 115.887L482.168 116.797ZM488.522 91.5674C488.522 81.5605 486.769 71.89 483.264 62.5605L481.746 63.1306C485.183 72.2771 486.902 81.7544 486.902 91.5674H488.522ZM483.262 62.5559C479.758 53.4003 475.136 46.0405 469.377 40.5097L468.255 41.6787C473.805 47.0095 478.31 54.1506 481.748 63.1352L483.262 62.5559ZM469.38 40.5125C463.674 34.9775 457.631 32.1375 451.264 32.1375V33.7583C457.102 33.7583 462.76 36.3491 468.252 41.6759L469.38 40.5125ZM451.264 32.1375C444.047 32.1375 438.392 35.1867 434.38 41.234L435.731 42.1301C439.445 36.5319 444.595 33.7583 451.264 33.7583V32.1375ZM434.377 41.2386C430.453 47.2405 428.534 55.3937 428.534 65.6169H430.155C430.155 55.5725 432.043 47.7691 435.734 42.1255L434.377 41.2386ZM428.534 65.6169C428.534 75.7868 430.229 85.621 433.62 95.1152L435.147 94.5701C431.819 85.2524 430.155 75.6027 430.155 65.6169H428.534ZM433.621 95.1167C437.008 104.544 441.399 112.098 446.816 117.743L447.985 116.621C442.765 111.18 438.478 103.842 435.146 94.5686L433.621 95.1167ZM446.819 117.746C452.307 123.406 458.3 126.307 464.785 126.307V124.686C458.84 124.686 453.244 122.044 447.982 116.618L446.819 117.746ZM532.095 94.1708L531.555 94.7756L531.56 94.7796L532.095 94.1708ZM532.179 41.2621L532.723 41.8624L532.726 41.8602L532.179 41.2621ZM585.423 31.1003L585.392 31.9101L585.401 31.9105L585.411 31.9106L585.423 31.1003ZM606.755 31.4362L606.735 32.2464L606.745 32.2466H606.755V31.4362ZM611.962 31.4362L612.761 31.567L612.915 30.6258H611.962V31.4362ZM610.534 40.1704L610.34 40.9571L611.192 41.1678L611.334 40.3011L610.534 40.1704ZM576.353 32.9479L576.47 32.146L575.543 32.0108V32.9479H576.353ZM576.353 33.1159H575.543V33.7377L576.144 33.8987L576.353 33.1159ZM596.509 45.5452L595.88 46.0565L595.883 46.0594L596.509 45.5452ZM591.89 93.7509L592.433 94.3528L592.435 94.3507L591.89 93.7509ZM535.37 157.829L535.134 158.605L535.144 158.608L535.154 158.61L535.37 157.829ZM522.185 139.437H522.995V138.627H522.185V139.437ZM526.3 148.171L526.905 147.632L526.897 147.623L526.89 147.615L526.3 148.171ZM540.241 155.646L540.467 154.867L540.463 154.866L540.241 155.646ZM590.462 153.126L590.083 152.41L590.078 152.412L590.462 153.126ZM563.084 132.215L562.939 131.417L562.925 131.42L563.084 132.215ZM528.4 130.787L528.887 130.14L528.886 130.139L528.4 130.787ZM528.4 107.272L527.806 106.721L527.802 106.725L528.4 107.272ZM543.852 97.782L544.527 97.3325L544.174 96.804L543.577 97.0199L543.852 97.782ZM544.188 98.2859L544.56 99.0059L545.365 98.5901L544.862 97.8364L544.188 98.2859ZM536.714 103.745L536.097 103.219L536.096 103.22L536.714 103.745ZM568.123 116.006L568.292 116.799L568.3 116.797L568.308 116.795L568.123 116.006ZM605.495 117.77L604.941 118.361L604.946 118.366L605.495 117.77ZM604.739 145.568L605.33 146.123L605.337 146.115L605.345 146.107L604.739 145.568ZM586.095 156.401L585.845 155.631L585.839 155.633L586.095 156.401ZM582.232 95.6825L581.565 95.2226L581.561 95.2288L582.232 95.6825ZM582.316 56.8828L581.559 57.1725L581.561 57.1777L582.316 56.8828ZM570.727 39.4145L570.178 40.0108L570.185 40.0172L570.727 39.4145ZM541.921 38.9106L541.271 38.4258L541.267 38.4314L541.921 38.9106ZM537.302 55.1192L538.112 55.1249V55.1192H537.302ZM541.669 77.7943L540.919 78.1023L540.92 78.1043L541.669 77.7943ZM553.846 95.2626L553.314 95.8741L553.318 95.8774L553.846 95.2626ZM561.74 103.69C549.982 103.69 540.299 100.3 532.63 93.562L531.56 94.7796C539.567 101.815 549.648 105.311 561.74 105.311V103.69ZM532.634 93.5661C525.023 86.7761 521.232 78.3454 521.232 68.2204H519.611C519.611 78.8109 523.602 87.6805 531.555 94.7755L532.634 93.5661ZM521.232 68.2204C521.232 57.5805 525.059 48.8147 532.723 41.8624L531.634 40.6619C523.622 47.9305 519.611 57.1369 519.611 68.2204H521.232ZM532.726 41.8602C540.391 34.852 550.263 31.3228 562.412 31.3228V29.702C549.927 29.702 539.643 33.3394 531.632 40.664L532.726 41.8602ZM562.412 31.3228C567.771 31.3228 575.429 31.5183 585.392 31.9101L585.455 30.2905C575.486 29.8985 567.803 29.702 562.412 29.702V31.3228ZM585.411 31.9106C588.995 31.9666 592.886 32.0226 597.086 32.0786L597.108 30.4579C592.909 30.402 589.019 30.346 585.436 30.29L585.411 31.9106ZM597.086 32.0786C601.284 32.1346 604.5 32.1905 606.735 32.2464L606.775 30.6261C604.531 30.57 601.308 30.5139 597.108 30.4579L597.086 32.0786ZM606.755 32.2466C606.759 32.2466 606.764 32.2466 606.768 32.2466C606.773 32.2466 606.777 32.2466 606.782 32.2466C606.786 32.2466 606.791 32.2466 606.795 32.2466C606.8 32.2466 606.804 32.2466 606.809 32.2466C606.813 32.2466 606.817 32.2466 606.822 32.2466C606.826 32.2466 606.831 32.2466 606.835 32.2466C606.84 32.2466 606.844 32.2466 606.849 32.2466C606.853 32.2466 606.858 32.2466 606.862 32.2466C606.866 32.2466 606.871 32.2466 606.875 32.2466C606.88 32.2466 606.884 32.2466 606.889 32.2466C606.893 32.2466 606.898 32.2466 606.902 32.2466C606.906 32.2466 606.911 32.2466 606.915 32.2466C606.92 32.2466 606.924 32.2466 606.929 32.2466C606.933 32.2466 606.937 32.2466 606.942 32.2466C606.946 32.2466 606.951 32.2466 606.955 32.2466C606.96 32.2466 606.964 32.2466 606.968 32.2466C606.973 32.2466 606.977 32.2466 606.982 32.2466C606.986 32.2466 606.99 32.2466 606.995 32.2466C606.999 32.2466 607.004 32.2466 607.008 32.2466C607.012 32.2466 607.017 32.2466 607.021 32.2466C607.026 32.2466 607.03 32.2466 607.034 32.2466C607.039 32.2466 607.043 32.2466 607.048 32.2466C607.052 32.2466 607.056 32.2466 607.061 32.2466C607.065 32.2466 607.07 32.2466 607.074 32.2466C607.078 32.2466 607.083 32.2466 607.087 32.2466C607.091 32.2466 607.096 32.2466 607.1 32.2466C607.105 32.2466 607.109 32.2466 607.113 32.2466C607.118 32.2466 607.122 32.2466 607.126 32.2466C607.131 32.2466 607.135 32.2466 607.139 32.2466C607.144 32.2466 607.148 32.2466 607.153 32.2466C607.157 32.2466 607.161 32.2466 607.166 32.2466C607.17 32.2466 607.174 32.2466 607.179 32.2466C607.183 32.2466 607.187 32.2466 607.192 32.2466C607.196 32.2466 607.2 32.2466 607.205 32.2466C607.209 32.2466 607.213 32.2466 607.218 32.2466C607.222 32.2466 607.226 32.2466 607.231 32.2466C607.235 32.2466 607.239 32.2466 607.244 32.2466C607.248 32.2466 607.252 32.2466 607.257 32.2466C607.261 32.2466 607.265 32.2466 607.27 32.2466C607.274 32.2466 607.278 32.2466 607.283 32.2466C607.287 32.2466 607.291 32.2466 607.296 32.2466C607.3 32.2466 607.304 32.2466 607.308 32.2466C607.313 32.2466 607.317 32.2466 607.321 32.2466C607.326 32.2466 607.33 32.2466 607.334 32.2466C607.339 32.2466 607.343 32.2466 607.347 32.2466C607.351 32.2466 607.356 32.2466 607.36 32.2466C607.364 32.2466 607.369 32.2466 607.373 32.2466C607.377 32.2466 607.381 32.2466 607.386 32.2466C607.39 32.2466 607.394 32.2466 607.398 32.2466C607.403 32.2466 607.407 32.2466 607.411 32.2466C607.416 32.2466 607.42 32.2466 607.424 32.2466C607.428 32.2466 607.433 32.2466 607.437 32.2466C607.441 32.2466 607.445 32.2466 607.45 32.2466C607.454 32.2466 607.458 32.2466 607.462 32.2466C607.467 32.2466 607.471 32.2466 607.475 32.2466C607.479 32.2466 607.484 32.2466 607.488 32.2466C607.492 32.2466 607.496 32.2466 607.501 32.2466C607.505 32.2466 607.509 32.2466 607.513 32.2466C607.518 32.2466 607.522 32.2466 607.526 32.2466C607.53 32.2466 607.535 32.2466 607.539 32.2466C607.543 32.2466 607.547 32.2466 607.551 32.2466C607.556 32.2466 607.56 32.2466 607.564 32.2466C607.568 32.2466 607.573 32.2466 607.577 32.2466C607.581 32.2466 607.585 32.2466 607.589 32.2466C607.594 32.2466 607.598 32.2466 607.602 32.2466C607.606 32.2466 607.61 32.2466 607.615 32.2466C607.619 32.2466 607.623 32.2466 607.627 32.2466C607.631 32.2466 607.636 32.2466 607.64 32.2466C607.644 32.2466 607.648 32.2466 607.652 32.2466C607.657 32.2466 607.661 32.2466 607.665 32.2466C607.669 32.2466 607.673 32.2466 607.677 32.2466C607.682 32.2466 607.686 32.2466 607.69 32.2466C607.694 32.2466 607.698 32.2466 607.703 32.2466C607.707 32.2466 607.711 32.2466 607.715 32.2466C607.719 32.2466 607.723 32.2466 607.728 32.2466C607.732 32.2466 607.736 32.2466 607.74 32.2466C607.744 32.2466 607.748 32.2466 607.753 32.2466C607.757 32.2466 607.761 32.2466 607.765 32.2466C607.769 32.2466 607.773 32.2466 607.777 32.2466C607.782 32.2466 607.786 32.2466 607.79 32.2466C607.794 32.2466 607.798 32.2466 607.802 32.2466C607.806 32.2466 607.811 32.2466 607.815 32.2466C607.819 32.2466 607.823 32.2466 607.827 32.2466C607.831 32.2466 607.835 32.2466 607.839 32.2466C607.844 32.2466 607.848 32.2466 607.852 32.2466C607.856 32.2466 607.86 32.2466 607.864 32.2466C607.868 32.2466 607.872 32.2466 607.876 32.2466C607.881 32.2466 607.885 32.2466 607.889 32.2466C607.893 32.2466 607.897 32.2466 607.901 32.2466C607.905 32.2466 607.909 32.2466 607.913 32.2466C607.918 32.2466 607.922 32.2466 607.926 32.2466C607.93 32.2466 607.934 32.2466 607.938 32.2466C607.942 32.2466 607.946 32.2466 607.95 32.2466C607.954 32.2466 607.958 32.2466 607.963 32.2466C607.967 32.2466 607.971 32.2466 607.975 32.2466C607.979 32.2466 607.983 32.2466 607.987 32.2466C607.991 32.2466 607.995 32.2466 607.999 32.2466C608.003 32.2466 608.007 32.2466 608.011 32.2466C608.015 32.2466 608.02 32.2466 608.024 32.2466C608.028 32.2466 608.032 32.2466 608.036 32.2466C608.04 32.2466 608.044 32.2466 608.048 32.2466C608.052 32.2466 608.056 32.2466 608.06 32.2466C608.064 32.2466 608.068 32.2466 608.072 32.2466C608.076 32.2466 608.08 32.2466 608.084 32.2466C608.088 32.2466 608.092 32.2466 608.096 32.2466C608.1 32.2466 608.104 32.2466 608.109 32.2466C608.113 32.2466 608.117 32.2466 608.121 32.2466C608.125 32.2466 608.129 32.2466 608.133 32.2466C608.137 32.2466 608.141 32.2466 608.145 32.2466C608.149 32.2466 608.153 32.2466 608.157 32.2466C608.161 32.2466 608.165 32.2466 608.169 32.2466C608.173 32.2466 608.177 32.2466 608.181 32.2466C608.185 32.2466 608.189 32.2466 608.193 32.2466C608.197 32.2466 608.201 32.2466 608.205 32.2466C608.209 32.2466 608.213 32.2466 608.217 32.2466C608.221 32.2466 608.225 32.2466 608.229 32.2466C608.233 32.2466 608.237 32.2466 608.241 32.2466C608.245 32.2466 608.249 32.2466 608.253 32.2466C608.257 32.2466 608.261 32.2466 608.265 32.2466C608.269 32.2466 608.273 32.2466 608.277 32.2466C608.281 32.2466 608.285 32.2466 608.289 32.2466C608.292 32.2466 608.296 32.2466 608.3 32.2466C608.304 32.2466 608.308 32.2466 608.312 32.2466C608.316 32.2466 608.32 32.2466 608.324 32.2466C608.328 32.2466 608.332 32.2466 608.336 32.2466C608.34 32.2466 608.344 32.2466 608.348 32.2466C608.352 32.2466 608.356 32.2466 608.36 32.2466C608.364 32.2466 608.368 32.2466 608.371 32.2466C608.375 32.2466 608.379 32.2466 608.383 32.2466C608.387 32.2466 608.391 32.2466 608.395 32.2466C608.399 32.2466 608.403 32.2466 608.407 32.2466C608.411 32.2466 608.415 32.2466 608.419 32.2466C608.423 32.2466 608.426 32.2466 608.43 32.2466C608.434 32.2466 608.438 32.2466 608.442 32.2466C608.446 32.2466 608.45 32.2466 608.454 32.2466C608.458 32.2466 608.462 32.2466 608.466 32.2466C608.469 32.2466 608.473 32.2466 608.477 32.2466C608.481 32.2466 608.485 32.2466 608.489 32.2466C608.493 32.2466 608.497 32.2466 608.501 32.2466C608.505 32.2466 608.508 32.2466 608.512 32.2466C608.516 32.2466 608.52 32.2466 608.524 32.2466C608.528 32.2466 608.532 32.2466 608.536 32.2466C608.539 32.2466 608.543 32.2466 608.547 32.2466C608.551 32.2466 608.555 32.2466 608.559 32.2466C608.563 32.2466 608.567 32.2466 608.57 32.2466C608.574 32.2466 608.578 32.2466 608.582 32.2466C608.586 32.2466 608.59 32.2466 608.594 32.2466C608.597 32.2466 608.601 32.2466 608.605 32.2466C608.609 32.2466 608.613 32.2466 608.617 32.2466C608.62 32.2466 608.624 32.2466 608.628 32.2466C608.632 32.2466 608.636 32.2466 608.64 32.2466C608.644 32.2466 608.647 32.2466 608.651 32.2466C608.655 32.2466 608.659 32.2466 608.663 32.2466C608.667 32.2466 608.67 32.2466 608.674 32.2466C608.678 32.2466 608.682 32.2466 608.686 32.2466C608.69 32.2466 608.693 32.2466 608.697 32.2466C608.701 32.2466 608.705 32.2466 608.709 32.2466C608.712 32.2466 608.716 32.2466 608.72 32.2466C608.724 32.2466 608.728 32.2466 608.731 32.2466C608.735 32.2466 608.739 32.2466 608.743 32.2466C608.747 32.2466 608.75 32.2466 608.754 32.2466C608.758 32.2466 608.762 32.2466 608.766 32.2466C608.769 32.2466 608.773 32.2466 608.777 32.2466C608.781 32.2466 608.785 32.2466 608.788 32.2466C608.792 32.2466 608.796 32.2466 608.8 32.2466C608.803 32.2466 608.807 32.2466 608.811 32.2466C608.815 32.2466 608.819 32.2466 608.822 32.2466C608.826 32.2466 608.83 32.2466 608.834 32.2466C608.837 32.2466 608.841 32.2466 608.845 32.2466C608.849 32.2466 608.852 32.2466 608.856 32.2466C608.86 32.2466 608.864 32.2466 608.867 32.2466C608.871 32.2466 608.875 32.2466 608.879 32.2466C608.882 32.2466 608.886 32.2466 608.89 32.2466C608.894 32.2466 608.897 32.2466 608.901 32.2466C608.905 32.2466 608.909 32.2466 608.912 32.2466C608.916 32.2466 608.92 32.2466 608.924 32.2466C608.927 32.2466 608.931 32.2466 608.935 32.2466C608.938 32.2466 608.942 32.2466 608.946 32.2466C608.95 32.2466 608.953 32.2466 608.957 32.2466C608.961 32.2466 608.965 32.2466 608.968 32.2466C608.972 32.2466 608.976 32.2466 608.979 32.2466C608.983 32.2466 608.987 32.2466 608.991 32.2466C608.994 32.2466 608.998 32.2466 609.002 32.2466C609.005 32.2466 609.009 32.2466 609.013 32.2466C609.016 32.2466 609.02 32.2466 609.024 32.2466C609.028 32.2466 609.031 32.2466 609.035 32.2466C609.039 32.2466 609.042 32.2466 609.046 32.2466C609.05 32.2466 609.053 32.2466 609.057 32.2466C609.061 32.2466 609.064 32.2466 609.068 32.2466C609.072 32.2466 609.075 32.2466 609.079 32.2466C609.083 32.2466 609.086 32.2466 609.09 32.2466C609.094 32.2466 609.097 32.2466 609.101 32.2466C609.105 32.2466 609.108 32.2466 609.112 32.2466C609.116 32.2466 609.119 32.2466 609.123 32.2466C609.127 32.2466 609.13 32.2466 609.134 32.2466C609.138 32.2466 609.141 32.2466 609.145 32.2466C609.149 32.2466 609.152 32.2466 609.156 32.2466C609.159 32.2466 609.163 32.2466 609.167 32.2466C609.17 32.2466 609.174 32.2466 609.178 32.2466C609.181 32.2466 609.185 32.2466 609.189 32.2466C609.192 32.2466 609.196 32.2466 609.199 32.2466C609.203 32.2466 609.207 32.2466 609.21 32.2466C609.214 32.2466 609.218 32.2466 609.221 32.2466C609.225 32.2466 609.228 32.2466 609.232 32.2466C609.236 32.2466 609.239 32.2466 609.243 32.2466C609.246 32.2466 609.25 32.2466 609.254 32.2466C609.257 32.2466 609.261 32.2466 609.264 32.2466C609.268 32.2466 609.272 32.2466 609.275 32.2466C609.279 32.2466 609.282 32.2466 609.286 32.2466C609.29 32.2466 609.293 32.2466 609.297 32.2466C609.3 32.2466 609.304 32.2466 609.308 32.2466C609.311 32.2466 609.315 32.2466 609.318 32.2466C609.322 32.2466 609.325 32.2466 609.329 32.2466C609.333 32.2466 609.336 32.2466 609.34 32.2466C609.343 32.2466 609.347 32.2466 609.35 32.2466C609.354 32.2466 609.358 32.2466 609.361 32.2466C609.365 32.2466 609.368 32.2466 609.372 32.2466C609.375 32.2466 609.379 32.2466 609.382 32.2466C609.386 32.2466 609.39 32.2466 609.393 32.2466C609.397 32.2466 609.4 32.2466 609.404 32.2466C609.407 32.2466 609.411 32.2466 609.414 32.2466C609.418 32.2466 609.421 32.2466 609.425 32.2466C609.429 32.2466 609.432 32.2466 609.436 32.2466C609.439 32.2466 609.443 32.2466 609.446 32.2466C609.45 32.2466 609.453 32.2466 609.457 32.2466C609.46 32.2466 609.464 32.2466 609.467 32.2466C609.471 32.2466 609.474 32.2466 609.478 32.2466C609.481 32.2466 609.485 32.2466 609.488 32.2466C609.492 32.2466 609.495 32.2466 609.499 32.2466C609.502 32.2466 609.506 32.2466 609.509 32.2466C609.513 32.2466 609.516 32.2466 609.52 32.2466C609.523 32.2466 609.527 32.2466 609.53 32.2466C609.534 32.2466 609.537 32.2466 609.541 32.2466C609.544 32.2466 609.548 32.2466 609.551 32.2466C609.555 32.2466 609.558 32.2466 609.562 32.2466C609.565 32.2466 609.569 32.2466 609.572 32.2466C609.576 32.2466 609.579 32.2466 609.583 32.2466C609.586 32.2466 609.59 32.2466 609.593 32.2466C609.596 32.2466 609.6 32.2466 609.603 32.2466C609.607 32.2466 609.61 32.2466 609.614 32.2466C609.617 32.2466 609.621 32.2466 609.624 32.2466C609.628 32.2466 609.631 32.2466 609.635 32.2466C609.638 32.2466 609.641 32.2466 609.645 32.2466C609.648 32.2466 609.652 32.2466 609.655 32.2466C609.659 32.2466 609.662 32.2466 609.666 32.2466C609.669 32.2466 609.672 32.2466 609.676 32.2466C609.679 32.2466 609.683 32.2466 609.686 32.2466C609.69 32.2466 609.693 32.2466 609.696 32.2466C609.7 32.2466 609.703 32.2466 609.707 32.2466C609.71 32.2466 609.714 32.2466 609.717 32.2466C609.72 32.2466 609.724 32.2466 609.727 32.2466C609.731 32.2466 609.734 32.2466 609.737 32.2466C609.741 32.2466 609.744 32.2466 609.748 32.2466C609.751 32.2466 609.754 32.2466 609.758 32.2466C609.761 32.2466 609.765 32.2466 609.768 32.2466C609.771 32.2466 609.775 32.2466 609.778 32.2466C609.782 32.2466 609.785 32.2466 609.788 32.2466C609.792 32.2466 609.795 32.2466 609.798 32.2466C609.802 32.2466 609.805 32.2466 609.809 32.2466C609.812 32.2466 609.815 32.2466 609.819 32.2466C609.822 32.2466 609.826 32.2466 609.829 32.2466C609.832 32.2466 609.836 32.2466 609.839 32.2466C609.842 32.2466 609.846 32.2466 609.849 32.2466C609.852 32.2466 609.856 32.2466 609.859 32.2466C609.862 32.2466 609.866 32.2466 609.869 32.2466C609.872 32.2466 609.876 32.2466 609.879 32.2466C609.883 32.2466 609.886 32.2466 609.889 32.2466C609.893 32.2466 609.896 32.2466 609.899 32.2466C609.903 32.2466 609.906 32.2466 609.909 32.2466C609.913 32.2466 609.916 32.2466 609.919 32.2466C609.923 32.2466 609.926 32.2466 609.929 32.2466C609.933 32.2466 609.936 32.2466 609.939 32.2466C609.943 32.2466 609.946 32.2466 609.949 32.2466C609.953 32.2466 609.956 32.2466 609.959 32.2466C609.962 32.2466 609.966 32.2466 609.969 32.2466C609.972 32.2466 609.976 32.2466 609.979 32.2466C609.982 32.2466 609.986 32.2466 609.989 32.2466C609.992 32.2466 609.995 32.2466 609.999 32.2466C610.002 32.2466 610.005 32.2466 610.009 32.2466C610.012 32.2466 610.015 32.2466 610.019 32.2466C610.022 32.2466 610.025 32.2466 610.028 32.2466C610.032 32.2466 610.035 32.2466 610.038 32.2466C610.042 32.2466 610.045 32.2466 610.048 32.2466C610.051 32.2466 610.055 32.2466 610.058 32.2466C610.061 32.2466 610.064 32.2466 610.068 32.2466C610.071 32.2466 610.074 32.2466 610.078 32.2466C610.081 32.2466 610.084 32.2466 610.087 32.2466C610.091 32.2466 610.094 32.2466 610.097 32.2466C610.1 32.2466 610.104 32.2466 610.107 32.2466C610.11 32.2466 610.113 32.2466 610.117 32.2466C610.12 32.2466 610.123 32.2466 610.126 32.2466C610.13 32.2466 610.133 32.2466 610.136 32.2466C610.139 32.2466 610.142 32.2466 610.146 32.2466C610.149 32.2466 610.152 32.2466 610.155 32.2466C610.159 32.2466 610.162 32.2466 610.165 32.2466C610.168 32.2466 610.172 32.2466 610.175 32.2466C610.178 32.2466 610.181 32.2466 610.184 32.2466C610.188 32.2466 610.191 32.2466 610.194 32.2466C610.197 32.2466 610.2 32.2466 610.204 32.2466C610.207 32.2466 610.21 32.2466 610.213 32.2466C610.216 32.2466 610.22 32.2466 610.223 32.2466C610.226 32.2466 610.229 32.2466 610.232 32.2466C610.236 32.2466 610.239 32.2466 610.242 32.2466C610.245 32.2466 610.248 32.2466 610.252 32.2466C610.255 32.2466 610.258 32.2466 610.261 32.2466C610.264 32.2466 610.267 32.2466 610.271 32.2466C610.274 32.2466 610.277 32.2466 610.28 32.2466C610.283 32.2466 610.286 32.2466 610.29 32.2466C610.293 32.2466 610.296 32.2466 610.299 32.2466C610.302 32.2466 610.305 32.2466 610.309 32.2466C610.312 32.2466 610.315 32.2466 610.318 32.2466C610.321 32.2466 610.324 32.2466 610.328 32.2466C610.331 32.2466 610.334 32.2466 610.337 32.2466C610.34 32.2466 610.343 32.2466 610.346 32.2466C610.35 32.2466 610.353 32.2466 610.356 32.2466C610.359 32.2466 610.362 32.2466 610.365 32.2466C610.368 32.2466 610.372 32.2466 610.375 32.2466C610.378 32.2466 610.381 32.2466 610.384 32.2466C610.387 32.2466 610.39 32.2466 610.393 32.2466C610.397 32.2466 610.4 32.2466 610.403 32.2466C610.406 32.2466 610.409 32.2466 610.412 32.2466C610.415 32.2466 610.418 32.2466 610.421 32.2466C610.425 32.2466 610.428 32.2466 610.431 32.2466C610.434 32.2466 610.437 32.2466 610.44 32.2466C610.443 32.2466 610.446 32.2466 610.449 32.2466C610.452 32.2466 610.456 32.2466 610.459 32.2466C610.462 32.2466 610.465 32.2466 610.468 32.2466C610.471 32.2466 610.474 32.2466 610.477 32.2466C610.48 32.2466 610.483 32.2466 610.486 32.2466C610.49 32.2466 610.493 32.2466 610.496 32.2466C610.499 32.2466 610.502 32.2466 610.505 32.2466C610.508 32.2466 610.511 32.2466 610.514 32.2466C610.517 32.2466 610.52 32.2466 610.523 32.2466C610.526 32.2466 610.529 32.2466 610.532 32.2466C610.535 32.2466 610.539 32.2466 610.542 32.2466C610.545 32.2466 610.548 32.2466 610.551 32.2466C610.554 32.2466 610.557 32.2466 610.56 32.2466C610.563 32.2466 610.566 32.2466 610.569 32.2466C610.572 32.2466 610.575 32.2466 610.578 32.2466C610.581 32.2466 610.584 32.2466 610.587 32.2466C610.59 32.2466 610.593 32.2466 610.596 32.2466C610.599 32.2466 610.602 32.2466 610.605 32.2466C610.608 32.2466 610.611 32.2466 610.614 32.2466C610.617 32.2466 610.62 32.2466 610.623 32.2466C610.626 32.2466 610.63 32.2466 610.633 32.2466C610.635 32.2466 610.639 32.2466 610.642 32.2466C610.645 32.2466 610.648 32.2466 610.651 32.2466C610.654 32.2466 610.657 32.2466 610.66 32.2466C610.663 32.2466 610.666 32.2466 610.669 32.2466C610.672 32.2466 610.674 32.2466 610.677 32.2466C610.68 32.2466 610.683 32.2466 610.686 32.2466C610.689 32.2466 610.692 32.2466 610.695 32.2466C610.698 32.2466 610.701 32.2466 610.704 32.2466C610.707 32.2466 610.71 32.2466 610.713 32.2466C610.716 32.2466 610.719 32.2466 610.722 32.2466C610.725 32.2466 610.728 32.2466 610.731 32.2466C610.734 32.2466 610.737 32.2466 610.74 32.2466C610.743 32.2466 610.746 32.2466 610.749 32.2466C610.752 32.2466 610.755 32.2466 610.758 32.2466C610.761 32.2466 610.764 32.2466 610.767 32.2466C610.769 32.2466 610.772 32.2466 610.775 32.2466C610.778 32.2466 610.781 32.2466 610.784 32.2466C610.787 32.2466 610.79 32.2466 610.793 32.2466C610.796 32.2466 610.799 32.2466 610.802 32.2466C610.805 32.2466 610.808 32.2466 610.811 32.2466C610.813 32.2466 610.816 32.2466 610.819 32.2466C610.822 32.2466 610.825 32.2466 610.828 32.2466C610.831 32.2466 610.834 32.2466 610.837 32.2466C610.84 32.2466 610.843 32.2466 610.846 32.2466C610.848 32.2466 610.851 32.2466 610.854 32.2466C610.857 32.2466 610.86 32.2466 610.863 32.2466C610.866 32.2466 610.869 32.2466 610.872 32.2466C610.875 32.2466 610.877 32.2466 610.88 32.2466C610.883 32.2466 610.886 32.2466 610.889 32.2466C610.892 32.2466 610.895 32.2466 610.898 32.2466C610.901 32.2466 610.903 32.2466 610.906 32.2466C610.909 32.2466 610.912 32.2466 610.915 32.2466C610.918 32.2466 610.921 32.2466 610.924 32.2466C610.926 32.2466 610.929 32.2466 610.932 32.2466C610.935 32.2466 610.938 32.2466 610.941 32.2466C610.944 32.2466 610.946 32.2466 610.949 32.2466C610.952 32.2466 610.955 32.2466 610.958 32.2466C610.961 32.2466 610.964 32.2466 610.966 32.2466C610.969 32.2466 610.972 32.2466 610.975 32.2466C610.978 32.2466 610.981 32.2466 610.983 32.2466C610.986 32.2466 610.989 32.2466 610.992 32.2466C610.995 32.2466 610.998 32.2466 611 32.2466C611.003 32.2466 611.006 32.2466 611.009 32.2466C611.012 32.2466 611.015 32.2466 611.017 32.2466C611.02 32.2466 611.023 32.2466 611.026 32.2466C611.029 32.2466 611.031 32.2466 611.034 32.2466C611.037 32.2466 611.04 32.2466 611.043 32.2466C611.046 32.2466 611.048 32.2466 611.051 32.2466C611.054 32.2466 611.057 32.2466 611.06 32.2466C611.062 32.2466 611.065 32.2466 611.068 32.2466C611.071 32.2466 611.074 32.2466 611.076 32.2466C611.079 32.2466 611.082 32.2466 611.085 32.2466C611.088 32.2466 611.09 32.2466 611.093 32.2466C611.096 32.2466 611.099 32.2466 611.101 32.2466C611.104 32.2466 611.107 32.2466 611.11 32.2466C611.112 32.2466 611.115 32.2466 611.118 32.2466C611.121 32.2466 611.124 32.2466 611.126 32.2466C611.129 32.2466 611.132 32.2466 611.135 32.2466C611.137 32.2466 611.14 32.2466 611.143 32.2466C611.146 32.2466 611.148 32.2466 611.151 32.2466C611.154 32.2466 611.157 32.2466 611.159 32.2466C611.162 32.2466 611.165 32.2466 611.168 32.2466C611.17 32.2466 611.173 32.2466 611.176 32.2466C611.179 32.2466 611.181 32.2466 611.184 32.2466C611.187 32.2466 611.19 32.2466 611.192 32.2466C611.195 32.2466 611.198 32.2466 611.201 32.2466C611.203 32.2466 611.206 32.2466 611.209 32.2466C611.211 32.2466 611.214 32.2466 611.217 32.2466C611.22 32.2466 611.222 32.2466 611.225 32.2466C611.228 32.2466 611.23 32.2466 611.233 32.2466C611.236 32.2466 611.239 32.2466 611.241 32.2466C611.244 32.2466 611.247 32.2466 611.249 32.2466C611.252 32.2466 611.255 32.2466 611.258 32.2466C611.26 32.2466 611.263 32.2466 611.266 32.2466C611.268 32.2466 611.271 32.2466 611.274 32.2466C611.276 32.2466 611.279 32.2466 611.282 32.2466C611.284 32.2466 611.287 32.2466 611.29 32.2466C611.292 32.2466 611.295 32.2466 611.298 32.2466C611.3 32.2466 611.303 32.2466 611.306 32.2466C611.309 32.2466 611.311 32.2466 611.314 32.2466C611.317 32.2466 611.319 32.2466 611.322 32.2466C611.325 32.2466 611.327 32.2466 611.33 32.2466C611.332 32.2466 611.335 32.2466 611.338 32.2466C611.34 32.2466 611.343 32.2466 611.346 32.2466C611.348 32.2466 611.351 32.2466 611.354 32.2466C611.356 32.2466 611.359 32.2466 611.362 32.2466C611.364 32.2466 611.367 32.2466 611.37 32.2466C611.372 32.2466 611.375 32.2466 611.377 32.2466C611.38 32.2466 611.383 32.2466 611.385 32.2466C611.388 32.2466 611.391 32.2466 611.393 32.2466C611.396 32.2466 611.398 32.2466 611.401 32.2466C611.404 32.2466 611.406 32.2466 611.409 32.2466C611.412 32.2466 611.414 32.2466 611.417 32.2466C611.419 32.2466 611.422 32.2466 611.425 32.2466C611.427 32.2466 611.43 32.2466 611.432 32.2466C611.435 32.2466 611.438 32.2466 611.44 32.2466C611.443 32.2466 611.445 32.2466 611.448 32.2466C611.451 32.2466 611.453 32.2466 611.456 32.2466C611.458 32.2466 611.461 32.2466 611.464 32.2466C611.466 32.2466 611.469 32.2466 611.471 32.2466C611.474 32.2466 611.477 32.2466 611.479 32.2466C611.482 32.2466 611.484 32.2466 611.487 32.2466C611.489 32.2466 611.492 32.2466 611.495 32.2466C611.497 32.2466 611.5 32.2466 611.502 32.2466C611.505 32.2466 611.507 32.2466 611.51 32.2466C611.513 32.2466 611.515 32.2466 611.518 32.2466C611.52 32.2466 611.523 32.2466 611.525 32.2466C611.528 32.2466 611.53 32.2466 611.533 32.2466C611.535 32.2466 611.538 32.2466 611.541 32.2466C611.543 32.2466 611.546 32.2466 611.548 32.2466C611.551 32.2466 611.553 32.2466 611.556 32.2466C611.558 32.2466 611.561 32.2466 611.563 32.2466C611.566 32.2466 611.568 32.2466 611.571 32.2466C611.574 32.2466 611.576 32.2466 611.579 32.2466C611.581 32.2466 611.584 32.2466 611.586 32.2466C611.589 32.2466 611.591 32.2466 611.594 32.2466C611.596 32.2466 611.599 32.2466 611.601 32.2466C611.604 32.2466 611.606 32.2466 611.609 32.2466C611.611 32.2466 611.614 32.2466 611.616 32.2466C611.619 32.2466 611.621 32.2466 611.624 32.2466C611.626 32.2466 611.629 32.2466 611.631 32.2466C611.634 32.2466 611.636 32.2466 611.639 32.2466C611.641 32.2466 611.644 32.2466 611.646 32.2466C611.649 32.2466 611.651 32.2466 611.654 32.2466C611.656 32.2466 611.659 32.2466 611.661 32.2466C611.664 32.2466 611.666 32.2466 611.668 32.2466C611.671 32.2466 611.673 32.2466 611.676 32.2466C611.678 32.2466 611.681 32.2466 611.683 32.2466C611.686 32.2466 611.688 32.2466 611.691 32.2466C611.693 32.2466 611.696 32.2466 611.698 32.2466C611.701 32.2466 611.703 32.2466 611.705 32.2466C611.708 32.2466 611.71 32.2466 611.713 32.2466C611.715 32.2466 611.718 32.2466 611.72 32.2466C611.722 32.2466 611.725 32.2466 611.727 32.2466C611.73 32.2466 611.732 32.2466 611.735 32.2466C611.737 32.2466 611.74 32.2466 611.742 32.2466C611.744 32.2466 611.747 32.2466 611.749 32.2466C611.752 32.2466 611.754 32.2466 611.757 32.2466C611.759 32.2466 611.761 32.2466 611.764 32.2466C611.766 32.2466 611.769 32.2466 611.771 32.2466C611.773 32.2466 611.776 32.2466 611.778 32.2466C611.781 32.2466 611.783 32.2466 611.785 32.2466C611.788 32.2466 611.79 32.2466 611.793 32.2466C611.795 32.2466 611.797 32.2466 611.8 32.2466C611.802 32.2466 611.805 32.2466 611.807 32.2466C611.809 32.2466 611.812 32.2466 611.814 32.2466C611.817 32.2466 611.819 32.2466 611.821 32.2466C611.824 32.2466 611.826 32.2466 611.828 32.2466C611.831 32.2466 611.833 32.2466 611.836 32.2466C611.838 32.2466 611.84 32.2466 611.843 32.2466C611.845 32.2466 611.847 32.2466 611.85 32.2466C611.852 32.2466 611.855 32.2466 611.857 32.2466C611.859 32.2466 611.862 32.2466 611.864 32.2466C611.866 32.2466 611.869 32.2466 611.871 32.2466C611.873 32.2466 611.876 32.2466 611.878 32.2466C611.88 32.2466 611.883 32.2466 611.885 32.2466C611.888 32.2466 611.89 32.2466 611.892 32.2466C611.895 32.2466 611.897 32.2466 611.899 32.2466C611.901 32.2466 611.904 32.2466 611.906 32.2466C611.909 32.2466 611.911 32.2466 611.913 32.2466C611.915 32.2466 611.918 32.2466 611.92 32.2466C611.922 32.2466 611.925 32.2466 611.927 32.2466C611.929 32.2466 611.932 32.2466 611.934 32.2466C611.936 32.2466 611.939 32.2466 611.941 32.2466C611.943 32.2466 611.946 32.2466 611.948 32.2466C611.95 32.2466 611.953 32.2466 611.955 32.2466C611.957 32.2466 611.959 32.2466 611.962 32.2466V30.6258C611.959 30.6258 611.957 30.6258 611.955 30.6258C611.953 30.6258 611.95 30.6258 611.948 30.6258C611.946 30.6258 611.943 30.6258 611.941 30.6258C611.939 30.6258 611.936 30.6258 611.934 30.6258C611.932 30.6258 611.929 30.6258 611.927 30.6258C611.925 30.6258 611.922 30.6258 611.92 30.6258C611.918 30.6258 611.915 30.6258 611.913 30.6258C611.911 30.6258 611.909 30.6258 611.906 30.6258C611.904 30.6258 611.901 30.6258 611.899 30.6258C611.897 30.6258 611.895 30.6258 611.892 30.6258C611.89 30.6258 611.888 30.6258 611.885 30.6258C611.883 30.6258 611.88 30.6258 611.878 30.6258C611.876 30.6258 611.873 30.6258 611.871 30.6258C611.869 30.6258 611.866 30.6258 611.864 30.6258C611.862 30.6258 611.859 30.6258 611.857 30.6258C611.855 30.6258 611.852 30.6258 611.85 30.6258C611.847 30.6258 611.845 30.6258 611.843 30.6258C611.84 30.6258 611.838 30.6258 611.836 30.6258C611.833 30.6258 611.831 30.6258 611.828 30.6258C611.826 30.6258 611.824 30.6258 611.821 30.6258C611.819 30.6258 611.817 30.6258 611.814 30.6258C611.812 30.6258 611.809 30.6258 611.807 30.6258C611.805 30.6258 611.802 30.6258 611.8 30.6258C611.797 30.6258 611.795 30.6258 611.793 30.6258C611.79 30.6258 611.788 30.6258 611.785 30.6258C611.783 30.6258 611.781 30.6258 611.778 30.6258C611.776 30.6258 611.773 30.6258 611.771 30.6258C611.769 30.6258 611.766 30.6258 611.764 30.6258C611.761 30.6258 611.759 30.6258 611.757 30.6258C611.754 30.6258 611.752 30.6258 611.749 30.6258C611.747 30.6258 611.744 30.6258 611.742 30.6258C611.74 30.6258 611.737 30.6258 611.735 30.6258C611.732 30.6258 611.73 30.6258 611.727 30.6258C611.725 30.6258 611.722 30.6258 611.72 30.6258C611.718 30.6258 611.715 30.6258 611.713 30.6258C611.71 30.6258 611.708 30.6258 611.705 30.6258C611.703 30.6258 611.701 30.6258 611.698 30.6258C611.696 30.6258 611.693 30.6258 611.691 30.6258C611.688 30.6258 611.686 30.6258 611.683 30.6258C611.681 30.6258 611.678 30.6258 611.676 30.6258C611.673 30.6258 611.671 30.6258 611.668 30.6258C611.666 30.6258 611.664 30.6258 611.661 30.6258C611.659 30.6258 611.656 30.6258 611.654 30.6258C611.651 30.6258 611.649 30.6258 611.646 30.6258C611.644 30.6258 611.641 30.6258 611.639 30.6258C611.636 30.6258 611.634 30.6258 611.631 30.6258C611.629 30.6258 611.626 30.6258 611.624 30.6258C611.621 30.6258 611.619 30.6258 611.616 30.6258C611.614 30.6258 611.611 30.6258 611.609 30.6258C611.606 30.6258 611.604 30.6258 611.601 30.6258C611.599 30.6258 611.596 30.6258 611.594 30.6258C611.591 30.6258 611.589 30.6258 611.586 30.6258C611.584 30.6258 611.581 30.6258 611.579 30.6258C611.576 30.6258 611.574 30.6258 611.571 30.6258C611.568 30.6258 611.566 30.6258 611.563 30.6258C611.561 30.6258 611.558 30.6258 611.556 30.6258C611.553 30.6258 611.551 30.6258 611.548 30.6258C611.546 30.6258 611.543 30.6258 611.541 30.6258C611.538 30.6258 611.535 30.6258 611.533 30.6258C611.53 30.6258 611.528 30.6258 611.525 30.6258C611.523 30.6258 611.52 30.6258 611.518 30.6258C611.515 30.6258 611.513 30.6258 611.51 30.6258C611.507 30.6258 611.505 30.6258 611.502 30.6258C611.5 30.6258 611.497 30.6258 611.495 30.6258C611.492 30.6258 611.489 30.6258 611.487 30.6258C611.484 30.6258 611.482 30.6258 611.479 30.6258C611.477 30.6258 611.474 30.6258 611.471 30.6258C611.469 30.6258 611.466 30.6258 611.464 30.6258C611.461 30.6258 611.458 30.6258 611.456 30.6258C611.453 30.6258 611.451 30.6258 611.448 30.6258C611.445 30.6258 611.443 30.6258 611.44 30.6258C611.438 30.6258 611.435 30.6258 611.432 30.6258C611.43 30.6258 611.427 30.6258 611.425 30.6258C611.422 30.6258 611.419 30.6258 611.417 30.6258C611.414 30.6258 611.412 30.6258 611.409 30.6258C611.406 30.6258 611.404 30.6258 611.401 30.6258C611.398 30.6258 611.396 30.6258 611.393 30.6258C611.391 30.6258 611.388 30.6258 611.385 30.6258C611.383 30.6258 611.38 30.6258 611.377 30.6258C611.375 30.6258 611.372 30.6258 611.37 30.6258C611.367 30.6258 611.364 30.6258 611.362 30.6258C611.359 30.6258 611.356 30.6258 611.354 30.6258C611.351 30.6258 611.348 30.6258 611.346 30.6258C611.343 30.6258 611.34 30.6258 611.338 30.6258C611.335 30.6258 611.332 30.6258 611.33 30.6258C611.327 30.6258 611.325 30.6258 611.322 30.6258C611.319 30.6258 611.317 30.6258 611.314 30.6258C611.311 30.6258 611.309 30.6258 611.306 30.6258C611.303 30.6258 611.3 30.6258 611.298 30.6258C611.295 30.6258 611.292 30.6258 611.29 30.6258C611.287 30.6258 611.284 30.6258 611.282 30.6258C611.279 30.6258 611.276 30.6258 611.274 30.6258C611.271 30.6258 611.268 30.6258 611.266 30.6258C611.263 30.6258 611.26 30.6258 611.258 30.6258C611.255 30.6258 611.252 30.6258 611.249 30.6258C611.247 30.6258 611.244 30.6258 611.241 30.6258C611.239 30.6258 611.236 30.6258 611.233 30.6258C611.23 30.6258 611.228 30.6258 611.225 30.6258C611.222 30.6258 611.22 30.6258 611.217 30.6258C611.214 30.6258 611.211 30.6258 611.209 30.6258C611.206 30.6258 611.203 30.6258 611.201 30.6258C611.198 30.6258 611.195 30.6258 611.192 30.6258C611.19 30.6258 611.187 30.6258 611.184 30.6258C611.181 30.6258 611.179 30.6258 611.176 30.6258C611.173 30.6258 611.17 30.6258 611.168 30.6258C611.165 30.6258 611.162 30.6258 611.159 30.6258C611.157 30.6258 611.154 30.6258 611.151 30.6258C611.148 30.6258 611.146 30.6258 611.143 30.6258C611.14 30.6258 611.137 30.6258 611.135 30.6258C611.132 30.6258 611.129 30.6258 611.126 30.6258C611.124 30.6258 611.121 30.6258 611.118 30.6258C611.115 30.6258 611.112 30.6258 611.11 30.6258C611.107 30.6258 611.104 30.6258 611.101 30.6258C611.099 30.6258 611.096 30.6258 611.093 30.6258C611.09 30.6258 611.088 30.6258 611.085 30.6258C611.082 30.6258 611.079 30.6258 611.076 30.6258C611.074 30.6258 611.071 30.6258 611.068 30.6258C611.065 30.6258 611.062 30.6258 611.06 30.6258C611.057 30.6258 611.054 30.6258 611.051 30.6258C611.048 30.6258 611.046 30.6258 611.043 30.6258C611.04 30.6258 611.037 30.6258 611.034 30.6258C611.031 30.6258 611.029 30.6258 611.026 30.6258C611.023 30.6258 611.02 30.6258 611.017 30.6258C611.015 30.6258 611.012 30.6258 611.009 30.6258C611.006 30.6258 611.003 30.6258 611 30.6258C610.998 30.6258 610.995 30.6258 610.992 30.6258C610.989 30.6258 610.986 30.6258 610.983 30.6258C610.981 30.6258 610.978 30.6258 610.975 30.6258C610.972 30.6258 610.969 30.6258 610.966 30.6258C610.964 30.6258 610.961 30.6258 610.958 30.6258C610.955 30.6258 610.952 30.6258 610.949 30.6258C610.946 30.6258 610.944 30.6258 610.941 30.6258C610.938 30.6258 610.935 30.6258 610.932 30.6258C610.929 30.6258 610.926 30.6258 610.924 30.6258C610.921 30.6258 610.918 30.6258 610.915 30.6258C610.912 30.6258 610.909 30.6258 610.906 30.6258C610.903 30.6258 610.901 30.6258 610.898 30.6258C610.895 30.6258 610.892 30.6258 610.889 30.6258C610.886 30.6258 610.883 30.6258 610.88 30.6258C610.877 30.6258 610.875 30.6258 610.872 30.6258C610.869 30.6258 610.866 30.6258 610.863 30.6258C610.86 30.6258 610.857 30.6258 610.854 30.6258C610.851 30.6258 610.848 30.6258 610.846 30.6258C610.843 30.6258 610.84 30.6258 610.837 30.6258C610.834 30.6258 610.831 30.6258 610.828 30.6258C610.825 30.6258 610.822 30.6258 610.819 30.6258C610.816 30.6258 610.813 30.6258 610.811 30.6258C610.808 30.6258 610.805 30.6258 610.802 30.6258C610.799 30.6258 610.796 30.6258 610.793 30.6258C610.79 30.6258 610.787 30.6258 610.784 30.6258C610.781 30.6258 610.778 30.6258 610.775 30.6258C610.772 30.6258 610.769 30.6258 610.767 30.6258C610.764 30.6258 610.761 30.6258 610.758 30.6258C610.755 30.6258 610.752 30.6258 610.749 30.6258C610.746 30.6258 610.743 30.6258 610.74 30.6258C610.737 30.6258 610.734 30.6258 610.731 30.6258C610.728 30.6258 610.725 30.6258 610.722 30.6258C610.719 30.6258 610.716 30.6258 610.713 30.6258C610.71 30.6258 610.707 30.6258 610.704 30.6258C610.701 30.6258 610.698 30.6258 610.695 30.6258C610.692 30.6258 610.689 30.6258 610.686 30.6258C610.683 30.6258 610.68 30.6258 610.677 30.6258C610.674 30.6258 610.672 30.6258 610.669 30.6258C610.666 30.6258 610.663 30.6258 610.66 30.6258C610.657 30.6258 610.654 30.6258 610.651 30.6258C610.648 30.6258 610.645 30.6258 610.642 30.6258C610.639 30.6258 610.635 30.6258 610.633 30.6258C610.63 30.6258 610.626 30.6258 610.623 30.6258C610.62 30.6258 610.617 30.6258 610.614 30.6258C610.611 30.6258 610.608 30.6258 610.605 30.6258C610.602 30.6258 610.599 30.6258 610.596 30.6258C610.593 30.6258 610.59 30.6258 610.587 30.6258C610.584 30.6258 610.581 30.6258 610.578 30.6258C610.575 30.6258 610.572 30.6258 610.569 30.6258C610.566 30.6258 610.563 30.6258 610.56 30.6258C610.557 30.6258 610.554 30.6258 610.551 30.6258C610.548 30.6258 610.545 30.6258 610.542 30.6258C610.539 30.6258 610.535 30.6258 610.532 30.6258C610.529 30.6258 610.526 30.6258 610.523 30.6258C610.52 30.6258 610.517 30.6258 610.514 30.6258C610.511 30.6258 610.508 30.6258 610.505 30.6258C610.502 30.6258 610.499 30.6258 610.496 30.6258C610.493 30.6258 610.49 30.6258 610.486 30.6258C610.483 30.6258 610.48 30.6258 610.477 30.6258C610.474 30.6258 610.471 30.6258 610.468 30.6258C610.465 30.6258 610.462 30.6258 610.459 30.6258C610.456 30.6258 610.452 30.6258 610.449 30.6258C610.446 30.6258 610.443 30.6258 610.44 30.6258C610.437 30.6258 610.434 30.6258 610.431 30.6258C610.428 30.6258 610.425 30.6258 610.421 30.6258C610.418 30.6258 610.415 30.6258 610.412 30.6258C610.409 30.6258 610.406 30.6258 610.403 30.6258C610.4 30.6258 610.397 30.6258 610.393 30.6258C610.39 30.6258 610.387 30.6258 610.384 30.6258C610.381 30.6258 610.378 30.6258 610.375 30.6258C610.372 30.6258 610.368 30.6258 610.365 30.6258C610.362 30.6258 610.359 30.6258 610.356 30.6258C610.353 30.6258 610.35 30.6258 610.346 30.6258C610.343 30.6258 610.34 30.6258 610.337 30.6258C610.334 30.6258 610.331 30.6258 610.328 30.6258C610.324 30.6258 610.321 30.6258 610.318 30.6258C610.315 30.6258 610.312 30.6258 610.309 30.6258C610.305 30.6258 610.302 30.6258 610.299 30.6258C610.296 30.6258 610.293 30.6258 610.29 30.6258C610.286 30.6258 610.283 30.6258 610.28 30.6258C610.277 30.6258 610.274 30.6258 610.271 30.6258C610.267 30.6258 610.264 30.6258 610.261 30.6258C610.258 30.6258 610.255 30.6258 610.252 30.6258C610.248 30.6258 610.245 30.6258 610.242 30.6258C610.239 30.6258 610.236 30.6258 610.232 30.6258C610.229 30.6258 610.226 30.6258 610.223 30.6258C610.22 30.6258 610.216 30.6258 610.213 30.6258C610.21 30.6258 610.207 30.6258 610.204 30.6258C610.2 30.6258 610.197 30.6258 610.194 30.6258C610.191 30.6258 610.188 30.6258 610.184 30.6258C610.181 30.6258 610.178 30.6258 610.175 30.6258C610.172 30.6258 610.168 30.6258 610.165 30.6258C610.162 30.6258 610.159 30.6258 610.155 30.6258C610.152 30.6258 610.149 30.6258 610.146 30.6258C610.142 30.6258 610.139 30.6258 610.136 30.6258C610.133 30.6258 610.13 30.6258 610.126 30.6258C610.123 30.6258 610.12 30.6258 610.117 30.6258C610.113 30.6258 610.11 30.6258 610.107 30.6258C610.104 30.6258 610.1 30.6258 610.097 30.6258C610.094 30.6258 610.091 30.6258 610.087 30.6258C610.084 30.6258 610.081 30.6258 610.078 30.6258C610.074 30.6258 610.071 30.6258 610.068 30.6258C610.064 30.6258 610.061 30.6258 610.058 30.6258C610.055 30.6258 610.051 30.6258 610.048 30.6258C610.045 30.6258 610.042 30.6258 610.038 30.6258C610.035 30.6258 610.032 30.6258 610.028 30.6258C610.025 30.6258 610.022 30.6258 610.019 30.6258C610.015 30.6258 610.012 30.6258 610.009 30.6258C610.005 30.6258 610.002 30.6258 609.999 30.6258C609.995 30.6258 609.992 30.6258 609.989 30.6258C609.986 30.6258 609.982 30.6258 609.979 30.6258C609.976 30.6258 609.972 30.6258 609.969 30.6258C609.966 30.6258 609.962 30.6258 609.959 30.6258C609.956 30.6258 609.953 30.6258 609.949 30.6258C609.946 30.6258 609.943 30.6258 609.939 30.6258C609.936 30.6258 609.933 30.6258 609.929 30.6258C609.926 30.6258 609.923 30.6258 609.919 30.6258C609.916 30.6258 609.913 30.6258 609.909 30.6258C609.906 30.6258 609.903 30.6258 609.899 30.6258C609.896 30.6258 609.893 30.6258 609.889 30.6258C609.886 30.6258 609.883 30.6258 609.879 30.6258C609.876 30.6258 609.872 30.6258 609.869 30.6258C609.866 30.6258 609.862 30.6258 609.859 30.6258C609.856 30.6258 609.852 30.6258 609.849 30.6258C609.846 30.6258 609.842 30.6258 609.839 30.6258C609.836 30.6258 609.832 30.6258 609.829 30.6258C609.826 30.6258 609.822 30.6258 609.819 30.6258C609.815 30.6258 609.812 30.6258 609.809 30.6258C609.805 30.6258 609.802 30.6258 609.798 30.6258C609.795 30.6258 609.792 30.6258 609.788 30.6258C609.785 30.6258 609.782 30.6258 609.778 30.6258C609.775 30.6258 609.771 30.6258 609.768 30.6258C609.765 30.6258 609.761 30.6258 609.758 30.6258C609.754 30.6258 609.751 30.6258 609.748 30.6258C609.744 30.6258 609.741 30.6258 609.737 30.6258C609.734 30.6258 609.731 30.6258 609.727 30.6258C609.724 30.6258 609.72 30.6258 609.717 30.6258C609.714 30.6258 609.71 30.6258 609.707 30.6258C609.703 30.6258 609.7 30.6258 609.696 30.6258C609.693 30.6258 609.69 30.6258 609.686 30.6258C609.683 30.6258 609.679 30.6258 609.676 30.6258C609.672 30.6258 609.669 30.6258 609.666 30.6258C609.662 30.6258 609.659 30.6258 609.655 30.6258C609.652 30.6258 609.648 30.6258 609.645 30.6258C609.641 30.6258 609.638 30.6258 609.635 30.6258C609.631 30.6258 609.628 30.6258 609.624 30.6258C609.621 30.6258 609.617 30.6258 609.614 30.6258C609.61 30.6258 609.607 30.6258 609.603 30.6258C609.6 30.6258 609.596 30.6258 609.593 30.6258C609.59 30.6258 609.586 30.6258 609.583 30.6258C609.579 30.6258 609.576 30.6258 609.572 30.6258C609.569 30.6258 609.565 30.6258 609.562 30.6258C609.558 30.6258 609.555 30.6258 609.551 30.6258C609.548 30.6258 609.544 30.6258 609.541 30.6258C609.537 30.6258 609.534 30.6258 609.53 30.6258C609.527 30.6258 609.523 30.6258 609.52 30.6258C609.516 30.6258 609.513 30.6258 609.509 30.6258C609.506 30.6258 609.502 30.6258 609.499 30.6258C609.495 30.6258 609.492 30.6258 609.488 30.6258C609.485 30.6258 609.481 30.6258 609.478 30.6258C609.474 30.6258 609.471 30.6258 609.467 30.6258C609.464 30.6258 609.46 30.6258 609.457 30.6258C609.453 30.6258 609.45 30.6258 609.446 30.6258C609.443 30.6258 609.439 30.6258 609.436 30.6258C609.432 30.6258 609.429 30.6258 609.425 30.6258C609.421 30.6258 609.418 30.6258 609.414 30.6258C609.411 30.6258 609.407 30.6258 609.404 30.6258C609.4 30.6258 609.397 30.6258 609.393 30.6258C609.39 30.6258 609.386 30.6258 609.382 30.6258C609.379 30.6258 609.375 30.6258 609.372 30.6258C609.368 30.6258 609.365 30.6258 609.361 30.6258C609.358 30.6258 609.354 30.6258 609.35 30.6258C609.347 30.6258 609.343 30.6258 609.34 30.6258C609.336 30.6258 609.333 30.6258 609.329 30.6258C609.325 30.6258 609.322 30.6258 609.318 30.6258C609.315 30.6258 609.311 30.6258 609.308 30.6258C609.304 30.6258 609.3 30.6258 609.297 30.6258C609.293 30.6258 609.29 30.6258 609.286 30.6258C609.282 30.6258 609.279 30.6258 609.275 30.6258C609.272 30.6258 609.268 30.6258 609.264 30.6258C609.261 30.6258 609.257 30.6258 609.254 30.6258C609.25 30.6258 609.246 30.6258 609.243 30.6258C609.239 30.6258 609.236 30.6258 609.232 30.6258C609.228 30.6258 609.225 30.6258 609.221 30.6258C609.218 30.6258 609.214 30.6258 609.21 30.6258C609.207 30.6258 609.203 30.6258 609.199 30.6258C609.196 30.6258 609.192 30.6258 609.189 30.6258C609.185 30.6258 609.181 30.6258 609.178 30.6258C609.174 30.6258 609.17 30.6258 609.167 30.6258C609.163 30.6258 609.159 30.6258 609.156 30.6258C609.152 30.6258 609.149 30.6258 609.145 30.6258C609.141 30.6258 609.138 30.6258 609.134 30.6258C609.13 30.6258 609.127 30.6258 609.123 30.6258C609.119 30.6258 609.116 30.6258 609.112 30.6258C609.108 30.6258 609.105 30.6258 609.101 30.6258C609.097 30.6258 609.094 30.6258 609.09 30.6258C609.086 30.6258 609.083 30.6258 609.079 30.6258C609.075 30.6258 609.072 30.6258 609.068 30.6258C609.064 30.6258 609.061 30.6258 609.057 30.6258C609.053 30.6258 609.05 30.6258 609.046 30.6258C609.042 30.6258 609.039 30.6258 609.035 30.6258C609.031 30.6258 609.028 30.6258 609.024 30.6258C609.02 30.6258 609.016 30.6258 609.013 30.6258C609.009 30.6258 609.005 30.6258 609.002 30.6258C608.998 30.6258 608.994 30.6258 608.991 30.6258C608.987 30.6258 608.983 30.6258 608.979 30.6258C608.976 30.6258 608.972 30.6258 608.968 30.6258C608.965 30.6258 608.961 30.6258 608.957 30.6258C608.953 30.6258 608.95 30.6258 608.946 30.6258C608.942 30.6258 608.938 30.6258 608.935 30.6258C608.931 30.6258 608.927 30.6258 608.924 30.6258C608.92 30.6258 608.916 30.6258 608.912 30.6258C608.909 30.6258 608.905 30.6258 608.901 30.6258C608.897 30.6258 608.894 30.6258 608.89 30.6258C608.886 30.6258 608.882 30.6258 608.879 30.6258C608.875 30.6258 608.871 30.6258 608.867 30.6258C608.864 30.6258 608.86 30.6258 608.856 30.6258C608.852 30.6258 608.849 30.6258 608.845 30.6258C608.841 30.6258 608.837 30.6258 608.834 30.6258C608.83 30.6258 608.826 30.6258 608.822 30.6258C608.819 30.6258 608.815 30.6258 608.811 30.6258C608.807 30.6258 608.803 30.6258 608.8 30.6258C608.796 30.6258 608.792 30.6258 608.788 30.6258C608.785 30.6258 608.781 30.6258 608.777 30.6258C608.773 30.6258 608.769 30.6258 608.766 30.6258C608.762 30.6258 608.758 30.6258 608.754 30.6258C608.75 30.6258 608.747 30.6258 608.743 30.6258C608.739 30.6258 608.735 30.6258 608.731 30.6258C608.728 30.6258 608.724 30.6258 608.72 30.6258C608.716 30.6258 608.712 30.6258 608.709 30.6258C608.705 30.6258 608.701 30.6258 608.697 30.6258C608.693 30.6258 608.69 30.6258 608.686 30.6258C608.682 30.6258 608.678 30.6258 608.674 30.6258C608.67 30.6258 608.667 30.6258 608.663 30.6258C608.659 30.6258 608.655 30.6258 608.651 30.6258C608.647 30.6258 608.644 30.6258 608.64 30.6258C608.636 30.6258 608.632 30.6258 608.628 30.6258C608.624 30.6258 608.62 30.6258 608.617 30.6258C608.613 30.6258 608.609 30.6258 608.605 30.6258C608.601 30.6258 608.597 30.6258 608.594 30.6258C608.59 30.6258 608.586 30.6258 608.582 30.6258C608.578 30.6258 608.574 30.6258 608.57 30.6258C608.567 30.6258 608.563 30.6258 608.559 30.6258C608.555 30.6258 608.551 30.6258 608.547 30.6258C608.543 30.6258 608.539 30.6258 608.536 30.6258C608.532 30.6258 608.528 30.6258 608.524 30.6258C608.52 30.6258 608.516 30.6258 608.512 30.6258C608.508 30.6258 608.505 30.6258 608.501 30.6258C608.497 30.6258 608.493 30.6258 608.489 30.6258C608.485 30.6258 608.481 30.6258 608.477 30.6258C608.473 30.6258 608.469 30.6258 608.466 30.6258C608.462 30.6258 608.458 30.6258 608.454 30.6258C608.45 30.6258 608.446 30.6258 608.442 30.6258C608.438 30.6258 608.434 30.6258 608.43 30.6258C608.426 30.6258 608.423 30.6258 608.419 30.6258C608.415 30.6258 608.411 30.6258 608.407 30.6258C608.403 30.6258 608.399 30.6258 608.395 30.6258C608.391 30.6258 608.387 30.6258 608.383 30.6258C608.379 30.6258 608.375 30.6258 608.371 30.6258C608.368 30.6258 608.364 30.6258 608.36 30.6258C608.356 30.6258 608.352 30.6258 608.348 30.6258C608.344 30.6258 608.34 30.6258 608.336 30.6258C608.332 30.6258 608.328 30.6258 608.324 30.6258C608.32 30.6258 608.316 30.6258 608.312 30.6258C608.308 30.6258 608.304 30.6258 608.3 30.6258C608.296 30.6258 608.292 30.6258 608.289 30.6258C608.285 30.6258 608.281 30.6258 608.277 30.6258C608.273 30.6258 608.269 30.6258 608.265 30.6258C608.261 30.6258 608.257 30.6258 608.253 30.6258C608.249 30.6258 608.245 30.6258 608.241 30.6258C608.237 30.6258 608.233 30.6258 608.229 30.6258C608.225 30.6258 608.221 30.6258 608.217 30.6258C608.213 30.6258 608.209 30.6258 608.205 30.6258C608.201 30.6258 608.197 30.6258 608.193 30.6258C608.189 30.6258 608.185 30.6258 608.181 30.6258C608.177 30.6258 608.173 30.6258 608.169 30.6258C608.165 30.6258 608.161 30.6258 608.157 30.6258C608.153 30.6258 608.149 30.6258 608.145 30.6258C608.141 30.6258 608.137 30.6258 608.133 30.6258C608.129 30.6258 608.125 30.6258 608.121 30.6258C608.117 30.6258 608.113 30.6258 608.109 30.6258C608.104 30.6258 608.1 30.6258 608.096 30.6258C608.092 30.6258 608.088 30.6258 608.084 30.6258C608.08 30.6258 608.076 30.6258 608.072 30.6258C608.068 30.6258 608.064 30.6258 608.06 30.6258C608.056 30.6258 608.052 30.6258 608.048 30.6258C608.044 30.6258 608.04 30.6258 608.036 30.6258C608.032 30.6258 608.028 30.6258 608.024 30.6258C608.02 30.6258 608.015 30.6258 608.011 30.6258C608.007 30.6258 608.003 30.6258 607.999 30.6258C607.995 30.6258 607.991 30.6258 607.987 30.6258C607.983 30.6258 607.979 30.6258 607.975 30.6258C607.971 30.6258 607.967 30.6258 607.963 30.6258C607.958 30.6258 607.954 30.6258 607.95 30.6258C607.946 30.6258 607.942 30.6258 607.938 30.6258C607.934 30.6258 607.93 30.6258 607.926 30.6258C607.922 30.6258 607.918 30.6258 607.913 30.6258C607.909 30.6258 607.905 30.6258 607.901 30.6258C607.897 30.6258 607.893 30.6258 607.889 30.6258C607.885 30.6258 607.881 30.6258 607.876 30.6258C607.872 30.6258 607.868 30.6258 607.864 30.6258C607.86 30.6258 607.856 30.6258 607.852 30.6258C607.848 30.6258 607.844 30.6258 607.839 30.6258C607.835 30.6258 607.831 30.6258 607.827 30.6258C607.823 30.6258 607.819 30.6258 607.815 30.6258C607.811 30.6258 607.806 30.6258 607.802 30.6258C607.798 30.6258 607.794 30.6258 607.79 30.6258C607.786 30.6258 607.782 30.6258 607.777 30.6258C607.773 30.6258 607.769 30.6258 607.765 30.6258C607.761 30.6258 607.757 30.6258 607.753 30.6258C607.748 30.6258 607.744 30.6258 607.74 30.6258C607.736 30.6258 607.732 30.6258 607.728 30.6258C607.723 30.6258 607.719 30.6258 607.715 30.6258C607.711 30.6258 607.707 30.6258 607.703 30.6258C607.698 30.6258 607.694 30.6258 607.69 30.6258C607.686 30.6258 607.682 30.6258 607.677 30.6258C607.673 30.6258 607.669 30.6258 607.665 30.6258C607.661 30.6258 607.657 30.6258 607.652 30.6258C607.648 30.6258 607.644 30.6258 607.64 30.6258C607.636 30.6258 607.631 30.6258 607.627 30.6258C607.623 30.6258 607.619 30.6258 607.615 30.6258C607.61 30.6258 607.606 30.6258 607.602 30.6258C607.598 30.6258 607.594 30.6258 607.589 30.6258C607.585 30.6258 607.581 30.6258 607.577 30.6258C607.573 30.6258 607.568 30.6258 607.564 30.6258C607.56 30.6258 607.556 30.6258 607.551 30.6258C607.547 30.6258 607.543 30.6258 607.539 30.6258C607.535 30.6258 607.53 30.6258 607.526 30.6258C607.522 30.6258 607.518 30.6258 607.513 30.6258C607.509 30.6258 607.505 30.6258 607.501 30.6258C607.496 30.6258 607.492 30.6258 607.488 30.6258C607.484 30.6258 607.479 30.6258 607.475 30.6258C607.471 30.6258 607.467 30.6258 607.462 30.6258C607.458 30.6258 607.454 30.6258 607.45 30.6258C607.445 30.6258 607.441 30.6258 607.437 30.6258C607.433 30.6258 607.428 30.6258 607.424 30.6258C607.42 30.6258 607.416 30.6258 607.411 30.6258C607.407 30.6258 607.403 30.6258 607.398 30.6258C607.394 30.6258 607.39 30.6258 607.386 30.6258C607.381 30.6258 607.377 30.6258 607.373 30.6258C607.369 30.6258 607.364 30.6258 607.36 30.6258C607.356 30.6258 607.351 30.6258 607.347 30.6258C607.343 30.6258 607.339 30.6258 607.334 30.6258C607.33 30.6258 607.326 30.6258 607.321 30.6258C607.317 30.6258 607.313 30.6258 607.308 30.6258C607.304 30.6258 607.3 30.6258 607.296 30.6258C607.291 30.6258 607.287 30.6258 607.283 30.6258C607.278 30.6258 607.274 30.6258 607.27 30.6258C607.265 30.6258 607.261 30.6258 607.257 30.6258C607.252 30.6258 607.248 30.6258 607.244 30.6258C607.239 30.6258 607.235 30.6258 607.231 30.6258C607.226 30.6258 607.222 30.6258 607.218 30.6258C607.213 30.6258 607.209 30.6258 607.205 30.6258C607.2 30.6258 607.196 30.6258 607.192 30.6258C607.187 30.6258 607.183 30.6258 607.179 30.6258C607.174 30.6258 607.17 30.6258 607.166 30.6258C607.161 30.6258 607.157 30.6258 607.153 30.6258C607.148 30.6258 607.144 30.6258 607.139 30.6258C607.135 30.6258 607.131 30.6258 607.126 30.6258C607.122 30.6258 607.118 30.6258 607.113 30.6258C607.109 30.6258 607.105 30.6258 607.1 30.6258C607.096 30.6258 607.091 30.6258 607.087 30.6258C607.083 30.6258 607.078 30.6258 607.074 30.6258C607.07 30.6258 607.065 30.6258 607.061 30.6258C607.056 30.6258 607.052 30.6258 607.048 30.6258C607.043 30.6258 607.039 30.6258 607.034 30.6258C607.03 30.6258 607.026 30.6258 607.021 30.6258C607.017 30.6258 607.012 30.6258 607.008 30.6258C607.004 30.6258 606.999 30.6258 606.995 30.6258C606.99 30.6258 606.986 30.6258 606.982 30.6258C606.977 30.6258 606.973 30.6258 606.968 30.6258C606.964 30.6258 606.96 30.6258 606.955 30.6258C606.951 30.6258 606.946 30.6258 606.942 30.6258C606.937 30.6258 606.933 30.6258 606.929 30.6258C606.924 30.6258 606.92 30.6258 606.915 30.6258C606.911 30.6258 606.906 30.6258 606.902 30.6258C606.898 30.6258 606.893 30.6258 606.889 30.6258C606.884 30.6258 606.88 30.6258 606.875 30.6258C606.871 30.6258 606.866 30.6258 606.862 30.6258C606.858 30.6258 606.853 30.6258 606.849 30.6258C606.844 30.6258 606.84 30.6258 606.835 30.6258C606.831 30.6258 606.826 30.6258 606.822 30.6258C606.817 30.6258 606.813 30.6258 606.809 30.6258C606.804 30.6258 606.8 30.6258 606.795 30.6258C606.791 30.6258 606.786 30.6258 606.782 30.6258C606.777 30.6258 606.773 30.6258 606.768 30.6258C606.764 30.6258 606.759 30.6258 606.755 30.6258V32.2466ZM611.162 31.3055L609.734 40.0396L611.334 40.3011L612.761 31.567L611.162 31.3055ZM610.728 39.3836C595.996 35.7425 584.572 33.3275 576.47 32.146L576.236 33.7498C584.259 34.9198 595.623 37.3198 610.34 40.9571L610.728 39.3836ZM575.543 32.9479V33.1159H577.164V32.9479H575.543ZM576.144 33.8987C584.57 36.1568 591.132 40.2172 595.88 46.0565L597.138 45.034C592.144 38.8918 585.269 34.6659 576.563 32.3331L576.144 33.8987ZM595.883 46.0594C600.626 51.8383 603.005 58.7354 603.005 66.7927H604.626C604.626 58.3894 602.134 51.1216 597.135 45.0311L595.883 46.0594ZM603.005 66.7927C603.005 77.3142 599.126 86.0823 591.345 93.1511L592.435 94.3507C600.554 86.9745 604.626 77.7706 604.626 66.7927H603.005ZM591.347 93.149C583.566 100.163 573.718 103.69 561.74 103.69V105.311C574.061 105.311 584.313 101.672 592.433 94.3528L591.347 93.149ZM557.961 159.622C549.22 159.622 541.767 158.759 535.586 157.048L535.154 158.61C541.515 160.371 549.122 161.243 557.961 161.243V159.622ZM535.606 157.054C529.955 155.336 525.769 153.198 522.98 150.677L521.893 151.88C524.927 154.622 529.363 156.851 535.134 158.605L535.606 157.054ZM522.98 150.677C520.181 148.147 518.88 145.551 518.88 142.88H517.259C517.259 146.145 518.87 149.147 521.893 151.88L522.98 150.677ZM518.88 142.88C518.88 141.899 519.166 141.298 519.619 140.919C520.098 140.518 520.906 140.248 522.185 140.248V138.627C520.72 138.627 519.47 138.93 518.578 139.676C517.659 140.446 517.259 141.566 517.259 142.88H518.88ZM521.375 139.437C521.375 142.622 522.879 145.722 525.71 148.727L526.89 147.615C524.234 144.798 522.995 142.075 522.995 139.437H521.375ZM525.695 148.711C528.642 152.011 533.458 154.559 540.019 156.425L540.463 154.866C534.035 153.037 529.557 150.602 526.905 147.632L525.695 148.711ZM540.015 156.424C546.664 158.356 554.948 159.311 564.848 159.311V157.691C555.04 157.691 546.92 156.743 540.467 154.867L540.015 156.424ZM564.848 159.311C575.348 159.311 584.03 157.506 590.846 153.84L590.078 152.412C583.57 155.913 575.176 157.691 564.848 157.691V159.311ZM590.841 153.842C597.663 150.231 601.267 145.44 601.267 139.437H599.646C599.646 144.632 596.586 148.967 590.083 152.41L590.841 153.842ZM601.267 139.437C601.267 135.799 599.824 132.989 596.925 131.133C594.088 129.317 589.935 128.465 584.584 128.465V130.086C589.814 130.086 593.598 130.928 596.051 132.498C598.443 134.029 599.646 136.3 599.646 139.437H601.267ZM584.584 128.465C580.915 128.465 573.675 129.46 562.939 131.417L563.229 133.012C573.992 131.05 581.086 130.086 584.584 130.086V128.465ZM562.925 131.42C553.972 133.211 547.517 134.092 543.516 134.092V135.712C547.69 135.712 554.281 134.802 563.243 133.009L562.925 131.42ZM543.516 134.092C537.183 134.092 532.339 132.741 528.887 130.14L527.912 131.434C531.739 134.319 536.972 135.712 543.516 135.712V134.092ZM528.886 130.139C525.521 127.615 523.835 124.14 523.835 119.617H522.214C522.214 124.613 524.112 128.584 527.913 131.435L528.886 130.139ZM523.835 119.617C523.835 115.553 525.518 111.625 528.998 107.819L527.802 106.725C524.115 110.757 522.214 115.06 522.214 119.617H523.835ZM528.993 107.823C532.521 104.025 537.549 100.921 544.128 98.5442L543.577 97.0199C536.831 99.4576 531.557 102.681 527.806 106.721L528.993 107.823ZM543.178 98.2316L543.514 98.7355L544.862 97.8364L544.527 97.3325L543.178 98.2316ZM543.816 97.5659C540.407 99.3276 537.815 101.205 536.097 103.219L537.33 104.271C538.86 102.477 541.251 100.716 544.56 99.0059L543.816 97.5659ZM536.096 103.22C534.39 105.231 533.552 107.69 533.552 110.547H535.173C535.173 108.03 535.902 105.954 537.332 104.269L536.096 103.22ZM533.552 110.547C533.552 113.681 534.699 116.134 537.05 117.764C539.347 119.357 542.692 120.092 546.96 120.092V118.471C542.829 118.471 539.875 117.751 537.973 116.432C536.125 115.151 535.173 113.236 535.173 110.547H533.552ZM546.96 120.092C550.92 120.092 558.054 118.981 568.292 116.799L567.954 115.214C557.7 117.399 550.725 118.471 546.96 118.471V120.092ZM568.308 116.795C577.584 114.616 584.734 113.541 589.79 113.541V111.92C584.545 111.92 577.25 113.029 567.938 115.217L568.308 116.795ZM589.79 113.541C596.554 113.541 601.559 115.191 604.941 118.361L606.049 117.179C602.265 113.63 596.8 111.92 589.79 111.92V113.541ZM604.946 118.366C608.352 121.506 610.06 125.512 610.06 130.451H611.68C611.68 125.088 609.804 120.64 606.044 117.174L604.946 118.366ZM610.06 130.451C610.06 135.715 608.106 140.567 604.134 145.029L605.345 146.107C609.547 141.386 611.68 136.161 611.68 130.451H610.06ZM604.148 145.013C599.958 149.475 593.878 153.027 585.845 155.631L586.345 157.172C594.549 154.513 600.898 150.842 605.33 146.123L604.148 145.013ZM585.839 155.633C577.878 158.287 568.589 159.622 557.961 159.622V161.243C568.721 161.243 578.188 159.891 586.352 157.17L585.839 155.633ZM570.475 102.708C575.78 102.708 579.952 100.504 582.904 96.1362L581.561 95.2288C578.913 99.1468 575.247 101.087 570.475 101.087V102.708ZM582.899 96.1424C585.875 91.8254 587.326 86.2187 587.326 79.39H585.705C585.705 85.9984 584.3 91.2533 581.565 95.2226L582.899 96.1424ZM587.326 79.39C587.326 71.4527 585.908 63.8502 583.071 56.5879L581.561 57.1777C584.323 64.2484 585.705 71.6506 585.705 79.39H587.326ZM583.073 56.5931C580.29 49.3242 576.36 43.3884 571.268 38.8118L570.185 40.0172C575.059 44.3987 578.855 50.1084 581.559 57.1725L583.073 56.5931ZM571.275 38.8183C566.225 34.1692 560.689 31.8016 554.686 31.8016V33.4224C560.217 33.4224 565.375 35.5898 570.178 40.0108L571.275 38.8183ZM554.686 31.8016C549.063 31.8016 544.564 34.0157 541.271 38.4258L542.57 39.3955C545.548 35.4074 549.559 33.4224 554.686 33.4224V31.8016ZM541.267 38.4314C538.061 42.8029 536.491 48.3869 536.491 55.1192H538.112C538.112 48.6383 539.621 43.4166 542.574 39.3899L541.267 38.4314ZM536.491 55.1134C536.435 63.1141 537.91 70.7792 540.919 78.1023L542.418 77.4863C539.492 70.3645 538.057 62.9129 538.112 55.1249L536.491 55.1134ZM540.92 78.1043C543.929 85.3709 548.057 91.3021 553.314 95.8741L554.378 94.651C549.334 90.2649 545.343 84.5507 542.417 77.4843L540.92 78.1043ZM553.318 95.8774C558.594 100.407 564.318 102.708 570.475 102.708V101.087C564.761 101.087 559.401 98.9639 554.374 94.6478L553.318 95.8774ZM711.605 31.4362H712.415V30.4255L711.429 30.6452L711.605 31.4362ZM716.392 125.664L717.117 126.026L717.453 125.354L716.807 124.968L716.392 125.664ZM716.224 126V126.81H716.725L716.949 126.362L716.224 126ZM692.205 126H691.394V126.81H692.205V126ZM692.205 86.2765H693.015V85.8638L692.682 85.6211L692.205 86.2765ZM691.281 85.6046H690.471V86.0173L690.804 86.26L691.281 85.6046ZM685.99 37.7349H685.18V38.375L685.802 38.5232L685.99 37.7349ZM685.99 37.399L685.78 36.6163L685.18 36.7775V37.399H685.99ZM691.617 35.8873L691.441 35.0963L691.424 35.1001L691.407 35.1046L691.617 35.8873ZM629.89 96.7743L629.08 96.7772V96.7792L629.89 96.7743ZM629.722 49.9963H628.912V49.9992L629.722 49.9963ZM624.599 37.7349H623.789V38.3701L624.406 38.5218L624.599 37.7349ZM624.599 37.399L624.383 36.618L623.789 36.7825V37.399H624.599ZM630.058 35.8873L629.882 35.0963L629.862 35.1008L629.842 35.1063L630.058 35.8873ZM650.046 31.4362H650.856V30.4255L649.87 30.6452L650.046 31.4362ZM650.046 93.331L650.856 93.336V93.331H650.046ZM654.749 114.243L654.071 114.687L654.075 114.692L654.749 114.243ZM684.814 109.372L684.099 108.991L684.097 108.995L684.814 109.372ZM691.281 78.3822V77.5718H690.471V78.3822H691.281ZM692.541 78.3822H693.351V77.5718H692.541V78.3822ZM683.891 113.907L683.217 113.456L683.215 113.459L683.891 113.907ZM638.456 118.694L637.892 119.275L637.895 119.278L638.456 118.694ZM710.794 31.4362V111.891H712.415V31.4362H710.794ZM710.794 111.891C710.794 119.194 712.378 124.214 715.977 126.36L716.807 124.968C714.023 123.307 712.415 119.145 712.415 111.891H710.794ZM715.667 125.302L715.499 125.638L716.949 126.362L717.117 126.026L715.667 125.302ZM716.224 125.19H710.429V126.81H716.224V125.19ZM710.429 125.19H692.205V126.81H710.429V125.19ZM693.015 126V86.2765H691.394V126H693.015ZM692.682 85.6211L691.758 84.9492L690.804 86.26L691.728 86.9319L692.682 85.6211ZM692.091 85.6046V49.9963H690.471V85.6046H692.091ZM692.091 49.9963C692.091 46.2811 691.647 43.2988 690.702 41.109C689.745 38.8903 688.247 37.4393 686.178 36.9465L685.802 38.5232C687.26 38.8703 688.408 39.8827 689.214 41.7512C690.033 43.6485 690.471 46.377 690.471 49.9963H692.091ZM686.801 37.7349V37.399H685.18V37.7349H686.801ZM686.2 38.1816L691.827 36.6699L691.407 35.1046L685.78 36.6163L686.2 38.1816ZM691.793 36.6783L711.781 32.2273L711.429 30.6452L691.441 35.0963L691.793 36.6783ZM630.701 96.7713L630.533 49.9934L628.912 49.9992L629.08 96.7772L630.701 96.7713ZM630.533 49.9963C630.533 46.283 630.103 43.3043 629.189 41.1177C628.265 38.9052 626.814 37.4449 624.793 36.9479L624.406 38.5218C625.8 38.8646 626.91 39.8678 627.694 41.7425C628.488 43.643 628.912 46.3751 628.912 49.9963H630.533ZM625.41 37.7349V37.399H623.789V37.7349H625.41ZM624.816 38.18L630.274 36.6683L629.842 35.1063L624.383 36.618L624.816 38.18ZM630.234 36.6783L650.222 32.2273L649.87 30.6452L629.882 35.0963L630.234 36.6783ZM649.235 31.4362V93.331H650.856V31.4362H649.235ZM649.235 93.326C649.179 102.473 650.756 109.627 654.071 114.687L655.427 113.798C652.359 109.116 650.801 102.329 650.856 93.336L649.235 93.326ZM654.075 114.692C657.466 119.779 662.165 122.359 668.102 122.359V120.739C662.729 120.739 658.526 118.448 655.423 113.793L654.075 114.692ZM668.102 122.359C675.39 122.359 681.191 118.03 685.532 109.748L684.097 108.995C679.928 116.949 674.587 120.739 668.102 120.739V122.359ZM685.53 109.752C689.922 101.482 692.091 91.01 692.091 78.3822H690.471C690.471 90.837 688.329 101.025 684.099 108.991L685.53 109.752ZM691.281 79.1926H692.541V77.5718H691.281V79.1926ZM691.73 78.3822C691.73 93.3515 688.863 105.015 683.217 113.456L684.564 114.357C690.452 105.554 693.351 93.5345 693.351 78.3822H691.73ZM683.215 113.459C677.648 121.865 670.058 126.029 660.376 126.029V127.65C670.625 127.65 678.712 123.193 684.566 114.354L683.215 113.459ZM660.376 126.029C651.595 126.029 644.5 123.374 639.018 118.109L637.895 119.278C643.722 124.875 651.241 127.65 660.376 127.65V126.029ZM639.021 118.112C633.547 112.801 630.755 105.715 630.701 96.7693L629.08 96.7792C629.137 106.085 632.056 113.613 637.892 119.275L639.021 118.112ZM744.062 114.075L743.482 114.64L743.483 114.642L744.062 114.075ZM745.322 44.2855L745.893 44.8603L745.895 44.8585L745.322 44.2855ZM808.308 39.7505L807.758 40.3452L807.76 40.3474L808.308 39.7505ZM820.99 67.2126L820.985 68.023L821.917 68.028L821.793 67.1043L820.99 67.2126ZM743.306 66.7927L742.505 66.6694L742.362 67.598L743.302 67.6031L743.306 66.7927ZM743.642 64.6091L743.607 63.7995L742.942 63.8287L742.841 64.4859L743.642 64.6091ZM802.933 62.0057L803.556 62.5245L804.73 61.1156L802.898 61.1961L802.933 62.0057ZM802.094 63.0135L801.285 63.063L801.41 65.1003L802.716 63.5323L802.094 63.0135ZM792.772 41.85L792.188 42.4119L792.19 42.4147L792.772 41.85ZM755.904 41.3461L756.556 41.8271L756.558 41.8239L755.904 41.3461ZM754.98 91.0635L755.722 90.7373L755.72 90.7334L754.98 91.0635ZM810.996 108.028L811.554 108.615L811.557 108.612L810.996 108.028ZM819.814 86.4445V85.6341H819.019L819.004 86.4292L819.814 86.4445ZM821.158 86.4445H821.968V85.6341H821.158V86.4445ZM808.98 115.334L808.419 114.749L808.417 114.751L808.98 115.334ZM777.655 126.197C763.895 126.197 752.919 121.95 744.641 113.507L743.483 114.642C752.114 123.444 763.533 127.818 777.655 127.818V126.197ZM744.643 113.509C736.361 105.008 732.191 93.775 732.191 79.7259H730.57C730.57 94.1187 734.855 105.785 743.482 114.64L744.643 113.509ZM732.191 79.7259C732.191 65.5295 736.768 53.9305 745.893 44.8603L744.75 43.7107C735.288 53.1165 730.57 65.1445 730.57 79.7259H732.191ZM745.895 44.8585C755.019 35.7348 766.785 31.1549 781.266 31.1549V29.5341C766.41 29.5341 754.213 34.2482 744.749 43.7124L745.895 44.8585ZM781.266 31.1549C792.363 31.1549 801.164 34.2421 807.758 40.3452L808.859 39.1557C801.903 32.7175 792.677 29.5341 781.266 29.5341V31.1549ZM807.76 40.3474C814.413 46.4549 818.58 55.4123 820.187 67.3209L821.793 67.1043C820.152 54.938 815.865 45.5873 808.856 39.1535L807.76 40.3474ZM820.994 66.4022L743.311 65.9823L743.302 67.6031L820.985 68.023L820.994 66.4022ZM744.107 66.9159L744.443 64.7324L742.841 64.4859L742.505 66.6694L744.107 66.9159ZM743.678 65.4188L802.969 62.8153L802.898 61.1961L743.607 63.7995L743.678 65.4188ZM802.311 61.4869L801.471 62.4947L802.716 63.5323L803.556 62.5245L802.311 61.4869ZM802.903 62.964C802.387 54.5416 799.2 47.304 793.353 41.2853L792.19 42.4147C797.765 48.1535 800.793 55.0249 801.285 63.063L802.903 62.964ZM793.356 41.2881C787.51 35.2132 780.727 32.1375 773.036 32.1375V33.7583C780.237 33.7583 786.612 36.6174 792.188 42.4119L793.356 41.2881ZM773.036 32.1375C765.46 32.1375 759.499 35.0467 755.249 40.8683L756.558 41.8239C760.483 36.448 765.943 33.7583 773.036 33.7583V32.1375ZM755.251 40.8652C751.023 46.5998 748.962 54.6613 748.962 64.9451H750.583C750.583 54.8492 752.61 47.1781 756.556 41.8271L755.251 40.8652ZM748.962 64.9451C748.962 74.674 750.716 83.4947 754.24 91.3936L755.72 90.7334C752.301 83.0676 750.583 74.4761 750.583 64.9451H748.962ZM754.238 91.3897C757.756 99.3909 762.54 105.67 768.604 110.189L769.573 108.89C763.768 104.563 759.146 98.5246 755.722 90.7373L754.238 91.3897ZM768.604 110.189C774.675 114.714 781.423 116.984 788.824 116.984V115.364C781.781 115.364 775.372 113.211 769.573 108.89L768.604 110.189ZM788.824 116.984C798.069 116.984 805.67 114.211 811.554 108.615L810.437 107.441C804.9 112.706 797.72 115.364 788.824 115.364V116.984ZM811.557 108.612C817.443 102.957 820.453 95.5479 820.624 86.4598L819.004 86.4292C818.839 95.1453 815.97 102.125 810.434 107.443L811.557 108.612ZM819.814 87.2549H821.158V85.6341H819.814V87.2549ZM820.347 86.4445C820.347 97.7063 816.375 107.123 808.419 114.749L809.541 115.919C817.822 107.981 821.968 98.1377 821.968 86.4445H820.347ZM808.417 114.751C800.528 122.366 790.299 126.197 777.655 126.197V127.818C790.653 127.818 801.308 123.867 809.543 115.917L808.417 114.751Z" fill="#EFE9E1" mask="url(#path-1-outside-1_54_589)"/>
</g>
</svg>
