<svg width="30" height="30" viewBox="0 0 30 30" fill="none" xmlns="http://www.w3.org/2000/svg">
<circle cx="14.994" cy="14.994" r="14.7" stroke="#EFE9E1" stroke-width="0.588001"/>
<path d="M15.0001 18.3332C16.841 18.3332 18.3334 16.8408 18.3334 14.9998C18.3334 13.1589 16.841 11.6665 15.0001 11.6665C13.1591 11.6665 11.6667 13.1589 11.6667 14.9998C11.6667 16.8408 13.1591 18.3332 15.0001 18.3332Z" stroke="#EFE9E1" stroke-width="0.9" stroke-linecap="round" stroke-linejoin="round"/>
<path d="M18.3334 11.6665V15.8331C18.3334 16.4962 18.5968 17.1321 19.0657 17.6009C19.5345 18.0698 20.1704 18.3331 20.8334 18.3331C21.4965 18.3331 22.1324 18.0698 22.6012 17.6009C23.07 17.1321 23.3334 16.4962 23.3334 15.8331V14.9998C23.3333 13.119 22.6969 11.2935 21.5278 9.82025C20.3587 8.34696 18.7256 7.3125 16.894 6.88506C15.0624 6.45762 13.14 6.66234 11.4395 7.46595C9.73906 8.26955 8.36042 9.62477 7.5278 11.3112C6.69519 12.9977 6.45756 14.9163 6.85356 16.7549C7.24956 18.5936 8.2559 20.2442 9.70895 21.4384C11.162 22.6326 12.9763 23.3001 14.8568 23.3324C16.7373 23.3648 18.5735 22.76 20.0668 21.6165" stroke="#EFE9E1" stroke-width="0.9" stroke-linecap="round" stroke-linejoin="round"/>
</svg>
