<svg width="30" height="30" viewBox="0 0 30 30" fill="none" xmlns="http://www.w3.org/2000/svg">
<path d="M18.35 7.98828H11.0501C9.03429 7.98828 7.40015 9.62242 7.40015 11.6382V18.9382C7.40015 20.954 9.03429 22.5881 11.0501 22.5881H18.35C20.3659 22.5881 22 20.954 22 18.9382V11.6382C22 9.62242 20.3659 7.98828 18.35 7.98828Z" stroke="#EFE9E1" stroke-width="0.875991" stroke-linecap="round" stroke-linejoin="round"/>
<path d="M17.6201 14.8281C17.7102 15.4356 17.6064 16.0561 17.3236 16.6012C17.0407 17.1464 16.5931 17.5885 16.0445 17.8646C15.4959 18.1407 14.8742 18.2369 14.2678 18.1393C13.6615 18.0417 13.1013 17.7554 12.667 17.3211C12.2327 16.8868 11.9464 16.3267 11.8489 15.7203C11.7513 15.1139 11.8474 14.4922 12.1235 13.9436C12.3996 13.395 12.8417 12.9474 13.3869 12.6646C13.932 12.3817 14.5525 12.2779 15.1601 12.368C15.7798 12.4599 16.3535 12.7487 16.7965 13.1917C17.2395 13.6347 17.5282 14.2084 17.6201 14.8281Z" stroke="#EFE9E1" stroke-width="0.875991" stroke-linecap="round" stroke-linejoin="round"/>
<path d="M18.7151 11.2734H18.7224" stroke="#EFE9E1" stroke-width="0.875991" stroke-linecap="round" stroke-linejoin="round"/>
<circle cx="14.994" cy="14.994" r="14.7" stroke="#EFE9E1" stroke-width="0.588001"/>
</svg>
