<svg width="133" height="67" viewBox="0 0 133 67" fill="none" xmlns="http://www.w3.org/2000/svg">
<path d="M23.2436 60.2769L18.311 49.3146C18.0077 48.6189 17.6807 48.167 17.3298 47.9588L17.3477 47.9232H17.9631H19.9611L24.4299 58.0291L24.0463 58.5019L28.1761 47.9232H28.6132L23.5736 60.2769H23.2436ZM17.7847 60.714H17.3833H16.7054L16.6876 60.6783C17.0979 60.2858 17.3358 59.6406 17.4012 58.7427L18.1148 47.9588H18.2039L17.8561 57.155C17.8442 58.1124 17.9185 58.8854 18.0791 59.4741C18.2456 60.0569 18.5251 60.4583 18.9175 60.6783L18.8997 60.714H17.7847ZM31.0839 60.714H29.1841H28.5597L28.5418 60.6783C28.9046 60.4642 29.0503 59.9766 28.9789 59.2155L28.194 47.9232H30.2633H30.8788L30.8966 47.9588C30.5517 48.161 30.406 48.6486 30.4596 49.4217L31.1375 59.2155C31.2088 60.0004 31.405 60.488 31.7262 60.6783L31.7083 60.714H31.0839ZM35.6162 60.714L32.3873 52.0886C32.1137 51.3632 31.8105 50.9023 31.4775 50.7061L31.4953 50.6704H32.1108H34.0107H34.635L34.6529 50.7061C34.302 50.9142 34.2664 51.3751 34.5458 52.0886L37.4804 59.8755L37.2128 60.714H35.6162ZM32.9938 64.2015C32.3457 64.2015 31.8134 64.1153 31.3972 63.9429C30.9869 63.7704 30.5796 63.5237 30.1752 63.2025L30.1217 63.1401L31.0137 61.6059C31.1207 62.046 31.4834 62.4473 32.1019 62.8101C32.7203 63.1788 33.419 63.3631 34.198 63.3631C34.7867 63.3631 35.307 63.1401 35.7589 62.6941C36.2108 62.2481 36.6271 61.5881 37.0077 60.714H37.2663C36.7787 61.8319 36.199 62.6912 35.527 63.2917C34.861 63.8983 34.0166 64.2015 32.9938 64.2015ZM37.0969 60.714L40.2455 52.0886C40.4893 51.3691 40.4388 50.9083 40.0939 50.7061L40.1117 50.6704H40.4953H41.191H41.6637L41.6816 50.7061C41.3367 50.9083 41.0275 51.3632 40.7539 52.0708L37.2663 60.714H37.0969ZM44.8491 60.8745C44.2783 60.8745 43.7579 60.818 43.2882 60.705C42.8184 60.5921 42.2743 60.4196 41.6559 60.1877L41.415 60.0896V57.4226H41.5042C41.5221 57.4761 41.5548 57.5386 41.6024 57.6099C41.6143 57.6278 41.6321 57.6575 41.6559 57.6991C41.6797 57.7407 41.6975 57.7705 41.7094 57.7883C42.7976 59.7031 44.0404 60.6604 45.4378 60.6604C46.1336 60.6604 46.6955 60.4702 47.1236 60.0896C47.5577 59.7031 47.7748 59.2036 47.7748 58.5911C47.7748 58.1094 47.6469 57.714 47.3912 57.4048C47.1474 57.1253 46.8442 56.9023 46.4814 56.7358C46.1187 56.5693 45.5686 56.379 44.8313 56.1649C44.0642 55.9449 43.4844 55.7427 43.0919 55.5584C42.0573 55.1243 41.5399 54.3632 41.5399 53.275C41.5399 52.4246 41.8729 51.7616 42.5389 51.2859C43.2109 50.8102 44.1504 50.5723 45.3575 50.5723C46.6241 50.5723 47.635 50.6883 48.3902 50.9202V52.8914H48.301C48.2416 52.8319 48.1643 52.7428 48.0691 52.6238C48.0037 52.5584 47.9115 52.4781 47.7926 52.383C47.2812 51.8775 46.7312 51.494 46.1425 51.2324C45.5597 50.9648 45.0126 50.831 44.5013 50.831C43.9839 50.831 43.5706 50.9618 43.2614 51.2234C42.9582 51.4791 42.8065 51.83 42.8065 52.276C42.8065 52.6744 42.9284 52.9955 43.1722 53.2393C43.3922 53.4712 43.6688 53.6555 44.0018 53.7923C44.3348 53.9231 44.8372 54.0748 45.5092 54.2472C46.3892 54.4791 47.0166 54.6753 47.3912 54.8359C48.521 55.3057 49.086 56.1501 49.086 57.3691C49.086 58.3978 48.7024 59.2392 47.9353 59.8933C47.1742 60.5475 46.1454 60.8745 44.8491 60.8745ZM55.536 50.6526L55.5181 51.1788C53.4666 51.0421 51.4686 50.9737 49.5241 50.9737H49.1584V50.6704L55.536 50.6526ZM55.6965 59.3403L55.8035 59.4384C55.423 60.3483 54.638 60.8032 53.4487 60.8032C52.5984 60.8032 51.9205 60.5891 51.4151 60.1609C50.9096 59.7328 50.6569 59.15 50.6569 58.4127V50.7418L49.1584 50.6704C50.0682 50.6347 50.8234 50.4474 51.424 50.1085C52.0305 49.7695 52.4616 49.2908 52.7173 48.6724H52.8155V58.154C52.8155 58.8735 52.9463 59.4176 53.2079 59.7863C53.4755 60.149 53.862 60.3304 54.3675 60.3304C54.6648 60.3304 54.9324 60.2412 55.1702 60.0628C55.4081 59.8844 55.5835 59.6436 55.6965 59.3403ZM58.4441 60.714H56.7315H55.9199L55.902 60.6783C56.342 60.4642 56.5621 59.9766 56.5621 59.2155V52.6417C56.5621 51.8924 56.3242 51.4791 55.8485 51.4018V51.3394L56.6156 51.1253L58.6136 50.6704V59.2155C58.6136 59.9885 58.8306 60.4761 59.2647 60.6783L59.2469 60.714H58.4441ZM57.57 49.4038C57.1775 49.4038 56.8594 49.2938 56.6156 49.0738C56.3718 48.8538 56.2499 48.5743 56.2499 48.2353C56.2499 47.8964 56.3718 47.6169 56.6156 47.3969C56.8594 47.1769 57.1775 47.0669 57.57 47.0669C57.9684 47.0669 58.2865 47.1769 58.5244 47.3969C58.7623 47.611 58.8812 47.8905 58.8812 48.2353C58.8812 48.5802 58.7623 48.8627 58.5244 49.0827C58.2865 49.2968 57.9684 49.4038 57.57 49.4038ZM64.6622 60.8924C63.1042 60.8924 61.8644 60.4345 60.9427 59.5187C60.021 58.603 59.5601 57.3631 59.5601 55.7992C59.5601 54.2175 60.0478 52.9479 61.023 51.9905C61.9982 51.0332 63.3094 50.5545 64.9565 50.5545C66.1042 50.5545 67.24 50.721 68.3639 51.054V54.1045H68.2747C67.8406 53.0817 67.2548 52.2819 66.5175 51.7051C65.7801 51.1223 64.9892 50.831 64.1449 50.831C63.2469 50.831 62.5809 51.1223 62.1468 51.7051C61.7128 52.2878 61.4957 53.1114 61.4957 54.1758C61.4898 55.2343 61.6741 56.2006 62.0487 57.0747C62.4234 57.9429 62.9466 58.6297 63.6186 59.1352C64.2965 59.6406 65.0517 59.8933 65.8842 59.8933C66.5086 59.8933 67.0675 59.7447 67.5611 59.4474C68.0606 59.1441 68.4382 58.7308 68.6939 58.2075L68.8634 58.3056C68.4887 59.1263 67.9327 59.7625 67.1954 60.2145C66.458 60.6664 65.6136 60.8924 64.6622 60.8924ZM89.9248 60.714H87.9893H87.3649L87.347 60.6783C87.6979 60.482 87.8376 59.9944 87.7663 59.2155L87.2935 54.1402C87.2162 53.0936 87.023 52.3206 86.7137 51.8211C86.4105 51.3216 85.9883 51.0718 85.4472 51.0718C84.8287 51.0718 84.3233 51.3543 83.9308 51.9192C83.5383 52.4781 83.3421 53.2006 83.3421 54.0866H83.2172C83.2172 52.9628 83.4937 52.0946 84.0468 51.4821C84.5998 50.8637 85.3758 50.5545 86.3748 50.5545C87.243 50.5545 87.9357 50.8339 88.4531 51.3929C88.9764 51.9519 89.2886 52.7457 89.3896 53.7745L89.9427 59.2155C90.014 59.9885 90.2192 60.4761 90.5581 60.6783L90.5403 60.714H89.9248ZM77.0983 60.714H75.2163H74.5919L74.5741 60.6783C74.919 60.4523 75.0914 59.9647 75.0914 59.2155V52.6417C75.0914 51.8567 74.9011 51.4286 74.5206 51.3572V51.3216L75.1093 51.1432L77.0983 50.6704V53.3196H77.2232V59.2155C77.2232 59.9885 77.3957 60.4761 77.7406 60.6783L77.7227 60.714H77.0983ZM83.2529 60.714H81.3352H80.7197L80.693 60.6783C81.0379 60.4761 81.2103 59.9885 81.2103 59.2155V54.0866C81.2103 53.1233 81.0408 52.38 80.7019 51.8567C80.3689 51.3334 79.917 51.0718 79.3461 51.0718C78.7158 51.0718 78.2044 51.3543 77.8119 51.9192C77.4195 52.4781 77.2232 53.2006 77.2232 54.0866H77.1162C77.1162 52.9628 77.3957 52.0946 77.9546 51.4821C78.5136 50.8637 79.2985 50.5545 80.3094 50.5545C81.1836 50.5545 81.8882 50.8429 82.4234 51.4197C82.9586 51.9905 83.2172 52.7368 83.1994 53.6585H83.3243L83.36 59.2155C83.3778 59.9885 83.5562 60.4761 83.8951 60.6783L83.8773 60.714H83.2529ZM93.6004 60.714H91.8879H91.0762L91.0583 60.6783C91.4984 60.4642 91.7184 59.9766 91.7184 59.2155V52.6417C91.7184 51.8924 91.4805 51.4791 91.0048 51.4018V51.3394L91.7719 51.1253L93.7699 50.6704V59.2155C93.7699 59.9885 93.987 60.4761 94.421 60.6783L94.4032 60.714H93.6004ZM92.7263 49.4038C92.3338 49.4038 92.0157 49.2938 91.7719 49.0738C91.5281 48.8538 91.4062 48.5743 91.4062 48.2353C91.4062 47.8964 91.5281 47.6169 91.7719 47.3969C92.0157 47.1769 92.3338 47.0669 92.7263 47.0669C93.1247 47.0669 93.4429 47.1769 93.6807 47.3969C93.9186 47.611 94.0375 47.8905 94.0375 48.2353C94.0375 48.5802 93.9186 48.8627 93.6807 49.0827C93.4429 49.2968 93.1247 49.4038 92.7263 49.4038ZM97.5172 60.714H95.6352H95.0108L94.993 60.6783C95.3319 60.4761 95.5014 59.9885 95.5014 59.2155V49.3681C95.5014 48.5951 95.3141 48.164 94.9395 48.0748V48.0391L95.546 47.8696L97.6421 47.3969V59.2155C97.6421 59.9885 97.8116 60.4761 98.1505 60.6783L98.1327 60.714H97.5172ZM103.525 60.821C102.045 60.821 100.855 60.3631 99.9573 59.4474C99.0594 58.5257 98.6104 57.3096 98.6104 55.7992C98.6104 54.271 99.104 53.0163 100.091 52.0351C101.078 51.048 102.351 50.5545 103.909 50.5545C105.104 50.5545 106.061 50.8875 106.781 51.5535C107.506 52.2195 107.955 53.1917 108.128 54.4702L99.877 54.4256L99.9127 54.1937L106.21 53.9172L106.121 54.0242C106.067 53.1501 105.737 52.4008 105.131 51.7765C104.524 51.1461 103.825 50.831 103.035 50.831C102.256 50.831 101.649 51.1283 101.215 51.7229C100.781 52.3116 100.564 53.1471 100.564 54.2294C100.564 55.2522 100.748 56.1768 101.117 57.0034C101.486 57.8418 101.985 58.4959 102.615 58.9657C103.246 59.4355 103.944 59.6704 104.711 59.6704C105.675 59.6704 106.46 59.382 107.066 58.8052C107.673 58.2224 107.985 57.4583 108.003 56.5128H108.146C108.146 57.7318 107.714 58.7546 106.852 59.5812C105.996 60.4077 104.887 60.821 103.525 60.821ZM112.058 60.8745C111.487 60.8745 110.967 60.818 110.497 60.705C110.027 60.5921 109.483 60.4196 108.864 60.1877L108.624 60.0896V57.4226H108.713C108.731 57.4761 108.763 57.5386 108.811 57.6099C108.823 57.6278 108.841 57.6575 108.864 57.6991C108.888 57.7407 108.906 57.7705 108.918 57.7883C110.006 59.7031 111.249 60.6604 112.646 60.6604C113.342 60.6604 113.904 60.4702 114.332 60.0896C114.766 59.7031 114.983 59.2036 114.983 58.5911C114.983 58.1094 114.856 57.714 114.6 57.4048C114.356 57.1253 114.053 56.9023 113.69 56.7358C113.327 56.5693 112.777 56.379 112.04 56.1649C111.273 55.9449 110.693 55.7427 110.301 55.5584C109.266 55.1243 108.749 54.3632 108.749 53.275C108.749 52.4246 109.082 51.7616 109.748 51.2859C110.419 50.8102 111.359 50.5723 112.566 50.5723C113.833 50.5723 114.844 50.6883 115.599 50.9202V52.8914H115.51C115.45 52.8319 115.373 52.7428 115.278 52.6238C115.212 52.5584 115.12 52.4781 115.001 52.383C114.49 51.8775 113.94 51.494 113.351 51.2324C112.768 50.9648 112.221 50.831 111.71 50.831C111.193 50.831 110.779 50.9618 110.47 51.2234C110.167 51.4791 110.015 51.83 110.015 52.276C110.015 52.6744 110.137 52.9955 110.381 53.2393C110.601 53.4712 110.877 53.6555 111.21 53.7923C111.543 53.9231 112.046 54.0748 112.718 54.2472C113.598 54.4791 114.225 54.6753 114.6 54.8359C115.73 55.3057 116.295 56.1501 116.295 57.3691C116.295 58.3978 115.911 59.2392 115.144 59.8933C114.383 60.5475 113.354 60.8745 112.058 60.8745Z" fill="#EFE9E1"/>
<path d="M66.6998 33.3655L67.0796 21.298L69.4275 23.5473L74.5093 28.3742L77.2812 30.9267C77.6314 31.3037 78.3938 32.1018 78.6418 32.2788C78.952 32.4999 79.0026 32.4557 79.1924 32.4683C79.3823 32.4809 79.5025 32.2914 79.5785 32.2345C79.6392 32.189 79.6882 32.0976 79.7051 32.0576L79.7937 31.5143L79.376 24.6213L78.933 24.2801C78.7853 24.2085 78.4596 24.1083 78.3381 24.2801C78.2166 24.452 78.0596 25.3753 77.9963 25.8154L77.6989 27.9446L75.4143 25.8154L71.402 22.2205L69.3199 20.3061L81.8947 20.0092H84.9535C85.0378 19.8617 85.2185 19.4456 85.2489 19.2636C85.2859 19.0421 85.1787 18.8744 85.1322 18.8017L85.1286 18.7961C85.0932 18.7405 85.0886 18.7182 85.0907 18.714L83.5718 17.2229L79.5215 13.4574L79.319 13.3563L78.9393 13.192C78.8929 13.1899 78.7735 13.1971 78.6672 13.2426C78.5343 13.2994 78.5849 13.2742 78.5849 13.3563V13.5964L78.7241 14.1334L79.9329 16.073L80.9771 17.5388L73.4145 17.741L68.2757 17.8989L70.0856 16.1994L73.5157 12.8572L75.9016 10.5069L77.7748 8.71255C78.5469 7.95649 80.1063 6.42037 80.167 6.32434C80.2278 6.2283 80.2388 6.02739 80.2367 5.93894C80.2409 5.87576 80.2088 5.72286 80.0468 5.61672C79.8848 5.51057 79.6165 5.4714 79.5025 5.46509H78.0596L71.8956 5.28818C71.8534 5.29871 71.7551 5.32988 71.6994 5.37031C71.6437 5.41075 71.537 5.58092 71.4906 5.66094C71.4906 5.97053 71.5412 5.90735 71.5855 6.00843C71.6209 6.08931 71.9589 6.16428 72.1234 6.19166L75.7054 6.66551L75.1611 7.26572L73.8638 8.69991L69.3072 13.7291L66.8454 16.4332V16.2626L66.7821 13.5269L66.7315 8.81995L66.6619 6.58337L66.6239 3.3675L66.5606 1.73745V0.63812L66.5226 0.492805L66.4594 0.353809C66.4298 0.305371 66.3682 0.200913 66.3581 0.170586C66.3454 0.132678 66.2505 0.0884522 66.1556 0.0442261C66.0796 0.00884523 66.01 0 65.9847 0L65.7569 0.0442261L65.5291 0.208495L64.6051 0.998247L62.3395 3.18428L60.5991 4.84592C60.5042 5.0481 60.6054 5.28186 60.5991 5.364C60.5928 5.44613 60.713 5.59776 60.8902 5.71149C61.032 5.80247 61.4049 5.7494 61.5737 5.71149L62.8394 5.18709L64.4216 4.11935L64.4785 12.4781L64.5228 15.9909L59.46 11.284L55.5426 7.69535C54.665 6.87821 52.8922 5.23764 52.8213 5.21236C52.7504 5.18709 52.6314 5.12181 52.5808 5.09232C52.5281 5.07758 52.3935 5.05694 52.277 5.09232C52.1315 5.13655 51.9733 5.20605 51.9479 5.2945C51.9277 5.36526 51.8467 5.6104 51.8087 5.72413L51.7518 7.99229L51.8847 11.2777L51.9669 12.7498C51.9838 12.7771 52.0074 12.8458 51.9669 12.9014C51.9264 12.957 52.1568 13.211 52.277 13.331C52.3804 13.4132 52.6226 13.5357 52.7643 13.3689C52.9061 13.2021 53.047 12.9414 53.0997 12.8319L53.587 11.2145L54.0364 9.50862L62.7888 17.8168L46.961 17.9811C46.8977 18.0021 46.7484 18.1074 46.6573 18.3602C46.5661 18.6129 46.6193 18.7392 46.6573 18.7708L48.1318 20.4198L51.91 24.2359C52.0471 24.4402 52.3745 24.8526 52.5871 24.8677C52.7998 24.8829 52.9542 24.7772 53.0048 24.7224C53.0618 24.634 53.182 24.3964 53.2073 24.1538C53.2326 23.9112 53.0829 23.442 53.0048 23.2377L52.6694 22.568L52.3213 22.0183L51.6695 21.178L51.1316 20.5588L62.5989 20.1671L62.4787 20.3061L55.0489 27.9699L52.8719 30.2317L51.7897 31.3184C51.7581 31.3584 51.6948 31.5092 51.6948 31.7923C51.6948 32.1461 51.8657 32.1334 52.0619 32.2598C52.2188 32.3609 52.5956 32.3777 52.7643 32.3735L55.2261 32.3167C56.8758 32.1987 60.1915 31.9629 60.2574 31.9629C60.3232 31.9629 60.3565 31.8912 60.3649 31.8554C60.4303 31.8386 60.5611 31.7316 60.5611 31.4385V31.3184L60.3649 31.1605L59.789 30.952L56.1438 30.2759C56.0868 30.2612 55.9818 30.2153 56.0172 30.1496L64.3773 21.7529V31.8049C64.3562 33.4518 64.3266 36.8303 64.3773 37.1689C64.4279 37.5075 64.9468 37.5332 65.2 37.5038L65.7379 37.3332L71.2438 32.3419C71.383 32.1271 71.5779 31.6444 71.2438 31.4321C70.9096 31.2199 70.497 31.3437 70.3324 31.4321L66.6998 33.3655Z" fill="#CD9900"/>
</svg>
