<svg width="193" height="129" viewBox="0 0 193 129" fill="none" xmlns="http://www.w3.org/2000/svg">
<rect x="86" y="127" width="21" height="2" rx="1" fill="#0A0908" fill-opacity="0.53"/>
<path d="M33.8935 87.2733L26.7569 71.4129C26.3182 70.4063 25.845 69.7525 25.3374 69.4514L25.3632 69.3997H26.2536H29.1444L35.6099 84.0213L35.0549 84.7052L41.03 69.3997H41.6624L34.371 87.2733H33.8935ZM25.9955 87.9057H25.4148H24.434L24.4082 87.8541C25.0018 87.2863 25.346 86.3528 25.4406 85.0537L26.473 69.4514H26.6021L26.0988 82.7566C26.0816 84.1417 26.1891 85.2601 26.4214 86.1119C26.6623 86.955 27.0667 87.5358 27.6345 87.8541L27.6087 87.9057H25.9955ZM45.2371 87.9057H42.4883H41.5849L41.5591 87.8541C42.0839 87.5444 42.2947 86.8389 42.1915 85.7376L41.0558 69.3997H44.0498H44.9403L44.9661 69.4514C44.4671 69.7439 44.2563 70.4494 44.3337 71.5678L45.3145 85.7376C45.4178 86.8733 45.7017 87.5788 46.1663 87.8541L46.1404 87.9057H45.2371ZM51.7944 87.9057L47.1228 75.4264C46.727 74.3768 46.2883 73.7101 45.8065 73.4261L45.8323 73.3745H46.7227H49.4715H50.3749L50.4007 73.4261C49.8931 73.7273 49.8415 74.394 50.2458 75.4264L54.4916 86.6926L54.1045 87.9057H51.7944ZM48.0003 92.9516C47.0626 92.9516 46.2926 92.8269 45.6903 92.5774C45.0967 92.3279 44.5073 91.9708 43.9223 91.5062L43.8449 91.4159L45.1354 89.1962C45.2903 89.8329 45.8151 90.4136 46.7098 90.9384C47.6046 91.4718 48.6155 91.7385 49.7425 91.7385C50.5943 91.7385 51.3471 91.4159 52.0009 90.7706C52.6548 90.1254 53.257 89.1704 53.8076 87.9057H54.1819C53.4764 89.5231 52.6376 90.7663 51.6654 91.6353C50.7018 92.5128 49.4801 92.9516 48.0003 92.9516ZM53.9367 87.9057L58.4922 75.4264C58.8449 74.3854 58.7718 73.7187 58.2728 73.4261L58.2986 73.3745H58.8535H59.8601H60.5441L60.5699 73.4261C60.0709 73.7187 59.6236 74.3768 59.2278 75.4006L54.1819 87.9057H53.9367ZM65.1528 88.138C64.3269 88.138 63.5741 88.0563 62.8944 87.8928C62.2147 87.7293 61.4275 87.4798 60.5328 87.1443L60.1843 87.0023V83.1437H60.3134C60.3392 83.2211 60.3865 83.3115 60.4553 83.4147C60.4725 83.4405 60.4984 83.4835 60.5328 83.5438C60.5672 83.604 60.593 83.647 60.6102 83.6728C62.1846 86.4431 63.9827 87.8283 66.0045 87.8283C67.0111 87.8283 67.8242 87.553 68.4436 87.0023C69.0717 86.4431 69.3857 85.7204 69.3857 84.8343C69.3857 84.1374 69.2007 83.5653 68.8308 83.1179C68.478 82.7135 68.0392 82.3909 67.5144 82.15C66.9896 81.9091 66.1938 81.6338 65.127 81.3241C64.0172 81.0058 63.1783 80.7132 62.6105 80.4465C61.1135 79.8185 60.365 78.7172 60.365 77.1428C60.365 75.9125 60.8468 74.9533 61.8104 74.265C62.7826 73.5767 64.1419 73.2326 65.8884 73.2326C67.7209 73.2326 69.1835 73.4003 70.2761 73.7359V76.5879H70.1471C70.0611 76.5019 69.9492 76.3728 69.8116 76.2007C69.7169 76.1061 69.5836 75.99 69.4115 75.8523C68.6716 75.121 67.8758 74.5661 67.024 74.1875C66.1809 73.8004 65.3894 73.6068 64.6495 73.6068C63.901 73.6068 63.3031 73.7961 62.8557 74.1746C62.4169 74.5446 62.1975 75.0522 62.1975 75.6974C62.1975 76.2739 62.3739 76.7385 62.7266 77.0912C63.045 77.4267 63.445 77.6934 63.9268 77.8913C64.4086 78.0806 65.1356 78.3 66.1078 78.5495C67.3811 78.885 68.2887 79.1689 68.8308 79.4012C70.4654 80.0809 71.2827 81.3026 71.2827 83.0663C71.2827 84.5547 70.7278 85.7721 69.618 86.7184C68.5167 87.6648 67.0283 88.138 65.1528 88.138ZM80.6147 73.3487L80.5889 74.1101C77.6207 73.9122 74.73 73.8133 71.9166 73.8133H71.3875V73.3745L80.6147 73.3487ZM80.847 85.9183L81.0019 86.0603C80.4512 87.3766 79.3156 88.0348 77.5949 88.0348C76.3646 88.0348 75.3838 87.725 74.6525 87.1056C73.9212 86.4861 73.5556 85.643 73.5556 84.5762V73.4778L71.3875 73.3745C72.7039 73.3229 73.7965 73.0519 74.6654 72.5615C75.543 72.0711 76.1667 71.3785 76.5367 70.4838H76.6786V84.2019C76.6786 85.2429 76.8679 86.0302 77.2465 86.5636C77.6336 87.0884 78.1928 87.3508 78.9241 87.3508C79.3543 87.3508 79.7415 87.2217 80.0856 86.9636C80.4297 86.7055 80.6835 86.3571 80.847 85.9183ZM84.8223 87.9057H82.3445H81.1701L81.1443 87.8541C81.781 87.5444 82.0993 86.8389 82.0993 85.7376V76.2266C82.0993 75.1425 81.7552 74.5446 81.0669 74.4327V74.3424L82.1767 74.0327L85.0675 73.3745V85.7376C85.0675 86.8561 85.3815 87.5616 86.0096 87.8541L85.9837 87.9057H84.8223ZM83.5576 71.542C82.9898 71.542 82.5295 71.3828 82.1767 71.0645C81.824 70.7462 81.6476 70.3418 81.6476 69.8514C81.6476 69.361 81.824 68.9567 82.1767 68.6383C82.5295 68.32 82.9898 68.1609 83.5576 68.1609C84.134 68.1609 84.5943 68.32 84.9384 68.6383C85.2826 68.9481 85.4546 69.3524 85.4546 69.8514C85.4546 70.3504 85.2826 70.7591 84.9384 71.0774C84.5943 71.3871 84.134 71.542 83.5576 71.542ZM93.8187 88.1638C91.5646 88.1638 89.7708 87.5013 88.4373 86.1764C87.1037 84.8515 86.437 83.0577 86.437 80.795C86.437 78.5065 87.1425 76.6696 88.5534 75.2845C89.9644 73.8993 91.8614 73.2068 94.2446 73.2068C95.905 73.2068 97.5483 73.4477 99.1743 73.9294V78.343H99.0453C98.4172 76.8632 97.5698 75.7061 96.503 74.8715C95.4361 74.0284 94.2919 73.6068 93.0702 73.6068C91.7711 73.6068 90.8075 74.0284 90.1795 74.8715C89.5514 75.7147 89.2374 76.9062 89.2374 78.4462C89.2288 79.9776 89.4955 81.3757 90.0375 82.6404C90.5795 83.8965 91.3366 84.8902 92.3088 85.6215C93.2896 86.3528 94.3822 86.7184 95.5867 86.7184C96.4901 86.7184 97.2988 86.5033 98.0129 86.0732C98.7356 85.6344 99.2819 85.0365 99.6518 84.2794L99.897 84.4213C99.355 85.6086 98.5506 86.5292 97.4838 87.183C96.4169 87.8369 95.1953 88.1638 93.8187 88.1638ZM130.369 87.9057H127.569H126.665L126.64 87.8541C127.147 87.5702 127.349 86.8647 127.246 85.7376L126.562 78.3946C126.45 76.8804 126.171 75.762 125.723 75.0393C125.285 74.3166 124.674 73.9553 123.891 73.9553C122.996 73.9553 122.265 74.3639 121.697 75.1812C121.129 75.99 120.845 77.0353 120.845 78.3172H120.664C120.664 76.6911 121.065 75.435 121.865 74.5489C122.665 73.6541 123.788 73.2068 125.233 73.2068C126.489 73.2068 127.491 73.6111 128.24 74.4198C128.997 75.2286 129.449 76.3771 129.595 77.8655L130.395 85.7376C130.498 86.8561 130.795 87.5616 131.285 87.8541L131.26 87.9057H130.369ZM111.812 87.9057H109.089H108.185L108.159 87.8541C108.658 87.5272 108.908 86.8217 108.908 85.7376V76.2266C108.908 75.0909 108.633 74.4715 108.082 74.3682V74.3166L108.934 74.0585L111.812 73.3745V77.2073H111.992V85.7376C111.992 86.8561 112.242 87.5616 112.741 87.8541L112.715 87.9057H111.812ZM120.716 87.9057H117.941H117.051L117.012 87.8541C117.511 87.5616 117.761 86.8561 117.761 85.7376V78.3172C117.761 76.9234 117.516 75.848 117.025 75.0909C116.543 74.3338 115.89 73.9553 115.064 73.9553C114.152 73.9553 113.412 74.3639 112.844 75.1812C112.276 75.99 111.992 77.0353 111.992 78.3172H111.837C111.837 76.6911 112.242 75.435 113.05 74.5489C113.859 73.6541 114.995 73.2068 116.457 73.2068C117.722 73.2068 118.742 73.624 119.516 74.4586C120.29 75.2845 120.664 76.3642 120.639 77.6977H120.819L120.871 85.7376C120.897 86.8561 121.155 87.5616 121.645 87.8541L121.619 87.9057H120.716ZM135.158 87.9057H132.681H131.506L131.481 87.8541C132.117 87.5444 132.435 86.8389 132.435 85.7376V76.2266C132.435 75.1425 132.091 74.5446 131.403 74.4327V74.3424L132.513 74.0327L135.404 73.3745V85.7376C135.404 86.8561 135.718 87.5616 136.346 87.8541L136.32 87.9057H135.158ZM133.894 71.542C133.326 71.542 132.866 71.3828 132.513 71.0645C132.16 70.7462 131.984 70.3418 131.984 69.8514C131.984 69.361 132.16 68.9567 132.513 68.6383C132.866 68.32 133.326 68.1609 133.894 68.1609C134.47 68.1609 134.93 68.32 135.275 68.6383C135.619 68.9481 135.791 69.3524 135.791 69.8514C135.791 70.3504 135.619 70.7591 135.275 71.0774C134.93 71.3871 134.47 71.542 133.894 71.542ZM140.825 87.9057H138.102H137.199L137.173 87.8541C137.664 87.5616 137.909 86.8561 137.909 85.7376V71.4904C137.909 70.3719 137.638 69.7482 137.096 69.6191V69.5675L137.973 69.3223L141.006 68.6383V85.7376C141.006 86.8561 141.251 87.5616 141.742 87.8541L141.716 87.9057H140.825ZM149.518 88.0606C147.376 88.0606 145.655 87.3981 144.356 86.0732C143.057 84.7396 142.407 82.9802 142.407 80.795C142.407 78.5839 143.121 76.7686 144.549 75.349C145.977 73.9208 147.819 73.2068 150.073 73.2068C151.802 73.2068 153.187 73.6885 154.228 74.6521C155.278 75.6157 155.927 77.0224 156.177 78.8721L144.24 78.8076L144.291 78.4721L153.402 78.072L153.273 78.2269C153.196 76.9622 152.718 75.8781 151.841 74.9748C150.963 74.0628 149.952 73.6068 148.808 73.6068C147.681 73.6068 146.803 74.037 146.175 74.8973C145.547 75.7491 145.233 76.9578 145.233 78.5237C145.233 80.0035 145.5 81.3413 146.033 82.5372C146.567 83.7502 147.289 84.6966 148.201 85.3763C149.113 86.056 150.124 86.3958 151.234 86.3958C152.628 86.3958 153.764 85.9785 154.641 85.144C155.519 84.3009 155.97 83.1953 155.996 81.8274H156.203C156.203 83.5911 155.579 85.0709 154.331 86.2667C153.092 87.4626 151.488 88.0606 149.518 88.0606ZM161.863 88.138C161.037 88.138 160.284 88.0563 159.604 87.8928C158.925 87.7293 158.138 87.4798 157.243 87.1443L156.894 87.0023V83.1437H157.023C157.049 83.2211 157.097 83.3115 157.165 83.4147C157.183 83.4405 157.208 83.4835 157.243 83.5438C157.277 83.604 157.303 83.647 157.32 83.6728C158.895 86.4431 160.693 87.8283 162.715 87.8283C163.721 87.8283 164.534 87.553 165.154 87.0023C165.782 86.4431 166.096 85.7204 166.096 84.8343C166.096 84.1374 165.911 83.5653 165.541 83.1179C165.188 82.7135 164.749 82.3909 164.224 82.15C163.7 81.9091 162.904 81.6338 161.837 81.3241C160.727 81.0058 159.888 80.7132 159.32 80.4465C157.824 79.8185 157.075 78.7172 157.075 77.1428C157.075 75.9125 157.557 74.9533 158.52 74.265C159.493 73.5767 160.852 73.2326 162.598 73.2326C164.431 73.2326 165.894 73.4003 166.986 73.7359V76.5879H166.857C166.771 76.5019 166.659 76.3728 166.522 76.2007C166.427 76.1061 166.294 75.99 166.122 75.8523C165.382 75.121 164.586 74.5661 163.734 74.1875C162.891 73.8004 162.099 73.6068 161.36 73.6068C160.611 73.6068 160.013 73.7961 159.566 74.1746C159.127 74.5446 158.908 75.0522 158.908 75.6974C158.908 76.2739 159.084 76.7385 159.437 77.0912C159.755 77.4267 160.155 77.6934 160.637 77.8913C161.119 78.0806 161.846 78.3 162.818 78.5495C164.091 78.885 164.999 79.1689 165.541 79.4012C167.175 80.0809 167.993 81.3026 167.993 83.0663C167.993 84.5547 167.438 85.7721 166.328 86.7184C165.227 87.6648 163.738 88.138 161.863 88.138Z" fill="#0A0908"/>
<path d="M96.5025 48.2737L97.0519 30.8144L100.449 34.0686L107.801 41.0523L111.812 44.7453C112.318 45.2907 113.422 46.4455 113.78 46.7015C114.229 47.0214 114.302 46.9574 114.577 46.9757C114.852 46.994 115.026 46.7198 115.136 46.6375C115.223 46.5717 115.294 46.4394 115.319 46.3815L115.447 45.5954L114.843 35.6226L114.202 35.1289C113.988 35.0253 113.517 34.8803 113.341 35.1289C113.165 35.3776 112.938 36.7134 112.847 37.3502L112.416 40.4307L109.111 37.3502L103.306 32.149L100.293 29.3792L118.487 28.9496H122.912C123.034 28.7363 123.296 28.1342 123.34 27.871C123.393 27.5504 123.238 27.3079 123.171 27.2026L123.166 27.1945C123.114 27.1141 123.108 27.0818 123.111 27.0757L120.913 24.9184L115.053 19.4704L114.76 19.3241L114.211 19.0865C114.144 19.0834 113.971 19.0938 113.817 19.1596C113.625 19.2418 113.698 19.2053 113.698 19.3241V19.6715L113.899 20.4485L115.648 23.2548L117.159 25.3755L106.217 25.668L98.7824 25.8965L101.401 23.4376L106.364 18.602L109.816 15.2015L112.526 12.6055C113.643 11.5116 115.899 9.28911 115.987 9.15016C116.075 9.01122 116.091 8.72053 116.088 8.59256C116.094 8.50115 116.048 8.27994 115.813 8.12637C115.579 7.9728 115.191 7.91612 115.026 7.90698H112.938L104.02 7.65103C103.959 7.66627 103.817 7.71136 103.736 7.76987C103.655 7.82837 103.501 8.07457 103.434 8.19036C103.434 8.63826 103.507 8.54685 103.571 8.69311C103.622 8.81012 104.111 8.91859 104.349 8.9582L109.532 9.64378L108.744 10.5122L106.867 12.5872L100.275 19.8634L96.7131 23.7758V23.529L96.6216 19.5709L96.5483 12.7609L96.4476 9.52494L96.3927 4.87216L96.3011 2.51378V0.923243L96.2462 0.713L96.1546 0.511897C96.1119 0.441816 96.0227 0.290684 96.0081 0.246808C95.9898 0.191961 95.8524 0.127974 95.7151 0.0639872C95.6052 0.0127974 95.5045 0 95.4679 0L95.1382 0.0639872L94.8086 0.301654L93.4718 1.44428L90.1939 4.60707L87.6759 7.01116C87.5385 7.30368 87.685 7.64189 87.6759 7.76073C87.6667 7.87956 87.8407 8.09894 88.0971 8.26348C88.3022 8.39511 88.8418 8.31833 89.0859 8.26348L90.9172 7.50478L93.2063 5.95995L93.2887 18.0535L93.3528 23.1359L86.0277 16.3259L80.36 11.1338C79.0903 9.95152 76.5253 7.57791 76.4228 7.54134C76.3202 7.50478 76.1481 7.41032 76.0749 7.36767C75.9986 7.34634 75.8038 7.31648 75.6354 7.36767C75.4248 7.43165 75.1958 7.5322 75.1592 7.66018C75.1299 7.76256 75.0127 8.11723 74.9578 8.28177L74.8754 11.5634L75.0677 16.3167L75.1867 18.4466C75.2111 18.4862 75.2453 18.5855 75.1867 18.666C75.1281 18.7464 75.4614 19.1139 75.6354 19.2876C75.7849 19.4064 76.1353 19.5837 76.3404 19.3424C76.5455 19.1011 76.7494 18.7239 76.8257 18.5654L77.5307 16.2253L78.1808 13.7572L90.8439 25.7777L67.9441 26.0153C67.8525 26.0458 67.6364 26.1982 67.5046 26.5638C67.3727 26.9294 67.4496 27.1123 67.5046 27.158L69.638 29.5438L75.1043 35.065C75.3027 35.3605 75.7764 35.9571 76.084 35.9791C76.3917 36.001 76.6151 35.848 76.6883 35.7688C76.7707 35.6408 76.9447 35.2971 76.9813 34.9461C77.0179 34.5951 76.8012 33.9162 76.6883 33.6207L76.203 32.6517L75.6994 31.8565L74.7563 30.6407L73.9781 29.7449L90.5693 29.1781L90.3953 29.3792L79.6458 40.4673L76.496 43.7398L74.9303 45.312C74.8845 45.3699 74.793 45.5881 74.793 45.9976C74.793 46.5095 75.0402 46.4912 75.324 46.6741C75.5511 46.8203 76.0962 46.8447 76.3404 46.8386L79.9022 46.7563C82.2889 46.5857 87.0862 46.2444 87.1814 46.2444C87.2767 46.2444 87.3249 46.1408 87.3371 46.089C87.4317 46.0647 87.6209 45.9099 87.6209 45.4857V45.312L87.3371 45.0835L86.5039 44.7819L81.2299 43.8038C81.1474 43.7824 80.9955 43.716 81.0467 43.621L93.1422 31.4725V46.0159C93.1117 48.3987 93.0689 53.2867 93.1422 53.7766C93.2154 54.2666 93.9662 54.3038 94.3325 54.2611L95.1108 54.0143L103.077 46.7929C103.278 46.4821 103.56 45.7837 103.077 45.4766C102.593 45.1694 101.996 45.3486 101.758 45.4766L96.5025 48.2737Z" fill="#CD9900"/>
</svg>
