<svg width="1231" height="116" viewBox="0 0 1231 116" fill="none" xmlns="http://www.w3.org/2000/svg">
<g opacity="0.7">
<mask id="path-1-outside-1_54_564" maskUnits="userSpaceOnUse" x="-1" y="-1" width="1232" height="118" fill="black">
<rect fill="white" x="-1" y="-1" width="1232" height="118"/>
<path d="M82.3335 101.655C73.2635 111.005 61.6739 115.68 47.565 115.68C33.456 115.68 22.1184 111.285 13.5522 102.494C5.04207 93.7043 0.786976 82.1148 0.786976 67.7259C0.786976 53.169 5.23802 41.2996 14.1401 32.1175C23.0982 22.9355 34.7157 18.3445 48.9927 18.3445C63.1576 18.3445 74.5232 22.7675 83.0894 31.6136C91.6555 40.4597 95.9386 51.8253 95.9386 65.7103C95.9386 80.3232 91.4036 92.3046 82.3335 101.655ZM54.6195 113.496C61.618 113.496 67.1888 110.445 71.3319 104.342C75.475 98.2394 77.5465 89.9811 77.5465 79.5674C77.5465 69.6575 75.8109 60.0835 72.3397 50.8455C68.8684 41.7755 64.3054 34.525 58.6506 29.0942C53.0518 23.6633 47.201 20.9479 41.0983 20.9479C34.1558 20.9479 28.753 23.8593 24.8898 29.682C21.0826 35.5048 19.179 43.4831 19.179 53.6169C19.179 63.6948 20.8587 73.4367 24.218 82.8427C27.5772 92.1927 31.9163 99.6391 37.2352 105.182C42.61 110.725 48.4048 113.496 54.6195 113.496ZM195.582 19.4362V99.891C195.582 107.169 197.177 111.76 200.369 113.664L200.201 114H194.406H176.182V74.2765L175.258 73.6046V37.9963C175.258 30.6618 173.494 26.5747 169.967 25.7349V25.399L175.594 23.8873L195.582 19.4362ZM113.867 84.7743L113.699 37.9963C113.699 30.6618 111.992 26.5747 108.576 25.7349V25.399L114.035 23.8873L134.023 19.4362V81.331C133.967 90.4011 135.534 97.3716 138.726 102.243C141.973 107.113 146.424 109.549 152.079 109.549C158.965 109.549 164.536 105.49 168.791 97.3716C173.102 89.2533 175.258 78.9235 175.258 66.3822H176.518C176.518 81.443 173.634 93.2844 167.868 101.907C162.157 110.529 154.318 114.84 144.353 114.84C135.394 114.84 128.088 112.124 122.433 106.694C116.778 101.207 113.923 93.9003 113.867 84.7743ZM242.904 114H225.184H219.305L219.137 113.664C222.384 111.537 224.008 106.946 224.008 99.891V37.9963C224.008 30.7178 222.216 26.6307 218.633 25.7349V25.399L224.176 23.8873L243.744 19.4362L243.24 41.1036H244.08V99.891C244.08 107.169 245.703 111.76 248.951 113.664L248.783 114H242.904ZM244.08 52.4412H243.072C242.456 41.7475 244.164 33.4052 248.195 27.4145C252.282 21.3678 258.273 18.3445 266.167 18.3445C271.43 18.3445 275.937 19.2683 279.688 21.1159V44.2109H279.016C277.224 39.172 274.621 35.1689 271.206 32.2015C267.79 29.1782 264.207 27.6665 260.456 27.6665C255.137 27.6665 251.078 29.766 248.279 33.9651C245.479 38.1082 244.08 44.2669 244.08 52.4412ZM402.382 115.68C387.713 115.68 376.04 111.369 367.362 102.746C358.684 94.1243 354.345 82.4508 354.345 67.7259C354.345 52.8331 358.936 40.8796 368.118 31.8656C377.3 22.8515 389.645 18.3445 405.154 18.3445C415.959 18.3445 426.653 19.9121 437.235 23.0475V51.7693H436.395C432.308 42.1394 426.793 34.609 419.851 29.1782C412.908 23.6913 405.462 20.9479 397.511 20.9479C389.057 20.9479 382.787 23.6913 378.699 29.1782C374.612 34.665 372.569 42.4193 372.569 52.4412C372.513 62.407 374.248 71.5051 377.776 79.7353C381.303 87.9096 386.23 94.3762 392.556 99.1352C398.939 103.894 406.05 106.274 413.888 106.274C419.767 106.274 425.029 104.874 429.676 102.075C434.379 99.2192 437.935 95.328 440.342 90.4011L441.938 91.3249C438.411 99.0512 433.176 105.042 426.233 109.297C419.291 113.552 411.34 115.68 402.382 115.68ZM540.909 19.4362V99.891C540.909 107.169 542.505 111.76 545.696 113.664L545.528 114H539.733H521.509V74.2765L520.585 73.6046V37.9963C520.585 30.6618 518.822 26.5747 515.294 25.7349V25.399L520.921 23.8873L540.909 19.4362ZM459.194 84.7743L459.027 37.9963C459.027 30.6618 457.319 26.5747 453.904 25.7349V25.399L459.362 23.8873L479.35 19.4362V81.331C479.294 90.4011 480.862 97.3716 484.053 102.243C487.3 107.113 491.752 109.549 497.406 109.549C504.293 109.549 509.864 105.49 514.119 97.3716C518.43 89.2533 520.585 78.9235 520.585 66.3822H521.845C521.845 81.443 518.962 93.2844 513.195 101.907C507.484 110.529 499.646 114.84 489.68 114.84C480.722 114.84 473.415 112.124 467.761 106.694C462.106 101.207 459.25 93.9003 459.194 84.7743ZM595.622 115.512C590.247 115.512 585.348 114.98 580.925 113.916C576.502 112.852 571.379 111.229 565.556 109.045L563.289 108.121V83.0106H564.128C564.296 83.5145 564.604 84.1024 565.052 84.7743C565.164 84.9422 565.332 85.2222 565.556 85.6141C565.78 86.006 565.948 86.2859 566.06 86.4539C576.306 104.482 588.007 113.496 601.164 113.496C607.715 113.496 613.006 111.704 617.037 108.121C621.124 104.482 623.168 99.779 623.168 94.0123C623.168 89.4772 621.964 85.754 619.557 82.8427C617.261 80.2112 614.406 78.1117 610.99 76.544C607.575 74.9764 602.396 73.1847 595.454 71.1692C588.231 69.0976 582.772 67.194 579.077 65.4584C569.335 61.3713 564.464 54.2048 564.464 43.959C564.464 35.9527 567.6 29.71 573.87 25.231C580.197 20.752 589.043 18.5124 600.409 18.5124C612.334 18.5124 621.852 19.6042 628.962 21.7877V40.3478H628.123C627.563 39.7879 626.835 38.9481 625.939 37.8283C625.323 37.2124 624.455 36.4566 623.336 35.5608C618.521 30.8018 613.342 27.1906 607.799 24.7271C602.312 22.2076 597.161 20.9479 592.346 20.9479C587.475 20.9479 583.584 22.1796 580.673 24.6431C577.817 27.0506 576.39 30.3539 576.39 34.553C576.39 38.3042 577.538 41.3276 579.833 43.6231C581.905 45.8066 584.508 47.5422 587.643 48.8299C590.779 50.0617 595.51 51.4894 601.836 53.113C610.123 55.2966 616.029 57.1442 619.557 58.6558C630.194 63.0789 635.513 71.0292 635.513 82.5067C635.513 92.1927 631.902 100.115 624.679 106.274C617.513 112.432 607.827 115.512 595.622 115.512ZM708.282 19.2683L708.114 24.2232C688.798 22.9355 669.986 22.2916 651.678 22.2916H648.235V19.4362L708.282 19.2683ZM709.793 101.067L710.801 101.991C707.218 110.557 699.828 114.84 688.63 114.84C680.624 114.84 674.241 112.824 669.482 108.793C664.723 104.762 662.344 99.2752 662.344 92.3326V20.1081L648.235 19.4362C656.801 19.1003 663.911 17.3367 669.566 14.1454C675.277 10.9541 679.336 6.44702 681.743 0.624262H682.667V89.8972C682.667 96.6717 683.899 101.795 686.362 105.266C688.882 108.681 692.521 110.389 697.28 110.389C700.08 110.389 702.599 109.549 704.839 107.869C707.078 106.19 708.73 103.922 709.793 101.067ZM794.656 101.655C785.586 111.005 773.996 115.68 759.887 115.68C745.778 115.68 734.441 111.285 725.874 102.494C717.364 93.7043 713.109 82.1148 713.109 67.7259C713.109 53.169 717.56 41.2996 726.462 32.1175C735.42 22.9355 747.038 18.3445 761.315 18.3445C775.48 18.3445 786.845 22.7675 795.412 31.6136C803.978 40.4597 808.261 51.8253 808.261 65.7103C808.261 80.3232 803.726 92.3046 794.656 101.655ZM766.942 113.496C773.94 113.496 779.511 110.445 783.654 104.342C787.797 98.2394 789.869 89.9811 789.869 79.5674C789.869 69.6575 788.133 60.0835 784.662 50.8455C781.191 41.7755 776.628 34.525 770.973 29.0942C765.374 23.6633 759.523 20.9479 753.42 20.9479C746.478 20.9479 741.075 23.8593 737.212 29.682C733.405 35.5048 731.501 43.4831 731.501 53.6169C731.501 63.6948 733.181 73.4367 736.54 82.8427C739.899 92.1927 744.238 99.6391 749.557 105.182C754.932 110.725 760.727 113.496 766.942 113.496ZM965.096 114H946.871H940.993L940.825 113.664C944.128 111.816 945.444 107.225 944.772 99.891L940.321 52.1052C939.593 42.2514 937.773 34.9729 934.862 30.2699C932.007 25.5669 928.031 23.2154 922.937 23.2154C917.114 23.2154 912.355 25.8749 908.66 31.1937C904.964 36.4566 903.117 43.2591 903.117 51.6014H901.941C901.941 41.0196 904.544 32.8454 909.751 27.0786C914.958 21.2558 922.265 18.3445 931.671 18.3445C939.845 18.3445 946.368 20.9759 951.238 26.2388C956.165 31.5017 959.105 38.9761 960.057 48.662L965.263 99.891C965.935 107.169 967.867 111.76 971.058 113.664L970.89 114H965.096ZM844.329 114H826.609H820.73L820.562 113.664C823.81 111.537 825.433 106.946 825.433 99.891V37.9963C825.433 30.6058 823.642 26.5747 820.059 25.9029V25.5669L825.601 23.8873L844.329 19.4362V44.3789H845.505V99.891C845.505 107.169 847.129 111.76 850.376 113.664L850.208 114H844.329ZM902.277 114H884.221H878.426L878.174 113.664C881.421 111.76 883.045 107.169 883.045 99.891V51.6014C883.045 42.5313 881.449 35.5328 878.258 30.6058C875.123 25.6789 870.868 23.2154 865.493 23.2154C859.558 23.2154 854.743 25.8749 851.048 31.1937C847.353 36.4566 845.505 43.2591 845.505 51.6014H844.497C844.497 41.0196 847.129 32.8454 852.392 27.0786C857.655 21.2558 865.045 18.3445 874.563 18.3445C882.793 18.3445 889.428 21.0599 894.467 26.4907C899.506 31.8656 901.941 38.8921 901.773 47.5702H902.949L903.285 99.891C903.453 107.169 905.132 111.76 908.324 113.664L908.156 114H902.277ZM1026.86 115.008C1012.92 115.008 1001.72 110.697 993.27 102.075C984.816 93.3964 980.588 81.9469 980.588 67.7259C980.588 53.337 985.235 41.5235 994.53 32.2855C1003.82 22.9915 1015.8 18.3445 1030.47 18.3445C1041.73 18.3445 1050.74 21.4798 1057.52 27.7505C1064.35 34.0211 1068.57 43.1752 1070.2 55.2126L992.514 54.7927L992.85 52.6091L1052.14 50.0057L1051.3 51.0135C1050.8 42.7832 1047.69 35.7287 1041.98 29.85C1036.27 23.9153 1029.69 20.9479 1022.24 20.9479C1014.91 20.9479 1009.2 23.7473 1005.11 29.3461C1001.02 34.8889 998.981 42.7552 998.981 52.9451C998.981 62.575 1000.72 71.2811 1004.19 79.0635C1007.66 86.9578 1012.36 93.1165 1018.3 97.5395C1024.23 101.963 1030.81 104.174 1038.03 104.174C1047.1 104.174 1054.49 101.459 1060.2 96.0278C1065.91 90.541 1068.85 83.3466 1069.02 74.4445H1070.37C1070.37 85.922 1066.31 95.5519 1058.19 103.334C1050.13 111.117 1039.68 115.008 1026.86 115.008ZM1107.44 114H1089.72H1083.84L1083.67 113.664C1086.92 111.537 1088.55 106.946 1088.55 99.891V37.9963C1088.55 30.7178 1086.75 26.6307 1083.17 25.7349V25.399L1088.71 23.8873L1108.28 19.4362L1107.78 41.1036H1108.62V99.891C1108.62 107.169 1110.24 111.76 1113.49 113.664L1113.32 114H1107.44ZM1108.62 52.4412H1107.61C1106.99 41.7475 1108.7 33.4052 1112.73 27.4145C1116.82 21.3678 1122.81 18.3445 1130.7 18.3445C1135.97 18.3445 1140.47 19.2683 1144.23 21.1159V44.2109H1143.55C1141.76 39.172 1139.16 35.1689 1135.74 32.2015C1132.33 29.1782 1128.75 27.6665 1124.99 27.6665C1119.68 27.6665 1115.62 29.766 1112.82 33.9651C1110.02 38.1082 1108.62 44.2669 1108.62 52.4412ZM1190.29 115.512C1184.91 115.512 1180.01 114.98 1175.59 113.916C1171.17 112.852 1166.05 111.229 1160.22 109.045L1157.96 108.121V83.0106H1158.8C1158.96 83.5145 1159.27 84.1024 1159.72 84.7743C1159.83 84.9422 1160 85.2222 1160.22 85.6141C1160.45 86.006 1160.61 86.2859 1160.73 86.4539C1170.97 104.482 1182.67 113.496 1195.83 113.496C1202.38 113.496 1207.67 111.704 1211.7 108.121C1215.79 104.482 1217.83 99.779 1217.83 94.0123C1217.83 89.4772 1216.63 85.754 1214.22 82.8427C1211.93 80.2112 1209.07 78.1117 1205.66 76.544C1202.24 74.9764 1197.06 73.1847 1190.12 71.1692C1182.9 69.0976 1177.44 67.194 1173.74 65.4584C1164 61.3713 1159.13 54.2048 1159.13 43.959C1159.13 35.9527 1162.27 29.71 1168.54 25.231C1174.86 20.752 1183.71 18.5124 1195.08 18.5124C1207 18.5124 1216.52 19.6042 1223.63 21.7877V40.3478H1222.79C1222.23 39.7879 1221.5 38.9481 1220.61 37.8283C1219.99 37.2124 1219.12 36.4566 1218 35.5608C1213.19 30.8018 1208.01 27.1906 1202.47 24.7271C1196.98 22.2076 1191.83 20.9479 1187.01 20.9479C1182.14 20.9479 1178.25 22.1796 1175.34 24.6431C1172.48 27.0506 1171.06 30.3539 1171.06 34.553C1171.06 38.3042 1172.2 41.3276 1174.5 43.6231C1176.57 45.8066 1179.17 47.5422 1182.31 48.8299C1185.45 50.0617 1190.18 51.4894 1196.5 53.113C1204.79 55.2966 1210.7 57.1442 1214.22 58.6558C1224.86 63.0789 1230.18 71.0292 1230.18 82.5067C1230.18 92.1927 1226.57 100.115 1219.35 106.274C1212.18 112.432 1202.49 115.512 1190.29 115.512Z"/>
</mask>
<path d="M82.3335 101.655L81.7518 101.09L82.3335 101.655ZM13.5522 102.494L12.97 103.058L12.9719 103.06L13.5522 102.494ZM14.1401 32.1175L13.56 31.5516L13.5583 31.5534L14.1401 32.1175ZM72.3397 50.8455L73.0983 50.5605L73.0965 50.5559L72.3397 50.8455ZM58.6506 29.0942L58.0863 29.6759L58.0892 29.6787L58.6506 29.0942ZM24.8898 29.682L24.2145 29.234L24.2115 29.2386L24.8898 29.682ZM24.218 82.8427L23.4548 83.1152L23.4553 83.1167L24.218 82.8427ZM37.2352 105.182L36.6504 105.743L36.6534 105.746L37.2352 105.182ZM81.7518 101.09C72.8479 110.269 61.4749 114.869 47.565 114.869V116.49C61.8729 116.49 73.679 111.74 82.9152 102.219L81.7518 101.09ZM47.565 114.869C33.639 114.869 22.5231 110.539 14.1326 101.929L12.9719 103.06C21.7137 112.03 33.273 116.49 47.565 116.49V114.869ZM14.1345 101.931C5.79611 93.3181 1.59737 81.9441 1.59737 67.7259H-0.023422C-0.023422 82.2855 4.28802 94.0906 12.97 103.058L14.1345 101.931ZM1.59737 67.7259C1.59737 53.3481 5.98701 41.6913 14.722 32.6816L13.5583 31.5534C4.48904 40.9079 -0.023422 52.9899 -0.023422 67.7259H1.59737ZM14.7202 32.6834C23.5078 23.6761 34.907 19.1549 48.9927 19.1549V17.5341C34.5244 17.5341 22.6886 22.1948 13.5601 31.5516L14.7202 32.6834ZM48.9927 19.1549C62.9741 19.1549 74.117 23.513 82.5072 32.1774L83.6715 31.0499C74.9294 22.022 63.3411 17.5341 48.9927 17.5341V19.1549ZM82.5072 32.1774C90.9079 40.8526 95.1282 52.0066 95.1282 65.7103H96.749C96.749 51.644 92.4032 40.0669 83.6715 31.0499L82.5072 32.1774ZM95.1282 65.7103C95.1282 80.1404 90.6569 91.9105 81.7518 101.09L82.9152 102.219C92.1503 92.6988 96.749 80.506 96.749 65.7103H95.1282ZM54.6195 114.307C61.9033 114.307 67.7181 111.108 72.0024 104.797L70.6614 103.887C66.6594 109.782 61.3326 112.686 54.6195 112.686V114.307ZM72.0024 104.797C76.2671 98.5154 78.3569 90.0792 78.3569 79.5674H76.7362C76.7362 89.8831 74.6829 97.9633 70.6614 103.887L72.0024 104.797ZM78.3569 79.5674C78.3569 69.5605 76.6039 59.89 73.0983 50.5605L71.5811 51.1306C75.0179 60.2771 76.7362 69.7544 76.7362 79.5674H78.3569ZM73.0965 50.5559C69.5925 41.4003 64.9708 34.0405 59.2119 28.5097L58.0892 29.6787C63.6399 35.0095 68.1443 42.1506 71.5828 51.1352L73.0965 50.5559ZM59.2148 28.5125C53.5087 22.9775 47.4658 20.1375 41.0984 20.1375V21.7583C46.9363 21.7583 52.5949 24.3491 58.0863 29.6759L59.2148 28.5125ZM41.0984 20.1375C33.8821 20.1375 28.2267 23.1867 24.2145 29.234L25.5651 30.1301C29.2793 24.5319 34.4296 21.7583 41.0984 21.7583V20.1375ZM24.2115 29.2386C20.2872 35.2405 18.3686 43.3937 18.3686 53.6169H19.9894C19.9894 43.5725 21.8781 35.7691 25.5681 30.1255L24.2115 29.2386ZM18.3686 53.6169C18.3686 63.7868 20.064 73.621 23.4548 83.1152L24.9811 82.5701C21.6534 73.2524 19.9894 63.6027 19.9894 53.6169H18.3686ZM23.4553 83.1167C26.8422 92.5437 31.2333 100.098 36.6504 105.743L37.8199 104.621C32.5994 99.1804 28.3122 91.8417 24.9806 82.5686L23.4553 83.1167ZM36.6534 105.746C42.1415 111.406 48.1348 114.307 54.6195 114.307V112.686C48.6748 112.686 43.0785 110.044 37.817 104.618L36.6534 105.746ZM195.582 19.4362H196.392V18.4255L195.405 18.6452L195.582 19.4362ZM200.369 113.664L201.093 114.026L201.43 113.354L200.784 112.968L200.369 113.664ZM200.201 114V114.81H200.701L200.925 114.362L200.201 114ZM176.182 114H175.371V114.81H176.182V114ZM176.182 74.2765H176.992V73.8638L176.658 73.6211L176.182 74.2765ZM175.258 73.6046H174.448V74.0173L174.781 74.26L175.258 73.6046ZM169.967 25.7349H169.157V26.375L169.779 26.5232L169.967 25.7349ZM169.967 25.399L169.757 24.6163L169.157 24.7775V25.399H169.967ZM175.594 23.8873L175.418 23.0963L175.401 23.1001L175.384 23.1046L175.594 23.8873ZM113.867 84.7743L113.057 84.7772L113.057 84.7792L113.867 84.7743ZM113.699 37.9963H112.889L112.889 37.9992L113.699 37.9963ZM108.576 25.7349H107.766V26.3701L108.383 26.5218L108.576 25.7349ZM108.576 25.399L108.36 24.618L107.766 24.7825V25.399H108.576ZM114.035 23.8873L113.859 23.0963L113.839 23.1008L113.819 23.1063L114.035 23.8873ZM134.023 19.4362H134.833V18.4255L133.847 18.6452L134.023 19.4362ZM134.023 81.331L134.833 81.336V81.331H134.023ZM138.726 102.243L138.048 102.687L138.051 102.692L138.726 102.243ZM168.791 97.3716L168.076 96.9915L168.074 96.9953L168.791 97.3716ZM175.258 66.3822V65.5718H174.448V66.3822H175.258ZM176.518 66.3822H177.328V65.5718H176.518V66.3822ZM167.868 101.907L167.194 101.456L167.192 101.459L167.868 101.907ZM122.433 106.694L121.869 107.275L121.872 107.278L122.433 106.694ZM194.771 19.4362V99.891H196.392V19.4362H194.771ZM194.771 99.891C194.771 107.194 196.355 112.214 199.953 114.36L200.784 112.968C198 111.307 196.392 107.145 196.392 99.891H194.771ZM199.644 113.302L199.476 113.638L200.925 114.362L201.093 114.026L199.644 113.302ZM200.201 113.19H194.406V114.81H200.201V113.19ZM194.406 113.19H176.182V114.81H194.406V113.19ZM176.992 114V74.2765H175.371V114H176.992ZM176.658 73.6211L175.735 72.9492L174.781 74.26L175.705 74.9319L176.658 73.6211ZM176.068 73.6046V37.9963H174.448V73.6046H176.068ZM176.068 37.9963C176.068 34.2811 175.624 31.2988 174.679 29.109C173.722 26.8903 172.224 25.4393 170.155 24.9465L169.779 26.5232C171.237 26.8703 172.385 27.8827 173.191 29.7512C174.01 31.6485 174.448 34.377 174.448 37.9963H176.068ZM170.777 25.7349V25.399H169.157V25.7349H170.777ZM170.177 26.1816L175.804 24.6699L175.384 23.1046L169.757 24.6163L170.177 26.1816ZM175.77 24.6783L195.758 20.2273L195.405 18.6452L175.418 23.0963L175.77 24.6783ZM114.677 84.7713L114.51 37.9934L112.889 37.9992L113.057 84.7772L114.677 84.7713ZM114.51 37.9963C114.51 34.283 114.08 31.3043 113.166 29.1177C112.242 26.9052 110.791 25.4449 108.77 24.9479L108.383 26.5218C109.777 26.8646 110.887 27.8678 111.671 29.7425C112.465 31.643 112.889 34.3751 112.889 37.9963H114.51ZM109.387 25.7349V25.399H107.766V25.7349H109.387ZM108.793 26.18L114.251 24.6683L113.819 23.1063L108.36 24.618L108.793 26.18ZM114.211 24.6783L134.199 20.2273L133.847 18.6452L113.859 23.0963L114.211 24.6783ZM133.212 19.4362V81.331H134.833V19.4362H133.212ZM133.212 81.326C133.156 90.4734 134.733 97.627 138.048 102.687L139.404 101.798C136.336 97.1161 134.778 90.3287 134.833 81.336L133.212 81.326ZM138.051 102.692C141.443 107.779 146.142 110.359 152.079 110.359V108.739C146.706 108.739 142.503 106.448 139.4 101.793L138.051 102.692ZM152.079 110.359C159.367 110.359 165.168 106.03 169.509 97.7478L168.074 96.9953C163.905 104.949 158.564 108.739 152.079 108.739V110.359ZM169.507 97.7516C173.899 89.4815 176.068 79.01 176.068 66.3822H174.448C174.448 78.837 172.306 89.0251 168.076 96.9915L169.507 97.7516ZM175.258 67.1926H176.518V65.5718H175.258V67.1926ZM175.707 66.3822C175.707 81.3515 172.84 93.0148 167.194 101.456L168.541 102.357C174.429 93.554 177.328 81.5345 177.328 66.3822H175.707ZM167.192 101.459C161.624 109.865 154.035 114.029 144.353 114.029V115.65C154.602 115.65 162.689 111.193 168.543 102.354L167.192 101.459ZM144.353 114.029C135.572 114.029 128.477 111.374 122.995 106.109L121.872 107.278C127.699 112.875 135.217 115.65 144.353 115.65V114.029ZM122.998 106.112C117.524 100.801 114.732 93.7152 114.677 84.7693L113.057 84.7792C113.114 94.0854 116.033 101.613 121.869 107.275L122.998 106.112ZM219.305 114L218.58 114.362L218.804 114.81H219.305V114ZM219.137 113.664L218.693 112.986L218.09 113.381L218.412 114.026L219.137 113.664ZM218.633 25.7349H217.823V26.3676L218.436 26.5211L218.633 25.7349ZM218.633 25.399L218.42 24.6171L217.823 24.78V25.399H218.633ZM224.176 23.8873L223.996 23.0971L223.979 23.1009L223.963 23.1054L224.176 23.8873ZM243.744 19.4362L244.554 19.4551L244.578 18.4153L243.564 18.646L243.744 19.4362ZM243.24 41.1036L242.43 41.0848L242.41 41.914H243.24V41.1036ZM244.08 41.1036H244.89V40.2932H244.08V41.1036ZM248.951 113.664L249.675 114.026L250.014 113.348L249.36 112.965L248.951 113.664ZM248.783 114V114.81H249.283L249.507 114.362L248.783 114ZM244.08 52.4412V53.2516H244.89V52.4412H244.08ZM243.072 52.4412L242.263 52.4878L242.307 53.2516H243.072V52.4412ZM248.195 27.4145L247.523 26.9607L247.522 26.9621L248.195 27.4145ZM279.688 21.1159H280.498V20.6117L280.046 20.3889L279.688 21.1159ZM279.688 44.2109V45.0213H280.498V44.2109H279.688ZM279.016 44.2109L278.253 44.4824L278.444 45.0213H279.016V44.2109ZM271.206 32.2015L270.669 32.8083L270.674 32.8132L271.206 32.2015ZM248.279 33.9651L248.95 34.4188L248.953 34.4147L248.279 33.9651ZM242.904 113.19H225.184V114.81H242.904V113.19ZM225.184 113.19H219.305V114.81H225.184V113.19ZM220.03 113.638L219.862 113.302L218.412 114.026L218.58 114.362L220.03 113.638ZM219.581 114.342C223.193 111.975 224.818 107.001 224.818 99.891H223.197C223.197 106.89 221.575 111.098 218.693 112.986L219.581 114.342ZM224.818 99.891V37.9963H223.197V99.891H224.818ZM224.818 37.9963C224.818 34.3071 224.367 31.3375 223.406 29.1467C222.433 26.9267 220.916 25.4703 218.83 24.9487L218.436 26.5211C219.933 26.8953 221.103 27.9303 221.922 29.7974C222.753 31.6938 223.197 34.407 223.197 37.9963H224.818ZM219.443 25.7349V25.399H217.823V25.7349H219.443ZM218.846 26.1808L224.389 24.6691L223.963 23.1054L218.42 24.6171L218.846 26.1808ZM224.356 24.6775L243.923 20.2264L243.564 18.646L223.996 23.0971L224.356 24.6775ZM242.933 19.4174L242.43 41.0848L244.05 41.1224L244.554 19.4551L242.933 19.4174ZM243.24 41.914H244.08V40.2932H243.24V41.914ZM243.269 41.1036V99.891H244.89V41.1036H243.269ZM243.269 99.891C243.269 107.198 244.883 112.219 248.541 114.363L249.36 112.965C246.523 111.302 244.89 107.141 244.89 99.891H243.269ZM248.226 113.302L248.058 113.638L249.507 114.362L249.675 114.026L248.226 113.302ZM248.783 113.19H242.904V114.81H248.783V113.19ZM244.08 51.6308H243.072V53.2516H244.08V51.6308ZM243.881 52.3946C243.27 41.796 244.972 33.6549 248.867 27.867L247.522 26.9621C243.355 33.1556 241.641 41.699 242.263 52.4878L243.881 52.3946ZM248.866 27.8684C252.789 22.0653 258.516 19.1549 266.167 19.1549V17.5341C258.029 17.5341 251.775 20.6703 247.523 26.9607L248.866 27.8684ZM266.167 19.1549C271.337 19.1549 275.715 20.0625 279.33 21.8429L280.046 20.3889C276.158 18.4741 271.523 17.5341 266.167 17.5341V19.1549ZM278.878 21.1159V44.2109H280.498V21.1159H278.878ZM279.688 43.4005H279.016V45.0213H279.688V43.4005ZM279.78 43.9394C277.95 38.793 275.276 34.6641 271.737 31.5898L270.674 32.8132C273.966 35.6737 276.499 39.551 278.253 44.4824L279.78 43.9394ZM271.743 31.5947C268.213 28.4698 264.446 26.8561 260.456 26.8561V28.4769C263.969 28.4769 267.368 29.8865 270.669 32.8083L271.743 31.5947ZM260.456 26.8561C254.884 26.8561 250.563 29.0769 247.604 33.5156L248.953 34.4147C251.593 30.4551 255.391 28.4769 260.456 28.4769V26.8561ZM247.607 33.5114C244.676 37.8491 243.269 44.1983 243.269 52.4412H244.89C244.89 44.3355 246.282 38.3674 248.95 34.4188L247.607 33.5114ZM368.118 31.8656L367.55 31.2873L368.118 31.8656ZM437.235 23.0475H438.045V22.4424L437.465 22.2705L437.235 23.0475ZM437.235 51.7693V52.5797H438.045V51.7693H437.235ZM436.395 51.7693L435.649 52.0859L435.859 52.5797H436.395V51.7693ZM419.851 29.1782L419.348 29.814L419.351 29.8165L419.851 29.1782ZM378.699 29.1782L378.049 28.694L378.699 29.1782ZM372.569 52.4412L373.379 52.4457V52.4412H372.569ZM377.776 79.7353L377.031 80.0546L377.031 80.0564L377.776 79.7353ZM392.556 99.1352L392.069 99.7828L392.072 99.7849L392.556 99.1352ZM429.676 102.075L430.095 102.769L430.097 102.767L429.676 102.075ZM440.342 90.401L440.748 89.6997L439.996 89.2641L439.614 90.0453L440.342 90.401ZM441.938 91.3249L442.675 91.6614L442.981 90.9921L442.344 90.6235L441.938 91.3249ZM402.382 114.869C387.882 114.869 376.43 110.613 367.933 102.172L366.791 103.321C375.65 112.124 387.545 116.49 402.382 116.49V114.869ZM367.933 102.172C359.438 93.7317 355.155 82.282 355.155 67.7259H353.534C353.534 82.6195 357.929 94.5168 366.791 103.321L367.933 102.172ZM355.155 67.7259C355.155 53.0134 359.683 41.2814 368.685 32.4439L367.55 31.2873C358.188 40.4779 353.534 52.6527 353.534 67.7259H355.155ZM368.685 32.4439C377.686 23.6082 389.811 19.1549 405.154 19.1549V17.5341C389.479 17.5341 376.914 22.0948 367.55 31.2873L368.685 32.4439ZM405.154 19.1549C415.88 19.1549 426.496 20.7108 437.005 23.8245L437.465 22.2705C426.81 19.1135 416.039 17.5341 405.154 17.5341V19.1549ZM436.424 23.0475V51.7693H438.045V23.0475H436.424ZM437.235 50.9589H436.395V52.5797H437.235V50.9589ZM437.141 51.4527C433.01 41.72 427.419 34.0698 420.35 28.5398L419.351 29.8165C426.167 35.1482 431.606 42.5587 435.649 52.0859L437.141 51.4527ZM420.353 28.5424C413.285 22.956 405.665 20.1375 397.511 20.1375V21.7583C405.259 21.7583 412.532 24.4267 419.348 29.814L420.353 28.5424ZM397.511 20.1375C388.868 20.1375 382.326 22.9534 378.049 28.694L379.349 29.6623C383.247 24.4293 389.246 21.7583 397.511 21.7583V20.1375ZM378.049 28.694C373.82 34.3724 371.758 42.3226 371.758 52.4412H373.379C373.379 42.516 375.405 34.9576 379.349 29.6623L378.049 28.694ZM371.758 52.4366C371.702 62.5012 373.455 71.7111 377.031 80.0546L378.52 79.4161C375.042 71.2991 373.324 62.3129 373.379 52.4457L371.758 52.4366ZM377.031 80.0564C380.607 88.3436 385.617 94.929 392.069 99.7828L393.044 98.4875C386.843 93.8234 381.998 87.4756 378.52 79.4143L377.031 80.0564ZM392.072 99.7849C398.592 104.646 405.872 107.084 413.888 107.084V105.463C406.227 105.463 399.286 103.142 393.041 98.4855L392.072 99.7849ZM413.888 107.084C419.901 107.084 425.311 105.65 430.095 102.769L429.258 101.38C424.748 104.097 419.632 105.463 413.888 105.463V107.084ZM430.097 102.767C434.932 99.8316 438.594 95.8237 441.07 90.7568L439.614 90.0453C437.275 94.8323 433.827 98.6067 429.256 101.382L430.097 102.767ZM439.936 91.1024L441.532 92.0262L442.344 90.6235L440.748 89.6997L439.936 91.1024ZM441.201 90.9883C437.737 98.5746 432.609 104.439 425.81 108.606L426.657 109.988C433.743 105.645 439.084 99.5278 442.675 91.6614L441.201 90.9883ZM425.81 108.606C419.007 112.775 411.206 114.869 402.382 114.869V116.49C411.474 116.49 419.574 114.329 426.657 109.988L425.81 108.606ZM540.909 19.4362H541.719V18.4255L540.733 18.6452L540.909 19.4362ZM545.696 113.664L546.421 114.026L546.757 113.354L546.111 112.968L545.696 113.664ZM545.528 114V114.81H546.029L546.253 114.362L545.528 114ZM521.509 114H520.699V114.81H521.509V114ZM521.509 74.2765H522.32V73.8638L521.986 73.6211L521.509 74.2765ZM520.585 73.6046H519.775V74.0173L520.109 74.26L520.585 73.6046ZM515.294 25.7349H514.484V26.375L515.107 26.5232L515.294 25.7349ZM515.294 25.399L515.084 24.6163L514.484 24.7775V25.399H515.294ZM520.921 23.8873L520.745 23.0963L520.728 23.1001L520.711 23.1046L520.921 23.8873ZM459.194 84.7743L458.384 84.7772L458.384 84.7792L459.194 84.7743ZM459.027 37.9963H458.216L458.216 37.9992L459.027 37.9963ZM453.904 25.7349H453.093V26.3701L453.71 26.5218L453.904 25.7349ZM453.904 25.399L453.687 24.618L453.093 24.7825V25.399H453.904ZM459.362 23.8873L459.186 23.0963L459.166 23.1008L459.146 23.1063L459.362 23.8873ZM479.35 19.4362H480.161V18.4255L479.174 18.6452L479.35 19.4362ZM479.35 81.331L480.161 81.336V81.331H479.35ZM484.053 102.243L483.375 102.687L483.379 102.692L484.053 102.243ZM514.119 97.3716L513.403 96.9915L513.401 96.9953L514.119 97.3716ZM520.585 66.3822V65.5718H519.775V66.3822H520.585ZM521.845 66.3822H522.655V65.5718H521.845V66.3822ZM513.195 101.907L512.521 101.456L512.519 101.459L513.195 101.907ZM467.761 106.694L467.196 107.275L467.199 107.278L467.761 106.694ZM540.099 19.4362V99.891H541.719V19.4362H540.099ZM540.099 99.891C540.099 107.194 541.682 112.214 545.281 114.36L546.111 112.968C543.327 111.307 541.719 107.145 541.719 99.891H540.099ZM544.971 113.302L544.803 113.638L546.253 114.362L546.421 114.026L544.971 113.302ZM545.528 113.19H539.733V114.81H545.528V113.19ZM539.733 113.19H521.509V114.81H539.733V113.19ZM522.32 114V74.2765H520.699V114H522.32ZM521.986 73.6211L521.062 72.9492L520.109 74.26L521.032 74.9319L521.986 73.6211ZM521.396 73.6046V37.9963H519.775V73.6046H521.396ZM521.396 37.9963C521.396 34.2811 520.952 31.2988 520.007 29.109C519.049 26.8903 517.552 25.4393 515.482 24.9465L515.107 26.5232C516.564 26.8703 517.712 27.8827 518.519 29.7512C519.337 31.6485 519.775 34.377 519.775 37.9963H521.396ZM516.105 25.7349V25.399H514.484V25.7349H516.105ZM515.505 26.1816L521.132 24.6699L520.711 23.1046L515.084 24.6163L515.505 26.1816ZM521.097 24.6783L541.085 20.2273L540.733 18.6452L520.745 23.0963L521.097 24.6783ZM460.005 84.7713L459.837 37.9934L458.216 37.9992L458.384 84.7772L460.005 84.7713ZM459.837 37.9963C459.837 34.283 459.407 31.3043 458.494 29.1177C457.569 26.9052 456.118 25.4449 454.097 24.9479L453.71 26.5218C455.104 26.8646 456.215 27.8678 456.998 29.7425C457.792 31.643 458.216 34.3751 458.216 37.9963H459.837ZM454.714 25.7349V25.399H453.093V25.7349H454.714ZM454.12 26.18L459.579 24.6683L459.146 23.1063L453.687 24.618L454.12 26.18ZM459.539 24.6783L479.526 20.2273L479.174 18.6452L459.186 23.0963L459.539 24.6783ZM478.54 19.4362V81.331H480.161V19.4362H478.54ZM478.54 81.326C478.483 90.4734 480.06 97.627 483.375 102.687L484.731 101.798C481.663 97.1161 480.105 90.3287 480.161 81.336L478.54 81.326ZM483.379 102.692C486.77 107.779 491.469 110.359 497.406 110.359V108.739C492.034 108.739 487.831 106.448 484.727 101.793L483.379 102.692ZM497.406 110.359C504.695 110.359 510.495 106.03 514.836 97.7478L513.401 96.9953C509.232 104.949 503.891 108.739 497.406 108.739V110.359ZM514.834 97.7516C519.226 89.4815 521.396 79.01 521.396 66.3822H519.775C519.775 78.837 517.633 89.0251 513.403 96.9915L514.834 97.7516ZM520.585 67.1926H521.845V65.5718H520.585V67.1926ZM521.035 66.3822C521.035 81.3515 518.167 93.0148 512.521 101.456L513.869 102.357C519.756 93.554 522.655 81.5345 522.655 66.3822H521.035ZM512.519 101.459C506.952 109.865 499.362 114.029 489.68 114.029V115.65C499.93 115.65 508.016 111.193 513.871 102.354L512.519 101.459ZM489.68 114.029C480.899 114.029 473.804 111.374 468.322 106.109L467.199 107.278C473.027 112.875 480.545 115.65 489.68 115.65V114.029ZM468.325 106.112C462.851 100.801 460.06 93.7152 460.005 84.7693L458.384 84.7792C458.441 94.0854 461.361 101.613 467.196 107.275L468.325 106.112ZM580.925 113.916L580.735 114.704L580.925 113.916ZM565.556 109.045L565.25 109.796L565.261 109.8L565.272 109.804L565.556 109.045ZM563.289 108.121H562.478V108.666L562.983 108.872L563.289 108.121ZM563.289 83.0106V82.2002H562.478V83.0106H563.289ZM564.128 83.0106L564.897 82.7544L564.712 82.2002H564.128V83.0106ZM565.052 84.7743L565.726 84.3247L565.052 84.7743ZM566.06 86.4539L566.765 86.0535L566.75 86.0284L566.734 86.0044L566.06 86.4539ZM617.037 108.121L617.575 108.727L617.576 108.727L617.037 108.121ZM619.557 82.8427L620.181 82.3262L620.174 82.318L620.167 82.3099L619.557 82.8427ZM595.454 71.1692L595.68 70.3909L595.677 70.3902L595.454 71.1692ZM579.077 65.4584L579.422 64.7249L579.406 64.7177L579.391 64.7111L579.077 65.4584ZM573.87 25.231L573.402 24.5696L573.399 24.5715L573.87 25.231ZM628.963 21.7877H629.773V21.1889L629.2 21.013L628.963 21.7877ZM628.963 40.3478V41.1582H629.773V40.3478H628.963ZM628.123 40.3478L627.55 40.9208L627.787 41.1582H628.123V40.3478ZM625.939 37.8283L626.572 37.3221L626.544 37.287L626.512 37.2553L625.939 37.8283ZM623.336 35.5608L622.766 36.1372L622.796 36.167L622.829 36.1936L623.336 35.5608ZM607.799 24.7271L607.461 25.4636L607.47 25.4677L607.799 24.7271ZM580.673 24.6431L581.195 25.2627L581.196 25.2618L580.673 24.6431ZM579.833 43.6231L580.421 43.0653L580.414 43.0576L580.406 43.05L579.833 43.6231ZM587.643 48.8299L587.335 49.5797L587.347 49.5842L587.643 48.8299ZM601.836 53.113L602.043 52.3294L602.038 52.3281L601.836 53.113ZM619.557 58.6558L619.237 59.4008L619.245 59.4041L619.557 58.6558ZM624.679 106.274L624.154 105.657L624.151 105.659L624.679 106.274ZM595.622 114.701C590.299 114.701 585.465 114.175 581.114 113.128L580.735 114.704C585.23 115.785 590.194 116.322 595.622 116.322V114.701ZM581.114 113.128C576.733 112.074 571.643 110.462 565.841 108.286L565.272 109.804C571.115 111.995 576.271 113.63 580.735 114.704L581.114 113.128ZM565.862 108.295L563.594 107.371L562.983 108.872L565.25 109.796L565.862 108.295ZM564.099 108.121V83.0106H562.478V108.121H564.099ZM563.289 83.821H564.128V82.2002H563.289V83.821ZM563.36 83.2669C563.559 83.8648 563.908 84.5196 564.378 85.2238L565.726 84.3247C565.3 83.6852 565.034 83.1643 564.897 82.7544L563.36 83.2669ZM564.378 85.2238C564.473 85.3667 564.629 85.6257 564.852 86.0161L566.26 85.212C566.035 84.8186 565.855 84.5177 565.726 84.3247L564.378 85.2238ZM564.852 86.0161C565.077 86.4095 565.257 86.7104 565.386 86.9034L566.734 86.0044C566.639 85.8615 566.483 85.6025 566.26 85.212L564.852 86.0161ZM565.355 86.8543C575.657 104.98 587.572 114.307 601.164 114.307V112.686C588.442 112.686 576.955 103.984 566.765 86.0535L565.355 86.8543ZM601.164 114.307C607.869 114.307 613.366 112.469 617.575 108.727L616.499 107.516C612.646 110.94 607.561 112.686 601.164 112.686V114.307ZM617.576 108.727C621.846 104.924 623.978 99.9962 623.978 94.0123H622.357C622.357 99.5619 620.402 104.04 616.498 107.516L617.576 108.727ZM623.978 94.0123C623.978 89.3281 622.732 85.4106 620.181 82.3262L618.932 83.3591C621.196 86.0975 622.357 89.6264 622.357 94.0123H623.978ZM620.167 82.3099C617.791 79.5856 614.84 77.4193 611.328 75.8075L610.652 77.2805C613.971 78.804 616.731 80.8369 618.946 83.3754L620.167 82.3099ZM611.328 75.8075C607.857 74.2143 602.632 72.4094 595.68 70.3909L595.228 71.9474C602.16 73.96 607.293 75.7384 610.652 77.2805L611.328 75.8075ZM595.677 70.3902C588.468 68.3224 583.058 66.4328 579.422 64.7249L578.733 66.1919C582.487 67.9552 587.995 69.8728 595.23 71.9482L595.677 70.3902ZM579.391 64.7111C574.632 62.7148 571.117 59.9902 568.788 56.5626C566.459 53.1368 565.275 48.9497 565.275 43.959H563.654C563.654 49.2141 564.905 53.7331 567.447 57.4737C569.989 61.2126 573.78 64.1148 578.764 66.2057L579.391 64.7111ZM565.275 43.959C565.275 36.2024 568.293 30.2105 574.341 25.8904L573.399 24.5715C566.906 29.2096 563.654 35.703 563.654 43.959H565.275ZM574.339 25.8924C580.478 21.5459 589.136 19.3228 600.409 19.3228V17.702C588.95 17.702 579.916 19.958 573.402 24.5696L574.339 25.8924ZM600.409 19.3228C612.296 19.3228 621.723 20.4124 628.725 22.5624L629.2 21.013C621.981 18.796 612.372 17.702 600.409 17.702V19.3228ZM628.152 21.7877V40.3478H629.773V21.7877H628.152ZM628.963 39.5374H628.123V41.1582H628.963V39.5374ZM628.696 39.7747C628.167 39.2465 627.461 38.4339 626.572 37.3221L625.306 38.3345C626.208 39.4622 626.958 40.3293 627.55 40.9208L628.696 39.7747ZM626.512 37.2553C625.866 36.6092 624.972 35.8322 623.842 34.928L622.829 36.1936C623.939 37.081 624.78 37.8157 625.366 38.4013L626.512 37.2553ZM623.905 34.9844C619.029 30.1646 613.77 26.4941 608.128 23.9866L607.47 25.4677C612.914 27.887 618.013 31.439 622.766 36.1372L623.905 34.9844ZM608.137 23.9906C602.57 21.4345 597.304 20.1375 592.346 20.1375V21.7583C597.019 21.7583 602.054 22.9808 607.461 25.4636L608.137 23.9906ZM592.346 20.1375C587.338 20.1375 583.244 21.4061 580.149 24.0245L581.196 25.2618C583.925 22.9532 587.613 21.7583 592.346 21.7583V20.1375ZM580.15 24.0236C577.088 26.6053 575.579 30.1484 575.579 34.553H577.2C577.2 30.5594 578.547 27.4959 581.195 25.2627L580.15 24.0236ZM575.579 34.553C575.579 38.4829 576.789 41.7248 579.26 44.1961L580.406 43.05C578.286 40.9303 577.2 38.1255 577.2 34.553H575.579ZM579.245 44.1808C581.405 46.4573 584.108 48.2539 587.335 49.5796L587.951 48.0803C584.908 46.8306 582.404 45.1559 580.421 43.0653L579.245 44.1808ZM587.347 49.5842C590.53 50.8347 595.3 52.2722 601.635 53.898L602.038 52.3281C595.719 50.7065 591.027 49.2887 587.94 48.0757L587.347 49.5842ZM601.63 53.8967C609.913 56.0793 615.769 57.9144 619.237 59.4007L619.876 57.911C616.289 56.3739 610.332 54.5138 602.043 52.3294L601.63 53.8967ZM619.245 59.4041C624.447 61.567 628.297 64.5692 630.85 68.3865C633.404 72.2036 634.703 76.8958 634.703 82.5067H636.323C636.323 76.6401 634.963 71.6184 632.198 67.4852C629.432 63.3522 625.303 60.1677 619.868 57.9076L619.245 59.4041ZM634.703 82.5067C634.703 91.961 631.191 99.6559 624.154 105.657L625.205 106.89C632.612 100.574 636.323 92.4244 636.323 82.5067H634.703ZM624.151 105.659C617.17 111.658 607.691 114.701 595.622 114.701V116.322C607.963 116.322 617.856 113.206 625.208 106.888L624.151 105.659ZM708.282 19.2683L709.092 19.2957L709.12 18.4555L708.28 18.4579L708.282 19.2683ZM708.114 24.2232L708.06 25.0318L708.895 25.0875L708.924 24.2507L708.114 24.2232ZM648.235 22.2916H647.424V23.102H648.235V22.2916ZM648.235 19.4362L648.232 18.6258L647.424 18.6281V19.4362H648.235ZM709.793 101.067L710.341 100.469L709.454 99.6563L709.034 100.784L709.793 101.067ZM710.801 101.991L711.549 102.303L711.769 101.778L711.349 101.393L710.801 101.991ZM669.482 108.793L668.958 109.411L669.482 108.793ZM662.344 20.1081H663.154V19.3354L662.382 19.2986L662.344 20.1081ZM648.235 19.4362L648.203 18.6265L648.196 20.2457L648.235 19.4362ZM669.566 14.1454L669.171 13.4379L669.168 13.4396L669.566 14.1454ZM681.743 0.624264V-0.186134H681.202L680.995 0.314617L681.743 0.624264ZM682.667 0.624264H683.478V-0.186134H682.667V0.624264ZM686.362 105.266L685.702 105.735L685.706 105.741L685.71 105.747L686.362 105.266ZM707.472 19.2408L707.304 24.1958L708.924 24.2507L709.092 19.2957L707.472 19.2408ZM708.168 23.4146C688.835 22.1258 670.005 21.4812 651.678 21.4812V23.102C669.967 23.102 688.761 23.7452 708.06 25.0318L708.168 23.4146ZM651.678 21.4812H648.235V23.102H651.678V21.4812ZM649.045 22.2916V19.4362H647.424V22.2916H649.045ZM648.237 20.2466L708.284 20.0787L708.28 18.4579L648.232 18.6258L648.237 20.2466ZM709.246 101.664L710.254 102.588L711.349 101.393L710.341 100.469L709.246 101.664ZM710.054 101.678C708.324 105.813 705.693 108.881 702.165 110.926C698.626 112.977 694.129 114.029 688.63 114.029V115.65C694.328 115.65 699.126 114.561 702.977 112.329C706.839 110.091 709.695 106.735 711.549 102.303L710.054 101.678ZM688.63 114.029C680.76 114.029 674.581 112.05 670.006 108.175L668.958 109.411C673.901 113.598 680.487 115.65 688.63 115.65V114.029ZM670.006 108.175C665.451 104.316 663.154 99.0673 663.154 92.3326H661.533C661.533 99.483 663.996 105.208 668.958 109.411L670.006 108.175ZM663.154 92.3326V20.1081H661.533V92.3326H663.154ZM662.382 19.2986L648.273 18.6268L648.196 20.2457L662.305 20.9176L662.382 19.2986ZM648.266 20.246C656.922 19.9066 664.167 18.1227 669.964 14.8511L669.168 13.4396C663.655 16.5506 656.68 18.294 648.203 18.6265L648.266 20.246ZM669.961 14.8528C675.825 11.5761 680.012 6.93212 682.492 0.933907L680.995 0.314617C678.66 5.96191 674.729 10.332 669.171 13.4379L669.961 14.8528ZM681.743 1.43466H682.667V-0.186134H681.743V1.43466ZM681.857 0.624264V89.8972H683.478V0.624264H681.857ZM681.857 89.8972C681.857 96.7481 683.099 102.067 685.702 105.735L687.023 104.797C684.699 101.522 683.478 96.5953 683.478 89.8972H681.857ZM685.71 105.747C688.403 109.397 692.3 111.199 697.28 111.199V109.578C692.743 109.578 689.361 107.966 687.015 104.785L685.71 105.747ZM697.28 111.199C700.255 111.199 702.945 110.302 705.325 108.518L704.352 107.221C702.253 108.795 699.904 109.578 697.28 109.578V111.199ZM705.325 108.518C707.699 106.737 709.44 104.337 710.553 101.35L709.034 100.784C708.019 103.507 706.457 105.643 704.352 107.221L705.325 108.518ZM794.656 101.655L794.074 101.09L794.656 101.655ZM725.874 102.494L725.292 103.058L725.294 103.06L725.874 102.494ZM726.462 32.1175L725.882 31.5516L725.88 31.5534L726.462 32.1175ZM784.662 50.8455L785.42 50.5605L785.419 50.5559L784.662 50.8455ZM770.973 29.0942L770.409 29.6759L770.411 29.6787L770.973 29.0942ZM737.212 29.682L736.537 29.234L736.534 29.2386L737.212 29.682ZM736.54 82.8427L735.777 83.1152L735.777 83.1167L736.54 82.8427ZM749.557 105.182L748.973 105.743L748.976 105.746L749.557 105.182ZM794.074 101.09C785.17 110.269 773.797 114.869 759.887 114.869V116.49C774.195 116.49 786.001 111.74 795.237 102.219L794.074 101.09ZM759.887 114.869C745.961 114.869 734.845 110.539 726.455 101.929L725.294 103.06C734.036 112.03 745.595 116.49 759.887 116.49V114.869ZM726.457 101.931C718.118 93.3181 713.919 81.9441 713.919 67.7259H712.299C712.299 82.2855 716.61 94.0906 725.292 103.058L726.457 101.931ZM713.919 67.7259C713.919 53.3481 718.309 41.6913 727.044 32.6816L725.88 31.5534C716.811 40.9079 712.299 52.9899 712.299 67.7259H713.919ZM727.042 32.6834C735.83 23.6761 747.229 19.1549 761.315 19.1549V17.5341C746.847 17.5341 735.011 22.1948 725.882 31.5516L727.042 32.6834ZM761.315 19.1549C775.296 19.1549 786.439 23.513 794.829 32.1774L795.994 31.0499C787.252 22.022 775.663 17.5341 761.315 17.5341V19.1549ZM794.829 32.1774C803.23 40.8526 807.45 52.0066 807.45 65.7103H809.071C809.071 51.644 804.725 40.0669 795.994 31.0499L794.829 32.1774ZM807.45 65.7103C807.45 80.1404 802.979 91.9105 794.074 101.09L795.237 102.219C804.472 92.6988 809.071 80.506 809.071 65.7103H807.45ZM766.942 114.307C774.225 114.307 780.04 111.108 784.325 104.797L782.984 103.887C778.982 109.782 773.655 112.686 766.942 112.686V114.307ZM784.325 104.797C788.589 98.5154 790.679 90.0792 790.679 79.5674H789.058C789.058 89.8831 787.005 97.9633 782.984 103.887L784.325 104.797ZM790.679 79.5674C790.679 69.5605 788.926 59.89 785.42 50.5605L783.903 51.1306C787.34 60.2771 789.058 69.7544 789.058 79.5674H790.679ZM785.419 50.5559C781.915 41.4003 777.293 34.0405 771.534 28.5097L770.411 29.6787C775.962 35.0095 780.466 42.1506 783.905 51.1352L785.419 50.5559ZM771.537 28.5125C765.831 22.9775 759.788 20.1375 753.42 20.1375V21.7583C759.258 21.7583 764.917 24.3491 770.409 29.6759L771.537 28.5125ZM753.42 20.1375C746.204 20.1375 740.549 23.1867 736.537 29.234L737.887 30.1301C741.601 24.5319 746.752 21.7583 753.42 21.7583V20.1375ZM736.534 29.2386C732.609 35.2405 730.691 43.3937 730.691 53.6169H732.312C732.312 43.5725 734.2 35.7691 737.89 30.1255L736.534 29.2386ZM730.691 53.6169C730.691 63.7868 732.386 73.621 735.777 83.1152L737.303 82.5701C733.976 73.2524 732.312 63.6027 732.312 53.6169H730.691ZM735.777 83.1167C739.164 92.5437 743.555 100.098 748.973 105.743L750.142 104.621C744.922 99.1804 740.634 91.8417 737.303 82.5686L735.777 83.1167ZM748.976 105.746C754.464 111.406 760.457 114.307 766.942 114.307V112.686C760.997 112.686 755.401 110.044 750.139 104.618L748.976 105.746ZM940.993 114L940.268 114.362L940.492 114.81H940.993V114ZM940.825 113.664L940.429 112.957L939.754 113.334L940.1 114.026L940.825 113.664ZM944.772 99.891L945.579 99.8171L945.579 99.8159L944.772 99.891ZM940.321 52.1052L939.513 52.1649L939.513 52.1727L939.514 52.1804L940.321 52.1052ZM934.862 30.2699L934.169 30.6905L934.173 30.6965L934.862 30.2699ZM908.66 31.1937L909.323 31.6594L909.325 31.6561L908.66 31.1937ZM903.117 51.6014V52.4118H903.927V51.6014H903.117ZM901.941 51.6014H901.131V52.4118H901.941V51.6014ZM909.751 27.0786L910.353 27.6217L910.355 27.6188L909.751 27.0786ZM951.238 26.2388L950.644 26.7893L950.647 26.7926L951.238 26.2388ZM960.057 48.662L959.25 48.7412L959.25 48.7439L960.057 48.662ZM965.263 99.891L966.07 99.8165L966.07 99.8091L965.263 99.891ZM971.058 113.664L971.783 114.026L972.12 113.354L971.473 112.968L971.058 113.664ZM970.89 114V114.81H971.391L971.615 114.362L970.89 114ZM820.73 114L820.006 114.362L820.23 114.81H820.73V114ZM820.562 113.664L820.118 112.986L819.515 113.381L819.838 114.026L820.562 113.664ZM820.059 25.9029H819.248V26.5754L819.909 26.6994L820.059 25.9029ZM820.059 25.5669L819.824 24.7914L819.248 24.9657V25.5669H820.059ZM825.601 23.8873L825.414 23.0988L825.39 23.1046L825.366 23.1117L825.601 23.8873ZM844.329 19.4362H845.14V18.4107L844.142 18.6478L844.329 19.4362ZM844.329 44.3789H843.519V45.1893H844.329V44.3789ZM845.505 44.3789H846.315V43.5685H845.505V44.3789ZM850.376 113.664L851.101 114.026L851.44 113.348L850.786 112.965L850.376 113.664ZM850.208 114V114.81H850.709L850.933 114.362L850.208 114ZM878.426 114L877.778 114.486L878.021 114.81H878.426V114ZM878.174 113.664L877.764 112.965L876.981 113.424L877.526 114.15L878.174 113.664ZM878.258 30.6058L877.574 31.0409L877.578 31.0464L878.258 30.6058ZM851.048 31.1937L851.711 31.6594L851.713 31.6561L851.048 31.1937ZM845.505 51.6014V52.4118H846.315V51.6014H845.505ZM844.497 51.6014H843.687V52.4118H844.497V51.6014ZM852.392 27.0786L852.99 27.6249L852.993 27.622L852.392 27.0786ZM894.467 26.4907L893.873 27.0419L893.875 27.045L894.467 26.4907ZM901.773 47.5702L900.963 47.5545L900.947 48.3806H901.773V47.5702ZM902.949 47.5702L903.759 47.565L903.754 46.7598H902.949V47.5702ZM903.285 99.891L902.474 99.8962L902.475 99.9097L903.285 99.891ZM908.324 113.664L909.049 114.026L909.385 113.354L908.739 112.968L908.324 113.664ZM908.156 114V114.81H908.657L908.881 114.362L908.156 114ZM965.096 113.19H946.871V114.81H965.096V113.19ZM946.871 113.19H940.993V114.81H946.871V113.19ZM941.718 113.638L941.55 113.302L940.1 114.026L940.268 114.362L941.718 113.638ZM941.22 114.371C943.104 113.318 944.367 111.503 945.068 109.058C945.764 106.629 945.92 103.536 945.579 99.8171L943.965 99.965C944.296 103.581 944.129 106.451 943.51 108.612C942.895 110.758 941.848 112.163 940.429 112.957L941.22 114.371ZM945.579 99.8159L941.128 52.0301L939.514 52.1804L943.965 99.9662L945.579 99.8159ZM941.129 52.0455C940.398 42.1489 938.566 34.7133 935.551 29.8434L934.173 30.6965C936.981 35.2325 938.788 42.3538 939.513 52.1649L941.129 52.0455ZM935.555 29.8493C932.567 24.9277 928.341 22.405 922.937 22.405V24.0258C927.722 24.0258 931.447 26.2062 934.169 30.6905L935.555 29.8493ZM922.937 22.405C916.815 22.405 911.821 25.223 907.994 30.7313L909.325 31.6561C912.889 26.5267 917.412 24.0258 922.937 24.0258V22.405ZM907.996 30.728C904.18 36.1628 902.306 43.1418 902.306 51.6014H903.927C903.927 43.3765 905.748 36.7504 909.323 31.6594L907.996 30.728ZM903.117 50.791H901.941V52.4118H903.117V50.791ZM902.751 51.6014C902.751 41.1469 905.323 33.1928 910.353 27.6217L909.15 26.5355C903.766 32.4979 901.131 40.8923 901.131 51.6014H902.751ZM910.355 27.6188C915.377 22.0028 922.444 19.1549 931.671 19.1549V17.5341C922.085 17.5341 914.539 20.5089 909.147 26.5384L910.355 27.6188ZM931.671 19.1549C939.654 19.1549 945.948 21.716 950.644 26.7892L951.833 25.6883C946.787 20.2358 940.036 17.5341 931.671 17.5341V19.1549ZM950.647 26.7926C955.415 31.8863 958.31 39.1712 959.25 48.7412L960.863 48.5827C959.9 38.7809 956.915 31.117 951.83 25.6849L950.647 26.7926ZM959.25 48.7439L964.457 99.973L966.07 99.8091L960.863 48.58L959.25 48.7439ZM964.456 99.9655C965.131 107.272 967.087 112.239 970.643 114.36L971.473 112.968C968.647 111.282 966.74 107.066 966.07 99.8165L964.456 99.9655ZM970.333 113.302L970.165 113.638L971.615 114.362L971.783 114.026L970.333 113.302ZM970.89 113.19H965.096V114.81H970.89V113.19ZM844.329 113.19H826.609V114.81H844.329V113.19ZM826.609 113.19H820.73V114.81H826.609V113.19ZM821.455 113.638L821.287 113.302L819.838 114.026L820.006 114.362L821.455 113.638ZM821.007 114.342C824.619 111.975 826.244 107.001 826.244 99.891H824.623C824.623 106.89 823.001 111.098 820.118 112.986L821.007 114.342ZM826.244 99.891V37.9963H824.623V99.891H826.244ZM826.244 37.9963C826.244 34.2542 825.793 31.2673 824.83 29.101C823.852 26.9001 822.318 25.5021 820.208 25.1063L819.909 26.6994C821.382 26.9755 822.536 27.9289 823.349 29.7592C824.178 31.624 824.623 34.3479 824.623 37.9963H826.244ZM820.869 25.9029V25.5669H819.248V25.9029H820.869ZM820.294 26.3425L825.836 24.6629L825.366 23.1117L819.824 24.7914L820.294 26.3425ZM825.789 24.6757L844.517 20.2247L844.142 18.6478L825.414 23.0988L825.789 24.6757ZM843.519 19.4362V44.3789H845.14V19.4362H843.519ZM844.329 45.1893H845.505V43.5685H844.329V45.1893ZM844.695 44.3789V99.891H846.315V44.3789H844.695ZM844.695 99.891C844.695 107.198 846.308 112.219 849.966 114.363L850.786 112.965C847.949 111.302 846.315 107.141 846.315 99.891H844.695ZM849.651 113.302L849.483 113.638L850.933 114.362L851.101 114.026L849.651 113.302ZM850.208 113.19H844.329V114.81H850.208V113.19ZM902.277 113.19H884.221V114.81H902.277V113.19ZM884.221 113.19H878.426V114.81H884.221V113.19ZM879.074 113.514L878.822 113.178L877.526 114.15L877.778 114.486L879.074 113.514ZM878.584 114.363C882.242 112.219 883.855 107.198 883.855 99.891H882.235C882.235 107.141 880.601 111.302 877.764 112.965L878.584 114.363ZM883.855 99.891V51.6014H882.235V99.891H883.855ZM883.855 51.6014C883.855 42.4538 882.249 35.2768 878.938 30.1653L877.578 31.0464C880.65 35.7888 882.235 42.6088 882.235 51.6014H883.855ZM878.942 30.1708C875.673 25.0342 871.172 22.405 865.493 22.405V24.0258C870.563 24.0258 874.572 26.3236 877.574 31.0409L878.942 30.1708ZM865.493 22.405C859.265 22.405 854.213 25.2178 850.382 30.7313L851.713 31.6561C855.273 26.5319 859.851 24.0258 865.493 24.0258V22.405ZM850.385 30.728C846.569 36.1628 844.695 43.1418 844.695 51.6014H846.315C846.315 43.3765 848.137 36.7504 851.711 31.6594L850.385 30.728ZM845.505 50.791H844.497V52.4118H845.505V50.791ZM845.308 51.6014C845.308 41.149 847.906 33.1961 852.99 27.6249L851.793 26.5323C846.352 32.4946 843.687 40.8903 843.687 51.6014H845.308ZM852.993 27.622C858.07 22.0049 865.221 19.1549 874.563 19.1549V17.5341C864.869 17.5341 857.239 20.5068 851.79 26.5352L852.993 27.622ZM874.563 19.1549C882.595 19.1549 889.005 21.7957 893.873 27.0419L895.061 25.9395C889.851 20.3241 882.991 17.5341 874.563 17.5341V19.1549ZM893.875 27.045C898.744 32.2385 901.128 39.0473 900.963 47.5545L902.583 47.5859C902.755 38.7368 900.267 31.4926 895.058 25.9365L893.875 27.045ZM901.773 48.3806H902.949V46.7598H901.773V48.3806ZM902.138 47.5754L902.474 99.8962L904.095 99.8858L903.759 47.565L902.138 47.5754ZM902.475 99.9097C902.643 107.214 904.321 112.22 907.909 114.36L908.739 112.968C905.944 111.301 904.262 107.125 904.095 99.8723L902.475 99.9097ZM907.599 113.302L907.431 113.638L908.881 114.362L909.049 114.026L907.599 113.302ZM908.156 113.19H902.277V114.81H908.156V113.19ZM993.27 102.075L992.689 102.64L992.691 102.642L993.27 102.075ZM994.529 32.2855L995.101 32.8603L995.103 32.8585L994.529 32.2855ZM1057.52 27.7505L1056.97 28.3452L1056.97 28.3474L1057.52 27.7505ZM1070.2 55.2126L1070.19 56.023L1071.12 56.028L1071 55.1043L1070.2 55.2126ZM992.514 54.7927L991.713 54.6694L991.57 55.598L992.51 55.6031L992.514 54.7927ZM992.85 52.6091L992.814 51.7995L992.15 51.8287L992.049 52.4859L992.85 52.6091ZM1052.14 50.0057L1052.76 50.5245L1053.94 49.1156L1052.11 49.1961L1052.14 50.0057ZM1051.3 51.0135L1050.49 51.063L1050.62 53.1003L1051.92 51.5323L1051.3 51.0135ZM1041.98 29.85L1041.4 30.4119L1041.4 30.4147L1041.98 29.85ZM1005.11 29.3461L1005.76 29.8271L1005.77 29.8239L1005.11 29.3461ZM1004.19 79.0635L1004.93 78.7373L1004.93 78.7334L1004.19 79.0635ZM1060.2 96.0278L1060.76 96.6151L1060.76 96.6122L1060.2 96.0278ZM1069.02 74.4445V73.6341H1068.23L1068.21 74.4292L1069.02 74.4445ZM1070.37 74.4445H1071.18V73.6341H1070.37V74.4445ZM1058.19 103.334L1057.63 102.749L1057.62 102.751L1058.19 103.334ZM1026.86 114.197C1013.1 114.197 1002.13 109.95 993.848 101.507L992.691 102.642C1001.32 111.444 1012.74 115.818 1026.86 115.818V114.197ZM993.85 101.509C985.569 93.0083 981.399 81.775 981.399 67.7259H979.778C979.778 82.1187 984.062 93.7845 992.689 102.64L993.85 101.509ZM981.399 67.7259C981.399 53.5295 985.976 41.9305 995.101 32.8603L993.958 31.7107C984.495 41.1165 979.778 53.1445 979.778 67.7259H981.399ZM995.103 32.8585C1004.23 23.7348 1015.99 19.1549 1030.47 19.1549V17.5341C1015.62 17.5341 1003.42 22.2482 993.956 31.7124L995.103 32.8585ZM1030.47 19.1549C1041.57 19.1549 1050.37 22.2421 1056.97 28.3452L1058.07 27.1557C1051.11 20.7175 1041.88 17.5341 1030.47 17.5341V19.1549ZM1056.97 28.3474C1063.62 34.4549 1067.79 43.4123 1069.39 55.3209L1071 55.1043C1069.36 42.938 1065.07 33.5873 1058.06 27.1535L1056.97 28.3474ZM1070.2 54.4022L992.518 53.9823L992.51 55.6031L1070.19 56.023L1070.2 54.4022ZM993.315 54.9159L993.651 52.7324L992.049 52.4859L991.713 54.6694L993.315 54.9159ZM992.885 53.4188L1052.18 50.8153L1052.11 49.1961L992.814 51.7995L992.885 53.4188ZM1051.52 49.4869L1050.68 50.4947L1051.92 51.5323L1052.76 50.5245L1051.52 49.4869ZM1052.11 50.964C1051.59 42.5416 1048.41 35.304 1042.56 29.2853L1041.4 30.4147C1046.97 36.1535 1050 43.0249 1050.49 51.063L1052.11 50.964ZM1042.56 29.2881C1036.72 23.2132 1029.93 20.1375 1022.24 20.1375V21.7583C1029.45 21.7583 1035.82 24.6174 1041.4 30.4119L1042.56 29.2881ZM1022.24 20.1375C1014.67 20.1375 1008.71 23.0467 1004.46 28.8683L1005.77 29.8239C1009.69 24.448 1015.15 21.7583 1022.24 21.7583V20.1375ZM1004.46 28.8652C1000.23 34.5998 998.17 42.6613 998.17 52.9451H999.791C999.791 42.8492 1001.82 35.1781 1005.76 29.8271L1004.46 28.8652ZM998.17 52.9451C998.17 62.674 999.924 71.4947 1003.45 79.3936L1004.93 78.7334C1001.51 71.0676 999.791 62.4761 999.791 52.9451H998.17ZM1003.45 79.3897C1006.96 87.3909 1011.75 93.6696 1017.81 98.1893L1018.78 96.8897C1012.98 92.5634 1008.35 86.5246 1004.93 78.7373L1003.45 79.3897ZM1017.81 98.1893C1023.88 102.714 1030.63 104.984 1038.03 104.984V103.364C1030.99 103.364 1024.58 101.211 1018.78 96.8897L1017.81 98.1893ZM1038.03 104.984C1047.28 104.984 1054.88 102.211 1060.76 96.6151L1059.65 95.4406C1054.11 100.706 1046.93 103.364 1038.03 103.364V104.984ZM1060.76 96.6122C1066.65 90.9572 1069.66 83.5479 1069.83 74.4598L1068.21 74.4292C1068.05 83.1453 1065.18 90.1249 1059.64 95.4435L1060.76 96.6122ZM1069.02 75.2549H1070.37V73.6341H1069.02V75.2549ZM1069.55 74.4445C1069.55 85.7063 1065.58 95.1233 1057.63 102.749L1058.75 103.919C1067.03 95.9806 1071.18 86.1377 1071.18 74.4445H1069.55ZM1057.62 102.751C1049.74 110.366 1039.51 114.197 1026.86 114.197V115.818C1039.86 115.818 1050.52 111.867 1058.75 103.917L1057.62 102.751ZM1083.84 114L1083.12 114.362L1083.34 114.81H1083.84V114ZM1083.67 113.664L1083.23 112.986L1082.63 113.381L1082.95 114.026L1083.67 113.664ZM1083.17 25.7349H1082.36V26.3676L1082.97 26.5211L1083.17 25.7349ZM1083.17 25.399L1082.96 24.6171L1082.36 24.78V25.399H1083.17ZM1088.71 23.8873L1088.53 23.0971L1088.52 23.1009L1088.5 23.1054L1088.71 23.8873ZM1108.28 19.4362L1109.09 19.4551L1109.12 18.4153L1108.1 18.646L1108.28 19.4362ZM1107.78 41.1036L1106.97 41.0848L1106.95 41.914H1107.78V41.1036ZM1108.62 41.1036H1109.43V40.2932H1108.62V41.1036ZM1113.49 113.664L1114.21 114.026L1114.55 113.348L1113.9 112.965L1113.49 113.664ZM1113.32 114V114.81H1113.82L1114.05 114.362L1113.32 114ZM1108.62 52.4412V53.2516H1109.43V52.4412H1108.62ZM1107.61 52.4412L1106.8 52.4878L1106.84 53.2516H1107.61V52.4412ZM1112.73 27.4145L1112.06 26.9607L1112.06 26.9621L1112.73 27.4145ZM1144.23 21.1159H1145.04V20.6117L1144.58 20.3889L1144.23 21.1159ZM1144.23 44.2109V45.0213H1145.04V44.2109H1144.23ZM1143.55 44.2109L1142.79 44.4824L1142.98 45.0213H1143.55V44.2109ZM1135.74 32.2015L1135.21 32.8083L1135.21 32.8132L1135.74 32.2015ZM1112.82 33.9651L1113.49 34.4188L1113.49 34.4147L1112.82 33.9651ZM1107.44 113.19H1089.72V114.81H1107.44V113.19ZM1089.72 113.19H1083.84V114.81H1089.72V113.19ZM1084.57 113.638L1084.4 113.302L1082.95 114.026L1083.12 114.362L1084.57 113.638ZM1084.12 114.342C1087.73 111.975 1089.36 107.001 1089.36 99.891H1087.74C1087.74 106.89 1086.11 111.098 1083.23 112.986L1084.12 114.342ZM1089.36 99.891V37.9963H1087.74V99.891H1089.36ZM1089.36 37.9963C1089.36 34.3071 1088.9 31.3375 1087.94 29.1467C1086.97 26.9267 1085.45 25.4703 1083.37 24.9487L1082.97 26.5211C1084.47 26.8953 1085.64 27.9303 1086.46 29.7974C1087.29 31.6938 1087.74 34.407 1087.74 37.9963H1089.36ZM1083.98 25.7349V25.399H1082.36V25.7349H1083.98ZM1083.38 26.1808L1088.93 24.6691L1088.5 23.1054L1082.96 24.6171L1083.38 26.1808ZM1088.89 24.6775L1108.46 20.2264L1108.1 18.646L1088.53 23.0971L1088.89 24.6775ZM1107.47 19.4174L1106.97 41.0848L1108.59 41.1224L1109.09 19.4551L1107.47 19.4174ZM1107.78 41.914H1108.62V40.2932H1107.78V41.914ZM1107.81 41.1036V99.891H1109.43V41.1036H1107.81ZM1107.81 99.891C1107.81 107.198 1109.42 112.219 1113.08 114.363L1113.9 112.965C1111.06 111.302 1109.43 107.141 1109.43 99.891H1107.81ZM1112.76 113.302L1112.6 113.638L1114.05 114.362L1114.21 114.026L1112.76 113.302ZM1113.32 113.19H1107.44V114.81H1113.32V113.19ZM1108.62 51.6308H1107.61V53.2516H1108.62V51.6308ZM1108.42 52.3946C1107.81 41.796 1109.51 33.6549 1113.4 27.867L1112.06 26.9621C1107.89 33.1556 1106.18 41.699 1106.8 52.4878L1108.42 52.3946ZM1113.4 27.8684C1117.33 22.0653 1123.05 19.1549 1130.7 19.1549V17.5341C1122.57 17.5341 1116.31 20.6703 1112.06 26.9607L1113.4 27.8684ZM1130.7 19.1549C1135.87 19.1549 1140.25 20.0625 1143.87 21.8429L1144.58 20.3889C1140.7 18.4741 1136.06 17.5341 1130.7 17.5341V19.1549ZM1143.42 21.1159V44.2109H1145.04V21.1159H1143.42ZM1144.23 43.4005H1143.55V45.0213H1144.23V43.4005ZM1144.32 43.9394C1142.49 38.793 1139.81 34.6641 1136.28 31.5898L1135.21 32.8132C1138.5 35.6737 1141.04 39.551 1142.79 44.4824L1144.32 43.9394ZM1136.28 31.5947C1132.75 28.4698 1128.98 26.8561 1124.99 26.8561V28.4769C1128.51 28.4769 1131.91 29.8865 1135.21 32.8083L1136.28 31.5947ZM1124.99 26.8561C1119.42 26.8561 1115.1 29.0769 1112.14 33.5156L1113.49 34.4147C1116.13 30.4551 1119.93 28.4769 1124.99 28.4769V26.8561ZM1112.15 33.5114C1109.21 37.8491 1107.81 44.1983 1107.81 52.4412H1109.43C1109.43 44.3355 1110.82 38.3674 1113.49 34.4188L1112.15 33.5114ZM1175.59 113.916L1175.4 114.704L1175.59 113.916ZM1160.22 109.045L1159.92 109.796L1159.93 109.8L1159.94 109.804L1160.22 109.045ZM1157.96 108.121H1157.14V108.666L1157.65 108.872L1157.96 108.121ZM1157.96 83.0106V82.2002H1157.14V83.0106H1157.96ZM1158.8 83.0106L1159.56 82.7544L1159.38 82.2002H1158.8V83.0106ZM1159.72 84.7743L1160.39 84.3247L1159.72 84.7743ZM1160.73 86.4539L1161.43 86.0535L1161.42 86.0284L1161.4 86.0044L1160.73 86.4539ZM1211.7 108.121L1212.24 108.727L1212.24 108.727L1211.7 108.121ZM1214.22 82.8427L1214.85 82.3262L1214.84 82.318L1214.83 82.3099L1214.22 82.8427ZM1190.12 71.1692L1190.35 70.3909L1190.34 70.3902L1190.12 71.1692ZM1173.74 65.4584L1174.09 64.7249L1174.07 64.7177L1174.06 64.7111L1173.74 65.4584ZM1168.54 25.231L1168.07 24.5696L1168.07 24.5715L1168.54 25.231ZM1223.63 21.7877H1224.44V21.1889L1223.87 21.013L1223.63 21.7877ZM1223.63 40.3478V41.1582H1224.44V40.3478H1223.63ZM1222.79 40.3478L1222.22 40.9208L1222.45 41.1582H1222.79V40.3478ZM1220.61 37.8283L1221.24 37.3221L1221.21 37.287L1221.18 37.2553L1220.61 37.8283ZM1218 35.5608L1217.43 36.1372L1217.46 36.167L1217.5 36.1936L1218 35.5608ZM1202.47 24.7271L1202.13 25.4636L1202.14 25.4677L1202.47 24.7271ZM1175.34 24.6431L1175.86 25.2627L1175.86 25.2618L1175.34 24.6431ZM1174.5 43.6231L1175.09 43.0653L1175.08 43.0576L1175.07 43.05L1174.5 43.6231ZM1182.31 48.8299L1182 49.5797L1182.01 49.5842L1182.31 48.8299ZM1196.5 53.113L1196.71 52.3294L1196.7 52.3281L1196.5 53.113ZM1214.22 58.6558L1213.9 59.4008L1213.91 59.4041L1214.22 58.6558ZM1219.35 106.274L1218.82 105.657L1218.82 105.659L1219.35 106.274ZM1190.29 114.701C1184.97 114.701 1180.13 114.175 1175.78 113.128L1175.4 114.704C1179.9 115.785 1184.86 116.322 1190.29 116.322V114.701ZM1175.78 113.128C1171.4 112.074 1166.31 110.462 1160.51 108.286L1159.94 109.804C1165.78 111.995 1170.94 113.63 1175.4 114.704L1175.78 113.128ZM1160.53 108.295L1158.26 107.371L1157.65 108.872L1159.92 109.796L1160.53 108.295ZM1158.77 108.121V83.0106H1157.14V108.121H1158.77ZM1157.96 83.821H1158.8V82.2002H1157.96V83.821ZM1158.03 83.2669C1158.23 83.8648 1158.58 84.5196 1159.04 85.2238L1160.39 84.3247C1159.97 83.6852 1159.7 83.1643 1159.56 82.7544L1158.03 83.2669ZM1159.04 85.2238C1159.14 85.3667 1159.3 85.6257 1159.52 86.0161L1160.93 85.212C1160.7 84.8186 1160.52 84.5177 1160.39 84.3247L1159.04 85.2238ZM1159.52 86.0161C1159.74 86.4095 1159.92 86.7104 1160.05 86.9034L1161.4 86.0044C1161.31 85.8615 1161.15 85.6025 1160.93 85.212L1159.52 86.0161ZM1160.02 86.8543C1170.32 104.98 1182.24 114.307 1195.83 114.307V112.686C1183.11 112.686 1171.62 103.984 1161.43 86.0535L1160.02 86.8543ZM1195.83 114.307C1202.54 114.307 1208.03 112.469 1212.24 108.727L1211.17 107.516C1207.31 110.94 1202.23 112.686 1195.83 112.686V114.307ZM1212.24 108.727C1216.51 104.924 1218.64 99.9962 1218.64 94.0123H1217.02C1217.02 99.5619 1215.07 104.04 1211.16 107.516L1212.24 108.727ZM1218.64 94.0123C1218.64 89.3281 1217.4 85.4106 1214.85 82.3262L1213.6 83.3591C1215.86 86.0975 1217.02 89.6264 1217.02 94.0123H1218.64ZM1214.83 82.3099C1212.46 79.5856 1209.51 77.4193 1206 75.8075L1205.32 77.2805C1208.64 78.804 1211.4 80.8369 1213.61 83.3754L1214.83 82.3099ZM1206 75.8075C1202.52 74.2143 1197.3 72.4094 1190.35 70.3909L1189.89 71.9474C1196.83 73.96 1201.96 75.7384 1205.32 77.2805L1206 75.8075ZM1190.34 70.3902C1183.13 68.3224 1177.72 66.4328 1174.09 64.7249L1173.4 66.1919C1177.15 67.9552 1182.66 69.8728 1189.9 71.9482L1190.34 70.3902ZM1174.06 64.7111C1169.3 62.7148 1165.78 59.9902 1163.45 56.5626C1161.13 53.1368 1159.94 48.9497 1159.94 43.959H1158.32C1158.32 49.2141 1159.57 53.7331 1162.11 57.4737C1164.66 61.2126 1168.45 64.1148 1173.43 66.2057L1174.06 64.7111ZM1159.94 43.959C1159.94 36.2024 1162.96 30.2105 1169.01 25.8904L1168.07 24.5715C1161.57 29.2096 1158.32 35.703 1158.32 43.959H1159.94ZM1169.01 25.8924C1175.14 21.5459 1183.8 19.3228 1195.08 19.3228V17.702C1183.62 17.702 1174.58 19.958 1168.07 24.5696L1169.01 25.8924ZM1195.08 19.3228C1206.96 19.3228 1216.39 20.4124 1223.39 22.5624L1223.87 21.013C1216.65 18.796 1207.04 17.702 1195.08 17.702V19.3228ZM1222.82 21.7877V40.3478H1224.44V21.7877H1222.82ZM1223.63 39.5374H1222.79V41.1582H1223.63V39.5374ZM1223.36 39.7747C1222.83 39.2465 1222.13 38.4339 1221.24 37.3221L1219.97 38.3345C1220.88 39.4622 1221.62 40.3293 1222.22 40.9208L1223.36 39.7747ZM1221.18 37.2553C1220.53 36.6092 1219.64 35.8322 1218.51 34.928L1217.5 36.1936C1218.61 37.081 1219.45 37.8157 1220.03 38.4013L1221.18 37.2553ZM1218.57 34.9844C1213.7 30.1646 1208.44 26.4941 1202.79 23.9866L1202.14 25.4677C1207.58 27.887 1212.68 31.439 1217.43 36.1372L1218.57 34.9844ZM1202.8 23.9906C1197.24 21.4345 1191.97 20.1375 1187.01 20.1375V21.7583C1191.69 21.7583 1196.72 22.9808 1202.13 25.4636L1202.8 23.9906ZM1187.01 20.1375C1182 20.1375 1177.91 21.4061 1174.82 24.0245L1175.86 25.2618C1178.59 22.9532 1182.28 21.7583 1187.01 21.7583V20.1375ZM1174.82 24.0236C1171.76 26.6053 1170.25 30.1484 1170.25 34.553H1171.87C1171.87 30.5594 1173.21 27.4959 1175.86 25.2627L1174.82 24.0236ZM1170.25 34.553C1170.25 38.4829 1171.46 41.7248 1173.93 44.1961L1175.07 43.05C1172.95 40.9303 1171.87 38.1255 1171.87 34.553H1170.25ZM1173.91 44.1808C1176.07 46.4573 1178.77 48.2539 1182 49.5796L1182.62 48.0803C1179.58 46.8306 1177.07 45.1559 1175.09 43.0653L1173.91 44.1808ZM1182.01 49.5842C1185.2 50.8347 1189.97 52.2722 1196.3 53.898L1196.7 52.3281C1190.39 50.7065 1185.69 49.2887 1182.61 48.0757L1182.01 49.5842ZM1196.3 53.8967C1204.58 56.0793 1210.44 57.9144 1213.9 59.4007L1214.54 57.911C1210.96 56.3739 1205 54.5138 1196.71 52.3294L1196.3 53.8967ZM1213.91 59.4041C1219.11 61.567 1222.96 64.5692 1225.52 68.3865C1228.07 72.2036 1229.37 76.8958 1229.37 82.5067H1230.99C1230.99 76.6401 1229.63 71.6184 1226.86 67.4852C1224.1 63.3522 1219.97 60.1677 1214.53 57.9076L1213.91 59.4041ZM1229.37 82.5067C1229.37 91.961 1225.86 99.6559 1218.82 105.657L1219.87 106.89C1227.28 100.574 1230.99 92.4244 1230.99 82.5067H1229.37ZM1218.82 105.659C1211.84 111.658 1202.36 114.701 1190.29 114.701V116.322C1202.63 116.322 1212.52 113.206 1219.87 106.888L1218.82 105.659Z" fill="#EFE9E1" mask="url(#path-1-outside-1_54_564)"/>
</g>
</svg>
