<svg width="364" height="99" viewBox="0 0 364 99" fill="none" xmlns="http://www.w3.org/2000/svg">
<mask id="path-1-outside-1_278_8" maskUnits="userSpaceOnUse" x="0" y="0" width="364" height="100" fill="black">
<rect fill="white" width="364" height="100"/>
<path d="M158.535 34.885C154.777 38.7589 149.976 40.6959 144.13 40.6959C138.284 40.6959 133.587 38.8749 130.037 35.2329C126.511 31.591 124.748 26.7891 124.748 20.8274C124.748 14.7961 126.593 9.87823 130.281 6.07386C133.993 2.26949 138.806 0.36731 144.721 0.36731C150.59 0.36731 155.299 2.1999 158.849 5.86508C162.398 9.53027 164.172 14.2393 164.172 19.9923C164.172 26.0468 162.293 31.011 158.535 34.885ZM147.053 39.7912C149.952 39.7912 152.261 38.527 153.977 35.9985C155.694 33.4699 156.552 30.0483 156.552 25.7336C156.552 21.6277 155.833 17.6609 154.395 13.8334C152.956 10.0754 151.066 7.07135 148.723 4.8212C146.403 2.57106 143.979 1.44599 141.451 1.44599C138.574 1.44599 136.336 2.65225 134.735 5.06478C133.158 7.4773 132.369 10.7829 132.369 14.9816C132.369 19.1572 133.065 23.1935 134.457 27.0907C135.848 30.9646 137.646 34.0499 139.85 36.3464C142.077 38.643 144.478 39.7912 147.053 39.7912ZM205.457 0.819658V34.1543C205.457 37.1699 206.118 39.0721 207.441 39.8608L207.371 40H204.97H197.419V23.5415L197.037 23.2631V8.50958C197.037 5.47073 196.306 3.77732 194.844 3.42936V3.29018L197.176 2.66385L205.457 0.819658ZM171.601 27.891L171.531 8.50958C171.531 5.47073 170.824 3.77732 169.408 3.42936V3.29018L171.67 2.66385L179.952 0.819658V26.4643C179.928 30.2223 180.578 33.1104 181.9 35.1286C183.246 37.1467 185.09 38.1558 187.433 38.1558C190.286 38.1558 192.594 36.474 194.357 33.1104C196.143 29.7468 197.037 25.4669 197.037 20.2706H197.558C197.558 26.5107 196.364 31.417 193.974 34.9894C191.608 38.5618 188.361 40.348 184.232 40.348C180.52 40.348 177.493 39.2229 175.15 36.9727C172.807 34.6994 171.624 31.6721 171.601 27.891ZM225.064 40H217.722H215.286L215.217 39.8608C216.562 38.9793 217.235 37.0771 217.235 34.1543V8.50958C217.235 5.49393 216.493 3.80052 215.008 3.42936V3.29018L217.305 2.66385L225.412 0.819658L225.203 9.79704H225.551V34.1543C225.551 37.1699 226.224 39.0721 227.569 39.8608L227.5 40H225.064ZM225.551 14.4945H225.134C224.878 10.0638 225.586 6.6074 227.256 4.12528C228.95 1.61997 231.432 0.36731 234.703 0.36731C236.883 0.36731 238.751 0.750066 240.305 1.51558V11.0845H240.026C239.284 8.99673 238.205 7.33812 236.79 6.10866C235.375 4.856 233.891 4.22967 232.336 4.22967C230.133 4.22967 228.451 5.09957 227.291 6.83937C226.131 8.55598 225.551 11.1077 225.551 14.4945ZM20.3451 98.6959C14.2673 98.6959 9.43069 96.9097 5.8351 93.3373C2.23951 89.7649 0.441718 84.9283 0.441718 78.8274C0.441718 72.6569 2.3439 67.7042 6.14827 63.9695C9.95264 60.2347 15.0677 58.3673 21.4933 58.3673C25.9704 58.3673 30.4011 59.0168 34.7854 60.3159V72.2161H34.4374C32.744 68.2262 30.4591 65.1061 27.5826 62.856C24.7062 60.5827 21.6209 59.446 18.3269 59.446C14.8241 59.446 12.226 60.5827 10.5326 62.856C8.83916 65.1293 7.99246 68.3422 7.99246 72.4945C7.96926 76.6236 8.68838 80.3932 10.1498 83.8032C11.6112 87.19 13.6526 89.8693 16.2739 91.8411C18.9184 93.8129 21.8645 94.7988 25.1121 94.7988C27.5478 94.7988 29.7284 94.2188 31.6538 93.059C33.6023 91.8759 35.0754 90.2637 36.0729 88.2223L36.734 88.6051C35.2726 91.8063 33.1036 94.2884 30.2271 96.0514C27.3507 97.8144 24.0566 98.6959 20.3451 98.6959ZM77.7404 58.8197V92.1543C77.7404 95.1699 78.4016 97.0721 79.7238 97.8608L79.6542 98H77.2533H69.7025V81.5415L69.3198 81.2631V66.5096C69.3198 63.4707 68.5891 61.7773 67.1276 61.4294V61.2902L69.459 60.6638L77.7404 58.8197ZM43.8839 85.891L43.8143 66.5096C43.8143 63.4707 43.1068 61.7773 41.6917 61.4294V61.2902L43.9535 60.6638L52.2349 58.8197V84.4643C52.2117 88.2223 52.8613 91.1104 54.1835 93.1286C55.529 95.1467 57.3731 96.1558 59.7161 96.1558C62.5694 96.1558 64.8775 94.474 66.6405 91.1104C68.4267 87.7468 69.3198 83.4669 69.3198 78.2706H69.8417C69.8417 84.5107 68.6471 89.417 66.2577 92.9894C63.8916 96.5618 60.644 98.348 56.5148 98.348C52.8033 98.348 49.776 97.2229 47.4331 94.9727C45.0901 92.6994 43.9071 89.6721 43.8839 85.891ZM100.409 98.6263C98.1824 98.6263 96.1526 98.406 94.32 97.9652C92.4874 97.5245 90.3649 96.8517 87.9524 95.947L87.0129 95.5643V85.1603H87.3608C87.4304 85.369 87.558 85.6126 87.7436 85.891C87.79 85.9606 87.8596 86.0766 87.9524 86.2389C88.0452 86.4013 88.1147 86.5173 88.1611 86.5869C92.4063 94.0564 97.2545 97.7912 102.706 97.7912C105.42 97.7912 107.612 97.0489 109.282 95.5643C110.976 94.0564 111.822 92.1079 111.822 89.7185C111.822 87.8396 111.324 86.2969 110.326 85.0907C109.375 84.0004 108.192 83.1305 106.777 82.481C105.362 81.8314 103.216 81.0891 100.34 80.254C97.3473 79.3957 95.0856 78.607 93.5545 77.8879C89.5182 76.1945 87.5 73.2252 87.5 68.9801C87.5 65.6629 88.7991 63.0764 91.3972 61.2206C94.0185 59.3648 97.6837 58.4369 102.393 58.4369C107.334 58.4369 111.277 58.8893 114.223 59.7939V67.4839H113.875C113.643 67.2519 113.342 66.9039 112.971 66.44C112.716 66.1848 112.356 65.8717 111.892 65.5005C109.897 63.5287 107.751 62.0325 105.455 61.0118C103.181 59.9679 101.047 59.446 99.0523 59.446C97.0341 59.446 95.4219 59.9563 94.2157 60.977C93.0326 61.9745 92.4411 63.3431 92.4411 65.0829C92.4411 66.6372 92.9166 67.8898 93.8677 68.8409C94.726 69.7456 95.8047 70.4647 97.1037 70.9983C98.4028 71.5086 100.363 72.1001 102.984 72.7729C106.417 73.6776 108.865 74.4431 110.326 75.0694C114.734 76.902 116.937 80.196 116.937 84.9515C116.937 88.9646 115.441 92.2471 112.449 94.7988C109.48 97.3505 105.466 98.6263 100.409 98.6263ZM147.088 58.7501L147.018 60.803C139.015 60.2695 131.221 60.0027 123.635 60.0027H122.208V58.8197L147.088 58.7501ZM147.714 92.6414L148.131 93.0242C146.647 96.5734 143.585 98.348 138.945 98.348C135.628 98.348 132.984 97.5129 131.012 95.8426C129.04 94.1724 128.054 91.8991 128.054 89.0226V59.098L122.208 58.8197C125.758 58.6805 128.704 57.9498 131.047 56.6275C133.413 55.3053 135.094 53.4379 136.092 51.0253H136.475V88.0135C136.475 90.8204 136.985 92.943 138.006 94.3812C139.05 95.7963 140.557 96.5038 142.529 96.5038C143.689 96.5038 144.733 96.1558 145.661 95.4599C146.589 94.764 147.273 93.8245 147.714 92.6414ZM182.875 92.885C179.117 96.7589 174.315 98.6959 168.469 98.6959C162.623 98.6959 157.926 96.8749 154.377 93.2329C150.851 89.591 149.088 84.7891 149.088 78.8274C149.088 72.7961 150.932 67.8782 154.62 64.0739C158.332 60.2695 163.145 58.3673 169.061 58.3673C174.929 58.3673 179.639 60.1999 183.188 63.8651C186.737 67.5303 188.512 72.2393 188.512 77.9923C188.512 84.0468 186.633 89.011 182.875 92.885ZM171.392 97.7912C174.292 97.7912 176.6 96.527 178.316 93.9985C180.033 91.4699 180.891 88.0483 180.891 83.7336C180.891 79.6277 180.172 75.6609 178.734 71.8334C177.296 68.0754 175.405 65.0713 173.062 62.8212C170.742 60.5711 168.318 59.446 165.79 59.446C162.913 59.446 160.675 60.6522 159.074 63.0648C157.497 65.4773 156.708 68.7829 156.708 72.9816C156.708 77.1572 157.404 81.1935 158.796 85.0907C160.188 88.9646 161.985 92.0499 164.189 94.3464C166.416 96.643 168.817 97.7912 171.392 97.7912ZM253.492 98H245.942H243.506L243.436 97.8608C244.805 97.0953 245.35 95.1931 245.072 92.1543L243.228 72.3553C242.926 68.2726 242.172 65.2569 240.966 63.3083C239.783 61.3598 238.136 60.3855 236.025 60.3855C233.612 60.3855 231.641 61.4874 230.11 63.6911C228.578 65.8717 227.813 68.6901 227.813 72.1465H227.326C227.326 67.7622 228.405 64.3754 230.562 61.9861C232.719 59.5736 235.746 58.3673 239.644 58.3673C243.03 58.3673 245.733 59.4576 247.751 61.6381C249.792 63.8187 251.01 66.9155 251.405 70.9287L253.562 92.1543C253.84 95.1699 254.641 97.0721 255.963 97.8608L255.893 98H253.492ZM203.456 98H196.114H193.678L193.608 97.8608C194.954 96.9793 195.627 95.0771 195.627 92.1543V66.5096C195.627 63.4475 194.884 61.7773 193.4 61.499V61.3598L195.696 60.6638L203.456 58.8197V69.1541H203.943V92.1543C203.943 95.1699 204.616 97.0721 205.961 97.8608L205.891 98H203.456ZM227.465 98H219.984H217.583L217.479 97.8608C218.824 97.0721 219.497 95.1699 219.497 92.1543V72.1465C219.497 68.3886 218.836 65.4889 217.513 63.4475C216.214 61.4062 214.451 60.3855 212.224 60.3855C209.765 60.3855 207.77 61.4874 206.239 63.6911C204.708 65.8717 203.943 68.6901 203.943 72.1465H203.525C203.525 67.7622 204.616 64.3754 206.796 61.9861C208.977 59.5736 212.039 58.3673 215.982 58.3673C219.392 58.3673 222.141 59.4924 224.229 61.7425C226.317 63.9695 227.326 66.8807 227.256 70.4763H227.743L227.883 92.1543C227.952 95.1699 228.648 97.0721 229.97 97.8608L229.901 98H227.465ZM279.084 98.4176C273.308 98.4176 268.669 96.6314 265.166 93.059C261.663 89.4634 259.912 84.7195 259.912 78.8274C259.912 72.8657 261.837 67.971 265.688 64.1435C269.539 60.2927 274.503 58.3673 280.58 58.3673C285.243 58.3673 288.978 59.6664 291.785 62.2645C294.615 64.8626 296.366 68.6553 297.039 73.6428L264.853 73.4688L264.992 72.5641L289.558 71.4854L289.21 71.903C289.001 68.493 287.714 65.5701 285.348 63.1344C282.981 60.6754 280.256 59.446 277.17 59.446C274.132 59.446 271.765 60.6059 270.072 62.9256C268.379 65.2221 267.532 68.4814 267.532 72.7033C267.532 76.6932 268.251 80.3004 269.689 83.5248C271.128 86.7957 273.076 89.3474 275.535 91.18C277.994 93.0126 280.72 93.9289 283.712 93.9289C287.47 93.9289 290.532 92.8038 292.898 90.5536C295.264 88.2803 296.482 85.2994 296.552 81.6111H297.109C297.109 86.3665 295.427 90.3565 292.063 93.5809C288.723 96.8053 284.396 98.4176 279.084 98.4176ZM312.47 98H305.128H302.693L302.623 97.8608C303.968 96.9793 304.641 95.0771 304.641 92.1543V66.5096C304.641 63.4939 303.899 61.8005 302.414 61.4294V61.2902L304.711 60.6638L312.818 58.8197L312.61 67.797H312.957V92.1543C312.957 95.1699 313.63 97.0721 314.976 97.8608L314.906 98H312.47ZM312.957 72.4945H312.54C312.285 68.0638 312.992 64.6074 314.662 62.1253C316.356 59.62 318.838 58.3673 322.109 58.3673C324.289 58.3673 326.157 58.7501 327.711 59.5156V69.0845H327.433C326.69 66.9967 325.612 65.3381 324.197 64.1087C322.782 62.856 321.297 62.2297 319.743 62.2297C317.539 62.2297 315.857 63.0996 314.697 64.8394C313.537 66.556 312.957 69.1077 312.957 72.4945ZM346.796 98.6263C344.569 98.6263 342.539 98.406 340.707 97.9652C338.874 97.5245 336.751 96.8517 334.339 95.947L333.399 95.5643V85.1603H333.747C333.817 85.369 333.945 85.6126 334.13 85.891C334.177 85.9606 334.246 86.0766 334.339 86.2389C334.432 86.4013 334.501 86.5173 334.548 86.5869C338.793 94.0564 343.641 97.7912 349.092 97.7912C351.807 97.7912 353.999 97.0489 355.669 95.5643C357.362 94.0564 358.209 92.1079 358.209 89.7185C358.209 87.8396 357.71 86.2969 356.713 85.0907C355.762 84.0004 354.579 83.1305 353.164 82.481C351.749 81.8314 349.603 81.0891 346.726 80.254C343.734 79.3957 341.472 78.607 339.941 77.8879C335.905 76.1945 333.887 73.2252 333.887 68.9801C333.887 65.6629 335.186 63.0764 337.784 61.2206C340.405 59.3648 344.07 58.4369 348.779 58.4369C353.72 58.4369 357.664 58.8893 360.61 59.7939V67.4839H360.262C360.03 67.2519 359.728 66.9039 359.357 66.44C359.102 66.1848 358.743 65.8717 358.279 65.5005C356.284 63.5287 354.138 62.0325 351.841 61.0118C349.568 59.9679 347.434 59.446 345.439 59.446C343.421 59.446 341.808 59.9563 340.602 60.977C339.419 61.9745 338.828 63.3431 338.828 65.0829C338.828 66.6372 339.303 67.8898 340.254 68.8409C341.113 69.7456 342.191 70.4647 343.49 70.9983C344.789 71.5086 346.75 72.1001 349.371 72.7729C352.804 73.6776 355.251 74.4431 356.713 75.0694C361.12 76.902 363.324 80.196 363.324 84.9515C363.324 88.9646 361.828 92.2471 358.835 94.7988C355.866 97.3505 351.853 98.6263 346.796 98.6263Z"/>
</mask>
<path d="M130.037 35.2329L129.796 35.4665L129.797 35.4673L130.037 35.2329ZM130.281 6.07386L130.041 5.83938L130.04 5.84014L130.281 6.07386ZM154.395 13.8334L154.709 13.7153L154.708 13.7134L154.395 13.8334ZM148.723 4.8212L148.489 5.06222L148.49 5.06338L148.723 4.8212ZM134.735 5.06478L134.455 4.87914L134.454 4.88103L134.735 5.06478ZM134.457 27.0907L134.14 27.2036L134.141 27.2042L134.457 27.0907ZM139.85 36.3464L139.608 36.5789L139.609 36.5802L139.85 36.3464ZM158.294 34.6512C154.605 38.4542 149.893 40.3602 144.13 40.3602V41.0317C150.058 41.0317 154.95 39.0637 158.776 35.1188L158.294 34.6512ZM144.13 40.3602C138.36 40.3602 133.754 38.5659 130.278 34.9986L129.797 35.4673C133.419 39.184 138.208 41.0317 144.13 41.0317V40.3602ZM130.279 34.9994C126.824 31.4309 125.084 26.7184 125.084 20.8274H124.413C124.413 26.8598 126.199 31.751 129.796 35.4665L130.279 34.9994ZM125.084 20.8274C125.084 14.8703 126.903 10.0405 130.522 6.30758L130.04 5.84014C126.282 9.71594 124.413 14.7219 124.413 20.8274H125.084ZM130.521 6.30834C134.162 2.57636 138.885 0.70308 144.721 0.70308V0.0315401C138.727 0.0315401 133.823 1.96262 130.041 5.83938L130.521 6.30834ZM144.721 0.70308C150.514 0.70308 155.131 2.50878 158.607 6.09866L159.09 5.63151C155.468 1.89103 150.666 0.0315401 144.721 0.0315401V0.70308ZM158.607 6.09866C162.088 9.69305 163.837 14.3144 163.837 19.9923H164.508C164.508 14.1642 162.708 9.36749 159.09 5.63151L158.607 6.09866ZM163.837 19.9923C163.837 25.9711 161.984 30.8477 158.294 34.6512L158.776 35.1188C162.603 31.1743 164.508 26.1225 164.508 19.9923H163.837ZM147.053 40.127C150.071 40.127 152.48 38.8017 154.255 36.1871L153.699 35.8099C152.041 38.2522 149.834 39.4555 147.053 39.4555V40.127ZM154.255 36.1871C156.022 33.5843 156.888 30.0889 156.888 25.7336H156.216C156.216 30.0077 155.366 33.3556 153.699 35.8099L154.255 36.1871ZM156.888 25.7336C156.888 21.5875 156.162 17.5808 154.709 13.7153L154.08 13.9515C155.504 17.7411 156.216 21.6679 156.216 25.7336H156.888ZM154.708 13.7134C153.256 9.91996 151.342 6.8706 148.956 4.57903L148.49 5.06338C150.79 7.27209 152.656 10.2309 154.081 13.9534L154.708 13.7134ZM148.957 4.58019C146.593 2.28691 144.089 1.11022 141.451 1.11022V1.78176C143.869 1.78176 146.214 2.8552 148.489 5.06222L148.957 4.58019ZM141.451 1.11022C138.461 1.11022 136.117 2.37359 134.455 4.87915L135.015 5.25041C136.554 2.93091 138.688 1.78176 141.451 1.78176V1.11022ZM134.454 4.88103C132.828 7.36779 132.033 10.7459 132.033 14.9816H132.705C132.705 10.82 133.487 7.58681 135.016 5.24853L134.454 4.88103ZM132.033 14.9816C132.033 19.1953 132.735 23.2699 134.14 27.2036L134.773 26.9777C133.394 23.1172 132.705 19.119 132.705 14.9816H132.033ZM134.141 27.2042C135.544 31.1101 137.363 34.2399 139.608 36.5789L140.092 36.1139C137.929 33.8599 136.153 30.8192 134.773 26.9771L134.141 27.2042ZM139.609 36.5802C141.883 38.9251 144.366 40.127 147.053 40.127V39.4555C144.59 39.4555 142.271 38.3608 140.091 36.1127L139.609 36.5802ZM205.457 0.819658H205.793V0.400892L205.384 0.491917L205.457 0.819658ZM207.441 39.8608L207.741 40.011L207.88 39.7321L207.613 39.5725L207.441 39.8608ZM207.371 40V40.3358H207.578L207.671 40.1502L207.371 40ZM197.419 40H197.084V40.3358H197.419V40ZM197.419 23.5415H197.755V23.3705L197.617 23.2699L197.419 23.5415ZM197.037 23.2631H196.701V23.4341L196.839 23.5347L197.037 23.2631ZM194.844 3.42936H194.509V3.69457L194.767 3.756L194.844 3.42936ZM194.844 3.29018L194.757 2.96591L194.509 3.03271V3.29018H194.844ZM197.176 2.66385L197.103 2.33611L197.096 2.33769L197.089 2.33958L197.176 2.66385ZM171.601 27.891L171.265 27.8922L171.265 27.893L171.601 27.891ZM171.531 8.50958L171.195 8.50958L171.195 8.51079L171.531 8.50958ZM169.408 3.42936H169.073V3.69257L169.328 3.75542L169.408 3.42936ZM169.408 3.29018L169.319 2.96659L169.073 3.03475V3.29018H169.408ZM171.67 2.66385L171.597 2.33611L171.589 2.33797L171.581 2.34026L171.67 2.66385ZM179.952 0.819658H180.287V0.400892L179.879 0.491917L179.952 0.819658ZM179.952 26.4643L180.287 26.4664V26.4643H179.952ZM181.9 35.1286L181.619 35.3126L181.621 35.3148L181.9 35.1286ZM194.357 33.1104L194.061 32.9529L194.06 32.9545L194.357 33.1104ZM197.037 20.2706V19.9349H196.701V20.2706H197.037ZM197.558 20.2706H197.894V19.9349H197.558V20.2706ZM193.974 34.9894L193.695 34.8027L193.695 34.804L193.974 34.9894ZM175.15 36.9727L174.916 37.2137L174.917 37.2149L175.15 36.9727ZM205.121 0.819658V34.1543H205.793V0.819658H205.121ZM205.121 34.1543C205.121 37.18 205.778 39.2598 207.269 40.1492L207.613 39.5725C206.459 38.8844 205.793 37.1598 205.793 34.1543H205.121ZM207.14 39.7107L207.071 39.8498L207.671 40.1502L207.741 40.011L207.14 39.7107ZM207.371 39.6642H204.97V40.3358H207.371V39.6642ZM204.97 39.6642H197.419V40.3358H204.97V39.6642ZM197.755 40V23.5415H197.084V40H197.755ZM197.617 23.2699L197.234 22.9916L196.839 23.5347L197.222 23.813L197.617 23.2699ZM197.372 23.2631V8.50958H196.701V23.2631H197.372ZM197.372 8.50958C197.372 6.97029 197.188 5.73466 196.797 4.82736C196.4 3.9081 195.78 3.30688 194.922 3.10272L194.767 3.756C195.371 3.8998 195.846 4.31927 196.18 5.09342C196.519 5.87952 196.701 7.01002 196.701 8.50958H197.372ZM195.18 3.42936V3.29018H194.509V3.42936H195.18ZM194.932 3.61445L197.263 2.98812L197.089 2.33958L194.757 2.96591L194.932 3.61445ZM197.249 2.99159L205.53 1.1474L205.384 0.491917L197.103 2.33611L197.249 2.99159ZM171.936 27.8898L171.867 8.50838L171.195 8.51079L171.265 27.8922L171.936 27.8898ZM171.867 8.50958C171.867 6.97108 171.689 5.73692 171.31 4.83094C170.927 3.91427 170.326 3.30923 169.489 3.1033L169.328 3.75542C169.906 3.89745 170.366 4.3131 170.691 5.08983C171.02 5.87727 171.195 7.00923 171.195 8.50958H171.867ZM169.744 3.42936V3.29018H169.073V3.42936H169.744ZM169.498 3.61377L171.76 2.98744L171.581 2.34026L169.319 2.96659L169.498 3.61377ZM171.743 2.99159L180.025 1.1474L179.879 0.491917L171.597 2.33611L171.743 2.99159ZM179.616 0.819658V26.4643H180.287V0.819658H179.616ZM179.616 26.4623C179.593 30.2523 180.246 33.2162 181.619 35.3126L182.181 34.9445C180.91 33.0045 180.264 30.1923 180.287 26.4664L179.616 26.4623ZM181.621 35.3148C183.026 37.4224 184.973 38.4916 187.433 38.4916V37.82C185.207 37.82 183.465 36.871 182.18 34.9423L181.621 35.3148ZM187.433 38.4916C190.453 38.4916 192.856 36.698 194.655 33.2663L194.06 32.9545C192.333 36.25 190.12 37.82 187.433 37.82V38.4916ZM194.654 33.2679C196.473 29.8413 197.372 25.5027 197.372 20.2706H196.701C196.701 25.431 195.813 29.6522 194.061 32.9529L194.654 33.2679ZM197.037 20.6064H197.558V19.9349H197.037V20.6064ZM197.223 20.2706C197.223 26.4728 196.035 31.3053 193.695 34.8027L194.254 35.176C196.693 31.5287 197.894 26.5486 197.894 20.2706H197.223ZM193.695 34.804C191.388 38.2867 188.243 40.0122 184.232 40.0122V40.6837C188.478 40.6837 191.829 38.8368 194.254 35.1748L193.695 34.804ZM184.232 40.0122C180.593 40.0122 177.654 38.912 175.382 36.7306L174.917 37.2149C177.332 39.5338 180.447 40.6837 184.232 40.6837V40.0122ZM175.384 36.7318C173.116 34.5312 171.959 31.5955 171.936 27.8889L171.265 27.893C171.289 31.7488 172.498 34.8676 174.916 37.2137L175.384 36.7318ZM215.286 40L214.986 40.1502L215.079 40.3358H215.286V40ZM215.217 39.8608L215.033 39.58L214.783 39.7437L214.916 40.011L215.217 39.8608ZM215.008 3.42936H214.672V3.69152L214.927 3.75511L215.008 3.42936ZM215.008 3.29018L214.92 2.96624L214.672 3.03372V3.29018H215.008ZM217.305 2.66385L217.23 2.33644L217.223 2.33803L217.216 2.33991L217.305 2.66385ZM225.412 0.819658L225.748 0.827465L225.758 0.396676L225.338 0.492252L225.412 0.819658ZM225.203 9.79704L224.868 9.78923L224.86 10.1328H225.203V9.79704ZM225.551 9.79704H225.887V9.46127H225.551V9.79704ZM227.569 39.8608L227.87 40.011L228.01 39.73L227.739 39.5711L227.569 39.8608ZM227.5 40V40.3358H227.707L227.8 40.1502L227.5 40ZM225.551 14.4945V14.8303H225.887V14.4945H225.551ZM225.134 14.4945L224.798 14.5138L224.817 14.8303H225.134V14.4945ZM227.256 4.12528L226.978 3.93725L226.978 3.93783L227.256 4.12528ZM240.305 1.51558H240.641V1.30667L240.453 1.21436L240.305 1.51558ZM240.305 11.0845V11.4203H240.641V11.0845H240.305ZM240.026 11.0845L239.71 11.197L239.789 11.4203H240.026V11.0845ZM236.79 6.10866L236.568 6.36008L236.57 6.36212L236.79 6.10866ZM227.291 6.83937L227.569 7.02736L227.57 7.02562L227.291 6.83937ZM225.064 39.6642H217.722V40.3358H225.064V39.6642ZM217.722 39.6642H215.286V40.3358H217.722V39.6642ZM215.587 39.8498L215.517 39.7107L214.916 40.011L214.986 40.1502L215.587 39.8498ZM215.401 40.1417C216.897 39.1612 217.571 37.1002 217.571 34.1543H216.899C216.899 37.0541 216.227 38.7975 215.033 39.58L215.401 40.1417ZM217.571 34.1543V8.50958H216.899V34.1543H217.571ZM217.571 8.50958C217.571 6.98106 217.384 5.75069 216.986 4.84298C216.583 3.92318 215.954 3.31974 215.089 3.10362L214.927 3.75511C215.547 3.91014 216.032 4.33898 216.371 5.11259C216.715 5.89828 216.899 7.02245 216.899 8.50958H217.571ZM215.344 3.42936V3.29018H214.672V3.42936H215.344ZM215.096 3.61412L217.393 2.98779L217.216 2.33991L214.92 2.96624L215.096 3.61412ZM217.379 2.99125L225.487 1.14706L225.338 0.492252L217.23 2.33644L217.379 2.99125ZM225.076 0.811852L224.868 9.78923L225.539 9.80484L225.748 0.827465L225.076 0.811852ZM225.203 10.1328H225.551V9.46127H225.203V10.1328ZM225.215 9.79704V34.1543H225.887V9.79704H225.215ZM225.215 34.1543C225.215 37.1819 225.884 39.2621 227.4 40.1505L227.739 39.5711C226.564 38.8821 225.887 37.1579 225.887 34.1543H225.215ZM227.269 39.7107L227.199 39.8498L227.8 40.1502L227.87 40.011L227.269 39.7107ZM227.5 39.6642H225.064V40.3358H227.5V39.6642ZM225.551 14.1587H225.134V14.8303H225.551V14.1587ZM225.469 14.4752C225.216 10.0839 225.921 6.71082 227.535 4.31273L226.978 3.93783C225.251 6.50398 224.541 10.0437 224.798 14.5138L225.469 14.4752ZM227.534 4.31331C229.16 1.90896 231.532 0.70308 234.703 0.70308V0.0315401C231.331 0.0315401 228.74 1.33098 226.978 3.93725L227.534 4.31331ZM234.703 0.70308C236.845 0.70308 238.659 1.07912 240.156 1.81679L240.453 1.21436C238.842 0.421014 236.922 0.0315401 234.703 0.0315401V0.70308ZM239.969 1.51558V11.0845H240.641V1.51558H239.969ZM240.305 10.7487H240.026V11.4203H240.305V10.7487ZM240.343 10.972C239.585 8.83971 238.477 7.12896 237.011 5.85519L236.57 6.36212C237.934 7.54728 238.984 9.15375 239.71 11.197L240.343 10.972ZM237.013 5.85724C235.55 4.56252 233.989 3.8939 232.336 3.8939V4.56544C233.792 4.56544 235.2 5.14948 236.568 6.36007L237.013 5.85724ZM232.336 3.8939C230.028 3.8939 228.238 4.81405 227.012 6.65312L227.57 7.02562C228.664 5.38509 230.238 4.56544 232.336 4.56544V3.8939ZM227.013 6.65139C225.798 8.44862 225.215 11.0793 225.215 14.4945H225.887C225.887 11.1361 226.464 8.66334 227.569 7.02736L227.013 6.65139ZM34.7854 60.3159H35.1212V60.0652L34.8808 59.994L34.7854 60.3159ZM34.7854 72.2161V72.5519H35.1212V72.2161H34.7854ZM34.4374 72.2161L34.1284 72.3473L34.2152 72.5519H34.4374V72.2161ZM27.5826 62.856L27.3744 63.1194L27.3757 63.1205L27.5826 62.856ZM7.99246 72.4945L8.32823 72.4964V72.4945H7.99246ZM10.1498 83.8032L9.84119 83.9355L9.84152 83.9362L10.1498 83.8032ZM16.2739 91.8411L16.0721 92.1094L16.0732 92.1103L16.2739 91.8411ZM31.6538 93.059L31.827 93.3466L31.828 93.346L31.6538 93.059ZM36.0729 88.2223L36.2411 87.9317L35.9293 87.7512L35.7712 88.0749L36.0729 88.2223ZM36.734 88.6051L37.0394 88.7445L37.166 88.4672L36.9022 88.3145L36.734 88.6051ZM30.2271 96.0514L30.0517 95.7651L30.2271 96.0514ZM20.3451 98.3602C14.3371 98.3602 9.59221 96.5969 6.07176 93.0991L5.59845 93.5755C9.26918 97.2226 14.1976 99.0317 20.3451 99.0317V98.3602ZM6.07176 93.0991C2.55222 89.6023 0.777488 84.8584 0.777488 78.8274H0.105948C0.105948 84.9982 1.92681 89.9276 5.59845 93.5755L6.07176 93.0991ZM0.777488 78.8274C0.777488 72.7316 2.65366 67.8707 6.38349 64.2091L5.91304 63.7299C2.03415 67.5378 0.105948 72.5822 0.105948 78.8274H0.777488ZM6.38349 64.2091C10.1126 60.5482 15.1364 58.7031 21.4933 58.7031V58.0315C14.9989 58.0315 9.79271 59.9212 5.91304 63.7299L6.38349 64.2091ZM21.4933 58.7031C25.9374 58.7031 30.336 59.3477 34.69 60.6378L34.8808 59.994C30.4662 58.6859 26.0034 58.0315 21.4933 58.0315V58.7031ZM34.4496 60.3159V72.2161H35.1212V60.3159H34.4496ZM34.7854 71.8804H34.4374V72.5519H34.7854V71.8804ZM34.7465 72.085C33.0351 68.0524 30.7185 64.8827 27.7895 62.5915L27.3757 63.1205C30.1997 65.3295 32.453 68.3999 34.1284 72.3473L34.7465 72.085ZM27.7908 62.5926C24.8622 60.278 21.705 59.1102 18.3269 59.1102V59.7818C21.5368 59.7818 24.5501 60.8873 27.3744 63.1194L27.7908 62.5926ZM18.3269 59.1102C14.7459 59.1102 12.0351 60.2769 10.2633 62.6554L10.8018 63.0566C12.4169 60.8884 14.9023 59.7818 18.3269 59.7818V59.1102ZM10.2633 62.6554C8.51079 65.0081 7.65669 68.3021 7.65669 72.4945H8.32823C8.32823 68.3822 9.16754 65.2506 10.8018 63.0566L10.2633 62.6554ZM7.65669 72.4926C7.63327 76.6626 8.35964 80.4785 9.84119 83.9355L10.4584 83.6709C9.01711 80.3079 8.30526 76.5846 8.32822 72.4964L7.65669 72.4926ZM9.84152 83.9362C11.3231 87.3698 13.3985 90.0984 16.0721 92.1094L16.4758 91.5728C13.9067 89.6403 11.8994 87.0102 10.4581 83.6702L9.84152 83.9362ZM16.0732 92.1103C18.7747 94.1246 21.7909 95.1345 25.1121 95.1345V94.463C21.938 94.463 19.0621 93.5012 16.4746 91.5719L16.0732 92.1103ZM25.1121 95.1345C27.6036 95.1345 29.845 94.5406 31.827 93.3466L31.4805 92.7713C29.6118 93.8971 27.4921 94.463 25.1121 94.463V95.1345ZM31.828 93.346C33.8314 92.1297 35.3487 90.4691 36.3745 88.3697L35.7712 88.0749C34.802 90.0583 33.3733 91.6221 31.4795 92.772L31.828 93.346ZM35.9046 88.5129L36.5658 88.8957L36.9022 88.3145L36.2411 87.9317L35.9046 88.5129ZM36.4285 88.4656C34.9936 91.6088 32.8686 94.0386 30.0517 95.7651L30.4026 96.3377C33.3386 94.5382 35.5515 92.0038 37.0394 88.7445L36.4285 88.4656ZM30.0517 95.7651C27.2332 97.4926 24.0011 98.3602 20.3451 98.3602V99.0317C24.1122 99.0317 27.4681 98.1363 30.4026 96.3377L30.0517 95.7651ZM77.7404 58.8197H78.0762V58.4009L77.6674 58.4919L77.7404 58.8197ZM79.7238 97.8608L80.0241 98.011L80.1635 97.7321L79.8958 97.5725L79.7238 97.8608ZM79.6542 98V98.3358H79.8617L79.9545 98.1502L79.6542 98ZM69.7025 98H69.3668V98.3358H69.7025V98ZM69.7025 81.5415H70.0383V81.3705L69.9 81.2699L69.7025 81.5415ZM69.3198 81.2631H68.984V81.4341L69.1223 81.5347L69.3198 81.2631ZM67.1276 61.4294H66.7919V61.6946L67.0499 61.756L67.1276 61.4294ZM67.1276 61.2902L67.0405 60.9659L66.7919 61.0327V61.2902H67.1276ZM69.459 60.6638L69.386 60.3361L69.3789 60.3377L69.3719 60.3396L69.459 60.6638ZM43.8839 85.891L43.5481 85.8922L43.5481 85.893L43.8839 85.891ZM43.8143 66.5096H43.4785L43.4785 66.5108L43.8143 66.5096ZM41.6917 61.4294H41.356V61.6926L41.6116 61.7554L41.6917 61.4294ZM41.6917 61.2902L41.6021 60.9666L41.356 61.0348V61.2902H41.6917ZM43.9535 60.6638L43.8805 60.3361L43.8721 60.338L43.8639 60.3403L43.9535 60.6638ZM52.2349 58.8197H52.5707V58.4009L52.1619 58.4919L52.2349 58.8197ZM52.2349 84.4643L52.5707 84.4664V84.4643H52.2349ZM54.1835 93.1286L53.9026 93.3126L53.9041 93.3148L54.1835 93.1286ZM66.6405 91.1104L66.3439 90.9529L66.3431 90.9545L66.6405 91.1104ZM69.3198 78.2706V77.9349H68.984V78.2706H69.3198ZM69.8417 78.2706H70.1775V77.9349H69.8417V78.2706ZM66.2577 92.9894L65.9786 92.8027L65.9778 92.804L66.2577 92.9894ZM47.4331 94.9727L47.1993 95.2137L47.2005 95.2149L47.4331 94.9727ZM77.4047 58.8197V92.1543H78.0762V58.8197H77.4047ZM77.4047 92.1543C77.4047 95.18 78.0608 97.2598 79.5518 98.1492L79.8958 97.5725C78.7423 96.8844 78.0762 95.1598 78.0762 92.1543H77.4047ZM79.4235 97.7107L79.3539 97.8498L79.9545 98.1502L80.0241 98.011L79.4235 97.7107ZM79.6542 97.6642H77.2533V98.3358H79.6542V97.6642ZM77.2533 97.6642H69.7025V98.3358H77.2533V97.6642ZM70.0383 98V81.5415H69.3668V98H70.0383ZM69.9 81.2699L69.5173 80.9916L69.1223 81.5347L69.5051 81.813L69.9 81.2699ZM69.6556 81.2631V66.5096H68.984V81.2631H69.6556ZM69.6556 66.5096C69.6556 64.9703 69.4715 63.7347 69.08 62.8274C68.6834 61.9081 68.0629 61.3069 67.2054 61.1027L67.0499 61.756C67.6538 61.8998 68.1294 62.3193 68.4635 63.0934C68.8027 63.8795 68.984 65.01 68.984 66.5096H69.6556ZM67.4634 61.4294V61.2902H66.7919V61.4294H67.4634ZM67.2148 61.6144L69.5461 60.9881L69.3719 60.3396L67.0405 60.9659L67.2148 61.6144ZM69.532 60.9916L77.8134 59.1474L77.6674 58.4919L69.386 60.3361L69.532 60.9916ZM44.2196 85.8898L44.1501 66.5084L43.4785 66.5108L43.5481 85.8922L44.2196 85.8898ZM44.1501 66.5096C44.1501 64.9711 43.972 63.7369 43.5935 62.8309C43.2105 61.9143 42.6093 61.3092 41.7719 61.1033L41.6116 61.7554C42.1892 61.8975 42.6493 62.3131 42.9738 63.0898C43.3028 63.8773 43.4785 65.0092 43.4785 66.5096H44.1501ZM42.0275 61.4294V61.2902H41.356V61.4294H42.0275ZM41.7813 61.6138L44.0431 60.9874L43.8639 60.3403L41.6021 60.9666L41.7813 61.6138ZM44.0265 60.9916L52.3079 59.1474L52.1619 58.4919L43.8805 60.3361L44.0265 60.9916ZM51.8992 58.8197V84.4643H52.5707V58.8197H51.8992ZM51.8992 84.4623C51.8758 88.2523 52.5292 91.2162 53.9026 93.3126L54.4644 92.9445C53.1933 91.0045 52.5477 88.1923 52.5707 84.4664L51.8992 84.4623ZM53.9041 93.3148C55.3092 95.4224 57.2562 96.4916 59.7161 96.4916V95.82C57.4901 95.82 55.7487 94.871 54.4629 92.9423L53.9041 93.3148ZM59.7161 96.4916C62.7358 96.4916 65.1392 94.698 66.9379 91.2663L66.3431 90.9545C64.6158 94.25 62.4029 95.82 59.7161 95.82V96.4916ZM66.937 91.2679C68.7566 87.8413 69.6556 83.5027 69.6556 78.2706H68.984C68.984 83.431 68.0967 87.6522 66.3439 90.9529L66.937 91.2679ZM69.3198 78.6064H69.8417V77.9349H69.3198V78.6064ZM69.506 78.2706C69.506 84.4728 68.3178 89.3053 65.9786 92.8027L66.5368 93.176C68.9763 89.5287 70.1775 84.5486 70.1775 78.2706H69.506ZM65.9778 92.804C63.671 96.2867 60.5263 98.0122 56.5148 98.0122V98.6837C60.7616 98.6837 64.1122 96.8368 66.5377 93.1748L65.9778 92.804ZM56.5148 98.0122C52.8766 98.0122 49.937 96.912 47.6657 94.7306L47.2005 95.2149C49.615 97.5338 52.7299 98.6837 56.5148 98.6837V98.0122ZM47.6669 94.7318C45.3989 92.5312 44.2424 89.5955 44.2196 85.8889L43.5481 85.893C43.5718 89.7488 44.7813 92.8676 47.1993 95.2137L47.6669 94.7318ZM87.9524 95.947L87.8256 96.2581L87.8345 96.2614L87.9524 95.947ZM87.0129 95.5643H86.6771V95.79L86.8862 95.8752L87.0129 95.5643ZM87.0129 85.1603V84.8245H86.6771V85.1603H87.0129ZM87.3608 85.1603L87.6794 85.0541L87.6028 84.8245H87.3608V85.1603ZM88.1611 86.5869L88.4531 86.421L88.4472 86.4106L88.4405 86.4006L88.1611 86.5869ZM109.282 95.5643L109.505 95.8152L109.506 95.815L109.282 95.5643ZM110.326 85.0907L110.585 84.8766L110.579 84.8699L110.326 85.0907ZM100.34 80.254L100.433 79.9316L100.432 79.9313L100.34 80.254ZM93.5545 77.8879L93.6974 77.5837L93.6844 77.5783L93.5545 77.8879ZM91.3972 61.2206L91.2032 60.9465L91.202 60.9474L91.3972 61.2206ZM114.223 59.7939H114.559V59.5458L114.322 59.473L114.223 59.7939ZM114.223 67.4839V67.8196H114.559V67.4839H114.223ZM113.875 67.4839L113.638 67.7213L113.736 67.8196H113.875V67.4839ZM112.971 66.44L113.233 66.2302L113.221 66.2157L113.208 66.2026L112.971 66.44ZM111.892 65.5005L111.656 65.7393L111.669 65.7517L111.682 65.7627L111.892 65.5005ZM105.455 61.0118L105.315 61.317L105.318 61.3186L105.455 61.0118ZM94.2157 60.977L94.4321 61.2337L94.4325 61.2333L94.2157 60.977ZM93.8677 68.8409L94.1114 68.6097L94.1051 68.6035L93.8677 68.8409ZM97.1037 70.9983L96.9761 71.3089L96.9809 71.3108L97.1037 70.9983ZM102.984 72.7729L103.07 72.4482L103.068 72.4476L102.984 72.7729ZM110.326 75.0694L110.194 75.378L110.197 75.3794L110.326 75.0694ZM112.449 94.7988L112.231 94.5433L112.23 94.5441L112.449 94.7988ZM100.409 98.2906C98.2042 98.2906 96.2013 98.0723 94.3986 97.6387L94.2415 98.2917C96.104 98.7396 98.1606 98.9621 100.409 98.9621V98.2906ZM94.3986 97.6387C92.5832 97.2021 90.4742 96.5341 88.0703 95.6326L87.8345 96.2614C90.2556 97.1693 92.3917 97.8468 94.2415 98.2917L94.3986 97.6387ZM88.0791 95.6361L87.1396 95.2533L86.8862 95.8752L87.8257 96.258L88.0791 95.6361ZM87.3486 95.5643V85.1603H86.6771V95.5643H87.3486ZM87.0129 85.496H87.3608V84.8245H87.0129V85.496ZM87.0423 85.2664C87.1249 85.5141 87.2697 85.7855 87.4642 86.0772L88.023 85.7047C87.8463 85.4397 87.736 85.2239 87.6794 85.0541L87.0423 85.2664ZM87.4642 86.0772C87.5037 86.1364 87.5684 86.2437 87.6608 86.4055L88.2439 86.0723C88.1508 85.9094 88.0763 85.7847 88.023 85.7047L87.4642 86.0772ZM87.6608 86.4055C87.754 86.5685 87.8285 86.6932 87.8818 86.7732L88.4405 86.4006C88.401 86.3414 88.3363 86.2341 88.2439 86.0723L87.6608 86.4055ZM87.8692 86.7528C92.1373 94.2628 97.0743 98.127 102.706 98.127V97.4555C97.4347 97.4555 92.6752 93.8501 88.4531 86.421L87.8692 86.7528ZM102.706 98.127C105.484 98.127 107.761 97.3656 109.505 95.8152L109.059 95.3133C107.463 96.7322 105.356 97.4555 102.706 97.4555V98.127ZM109.506 95.815C111.275 94.2397 112.158 92.1978 112.158 89.7185H111.487C111.487 92.0179 110.677 93.8732 109.059 95.3135L109.506 95.815ZM112.158 89.7185C112.158 87.7777 111.642 86.1546 110.585 84.8767L110.067 85.3046C111.006 86.4392 111.487 87.9014 111.487 89.7185H112.158ZM110.579 84.8699C109.595 83.7412 108.372 82.8436 106.917 82.1758L106.637 82.7861C108.012 83.4174 109.156 84.2596 110.073 85.3114L110.579 84.8699ZM106.917 82.1758C105.479 81.5157 103.314 80.7679 100.433 79.9316L100.246 80.5765C103.118 81.4104 105.245 82.1472 106.637 82.7861L106.917 82.1758ZM100.432 79.9313C97.4453 79.0745 95.2039 78.2916 93.6973 77.584L93.4118 78.1918C94.9672 78.9224 97.2493 79.7169 100.247 80.5768L100.432 79.9313ZM93.6844 77.5783C91.713 76.7512 90.2566 75.6223 89.2913 74.2021C88.3266 72.7827 87.8358 71.0479 87.8358 68.9801H87.1642C87.1642 71.1574 87.6825 73.0298 88.7359 74.5796C89.7889 76.1288 91.3598 77.3312 93.4246 78.1975L93.6844 77.5783ZM87.8358 68.9801C87.8358 65.7663 89.0865 63.2837 91.5923 61.4938L91.202 60.9474C88.5117 62.869 87.1642 65.5594 87.1642 68.9801H87.8358ZM91.5912 61.4946C94.1349 59.6938 97.7223 58.7727 102.393 58.7727V58.1011C97.645 58.1011 93.902 59.0358 91.2032 60.9465L91.5912 61.4946ZM102.393 58.7727C107.318 58.7727 111.224 59.2241 114.125 60.1149L114.322 59.473C111.331 58.5544 107.35 58.1011 102.393 58.1011V58.7727ZM113.888 59.7939V67.4839H114.559V59.7939H113.888ZM114.223 67.1481H113.875V67.8196H114.223V67.1481ZM114.113 67.2464C113.894 67.0276 113.601 66.6909 113.233 66.2302L112.709 66.6497C113.082 67.117 113.393 67.4762 113.638 67.7213L114.113 67.2464ZM113.208 66.2026C112.94 65.9349 112.57 65.613 112.102 65.2383L111.682 65.7627C112.142 66.1304 112.491 66.4348 112.733 66.6774L113.208 66.2026ZM112.128 65.2617C110.108 63.2647 107.929 61.7439 105.591 60.705L105.318 61.3186C107.574 62.3211 109.687 63.7927 111.656 65.7393L112.128 65.2617ZM105.595 60.7067C103.288 59.6476 101.106 59.1102 99.0523 59.1102V59.7818C100.988 59.7818 103.074 60.2883 105.315 61.3169L105.595 60.7067ZM99.0523 59.1102C96.9772 59.1102 95.2809 59.6358 93.9988 60.7207L94.4325 61.2333C95.563 60.2768 97.091 59.7818 99.0523 59.7818V59.1102ZM93.9992 60.7203C92.7305 61.79 92.1053 63.258 92.1053 65.0829H92.7768C92.7768 63.4283 93.3347 62.159 94.4321 61.2337L93.9992 60.7203ZM92.1053 65.0829C92.1053 66.7112 92.6063 68.0544 93.6303 69.0783L94.1051 68.6035C93.2269 67.7252 92.7768 66.5631 92.7768 65.0829H92.1053ZM93.6241 69.072C94.5189 70.0152 95.6388 70.7596 96.9762 71.3089L97.2313 70.6877C95.9705 70.1699 94.9331 69.476 94.1113 68.6098L93.6241 69.072ZM96.9809 71.3108C98.2997 71.8289 100.276 72.4245 102.901 73.0981L103.068 72.4476C100.45 71.7758 98.5058 71.1883 97.2265 70.6858L96.9809 71.3108ZM102.899 73.0976C106.33 74.0019 108.757 74.7622 110.194 75.378L110.458 74.7608C108.973 74.1239 106.504 73.3533 103.07 72.4482L102.899 73.0976ZM110.197 75.3794C112.353 76.2756 113.947 77.5195 115.006 79.1011C116.064 80.6826 116.602 82.6267 116.602 84.9515H117.273C117.273 82.5208 116.709 80.4402 115.564 78.7277C114.418 77.0153 112.707 75.6958 110.455 74.7594L110.197 75.3794ZM116.602 84.9515C116.602 88.8686 115.147 92.0568 112.231 94.5433L112.667 95.0543C115.736 92.4373 117.273 89.0606 117.273 84.9515H116.602ZM112.23 94.5441C109.338 97.0298 105.41 98.2906 100.409 98.2906V98.9621C105.523 98.9621 109.621 97.6712 112.668 95.0534L112.23 94.5441ZM147.088 58.7501L147.423 58.7614L147.435 58.4133L147.087 58.4143L147.088 58.7501ZM147.018 60.803L146.996 61.1381L147.342 61.1611L147.354 60.8144L147.018 60.803ZM122.208 60.0027H121.873V60.3385H122.208V60.0027ZM122.208 58.8197L122.207 58.4839L121.873 58.4848V58.8197H122.208ZM147.714 92.6414L147.941 92.3939L147.573 92.057L147.399 92.5242L147.714 92.6414ZM148.131 93.0242L148.441 93.1537L148.532 92.9361L148.358 92.7767L148.131 93.0242ZM128.054 59.098H128.39V58.7779L128.07 58.7626L128.054 59.098ZM122.208 58.8197L122.195 58.4841L122.192 59.155L122.208 58.8197ZM131.047 56.6275L130.883 56.3344L130.882 56.3351L131.047 56.6275ZM136.092 51.0253V50.6896H135.867L135.782 50.8971L136.092 51.0253ZM136.475 51.0253H136.811V50.6896H136.475V51.0253ZM138.006 94.3812L137.732 94.5756L137.736 94.5805L138.006 94.3812ZM146.752 58.7387L146.682 60.7917L147.354 60.8144L147.423 58.7614L146.752 58.7387ZM147.04 60.468C139.03 59.934 131.228 59.667 123.635 59.667V60.3385C131.213 60.3385 139 60.605 146.996 61.1381L147.04 60.468ZM123.635 59.667H122.208V60.3385H123.635V59.667ZM122.544 60.0027V58.8197H121.873V60.0027H122.544ZM122.209 59.1554L147.088 59.0858L147.087 58.4143L122.207 58.4839L122.209 59.1554ZM147.487 92.8889L147.905 93.2717L148.358 92.7767L147.941 92.3939L147.487 92.8889ZM147.822 92.8946C147.105 94.6078 146.015 95.8792 144.553 96.7265C143.087 97.5763 141.224 98.0122 138.945 98.0122V98.6837C141.306 98.6837 143.294 98.2323 144.89 97.3075C146.49 96.3802 147.673 94.9897 148.441 93.1537L147.822 92.8946ZM138.945 98.0122C135.684 98.0122 133.124 97.1921 131.229 95.5864L130.795 96.0989C132.843 97.8336 135.572 98.6837 138.945 98.6837V98.0122ZM131.229 95.5864C129.341 93.9877 128.39 91.813 128.39 89.0226H127.718C127.718 91.9852 128.739 94.3571 130.795 96.0989L131.229 95.5864ZM128.39 89.0226V59.098H127.718V89.0226H128.39ZM128.07 58.7626L122.224 58.4843L122.192 59.155L128.038 59.4334L128.07 58.7626ZM122.222 59.1552C125.808 59.0145 128.81 58.2754 131.212 56.9199L130.882 56.3351C128.598 57.6241 125.707 58.3464 122.195 58.4841L122.222 59.1552ZM131.21 56.9206C133.64 55.563 135.375 53.6389 136.402 51.1536L135.782 50.8971C134.814 53.2369 133.186 55.0475 130.883 56.3344L131.21 56.9206ZM136.092 51.3611H136.475V50.6896H136.092V51.3611ZM136.139 51.0253V88.0135H136.811V51.0253H136.139ZM136.139 88.0135C136.139 90.8521 136.653 93.0559 137.732 94.5755L138.28 94.1869C137.317 92.8301 136.811 90.7888 136.811 88.0135H136.139ZM137.736 94.5805C138.851 96.0927 140.466 96.8395 142.529 96.8395V96.168C140.649 96.168 139.248 95.4998 138.276 94.1819L137.736 94.5805ZM142.529 96.8395C143.762 96.8395 144.876 96.468 145.862 95.7285L145.459 95.1913C144.59 95.8436 143.616 96.168 142.529 96.168V96.8395ZM145.862 95.7285C146.846 94.9906 147.567 93.9964 148.029 92.7586L147.399 92.5242C146.979 93.6525 146.331 94.5373 145.459 95.1913L145.862 95.7285ZM154.377 93.2329L154.135 93.4665L154.136 93.4673L154.377 93.2329ZM154.62 64.0739L154.38 63.8394L154.379 63.8401L154.62 64.0739ZM178.734 71.8334L179.048 71.7153L179.047 71.7134L178.734 71.8334ZM173.062 62.8212L172.828 63.0622L172.83 63.0634L173.062 62.8212ZM159.074 63.0648L158.794 62.8791L158.793 62.881L159.074 63.0648ZM158.796 85.0907L158.48 85.2036L158.48 85.2042L158.796 85.0907ZM164.189 94.3464L163.947 94.5789L163.948 94.5802L164.189 94.3464ZM182.634 92.6512C178.944 96.4542 174.232 98.3602 168.469 98.3602V99.0317C174.397 99.0317 179.289 97.0637 183.116 93.1188L182.634 92.6512ZM168.469 98.3602C162.699 98.3602 158.093 96.5659 154.617 92.9986L154.136 93.4673C157.758 97.184 162.547 99.0317 168.469 99.0317V98.3602ZM154.618 92.9994C151.163 89.4309 149.423 84.7184 149.423 78.8274H148.752C148.752 84.8598 150.538 89.751 154.135 93.4665L154.618 92.9994ZM149.423 78.8274C149.423 72.8703 151.242 68.0405 154.861 64.3076L154.379 63.8401C150.621 67.7159 148.752 72.7219 148.752 78.8274H149.423ZM154.861 64.3083C158.501 60.5764 163.224 58.7031 169.061 58.7031V58.0315C163.066 58.0315 158.162 59.9626 154.38 63.8394L154.861 64.3083ZM169.061 58.7031C174.853 58.7031 179.47 60.5088 182.947 64.0987L183.429 63.6315C179.807 59.891 175.006 58.0315 169.061 58.0315V58.7031ZM182.947 64.0987C186.427 67.693 188.176 72.3144 188.176 77.9923H188.847C188.847 72.1642 187.047 67.3675 183.429 63.6315L182.947 64.0987ZM188.176 77.9923C188.176 83.9711 186.323 88.8477 182.634 92.6512L183.116 93.1188C186.942 89.1743 188.847 84.1225 188.847 77.9923H188.176ZM171.392 98.127C174.41 98.127 176.819 96.8017 178.594 94.1871L178.038 93.8099C176.38 96.2522 174.173 97.4555 171.392 97.4555V98.127ZM178.594 94.1871C180.361 91.5843 181.227 88.0889 181.227 83.7336H180.555C180.555 88.0077 179.705 91.3556 178.038 93.8099L178.594 94.1871ZM181.227 83.7336C181.227 79.5875 180.501 75.5808 179.048 71.7153L178.42 71.9515C179.844 75.7411 180.555 79.6679 180.555 83.7336H181.227ZM179.047 71.7134C177.596 67.92 175.681 64.8706 173.295 62.579L172.83 63.0634C175.129 65.2721 176.996 68.2309 178.42 71.9534L179.047 71.7134ZM173.296 62.5802C170.932 60.2869 168.428 59.1102 165.79 59.1102V59.7818C168.209 59.7818 170.553 60.8552 172.828 63.0622L173.296 62.5802ZM165.79 59.1102C162.8 59.1102 160.457 60.3736 158.794 62.8791L159.354 63.2504C160.893 60.9309 163.027 59.7818 165.79 59.7818V59.1102ZM158.793 62.881C157.167 65.3678 156.372 68.7459 156.372 72.9816H157.044C157.044 68.82 157.826 65.5868 159.355 63.2485L158.793 62.881ZM156.372 72.9816C156.372 77.1953 157.075 81.2699 158.48 85.2036L159.112 84.9777C157.733 81.1172 157.044 77.119 157.044 72.9816H156.372ZM158.48 85.2042C159.883 89.1101 161.702 92.2399 163.947 94.5789L164.431 94.1139C162.268 91.8599 160.492 88.8192 159.112 84.9771L158.48 85.2042ZM163.948 94.5802C166.222 96.9251 168.705 98.127 171.392 98.127V97.4555C168.929 97.4555 166.61 96.3608 164.43 94.1127L163.948 94.5802ZM243.506 98L243.206 98.1502L243.298 98.3358H243.506V98ZM243.436 97.8608L243.272 97.5678L242.993 97.7243L243.136 98.011L243.436 97.8608ZM245.072 92.1543L245.406 92.1236L245.406 92.1231L245.072 92.1543ZM243.228 72.3553L242.893 72.3801L242.893 72.3865L243.228 72.3553ZM240.966 63.3083L240.679 63.4826L240.68 63.4851L240.966 63.3083ZM230.11 63.6911L230.384 63.884L230.385 63.8827L230.11 63.6911ZM227.813 72.1465V72.4823H228.149V72.1465H227.813ZM227.326 72.1465H226.99V72.4823H227.326V72.1465ZM230.562 61.9861L230.811 62.2111L230.812 62.2099L230.562 61.9861ZM247.751 61.6381L247.505 61.8662L247.506 61.8676L247.751 61.6381ZM251.405 70.9287L251.071 70.9615L251.071 70.9626L251.405 70.9287ZM253.562 92.1543L253.896 92.1234L253.896 92.1203L253.562 92.1543ZM255.963 97.8608L256.263 98.011L256.403 97.7321L256.135 97.5725L255.963 97.8608ZM255.893 98V98.3358H256.101L256.194 98.1502L255.893 98ZM193.678 98L193.378 98.1502L193.471 98.3358H193.678V98ZM193.608 97.8608L193.424 97.58L193.175 97.7437L193.308 98.011L193.608 97.8608ZM193.4 61.499H193.064V61.7776L193.338 61.829L193.4 61.499ZM193.4 61.3598L193.302 61.0384L193.064 61.1107V61.3598H193.4ZM195.696 60.6638L195.619 60.3372L195.609 60.3395L195.599 60.3425L195.696 60.6638ZM203.456 58.8197H203.792V58.3947L203.378 58.493L203.456 58.8197ZM203.456 69.1541H203.12V69.4899H203.456V69.1541ZM203.943 69.1541H204.279V68.8183H203.943V69.1541ZM205.961 97.8608L206.261 98.011L206.402 97.73L206.131 97.5711L205.961 97.8608ZM205.891 98V98.3358H206.099L206.192 98.1502L205.891 98ZM217.583 98L217.314 98.2015L217.415 98.3358H217.583V98ZM217.479 97.8608L217.309 97.5711L216.984 97.7614L217.21 98.0623L217.479 97.8608ZM217.513 63.4475L217.23 63.6278L217.232 63.6301L217.513 63.4475ZM206.239 63.6911L206.514 63.884L206.515 63.8827L206.239 63.6911ZM203.943 72.1465V72.4823H204.279V72.1465H203.943ZM203.525 72.1465H203.19V72.4823H203.525V72.1465ZM206.796 61.9861L207.044 62.2124L207.045 62.2112L206.796 61.9861ZM224.229 61.7425L223.983 61.9709L223.984 61.9722L224.229 61.7425ZM227.256 70.4763L226.921 70.4698L226.914 70.8121H227.256V70.4763ZM227.743 70.4763L228.079 70.4742L228.077 70.1406H227.743V70.4763ZM227.883 92.1543L227.547 92.1564L227.547 92.162L227.883 92.1543ZM229.97 97.8608L230.271 98.011L230.41 97.7321L230.142 97.5725L229.97 97.8608ZM229.901 98V98.3358H230.108L230.201 98.1502L229.901 98ZM253.492 97.6642H245.942V98.3358H253.492V97.6642ZM245.942 97.6642H243.506V98.3358H245.942V97.6642ZM243.806 97.8498L243.737 97.7107L243.136 98.011L243.206 98.1502L243.806 97.8498ZM243.6 98.1539C244.381 97.7172 244.904 96.9654 245.195 95.9525C245.483 94.9459 245.547 93.6644 245.406 92.1236L244.737 92.1849C244.875 93.683 244.806 94.872 244.549 95.7675C244.294 96.6569 243.86 97.2389 243.272 97.5678L243.6 98.1539ZM245.406 92.1231L243.562 72.3242L242.893 72.3865L244.737 92.1854L245.406 92.1231ZM243.562 72.3306C243.26 68.2301 242.5 65.1494 241.251 63.1316L240.68 63.4851C241.844 65.3645 242.593 68.315 242.893 72.3801L243.562 72.3306ZM241.253 63.1341C240.015 61.0949 238.264 60.0497 236.025 60.0497V60.7213C238.008 60.7213 239.551 61.6246 240.679 63.4826L241.253 63.1341ZM236.025 60.0497C233.489 60.0497 231.419 61.2173 229.834 63.4995L230.385 63.8827C231.862 61.7574 233.736 60.7213 236.025 60.7213V60.0497ZM229.835 63.4982C228.254 65.7499 227.477 68.6415 227.477 72.1465H228.149C228.149 68.7388 228.903 65.9934 230.384 63.884L229.835 63.4982ZM227.813 71.8108H227.326V72.4823H227.813V71.8108ZM227.662 72.1465C227.662 67.815 228.727 64.5194 230.811 62.2111L230.313 61.7611C228.082 64.2315 226.99 67.7095 226.99 72.1465H227.662ZM230.812 62.2099C232.893 59.8831 235.821 58.7031 239.644 58.7031V58.0315C235.672 58.0315 232.546 59.2641 230.312 61.7623L230.812 62.2099ZM239.644 58.7031C242.951 58.7031 245.559 59.7642 247.505 61.8662L247.998 61.4101C245.907 59.1509 243.11 58.0315 239.644 58.0315V58.7031ZM247.506 61.8676C249.482 63.9781 250.681 66.9964 251.071 70.9615L251.739 70.8958C251.34 66.8347 250.103 63.6593 247.996 61.4087L247.506 61.8676ZM251.071 70.9626L253.228 92.1882L253.896 92.1203L251.739 70.8947L251.071 70.9626ZM253.228 92.1851C253.507 95.2126 254.317 97.2702 255.791 98.1492L256.135 97.5725C254.964 96.874 254.174 95.1272 253.896 92.1234L253.228 92.1851ZM255.663 97.7107L255.593 97.8498L256.194 98.1502L256.263 98.011L255.663 97.7107ZM255.893 97.6642H253.492V98.3358H255.893V97.6642ZM203.456 97.6642H196.114V98.3358H203.456V97.6642ZM196.114 97.6642H193.678V98.3358H196.114V97.6642ZM193.978 97.8498L193.909 97.7107L193.308 98.011L193.378 98.1502L193.978 97.8498ZM193.792 98.1417C195.289 97.1612 195.962 95.1002 195.962 92.1543H195.291C195.291 95.0541 194.619 96.7975 193.424 97.58L193.792 98.1417ZM195.962 92.1543V66.5096H195.291V92.1543H195.962ZM195.962 66.5096C195.962 64.9591 195.776 63.7216 195.377 62.824C194.971 61.9121 194.336 61.3329 193.462 61.1689L193.338 61.829C193.948 61.9434 194.426 62.3384 194.763 63.0968C195.106 63.8694 195.291 64.998 195.291 66.5096H195.962ZM193.735 61.499V61.3598H193.064V61.499H193.735ZM193.497 61.6811L195.794 60.9852L195.599 60.3425L193.302 61.0384L193.497 61.6811ZM195.774 60.9905L203.533 59.1463L203.378 58.493L195.619 60.3372L195.774 60.9905ZM203.12 58.8197V69.1541H203.792V58.8197H203.12ZM203.456 69.4899H203.943V68.8183H203.456V69.4899ZM203.607 69.1541V92.1543H204.279V69.1541H203.607ZM203.607 92.1543C203.607 95.1819 204.276 97.2621 205.791 98.1505L206.131 97.5711C204.955 96.8821 204.279 95.1579 204.279 92.1543H203.607ZM205.661 97.7107L205.591 97.8498L206.192 98.1502L206.261 98.011L205.661 97.7107ZM205.891 97.6642H203.456V98.3358H205.891V97.6642ZM227.465 97.6642H219.984V98.3358H227.465V97.6642ZM219.984 97.6642H217.583V98.3358H219.984V97.6642ZM217.852 97.7985L217.747 97.6594L217.21 98.0623L217.314 98.2015L217.852 97.7985ZM217.648 98.1505C219.164 97.2621 219.832 95.1819 219.832 92.1543H219.161C219.161 95.1579 218.484 96.8821 217.309 97.5711L217.648 98.1505ZM219.832 92.1543V72.1465H219.161V92.1543H219.832ZM219.832 72.1465C219.832 68.3564 219.167 65.3828 217.795 63.265L217.232 63.6301C218.504 65.595 219.161 68.4207 219.161 72.1465H219.832ZM217.797 63.2673C216.442 61.1391 214.577 60.0497 212.224 60.0497V60.7213C214.325 60.7213 215.986 61.6733 217.23 63.6278L217.797 63.2673ZM212.224 60.0497C209.644 60.0497 207.551 61.2151 205.964 63.4995L206.515 63.8827C207.99 61.7596 209.887 60.7213 212.224 60.7213V60.0497ZM205.965 63.4982C204.384 65.7499 203.607 68.6415 203.607 72.1465H204.279C204.279 68.7388 205.033 65.9934 206.514 63.884L205.965 63.4982ZM203.943 71.8108H203.525V72.4823H203.943V71.8108ZM203.861 72.1465C203.861 67.8158 204.938 64.5208 207.044 62.2124L206.548 61.7598C204.294 64.2301 203.19 67.7086 203.19 72.1465H203.861ZM207.045 62.2112C209.149 59.8839 212.112 58.7031 215.982 58.7031V58.0315C211.966 58.0315 208.805 59.2632 206.547 61.761L207.045 62.2112ZM215.982 58.7031C219.31 58.7031 221.966 59.7972 223.983 61.9709L224.475 61.5141C222.316 59.1875 219.474 58.0315 215.982 58.0315V58.7031ZM223.984 61.9722C226.001 64.124 226.989 66.9451 226.921 70.4698L227.592 70.4828C227.663 66.8164 226.632 63.8149 224.474 61.5129L223.984 61.9722ZM227.256 70.8121H227.743V70.1406H227.256V70.8121ZM227.408 70.4785L227.547 92.1564L228.218 92.1521L228.079 70.4742L227.408 70.4785ZM227.547 92.162C227.617 95.1884 228.312 97.2625 229.798 98.1492L230.142 97.5725C228.984 96.8817 228.288 95.1514 228.218 92.1465L227.547 92.162ZM229.67 97.7107L229.6 97.8498L230.201 98.1502L230.271 98.011L229.67 97.7107ZM229.901 97.6642H227.465V98.3358H229.901V97.6642ZM265.166 93.059L264.925 93.2933L264.926 93.294L265.166 93.059ZM265.688 64.1435L265.924 64.3816L265.925 64.3809L265.688 64.1435ZM291.785 62.2645L291.557 62.5109L291.558 62.5118L291.785 62.2645ZM297.039 73.6428L297.037 73.9785L297.423 73.9806L297.372 73.5979L297.039 73.6428ZM264.853 73.4688L264.521 73.4177L264.462 73.8025L264.851 73.8046L264.853 73.4688ZM264.992 72.5641L264.977 72.2286L264.702 72.2407L264.66 72.513L264.992 72.5641ZM289.558 71.4854L289.816 71.7004L290.302 71.1166L289.543 71.15L289.558 71.4854ZM289.21 71.903L288.875 71.9235L288.926 72.7676L289.468 72.1179L289.21 71.903ZM285.348 63.1344L285.106 63.3672L285.107 63.3683L285.348 63.1344ZM270.072 62.9256L270.342 63.1249L270.343 63.1236L270.072 62.9256ZM269.689 83.5248L269.997 83.3897L269.996 83.3881L269.689 83.5248ZM292.898 90.5536L293.13 90.797L293.131 90.7958L292.898 90.5536ZM296.552 81.6111V81.2753H296.222L296.216 81.6047L296.552 81.6111ZM297.109 81.6111H297.444V81.2753H297.109V81.6111ZM292.063 93.5809L291.831 93.3385L291.83 93.3393L292.063 93.5809ZM279.084 98.0818C273.383 98.0818 268.835 96.3218 265.406 92.8239L264.926 93.294C268.502 96.9409 273.233 98.7533 279.084 98.7533V98.0818ZM265.406 92.8247C261.975 89.3026 260.247 84.6483 260.247 78.8274H259.576C259.576 84.7907 261.351 89.6242 264.925 93.2933L265.406 92.8247ZM260.247 78.8274C260.247 72.9454 262.144 68.1396 265.924 64.3816L265.451 63.9053C261.53 67.8024 259.576 72.7859 259.576 78.8274H260.247ZM265.925 64.3809C269.705 60.6007 274.581 58.7031 280.58 58.7031V58.0315C274.425 58.0315 269.372 59.9847 265.45 63.906L265.925 64.3809ZM280.58 58.7031C285.178 58.7031 288.825 59.9822 291.557 62.5109L292.013 62.0181C289.131 59.3505 285.308 58.0315 280.58 58.0315V58.7031ZM291.558 62.5118C294.314 65.0423 296.041 68.7536 296.706 73.6877L297.372 73.5979C296.692 68.5571 294.916 64.6828 292.012 62.0171L291.558 62.5118ZM297.041 73.307L264.854 73.133L264.851 73.8046L297.037 73.9785L297.041 73.307ZM265.185 73.5198L265.324 72.6152L264.66 72.513L264.521 73.4177L265.185 73.5198ZM265.007 72.8995L289.573 71.8209L289.543 71.15L264.977 72.2286L265.007 72.8995ZM289.3 71.2705L288.952 71.688L289.468 72.1179L289.816 71.7004L289.3 71.2705ZM289.545 71.8825C289.331 68.3928 288.011 65.3941 285.588 62.9004L285.107 63.3683C287.417 65.7461 288.671 68.5931 288.875 71.9235L289.545 71.8825ZM285.589 62.9016C283.167 60.3845 280.357 59.1102 277.17 59.1102V59.7818C280.154 59.7818 282.795 60.9663 285.106 63.3672L285.589 62.9016ZM277.17 59.1102C274.032 59.1102 271.562 60.3156 269.801 62.7276L270.343 63.1236C271.969 60.8962 274.232 59.7818 277.17 59.7818V59.1102ZM269.802 62.7263C268.05 65.1023 267.196 68.4424 267.196 72.7033H267.868C267.868 68.5203 268.708 65.3419 270.342 63.1249L269.802 62.7263ZM267.196 72.7033C267.196 76.7342 267.923 80.3889 269.383 83.6616L269.996 83.3881C268.579 80.2119 267.868 76.6522 267.868 72.7033H267.196ZM269.382 83.66C270.84 86.9751 272.822 89.5765 275.334 91.4492L275.736 90.9108C273.331 89.1182 271.415 86.6162 269.997 83.3897L269.382 83.66ZM275.334 91.4492C277.85 93.3238 280.645 94.2646 283.712 94.2646V93.5931C280.794 93.5931 278.138 92.7013 275.736 90.9108L275.334 91.4492ZM283.712 94.2646C287.542 94.2646 290.692 93.1154 293.13 90.797L292.667 90.3103C290.373 92.4921 287.398 93.5931 283.712 93.5931V94.2646ZM293.131 90.7958C295.57 88.4527 296.817 85.3828 296.888 81.6174L296.216 81.6047C296.148 85.216 294.959 88.1079 292.666 90.3115L293.131 90.7958ZM296.552 81.9468H297.109V81.2753H296.552V81.9468ZM296.773 81.6111C296.773 86.2771 295.127 90.1789 291.831 93.3385L292.296 93.8233C295.727 90.5341 297.444 86.4559 297.444 81.6111H296.773ZM291.83 93.3393C288.561 96.4945 284.323 98.0818 279.084 98.0818V98.7533C284.47 98.7533 288.884 97.1161 292.296 93.8225L291.83 93.3393ZM302.693 98L302.392 98.1502L302.485 98.3358H302.693V98ZM302.623 97.8608L302.439 97.58L302.189 97.7437L302.323 98.011L302.623 97.8608ZM302.414 61.4294H302.079V61.6915L302.333 61.7551L302.414 61.4294ZM302.414 61.2902L302.326 60.9662L302.079 61.0337V61.2902H302.414ZM304.711 60.6638L304.636 60.3364L304.629 60.338L304.622 60.3399L304.711 60.6638ZM312.818 58.8197L313.154 58.8275L313.164 58.3967L312.744 58.4923L312.818 58.8197ZM312.61 67.797L312.274 67.7892L312.266 68.1328H312.61V67.797ZM312.957 67.797H313.293V67.4613H312.957V67.797ZM314.976 97.8608L315.276 98.011L315.416 97.73L315.145 97.5711L314.976 97.8608ZM314.906 98V98.3358H315.114L315.206 98.1502L314.906 98ZM312.957 72.4945V72.8303H313.293V72.4945H312.957ZM312.54 72.4945L312.205 72.5138L312.223 72.8303H312.54V72.4945ZM314.662 62.1253L314.384 61.9373L314.384 61.9378L314.662 62.1253ZM327.711 59.5156H328.047V59.3067L327.859 59.2144L327.711 59.5156ZM327.711 69.0845V69.4203H328.047V69.0845H327.711ZM327.433 69.0845L327.116 69.197L327.196 69.4203H327.433V69.0845ZM324.197 64.1087L323.974 64.3601L323.976 64.3621L324.197 64.1087ZM314.697 64.8394L314.975 65.0274L314.977 65.0256L314.697 64.8394ZM312.47 97.6642H305.128V98.3358H312.47V97.6642ZM305.128 97.6642H302.693V98.3358H305.128V97.6642ZM302.993 97.8498L302.923 97.7107L302.323 98.011L302.392 98.1502L302.993 97.8498ZM302.807 98.1417C304.304 97.1612 304.977 95.1002 304.977 92.1543H304.305C304.305 95.0541 303.633 96.7975 302.439 97.58L302.807 98.1417ZM304.977 92.1543V66.5096H304.305V92.1543H304.977ZM304.977 66.5096C304.977 64.9811 304.79 63.7507 304.392 62.843C303.989 61.9232 303.36 61.3197 302.496 61.1036L302.333 61.7551C302.953 61.9101 303.438 62.339 303.777 63.1126C304.121 63.8983 304.305 65.0224 304.305 66.5096H304.977ZM302.75 61.4294V61.2902H302.079V61.4294H302.75ZM302.503 61.6141L304.799 60.9878L304.622 60.3399L302.326 60.9662L302.503 61.6141ZM304.785 60.9913L312.893 59.1471L312.744 58.4923L304.636 60.3364L304.785 60.9913ZM312.483 58.8119L312.274 67.7892L312.945 67.8048L313.154 58.8275L312.483 58.8119ZM312.61 68.1328H312.957V67.4613H312.61V68.1328ZM312.622 67.797V92.1543H313.293V67.797H312.622ZM312.622 92.1543C312.622 95.1819 313.29 97.2621 314.806 98.1505L315.145 97.5711C313.97 96.8821 313.293 95.1579 313.293 92.1543H312.622ZM314.675 97.7107L314.606 97.8498L315.206 98.1502L315.276 98.011L314.675 97.7107ZM314.906 97.6642H312.47V98.3358H314.906V97.6642ZM312.957 72.1587H312.54V72.8303H312.957V72.1587ZM312.875 72.4752C312.622 68.0839 313.327 64.7108 314.941 62.3127L314.384 61.9378C312.657 64.504 311.947 68.0437 312.205 72.5138L312.875 72.4752ZM314.941 62.3133C316.566 59.909 318.939 58.7031 322.109 58.7031V58.0315C318.737 58.0315 316.146 59.331 314.384 61.9373L314.941 62.3133ZM322.109 58.7031C324.251 58.7031 326.065 59.0791 327.563 59.8168L327.859 59.2144C326.249 58.421 324.328 58.0315 322.109 58.0315V58.7031ZM327.375 59.5156V69.0845H328.047V59.5156H327.375ZM327.711 68.7487H327.433V69.4203H327.711V68.7487ZM327.749 68.972C326.991 66.8397 325.883 65.129 324.417 63.8552L323.976 64.3621C325.34 65.5473 326.39 67.1537 327.116 69.197L327.749 68.972ZM324.419 63.8572C322.957 62.5625 321.396 61.8939 319.743 61.8939V62.5654C321.198 62.5654 322.607 63.1495 323.974 64.3601L324.419 63.8572ZM319.743 61.8939C317.434 61.8939 315.644 62.8141 314.418 64.6531L314.977 65.0256C316.07 63.3851 317.644 62.5654 319.743 62.5654V61.8939ZM314.419 64.6514C313.205 66.4486 312.622 69.0793 312.622 72.4945H313.293C313.293 69.1361 313.87 66.6633 314.975 65.0274L314.419 64.6514ZM334.339 95.947L334.212 96.2581L334.221 96.2614L334.339 95.947ZM333.399 95.5643H333.064V95.79L333.273 95.8752L333.399 95.5643ZM333.399 85.1603V84.8245H333.064V85.1603H333.399ZM333.747 85.1603L334.066 85.0541L333.989 84.8245H333.747V85.1603ZM334.548 86.5869L334.84 86.421L334.834 86.4106L334.827 86.4006L334.548 86.5869ZM355.669 95.5643L355.892 95.8152L355.892 95.815L355.669 95.5643ZM356.713 85.0907L356.972 84.8766L356.966 84.8699L356.713 85.0907ZM346.726 80.254L346.82 79.9316L346.819 79.9313L346.726 80.254ZM339.941 77.8879L340.084 77.5837L340.071 77.5783L339.941 77.8879ZM337.784 61.2206L337.59 60.9465L337.589 60.9474L337.784 61.2206ZM360.61 59.7939H360.946V59.5458L360.709 59.473L360.61 59.7939ZM360.61 67.4839V67.8196H360.946V67.4839H360.61ZM360.262 67.4839L360.025 67.7213L360.123 67.8196H360.262V67.4839ZM359.357 66.44L359.619 66.2302L359.608 66.2157L359.595 66.2026L359.357 66.44ZM358.279 65.5005L358.043 65.7393L358.055 65.7517L358.069 65.7627L358.279 65.5005ZM351.841 61.0118L351.701 61.317L351.705 61.3186L351.841 61.0118ZM340.602 60.977L340.819 61.2337L340.819 61.2333L340.602 60.977ZM340.254 68.8409L340.498 68.6097L340.492 68.6035L340.254 68.8409ZM343.49 70.9983L343.363 71.3089L343.368 71.3108L343.49 70.9983ZM349.371 72.7729L349.456 72.4482L349.454 72.4476L349.371 72.7729ZM356.713 75.0694L356.581 75.378L356.584 75.3794L356.713 75.0694ZM358.835 94.7988L358.617 94.5433L358.617 94.5441L358.835 94.7988ZM346.796 98.2906C344.591 98.2906 342.588 98.0723 340.785 97.6387L340.628 98.2917C342.491 98.7396 344.547 98.9621 346.796 98.9621V98.2906ZM340.785 97.6387C338.97 97.2021 336.861 96.5341 334.457 95.6326L334.221 96.2614C336.642 97.1693 338.778 97.8468 340.628 98.2917L340.785 97.6387ZM334.466 95.6361L333.526 95.2533L333.273 95.8752L334.212 96.258L334.466 95.6361ZM333.735 95.5643V85.1603H333.064V95.5643H333.735ZM333.399 85.496H333.747V84.8245H333.399V85.496ZM333.429 85.2664C333.511 85.5141 333.656 85.7855 333.851 86.0772L334.41 85.7047C334.233 85.4397 334.123 85.2239 334.066 85.0541L333.429 85.2664ZM333.851 86.0772C333.89 86.1364 333.955 86.2437 334.047 86.4055L334.63 86.0723C334.537 85.9094 334.463 85.7847 334.41 85.7047L333.851 86.0772ZM334.047 86.4055C334.141 86.5685 334.215 86.6932 334.268 86.7732L334.827 86.4006C334.788 86.3414 334.723 86.2341 334.63 86.0723L334.047 86.4055ZM334.256 86.7528C338.524 94.2628 343.461 98.127 349.092 98.127V97.4555C343.821 97.4555 339.062 93.8501 334.84 86.421L334.256 86.7528ZM349.092 98.127C351.87 98.127 354.148 97.3656 355.892 95.8152L355.446 95.3133C353.85 96.7322 351.743 97.4555 349.092 97.4555V98.127ZM355.892 95.815C357.661 94.2397 358.545 92.1978 358.545 89.7185H357.873C357.873 92.0179 357.063 93.8732 355.446 95.3135L355.892 95.815ZM358.545 89.7185C358.545 87.7777 358.028 86.1546 356.972 84.8767L356.454 85.3046C357.392 86.4392 357.873 87.9014 357.873 89.7185H358.545ZM356.966 84.8699C355.981 83.7412 354.759 82.8436 353.304 82.1758L353.024 82.7861C354.399 83.4174 355.542 84.2596 356.46 85.3114L356.966 84.8699ZM353.304 82.1758C351.866 81.5157 349.701 80.7679 346.82 79.9316L346.633 80.5765C349.505 81.4104 351.632 82.1472 353.024 82.7861L353.304 82.1758ZM346.819 79.9313C343.832 79.0745 341.59 78.2916 340.084 77.584L339.798 78.1918C341.354 78.9224 343.636 79.7169 346.634 80.5768L346.819 79.9313ZM340.071 77.5783C338.1 76.7512 336.643 75.6223 335.678 74.2021C334.713 72.7827 334.222 71.0479 334.222 68.9801H333.551C333.551 71.1574 334.069 73.0298 335.123 74.5796C336.175 76.1288 337.746 77.3312 339.811 78.1975L340.071 77.5783ZM334.222 68.9801C334.222 65.7663 335.473 63.2837 337.979 61.4938L337.589 60.9474C334.898 62.869 333.551 65.5594 333.551 68.9801H334.222ZM337.978 61.4946C340.522 59.6938 344.109 58.7727 348.779 58.7727V58.1011C344.032 58.1011 340.289 59.0358 337.59 60.9465L337.978 61.4946ZM348.779 58.7727C353.704 58.7727 357.611 59.2241 360.511 60.1149L360.709 59.473C357.717 58.5544 353.736 58.1011 348.779 58.1011V58.7727ZM360.274 59.7939V67.4839H360.946V59.7939H360.274ZM360.61 67.1481H360.262V67.8196H360.61V67.1481ZM360.499 67.2464C360.281 67.0276 359.988 66.6909 359.619 66.2302L359.095 66.6497C359.469 67.117 359.78 67.4762 360.025 67.7213L360.499 67.2464ZM359.595 66.2026C359.327 65.9349 358.957 65.613 358.488 65.2383L358.069 65.7627C358.528 66.1304 358.877 66.4348 359.12 66.6774L359.595 66.2026ZM358.515 65.2617C356.494 63.2647 354.315 61.7439 351.978 60.705L351.705 61.3186C353.96 62.3211 356.073 63.7927 358.043 65.7393L358.515 65.2617ZM351.981 60.7067C349.675 59.6476 347.493 59.1102 345.439 59.1102V59.7818C347.375 59.7818 349.461 60.2883 351.701 61.3169L351.981 60.7067ZM345.439 59.1102C343.364 59.1102 341.667 59.6358 340.385 60.7207L340.819 61.2333C341.95 60.2768 343.478 59.7818 345.439 59.7818V59.1102ZM340.386 60.7203C339.117 61.79 338.492 63.258 338.492 65.0829H339.163C339.163 63.4283 339.721 62.159 340.819 61.2337L340.386 60.7203ZM338.492 65.0829C338.492 66.7112 338.993 68.0544 340.017 69.0783L340.492 68.6035C339.613 67.7252 339.163 66.5631 339.163 65.0829H338.492ZM340.011 69.072C340.906 70.0152 342.025 70.7596 343.363 71.3089L343.618 70.6877C342.357 70.1699 341.32 69.476 340.498 68.6098L340.011 69.072ZM343.368 71.3108C344.686 71.8289 346.663 72.4245 349.287 73.0981L349.454 72.4476C346.836 71.7758 344.892 71.1883 343.613 70.6858L343.368 71.3108ZM349.285 73.0976C352.717 74.0019 355.144 74.7622 356.581 75.378L356.845 74.7608C355.359 74.1239 352.891 73.3533 349.456 72.4482L349.285 73.0976ZM356.584 75.3794C358.739 76.2756 360.334 77.5195 361.392 79.1011C362.45 80.6826 362.988 82.6267 362.988 84.9515H363.66C363.66 82.5208 363.096 80.4402 361.95 78.7277C360.805 77.0153 359.094 75.6958 356.842 74.7594L356.584 75.3794ZM362.988 84.9515C362.988 88.8686 361.533 92.0568 358.617 94.5433L359.053 95.0543C362.122 92.4373 363.66 89.0606 363.66 84.9515H362.988ZM358.617 94.5441C355.724 97.0298 351.797 98.2906 346.796 98.2906V98.9621C351.909 98.9621 356.008 97.6712 359.054 95.0534L358.617 94.5441Z" fill="#EFE9E1" mask="url(#path-1-outside-1_278_8)"/>
</svg>
