<svg width="30" height="30" viewBox="0 0 30 30" fill="none" xmlns="http://www.w3.org/2000/svg">
<circle cx="14.994" cy="14.994" r="14.7" stroke="#EFE9E1" stroke-width="0.588001"/>
<path d="M16.6716 10.6758C17.3263 10.8033 17.9279 11.1229 18.3995 11.5936C18.8712 12.0643 19.1913 12.6648 19.319 13.3182M16.6716 8C18.0317 8.15081 19.3 8.75871 20.2683 9.72391C21.2365 10.6891 21.8472 11.9542 22 13.3115M21.3298 18.6498V20.6567C21.3305 20.843 21.2923 21.0274 21.2175 21.1981C21.1427 21.3688 21.033 21.522 20.8955 21.648C20.758 21.7739 20.5956 21.8698 20.4187 21.9295C20.2419 21.9892 20.0546 22.0113 19.8686 21.9946C17.8062 21.7709 15.8251 21.0675 14.0845 19.9409C12.4651 18.9138 11.0921 17.5434 10.0631 15.9271C8.93035 14.182 8.22544 12.195 8.00544 10.1273C7.98869 9.94229 8.01072 9.75585 8.07012 9.57982C8.12952 9.4038 8.22499 9.24204 8.35046 9.10486C8.47592 8.96768 8.62863 8.85808 8.79886 8.78303C8.96909 8.70798 9.15312 8.66913 9.33921 8.66896H11.3499C11.6752 8.66576 11.9905 8.78072 12.2372 8.99242C12.4838 9.20411 12.6449 9.49809 12.6904 9.81956C12.7753 10.4618 12.9327 11.0924 13.1596 11.6993C13.2497 11.9388 13.2693 12.199 13.2158 12.4491C13.1623 12.6993 13.0382 12.9289 12.858 13.1108L12.0068 13.9604C12.9609 15.6352 14.3502 17.0218 16.0282 17.9741L16.8794 17.1246C17.0616 16.9447 17.2917 16.8208 17.5423 16.7674C17.793 16.7141 18.0537 16.7335 18.2936 16.8235C18.9017 17.05 19.5335 17.2071 20.177 17.2918C20.5025 17.3376 20.7999 17.5013 21.0124 17.7517C21.225 18.0021 21.3379 18.3217 21.3298 18.6498Z" stroke="#EFE9E1" stroke-width="0.9" stroke-linecap="round" stroke-linejoin="round"/>
</svg>
