<svg width="1262" height="404" viewBox="0 0 1262 404" fill="none" xmlns="http://www.w3.org/2000/svg">
<mask id="path-1-outside-1_25_87" maskUnits="userSpaceOnUse" x="-3" y="-2" width="1267" height="408" fill="black">
<rect fill="white" x="-3" y="-2" width="1267" height="408"/>
<path d="M113.425 399H23.4667H2.91328L2.31753 397.808C13.6368 390.858 19.2965 372.985 19.2965 344.191V134.188C19.2965 105.791 13.0411 89.3083 0.530275 84.7408L1.12603 83.5493L21.0837 79.3791L114.617 63.5916L113.425 144.614H117.596V344.191C117.596 372.985 123.255 390.858 134.574 397.808L133.979 399H113.425ZM117.596 184.231H114.021C112.234 143.919 118.191 112.94 131.894 91.2941C145.596 69.4499 166.447 58.5277 194.448 58.5277C212.519 58.5277 229.001 62.2015 243.895 69.5491V176.189H241.512C234.363 156.132 224.632 140.543 212.32 129.422C200.008 118.302 186.901 112.741 173 112.741C155.327 112.741 141.624 118.897 131.894 131.209C122.362 143.323 117.596 160.997 117.596 184.231ZM447.487 403.766C395.657 403.766 354.451 388.574 323.869 358.191C293.287 327.609 277.996 286.502 277.996 234.87C277.996 183.437 295.074 141.238 329.23 108.273C363.585 75.1095 407.274 58.5277 460.296 58.5277C502.991 58.5277 536.751 70.6414 561.574 94.8686C586.397 119.096 600.695 153.749 604.468 198.827L324.464 200.019L327.443 190.487L517.19 179.465L513.02 183.636C511.431 154.047 502.098 127.536 485.02 104.103C468.14 80.6698 448.977 68.9534 427.53 68.9534C408.267 68.9534 393.472 76.7975 383.146 92.4856C372.82 108.174 367.656 131.209 367.656 161.593C367.656 197.139 373.316 229.111 384.635 257.509C396.153 285.906 412.139 308.148 432.593 324.233C453.246 340.318 476.381 348.361 501.999 348.361C530.595 348.361 553.332 340.021 570.212 323.339C587.29 306.46 597.021 282.828 599.404 252.445H604.468C604.468 296.332 589.574 332.574 559.786 361.17C530.197 389.567 492.764 403.766 447.487 403.766ZM990.658 399H900.402H879.55L878.955 397.808C890.473 390.858 894.742 372.985 891.763 344.191L877.167 179.465C873.792 146.898 867.536 123.167 858.401 108.273C849.266 93.3792 836.557 85.9323 820.273 85.9323C802.996 85.9323 788.996 94.4714 778.273 111.55C767.748 128.628 762.485 150.671 762.485 177.678H757.421C757.421 138.954 766.159 109.465 783.634 89.209C801.308 68.7548 826.529 58.5277 859.295 58.5277C892.458 58.5277 918.87 68.0598 938.53 87.1238C958.388 105.989 970.005 132.699 973.381 167.252L991.254 344.191C993.637 372.985 1000.49 390.858 1011.81 397.808L1011.21 399H990.658ZM758.315 399H668.356H647.803L647.207 397.808C658.526 390.858 664.186 372.985 664.186 344.191V134.188C664.186 105.791 657.931 89.5068 645.42 85.3366L646.016 84.1451L665.973 79.3791L753.251 63.5916L757.421 155.635H762.485V344.191C762.485 372.985 768.145 390.858 779.464 397.808L778.868 399H758.315ZM1253.38 62.9959L1252.79 82.9536C1201.36 78.1875 1127.28 75.8045 1030.57 75.8045H1018.36V63.5916L1253.38 62.9959ZM1256.96 350.148L1261.13 353.127C1245.84 385.695 1215.75 401.979 1170.87 401.979C1139.7 401.979 1114.77 394.631 1096.11 379.936C1077.64 365.042 1068.4 344.787 1068.4 319.169V67.1661L1018.36 63.5916C1053.11 62.5987 1083.4 56.6412 1109.21 45.7191C1135.23 34.7969 1153.2 19.8039 1163.13 0.739787H1166.11V313.51C1166.11 357.397 1181.99 379.34 1213.77 379.34C1223.3 379.34 1231.84 376.858 1239.38 371.893C1247.13 366.73 1252.99 359.482 1256.96 350.148Z"/>
</mask>
<path d="M2.91328 399L1.12443 399.894L1.67722 401H2.91328V399ZM2.31753 397.808L1.27101 396.104L-0.291111 397.063L0.528677 398.703L2.31753 397.808ZM0.530275 84.7408L-1.25858 83.8464L-2.26086 85.8509L-0.155605 86.6195L0.530275 84.7408ZM1.12603 83.5493L0.716952 81.5916L-0.230131 81.7895L-0.662827 82.6549L1.12603 83.5493ZM21.0837 79.3791L20.7508 77.4069L20.7126 77.4134L20.6746 77.4213L21.0837 79.3791ZM114.617 63.5916L116.617 63.621L116.652 61.2198L114.284 61.6195L114.617 63.5916ZM113.425 144.614L111.425 144.584L111.396 146.614H113.425V144.614ZM117.596 144.614H119.596V142.614H117.596V144.614ZM134.574 397.808L136.363 398.703L137.183 397.063L135.621 396.104L134.574 397.808ZM133.979 399V401H135.215L135.768 399.894L133.979 399ZM117.596 184.231V186.231H119.596V184.231H117.596ZM114.021 184.231L112.023 184.32L112.108 186.231H114.021V184.231ZM131.894 91.2941L133.583 92.3638L133.588 92.3569L131.894 91.2941ZM243.895 69.5491H245.895V68.3057L244.78 67.7555L243.895 69.5491ZM243.895 176.189V178.189H245.895V176.189H243.895ZM241.512 176.189L239.628 176.86L240.102 178.189H241.512V176.189ZM131.894 131.209L130.324 129.969L130.322 129.973L131.894 131.209ZM113.425 397H23.4667V401H113.425V397ZM23.4667 397H2.91328V401H23.4667V397ZM4.70214 398.106L4.10639 396.914L0.528677 398.703L1.12443 399.894L4.70214 398.106ZM3.36406 399.513C9.57413 395.7 14.0426 389.003 16.9584 379.795C19.8739 370.588 21.2965 358.696 21.2965 344.191H17.2965C17.2965 358.481 15.8892 369.922 13.145 378.587C10.4012 387.252 6.38022 392.967 1.27101 396.104L3.36406 399.513ZM21.2965 344.191V134.188H17.2965V344.191H21.2965ZM21.2965 134.188C21.2965 119.877 19.7249 108.382 16.4748 99.8186C13.2117 91.2207 8.18025 85.4046 1.21616 82.8621L-0.155605 86.6195C5.39109 88.6445 9.74272 93.3533 12.735 101.238C15.7403 109.156 17.2965 120.102 17.2965 134.188H21.2965ZM2.31913 85.6352L2.91488 84.4437L-0.662827 82.6549L-1.25858 83.8464L2.31913 85.6352ZM1.5351 85.507L21.4928 81.3368L20.6746 77.4213L0.716952 81.5916L1.5351 85.507ZM21.4166 81.3512L114.95 65.5637L114.284 61.6195L20.7508 77.4069L21.4166 81.3512ZM112.617 63.5622L111.425 144.584L115.425 144.643L116.617 63.621L112.617 63.5622ZM113.425 146.614H117.596V142.614H113.425V146.614ZM115.596 144.614V344.191H119.596V144.614H115.596ZM115.596 344.191C115.596 358.696 117.018 370.588 119.934 379.795C122.849 389.003 127.318 395.7 133.528 399.513L135.621 396.104C130.512 392.967 126.491 387.252 123.747 378.587C121.003 369.922 119.596 358.481 119.596 344.191H115.596ZM132.786 396.914L132.19 398.106L135.768 399.894L136.363 398.703L132.786 396.914ZM133.979 397H113.425V401H133.979V397ZM117.596 182.231H114.021V186.231H117.596V182.231ZM116.019 184.143C114.24 144.022 120.193 113.517 133.583 92.3638L130.204 90.2244C116.19 112.362 110.227 143.816 112.023 184.32L116.019 184.143ZM133.588 92.3569C146.888 71.1534 167.065 60.5277 194.448 60.5277V56.5277C165.83 56.5277 144.304 67.7463 130.199 90.2313L133.588 92.3569ZM194.448 60.5277C212.239 60.5277 228.415 64.1426 243.01 71.3428L244.78 67.7555C229.587 60.2605 212.798 56.5277 194.448 56.5277V60.5277ZM241.895 69.5491V176.189H245.895V69.5491H241.895ZM243.895 174.189H241.512V178.189H243.895V174.189ZM243.396 175.517C236.166 155.235 226.278 139.335 213.661 127.938L210.98 130.906C222.986 141.751 232.559 157.029 239.628 176.86L243.396 175.517ZM213.661 127.938C201.056 116.553 187.489 110.741 173 110.741V114.741C186.313 114.741 198.96 120.05 210.98 130.906L213.661 127.938ZM173 110.741C154.802 110.741 140.486 117.112 130.324 129.969L133.463 132.45C142.763 120.682 155.851 114.741 173 114.741V110.741ZM130.322 129.973C120.403 142.578 115.596 160.766 115.596 184.231H119.596C119.596 161.229 124.32 144.068 133.465 132.446L130.322 129.973ZM323.869 358.191L322.454 359.605L322.459 359.61L323.869 358.191ZM329.23 108.273L330.619 109.712L330.619 109.712L329.23 108.273ZM561.574 94.8686L562.971 93.4373L561.574 94.8686ZM604.468 198.827L604.476 200.827L606.641 200.818L606.461 198.661L604.468 198.827ZM324.464 200.019L322.555 199.422L321.74 202.03L324.473 202.019L324.464 200.019ZM327.443 190.487L327.327 188.49L325.947 188.57L325.534 189.89L327.443 190.487ZM517.19 179.465L518.604 180.88L522.32 177.164L517.074 177.469L517.19 179.465ZM513.02 183.636L511.023 183.743L511.263 188.221L514.434 185.05L513.02 183.636ZM485.02 104.103L483.397 105.272L483.403 105.281L485.02 104.103ZM383.146 92.4856L384.817 93.5852L383.146 92.4856ZM384.635 257.509L382.778 258.249L382.782 258.261L384.635 257.509ZM432.593 324.233L431.357 325.805L431.364 325.811L432.593 324.233ZM570.212 323.339L571.618 324.762L571.618 324.762L570.212 323.339ZM599.404 252.445V250.445H597.555L597.41 252.289L599.404 252.445ZM604.468 252.445H606.468V250.445H604.468V252.445ZM559.786 361.17L561.171 362.613L561.172 362.613L559.786 361.17ZM447.487 401.766C396.071 401.766 355.412 386.71 325.278 356.772L322.459 359.61C353.49 390.439 395.243 405.766 447.487 405.766V401.766ZM325.283 356.777C295.147 326.641 279.996 286.082 279.996 234.87H275.996C275.996 286.922 291.426 328.577 322.454 359.605L325.283 356.777ZM279.996 234.87C279.996 183.93 296.888 142.267 330.619 109.712L327.842 106.834C293.26 140.209 275.996 182.945 275.996 234.87H279.996ZM330.619 109.712C364.559 76.9494 407.73 60.5277 460.296 60.5277V56.5277C406.818 56.5277 362.612 73.2695 327.841 106.834L330.619 109.712ZM460.296 60.5277C502.597 60.5277 535.81 72.5175 560.177 96.2999L562.971 93.4373C537.692 68.7652 503.386 56.5277 460.296 56.5277V60.5277ZM560.177 96.2999C584.562 120.1 598.729 154.246 602.475 198.994L606.461 198.661C602.66 153.251 588.232 118.092 562.971 93.4373L560.177 96.2999ZM604.459 196.827L324.456 198.019L324.473 202.019L604.476 200.827L604.459 196.827ZM326.373 200.615L329.352 191.083L325.534 189.89L322.555 199.422L326.373 200.615ZM327.559 192.483L517.306 181.462L517.074 177.469L327.327 188.49L327.559 192.483ZM515.776 178.051L511.606 182.221L514.434 185.05L518.604 180.88L515.776 178.051ZM515.017 183.528C513.408 153.562 503.947 126.677 486.636 102.925L483.403 105.281C500.248 128.394 509.454 154.531 511.023 183.743L515.017 183.528ZM486.642 102.934C469.529 79.1759 449.829 66.9534 427.53 66.9534V70.9534C448.124 70.9534 466.751 82.1638 483.397 105.272L486.642 102.934ZM427.53 66.9534C407.615 66.9534 392.183 75.1187 381.475 91.386L384.817 93.5852C394.762 78.4762 408.919 70.9534 427.53 70.9534V66.9534ZM381.475 91.386C370.839 107.545 365.656 131.038 365.656 161.593H369.656C369.656 131.381 374.8 108.802 384.817 93.5852L381.475 91.386ZM365.656 161.593C365.656 197.352 371.35 229.581 382.778 258.249L386.493 256.768C375.282 228.642 369.656 196.926 369.656 161.593H365.656ZM382.782 258.261C394.407 286.923 410.584 309.469 431.357 325.805L433.83 322.661C413.694 306.826 397.899 284.89 386.489 256.757L382.782 258.261ZM431.364 325.811C452.36 342.163 475.926 350.361 501.999 350.361V346.361C476.837 346.361 454.132 338.473 433.822 322.655L431.364 325.811ZM501.999 350.361C531.006 350.361 554.289 341.887 571.618 324.762L568.806 321.917C552.376 338.154 530.183 346.361 501.999 346.361V350.361ZM571.618 324.762C589.122 307.462 598.988 283.331 601.398 252.601L597.41 252.289C595.054 282.326 585.459 305.458 568.806 321.917L571.618 324.762ZM599.404 254.445H604.468V250.445H599.404V254.445ZM602.468 252.445C602.468 295.826 587.769 331.534 558.401 359.727L561.172 362.613C591.379 333.614 606.468 296.838 606.468 252.445H602.468ZM558.402 359.727C529.225 387.728 492.307 401.766 447.487 401.766V405.766C493.222 405.766 531.17 391.406 561.171 362.613L558.402 359.727ZM879.55 399L877.762 399.894L878.314 401H879.55V399ZM878.955 397.808L877.921 396.096L876.34 397.051L877.166 398.703L878.955 397.808ZM891.763 344.191L889.771 344.367L889.772 344.382L889.774 344.397L891.763 344.191ZM877.167 179.465L879.16 179.289L879.158 179.274L879.157 179.259L877.167 179.465ZM778.273 111.55L776.579 110.486L776.574 110.493L776.57 110.5L778.273 111.55ZM762.485 177.678V179.678H764.485V177.678H762.485ZM757.421 177.678H755.421V179.678H757.421V177.678ZM783.634 89.209L782.121 87.9013L782.12 87.9025L783.634 89.209ZM938.53 87.1238L937.138 88.5596L937.145 88.5668L937.152 88.5738L938.53 87.1238ZM973.381 167.252L971.391 167.447L971.392 167.453L973.381 167.252ZM991.254 344.191L993.247 344.026L993.246 344.008L993.244 343.99L991.254 344.191ZM1011.81 397.808L1013.6 398.703L1014.42 397.063L1012.85 396.104L1011.81 397.808ZM1011.21 399V401H1012.45L1013 399.894L1011.21 399ZM647.803 399L646.014 399.894L646.567 401H647.803V399ZM647.207 397.808L646.161 396.104L644.599 397.063L645.418 398.703L647.207 397.808ZM645.42 85.3366L643.631 84.4421L642.6 86.5047L644.787 87.2339L645.42 85.3366ZM646.016 84.1451L645.551 82.1998L644.644 82.4164L644.227 83.2506L646.016 84.1451ZM665.973 79.3791L665.617 77.411L665.563 77.4209L665.509 77.4338L665.973 79.3791ZM753.251 63.5916L755.249 63.5011L755.145 61.2165L752.895 61.6236L753.251 63.5916ZM757.421 155.635L755.423 155.726L755.51 157.635H757.421V155.635ZM762.485 155.635H764.485V153.635H762.485V155.635ZM779.464 397.808L781.253 398.703L782.073 397.063L780.511 396.104L779.464 397.808ZM778.868 399V401H780.104L780.657 399.894L778.868 399ZM990.658 397H900.402V401H990.658V397ZM900.402 397H879.55V401H900.402V397ZM881.339 398.106L880.744 396.914L877.166 398.703L877.762 399.894L881.339 398.106ZM879.988 399.521C886.354 395.68 890.528 388.918 892.741 379.656C894.949 370.411 895.254 358.493 893.753 343.985L889.774 344.397C891.252 358.683 890.911 370.099 888.85 378.727C886.793 387.337 883.074 392.987 877.921 396.096L879.988 399.521ZM893.756 344.014L879.16 179.289L875.175 179.642L889.771 344.367L893.756 344.014ZM879.157 179.259C875.772 146.61 869.481 122.512 860.106 107.227L856.696 109.319C865.591 123.821 871.811 147.185 875.178 179.672L879.157 179.259ZM860.106 107.227C850.64 91.7928 837.312 83.9323 820.273 83.9323V87.9323C835.802 87.9323 847.893 94.9656 856.696 109.319L860.106 107.227ZM820.273 83.9323C802.183 83.9323 787.597 92.9394 776.579 110.486L779.966 112.613C790.396 96.0035 803.809 87.9323 820.273 87.9323V83.9323ZM776.57 110.5C765.794 127.985 760.485 150.425 760.485 177.678H764.485C764.485 150.917 769.701 129.27 779.975 112.599L776.57 110.5ZM762.485 175.678H757.421V179.678H762.485V175.678ZM759.421 177.678C759.421 139.223 768.101 110.275 785.149 90.5154L782.12 87.9025C764.217 108.654 755.421 138.685 755.421 177.678H759.421ZM785.148 90.5166C802.362 70.5947 826.975 60.5277 859.295 60.5277V56.5277C826.082 56.5277 800.255 66.9149 782.121 87.9013L785.148 90.5166ZM859.295 60.5277C892.055 60.5277 917.927 69.9311 937.138 88.5596L939.922 85.688C919.813 66.1884 892.862 56.5277 859.295 56.5277V60.5277ZM937.152 88.5738C956.577 107.027 968.049 133.24 971.391 167.447L975.372 167.058C971.962 132.158 960.2 104.952 939.907 85.6738L937.152 88.5738ZM971.392 167.453L989.264 344.392L993.244 343.99L975.371 167.051L971.392 167.453ZM989.261 344.356C990.461 358.856 992.794 370.729 996.312 379.907C999.828 389.079 1004.59 395.725 1010.76 399.513L1012.85 396.104C1007.7 392.941 1003.38 387.176 1000.05 378.475C996.714 369.781 994.43 358.32 993.247 344.026L989.261 344.356ZM1010.02 396.914L1009.42 398.106L1013 399.894L1013.6 398.703L1010.02 396.914ZM1011.21 397H990.658V401H1011.21V397ZM758.315 397H668.356V401H758.315V397ZM668.356 397H647.803V401H668.356V397ZM649.592 398.106L648.996 396.914L645.418 398.703L646.014 399.894L649.592 398.106ZM648.254 399.513C654.464 395.7 658.932 389.003 661.848 379.795C664.764 370.588 666.186 358.696 666.186 344.191H662.186C662.186 358.481 660.779 369.922 658.035 378.587C655.291 387.252 651.27 392.967 646.161 396.104L648.254 399.513ZM666.186 344.191V134.188H662.186V344.191H666.186ZM666.186 134.188C666.186 119.879 664.615 108.43 661.362 99.96C658.093 91.4526 653.045 85.7702 646.052 83.4392L644.787 87.2339C650.305 89.0732 654.64 93.6178 657.628 101.394C660.629 109.209 662.186 120.1 662.186 134.188H666.186ZM647.209 86.231L647.805 85.0395L644.227 83.2506L643.631 84.4421L647.209 86.231ZM646.48 86.0904L666.438 81.3244L665.509 77.4338L645.551 82.1998L646.48 86.0904ZM666.329 81.3471L753.607 65.5597L752.895 61.6236L665.617 77.411L666.329 81.3471ZM751.253 63.6821L755.423 155.726L759.419 155.545L755.249 63.5011L751.253 63.6821ZM757.421 157.635H762.485V153.635H757.421V157.635ZM760.485 155.635V344.191H764.485V155.635H760.485ZM760.485 344.191C760.485 358.696 761.908 370.588 764.823 379.795C767.739 389.003 772.208 395.7 778.418 399.513L780.511 396.104C775.401 392.967 771.38 387.252 768.637 378.587C765.892 369.922 764.485 358.481 764.485 344.191H760.485ZM777.675 396.914L777.08 398.106L780.657 399.894L781.253 398.703L777.675 396.914ZM778.868 397H758.315V401H778.868V397ZM1253.38 62.9959L1255.38 63.0555L1255.45 60.9906L1253.38 60.9959L1253.38 62.9959ZM1252.79 82.9536L1252.6 84.945L1254.72 85.1415L1254.79 83.0132L1252.79 82.9536ZM1018.36 75.8045H1016.36V77.8045H1018.36V75.8045ZM1018.36 63.5916L1018.36 61.5916L1016.36 61.5967V63.5916H1018.36ZM1256.96 350.148L1258.12 348.521L1256.09 347.073L1255.12 349.365L1256.96 350.148ZM1261.13 353.127L1262.94 353.977L1263.65 352.468L1262.29 351.5L1261.13 353.127ZM1096.11 379.936L1094.85 381.493L1094.86 381.5L1094.87 381.507L1096.11 379.936ZM1068.4 67.1661H1070.4V65.3039L1068.55 65.1712L1068.4 67.1661ZM1018.36 63.5916L1018.3 61.5924L1018.22 65.5865L1018.36 63.5916ZM1109.21 45.7191L1108.44 43.875L1108.43 43.8771L1109.21 45.7191ZM1163.13 0.739787V-1.26021H1161.92L1161.35 -0.184081L1163.13 0.739787ZM1166.11 0.739787H1168.11V-1.26021H1166.11V0.739787ZM1239.38 371.893L1240.48 373.564L1240.49 373.557L1239.38 371.893ZM1251.39 62.9362L1250.79 82.8939L1254.79 83.0132L1255.38 63.0555L1251.39 62.9362ZM1252.97 80.9621C1201.45 76.1875 1127.3 73.8045 1030.57 73.8045V77.8045C1127.27 77.8045 1201.26 80.1876 1252.6 84.945L1252.97 80.9621ZM1030.57 73.8045H1018.36V77.8045H1030.57V73.8045ZM1020.36 75.8045V63.5916H1016.36V75.8045H1020.36ZM1018.37 65.5916L1253.39 64.9959L1253.38 60.9959L1018.36 61.5916L1018.37 65.5916ZM1255.8 351.776L1259.97 354.755L1262.29 351.5L1258.12 348.521L1255.8 351.776ZM1259.32 352.277C1251.85 368.195 1240.79 380.079 1226.15 388.007C1211.47 395.949 1193.08 399.979 1170.87 399.979V403.979C1193.55 403.979 1212.64 399.867 1228.05 391.525C1243.49 383.168 1255.12 370.627 1262.94 353.977L1259.32 352.277ZM1170.87 399.979C1140 399.979 1115.56 392.706 1097.34 378.364L1094.87 381.507C1113.99 396.556 1139.39 403.979 1170.87 403.979V399.979ZM1097.36 378.379C1079.41 363.898 1070.4 344.237 1070.4 319.169H1066.4C1066.4 345.336 1075.87 366.186 1094.85 381.493L1097.36 378.379ZM1070.4 319.169V67.1661H1066.4V319.169H1070.4ZM1068.55 65.1712L1018.5 61.5967L1018.22 65.5865L1068.26 69.1611L1068.55 65.1712ZM1018.42 65.5908C1053.36 64.5924 1083.9 58.6001 1109.99 47.561L1108.43 43.8771C1082.89 54.6823 1052.87 60.605 1018.3 61.5924L1018.42 65.5908ZM1109.99 47.5631C1136.3 36.5174 1154.7 21.256 1164.9 1.66366L1161.35 -0.184081C1151.7 18.3517 1134.16 33.0764 1108.44 43.875L1109.99 47.5631ZM1163.13 2.73979H1166.11V-1.26021H1163.13V2.73979ZM1164.11 0.739787V313.51H1168.11V0.739787H1164.11ZM1164.11 313.51C1164.11 335.635 1168.1 352.589 1176.4 364.055C1184.79 375.641 1197.37 381.34 1213.77 381.34V377.34C1198.4 377.34 1187.14 372.067 1179.64 361.71C1172.06 351.232 1168.11 335.272 1168.11 313.51H1164.11ZM1213.77 381.34C1223.67 381.34 1232.59 378.756 1240.48 373.564L1238.29 370.222C1231.08 374.96 1222.93 377.34 1213.77 377.34V381.34ZM1240.49 373.557C1248.59 368.159 1254.69 360.59 1258.8 350.931L1255.12 349.365C1251.29 358.374 1245.67 365.302 1238.28 370.229L1240.49 373.557Z" fill="#F2F4F3" fill-opacity="0.5" mask="url(#path-1-outside-1_25_87)"/>
</svg>
