<svg width="373" height="176" viewBox="0 0 373 176" fill="none" xmlns="http://www.w3.org/2000/svg">
<g opacity="0.7">
<mask id="path-1-outside-1_52_527" maskUnits="userSpaceOnUse" x="-1" y="-1" width="374" height="177" fill="black">
<rect fill="white" x="-1" y="-1" width="374" height="177"/>
<path d="M95.1382 85L74.2526 30.2671C72.5923 25.8145 70.7056 22.8902 68.5925 21.494L68.7057 21.2676H72.6112H84.6671H88.6292L88.7424 21.494C86.5161 22.7392 86.2897 25.6636 88.0632 30.2671L104.647 73.5101L100.685 85H95.1382ZM122.816 21.2676H126.325L100.912 85H99.8927L122.816 21.2676ZM130.231 85L106.006 21.2676H119.477L139.4 73.5101L135.495 85H130.231ZM157.512 21.2676H159.437H163.399L163.512 21.494C161.361 22.777 159.399 25.7013 157.625 30.2671L135.721 85H134.646L154.343 30.2671C155.852 25.8145 155.55 22.8902 153.437 21.494L153.55 21.2676H157.512ZM111.1 22.1732V21.2676H124.457V22.1732H111.1ZM230.215 85H217.932H213.97L213.857 84.7736C216.121 83.4906 216.97 80.3965 216.404 75.4911L213.518 43.2853C212.876 36.6064 211.48 31.701 209.329 28.5691C207.178 25.3995 204.141 23.8146 200.216 23.8146C196.217 23.8146 192.971 25.607 190.481 29.1917C187.991 32.7387 186.745 37.3233 186.745 42.9457H185.953C185.953 35.8517 187.708 30.3426 191.217 26.4183C194.726 22.4939 199.613 20.5318 205.876 20.5318C211.914 20.5318 216.763 22.3241 220.423 25.9089C224.083 29.4558 226.234 34.4744 226.875 40.9646L230.328 75.4911C230.781 80.3965 232.101 83.4906 234.29 84.7736L234.177 85H230.215ZM185.953 85H174.01H170.048L169.935 84.7736C172.086 83.4906 173.161 80.3965 173.161 75.4911V13.0039C173.161 8.0985 171.973 5.3628 169.595 4.79679V4.57039L173.444 3.49497L186.519 0.495137L186.066 38.078H186.745V75.4911C186.745 80.3965 187.821 83.4906 189.972 84.7736L189.858 85H185.953ZM295.616 76.6797C289.503 82.9812 281.692 86.132 272.183 86.132C262.674 86.132 255.033 83.1699 249.26 77.2457C243.524 71.3215 240.656 63.5106 240.656 53.813C240.656 44.0022 243.656 36.0027 249.656 29.8143C255.693 23.626 263.523 20.5318 273.145 20.5318C282.692 20.5318 290.352 23.5128 296.125 29.4747C301.898 35.4366 304.785 43.0966 304.785 52.4546C304.785 62.3031 301.729 70.3781 295.616 76.6797ZM276.937 84.6604C281.654 84.6604 285.409 82.6039 288.201 78.4909C290.993 74.3779 292.389 68.8122 292.389 61.7937C292.389 55.1148 291.22 48.6623 288.88 42.4363C286.541 36.3234 283.465 31.4369 279.654 27.7767C275.881 24.1165 271.938 22.2864 267.825 22.2864C263.146 22.2864 259.504 24.2486 256.901 28.1729C254.335 32.0972 253.052 37.4743 253.052 44.3041C253.052 51.0962 254.184 57.6619 256.448 64.0011C258.712 70.3027 261.636 75.3213 265.221 79.0569C268.844 82.7926 272.749 84.6604 276.937 84.6604ZM27.068 174L6.1823 119.267C4.52201 114.815 2.63532 111.89 0.522231 110.494L0.635432 110.268H4.54088H16.5968H20.5589L20.6721 110.494C18.4458 111.739 18.2194 114.664 19.9929 119.267L36.5769 162.51L32.6148 174H27.068ZM54.7457 110.268H58.255L32.8412 174H31.8224L54.7457 110.268ZM62.1604 174L37.9353 110.268H51.4063L71.3297 162.51L67.4243 174H62.1604ZM89.4419 110.268H91.3664H95.3284L95.4416 110.494C93.2908 111.777 91.3286 114.701 89.5552 119.267L67.6507 174H66.5753L86.2723 119.267C87.7817 114.815 87.4798 111.89 85.3667 110.494L85.4799 110.268H89.4419ZM43.0294 111.173V110.268H56.3871V111.173H43.0294ZM129.486 174.679C120.09 174.679 112.543 171.774 106.846 165.963C101.148 160.114 98.2988 152.397 98.2988 142.813C98.2988 133.115 101.431 125.154 107.695 118.928C113.958 112.664 122.033 109.532 131.92 109.532C139.504 109.532 145.579 111.645 150.145 115.871C154.749 120.097 157.597 126.267 158.692 134.38L106.336 134.096L106.563 132.625L146.523 130.87L145.957 131.549C145.617 126.003 143.523 121.248 139.674 117.286C135.825 113.286 131.391 111.286 126.373 111.286C121.43 111.286 117.581 113.173 114.826 116.946C112.072 120.682 110.694 125.984 110.694 132.851C110.694 139.341 111.864 145.209 114.204 150.454C116.543 155.775 119.713 159.925 123.713 162.906C127.712 165.887 132.146 167.378 137.014 167.378C143.127 167.378 148.107 165.548 151.956 161.887C155.805 158.19 157.786 153.341 157.899 147.341H158.805C158.805 155.076 156.069 161.567 150.598 166.812C145.164 172.057 138.127 174.679 129.486 174.679ZM238.374 174L234.582 132.285C233.299 118.437 227.035 111.513 215.791 111.513C209.338 111.513 203.961 114.758 199.659 121.248C198.49 123.022 197.678 124.418 197.226 125.437H196.66V110.72C206.508 109.928 213.96 109.532 219.017 109.532C225.318 109.532 230.545 110.079 234.695 111.173C238.544 112.305 241.412 114.211 243.299 116.89C245.223 119.531 246.412 123.191 246.864 127.87L250.543 164.491C250.883 169.208 252.166 172.302 254.392 173.774L254.279 174H250.317H238.374ZM210.47 175.132C204.621 175.132 199.867 173.377 196.207 169.868C192.584 166.359 190.773 161.869 190.773 156.397C190.773 151.303 192.509 146.7 195.98 142.587C202.886 134.587 217.13 128.323 238.714 123.795V124.361C225.884 127.04 216.809 130.417 211.489 134.493C206.168 138.568 203.508 144.322 203.508 151.756C203.508 157.491 204.753 162.303 207.244 166.189C209.772 170.076 212.772 172.019 216.243 172.019C219.979 171.981 223.375 170.189 226.432 166.642C229.488 163.057 231.771 158.208 233.28 152.096C234.79 145.945 235.223 139.341 234.582 132.285H235.374C236.393 140.813 235.978 148.36 234.129 154.926C232.318 161.454 229.356 166.453 225.243 169.925C221.13 173.396 216.206 175.132 210.47 175.132ZM279.38 174H267.438H263.476L263.362 173.774C265.551 172.34 266.645 169.246 266.645 164.491V122.776C266.645 117.871 265.438 115.116 263.023 114.513V114.286L266.758 113.267L279.946 110.268L279.607 124.871H280.173V164.491C280.173 169.396 281.267 172.491 283.456 173.774L283.342 174H279.38ZM280.173 132.512H279.494C279.079 125.305 280.229 119.682 282.946 115.645C285.701 111.569 289.738 109.532 295.059 109.532C298.606 109.532 301.643 110.154 304.171 111.4V126.965H303.719C302.511 123.569 300.757 120.871 298.455 118.871C296.153 116.833 293.738 115.814 291.21 115.814C287.625 115.814 284.89 117.229 283.003 120.06C281.116 122.852 280.173 127.003 280.173 132.512ZM342.857 174.679C333.461 174.679 325.914 171.774 320.217 165.963C314.519 160.114 311.67 152.397 311.67 142.813C311.67 133.115 314.802 125.154 321.066 118.928C327.329 112.664 335.405 109.532 345.291 109.532C352.875 109.532 358.95 111.645 363.516 115.871C368.12 120.097 370.969 126.267 372.063 134.38L319.707 134.096L319.934 132.625L359.894 130.87L359.328 131.549C358.988 126.003 356.894 121.248 353.045 117.286C349.196 113.286 344.763 111.286 339.744 111.286C334.801 111.286 330.952 113.173 328.197 116.946C325.443 120.682 324.066 125.984 324.066 132.851C324.066 139.341 325.235 145.209 327.575 150.454C329.914 155.775 333.084 159.925 337.084 162.906C341.083 165.887 345.517 167.378 350.385 167.378C356.498 167.378 361.479 165.548 365.327 161.887C369.176 158.19 371.157 153.341 371.271 147.341H372.176C372.176 155.076 369.44 161.567 363.969 166.812C358.535 172.057 351.498 174.679 342.857 174.679Z"/>
</mask>
<path d="M95.1382 85L94.628 85.1947L94.7621 85.5462H95.1382V85ZM74.2526 30.2671L73.7408 30.4579L73.7423 30.4618L74.2526 30.2671ZM68.5925 21.494L68.104 21.2497L67.8875 21.6828L68.2914 21.9497L68.5925 21.494ZM68.7057 21.2676V20.7214H68.3682L68.2172 21.0233L68.7057 21.2676ZM88.6292 21.2676L89.1177 21.0233L88.9667 20.7214H88.6292V21.2676ZM88.7424 21.494L89.009 21.9707L89.4641 21.7161L89.2309 21.2497L88.7424 21.494ZM88.0632 30.2671L88.5731 30.0715L88.5728 30.0708L88.0632 30.2671ZM104.647 73.5101L105.164 73.6881L105.228 73.5001L105.157 73.3145L104.647 73.5101ZM100.685 85V85.5462H101.075L101.201 85.178L100.685 85ZM122.816 21.2676V20.7214H122.432L122.302 21.0827L122.816 21.2676ZM126.325 21.2676L126.833 21.4699L127.131 20.7214H126.325V21.2676ZM100.912 85V85.5462H101.282L101.419 85.2023L100.912 85ZM99.8927 85L99.3788 84.8151L99.1158 85.5462H99.8927V85ZM130.231 85L129.72 85.1941L129.854 85.5462H130.231V85ZM106.006 21.2676V20.7214H105.214L105.495 21.4617L106.006 21.2676ZM119.477 21.2676L119.987 21.073L119.853 20.7214H119.477V21.2676ZM139.4 73.5101L139.917 73.6858L139.98 73.4994L139.91 73.3154L139.4 73.5101ZM135.495 85V85.5462H135.886L136.012 85.1758L135.495 85ZM163.399 21.2676L163.887 21.0233L163.736 20.7214H163.399V21.2676ZM163.512 21.494L163.792 21.9631L164.227 21.7033L164 21.2497L163.512 21.494ZM157.625 30.2671L158.133 30.4701L158.135 30.4649L157.625 30.2671ZM135.721 85V85.5462H136.091L136.228 85.2029L135.721 85ZM134.646 85L134.132 84.8151L133.869 85.5462H134.646V85ZM154.343 30.2671L154.857 30.4521L154.86 30.4425L154.343 30.2671ZM153.437 21.494L152.948 21.2497L152.732 21.6828L153.136 21.9497L153.437 21.494ZM153.55 21.2676V20.7214H153.213L153.062 21.0233L153.55 21.2676ZM111.1 22.1732H110.553V22.7194H111.1V22.1732ZM111.1 21.2676V20.7214H110.553V21.2676H111.1ZM124.457 21.2676H125.004V20.7214H124.457V21.2676ZM124.457 22.1732V22.7194H125.004V22.1732H124.457ZM95.6485 84.8053L74.7629 30.0724L73.7423 30.4618L94.628 85.1947L95.6485 84.8053ZM74.7643 30.0763C73.0941 25.597 71.1567 22.5336 68.8936 21.0383L68.2914 21.9497C70.2545 23.2467 72.0905 26.032 73.7408 30.4579L74.7643 30.0763ZM69.081 21.7383L69.1942 21.5119L68.2172 21.0233L68.104 21.2497L69.081 21.7383ZM68.7057 21.8138H72.6112V20.7214H68.7057V21.8138ZM72.6112 21.8138H84.6671V20.7214H72.6112V21.8138ZM84.6671 21.8138H88.6292V20.7214H84.6671V21.8138ZM88.1406 21.5119L88.2539 21.7383L89.2309 21.2497L89.1177 21.0233L88.1406 21.5119ZM88.4757 21.0173C87.1771 21.7437 86.4831 22.9664 86.3583 24.579C86.2359 26.1596 86.6549 28.1309 87.5535 30.4635L88.5728 30.0708C87.6979 27.7998 87.3434 26.0071 87.4474 24.6633C87.5489 23.3516 88.0813 22.4895 89.009 21.9707L88.4757 21.0173ZM87.5532 30.4627L104.137 73.7056L105.157 73.3145L88.5731 30.0715L87.5532 30.4627ZM104.131 73.332L100.169 84.822L101.201 85.178L105.164 73.6881L104.131 73.332ZM100.685 84.4538H95.1382V85.5462H100.685V84.4538ZM122.816 21.8138H126.325V20.7214H122.816V21.8138ZM125.818 21.0653L100.404 84.7977L101.419 85.2023L126.833 21.4699L125.818 21.0653ZM100.912 84.4538H99.8927V85.5462H100.912V84.4538ZM100.407 85.1849L123.33 21.4525L122.302 21.0827L99.3788 84.8151L100.407 85.1849ZM130.741 84.8059L106.516 21.0735L105.495 21.4617L129.72 85.1941L130.741 84.8059ZM106.006 21.8138H119.477V20.7214H106.006V21.8138ZM118.966 21.4622L138.89 73.7047L139.91 73.3154L119.987 21.073L118.966 21.4622ZM138.883 73.3343L134.977 84.8242L136.012 85.1758L139.917 73.6858L138.883 73.3343ZM135.495 84.4538H130.231V85.5462H135.495V84.4538ZM157.512 21.8138H159.437V20.7214H157.512V21.8138ZM159.437 21.8138H163.399V20.7214H159.437V21.8138ZM162.91 21.5119L163.023 21.7383L164 21.2497L163.887 21.0233L162.91 21.5119ZM163.232 21.0249C160.915 22.4068 158.898 25.4822 157.116 30.0694L158.135 30.4649C159.9 25.9204 161.807 23.1471 163.792 21.9631L163.232 21.0249ZM157.118 30.0642L135.214 84.7971L136.228 85.2029L158.133 30.47L157.118 30.0642ZM135.721 84.4538H134.646V85.5462H135.721V84.4538ZM135.159 85.1849L154.857 30.4521L153.829 30.0822L134.132 84.8151L135.159 85.1849ZM154.86 30.4425C155.626 28.1813 155.954 26.2516 155.791 24.6783C155.627 23.0826 154.954 21.8416 153.738 21.0383L153.136 21.9497C154.033 22.5425 154.568 23.4618 154.705 24.7905C154.844 26.1416 154.568 27.9003 153.825 30.0918L154.86 30.4425ZM153.925 21.7383L154.039 21.5119L153.062 21.0233L152.948 21.2497L153.925 21.7383ZM153.55 21.8138H157.512V20.7214H153.55V21.8138ZM111.646 22.1732V21.2676H110.553V22.1732H111.646ZM111.1 21.8138H124.457V20.7214H111.1V21.8138ZM123.911 21.2676V22.1732H125.004V21.2676H123.911ZM124.457 21.627H111.1V22.7194H124.457V21.627ZM213.97 85L213.482 85.2443L213.633 85.5462H213.97V85ZM213.857 84.7736L213.588 84.2984L213.137 84.5541L213.369 85.0179L213.857 84.7736ZM216.404 75.4911L215.86 75.5399L215.862 75.5537L216.404 75.4911ZM213.518 43.2853L214.062 43.2365L214.061 43.2331L213.518 43.2853ZM209.329 28.5691L208.877 28.8758L208.879 28.8783L209.329 28.5691ZM190.481 29.1917L190.928 29.5056L190.93 29.5033L190.481 29.1917ZM186.745 42.9457V43.4918H187.292V42.9457H186.745ZM185.953 42.9457H185.407V43.4918H185.953V42.9457ZM191.217 26.4183L190.81 26.0542L191.217 26.4183ZM220.423 25.9089L220.041 26.2991L220.043 26.3011L220.423 25.9089ZM226.875 40.9646L226.332 41.0184L226.332 41.019L226.875 40.9646ZM230.328 75.4911L230.872 75.4409L230.871 75.4367L230.328 75.4911ZM234.29 84.7736L234.778 85.0179L235.007 84.5608L234.566 84.3024L234.29 84.7736ZM234.177 85V85.5462H234.514L234.665 85.2443L234.177 85ZM170.048 85L169.56 85.2443L169.711 85.5462H170.048V85ZM169.935 84.7736L169.655 84.3045L169.22 84.5643L169.446 85.0179L169.935 84.7736ZM169.595 4.79679H169.049V5.22819L169.469 5.32812L169.595 4.79679ZM169.595 4.57039L169.448 4.04436L169.049 4.1559V4.57039H169.595ZM173.444 3.49497L173.322 2.96263L173.31 2.9655L173.297 2.96894L173.444 3.49497ZM186.519 0.495137L187.065 0.501717L187.073 -0.192455L186.397 -0.0372087L186.519 0.495137ZM186.066 38.078L185.52 38.0714L185.513 38.6242H186.066V38.078ZM186.745 38.078H187.292V37.5318H186.745V38.078ZM189.972 84.7736L190.46 85.0179L190.687 84.5643L190.251 84.3045L189.972 84.7736ZM189.858 85V85.5462H190.196L190.347 85.2443L189.858 85ZM230.215 84.4538H217.932V85.5462H230.215V84.4538ZM217.932 84.4538H213.97V85.5462H217.932V84.4538ZM214.459 84.7557L214.346 84.5293L213.369 85.0179L213.482 85.2443L214.459 84.7557ZM214.126 85.2488C216.711 83.7844 217.515 80.3506 216.947 75.4285L215.862 75.5537C216.426 80.4424 215.532 83.1969 213.588 84.2984L214.126 85.2488ZM216.948 75.4423L214.062 43.2365L212.974 43.334L215.86 75.5398L216.948 75.4423ZM214.061 43.2331C213.417 36.5228 212.009 31.5063 209.779 28.2599L208.879 28.8783C210.951 31.8957 212.335 36.6899 212.974 43.3375L214.061 43.2331ZM209.781 28.2624C207.526 24.9386 204.316 23.2685 200.216 23.2685V24.3608C203.965 24.3608 206.831 25.8603 208.877 28.8758L209.781 28.2624ZM200.216 23.2685C196.019 23.2685 192.614 25.1642 190.032 28.8801L190.93 29.5033C193.329 26.0498 196.414 24.3608 200.216 24.3608V23.2685ZM190.034 28.8778C187.462 32.5406 186.199 37.2442 186.199 42.9457H187.292C187.292 37.4024 188.519 32.9367 190.928 29.5055L190.034 28.8778ZM186.745 42.3995H185.953V43.4918H186.745V42.3995ZM186.499 42.9457C186.499 35.9388 188.231 30.5761 191.624 26.7823L190.81 26.0542C187.184 30.109 185.407 35.7646 185.407 42.9457H186.499ZM191.624 26.7823C195.01 22.9959 199.736 21.078 205.876 21.078V19.9856C199.489 19.9856 194.442 21.992 190.81 26.0542L191.624 26.7823ZM205.876 21.078C211.798 21.078 216.501 22.832 220.041 26.2991L220.805 25.5186C217.025 21.8163 212.029 19.9856 205.876 19.9856V21.078ZM220.043 26.3011C223.587 29.7354 225.699 34.62 226.332 41.0184L227.419 40.9109C226.768 34.3289 224.579 29.1763 220.803 25.5166L220.043 26.3011ZM226.332 41.019L229.784 75.5454L230.871 75.4367L227.419 40.9103L226.332 41.019ZM229.784 75.5413C230.239 80.4687 231.577 83.8164 234.014 85.2448L234.566 84.3024C232.626 83.1649 231.323 80.3242 230.872 75.4409L229.784 75.5413ZM233.801 84.5293L233.688 84.7557L234.665 85.2443L234.778 85.0179L233.801 84.5293ZM234.177 84.4538H230.215V85.5462H234.177V84.4538ZM185.953 84.4538H174.01V85.5462H185.953V84.4538ZM174.01 84.4538H170.048V85.5462H174.01V84.4538ZM170.537 84.7557L170.423 84.5293L169.446 85.0179L169.56 85.2443L170.537 84.7557ZM170.215 85.2427C172.64 83.796 173.707 80.4129 173.707 75.4911H172.615C172.615 80.38 171.532 83.1853 169.655 84.3045L170.215 85.2427ZM173.707 75.4911V13.0039H172.615V75.4911H173.707ZM173.707 13.0039C173.707 10.5185 173.408 8.52227 172.771 7.05542C172.125 5.5688 171.115 4.59717 169.722 4.26547L169.469 5.32812C170.453 5.56242 171.226 6.24164 171.769 7.49072C172.32 8.75958 172.615 10.5839 172.615 13.0039H173.707ZM170.142 4.79679V4.57039H169.049V4.79679H170.142ZM169.742 5.09642L173.591 4.021L173.297 2.96894L169.448 4.04436L169.742 5.09642ZM173.566 4.02732L186.641 1.02748L186.397 -0.0372087L173.322 2.96263L173.566 4.02732ZM185.973 0.488557L185.52 38.0714L186.612 38.0846L187.065 0.501717L185.973 0.488557ZM186.066 38.6242H186.745V37.5318H186.066V38.6242ZM186.199 38.078V75.4911H187.292V38.078H186.199ZM186.199 75.4911C186.199 80.4129 187.267 83.796 189.692 85.2427L190.251 84.3045C188.375 83.1853 187.292 80.38 187.292 75.4911H186.199ZM189.483 84.5293L189.37 84.7557L190.347 85.2443L190.46 85.0179L189.483 84.5293ZM189.858 84.4538H185.953V85.5462H189.858V84.4538ZM249.26 77.2457L248.867 77.6256L248.869 77.6269L249.26 77.2457ZM249.656 29.8143L249.265 29.4329L249.264 29.4341L249.656 29.8143ZM296.125 29.4747L296.517 29.0948L296.125 29.4747ZM288.88 42.4363L289.392 42.2441L289.39 42.241L288.88 42.4363ZM279.654 27.7767L279.274 28.1687L279.276 28.1706L279.654 27.7767ZM256.901 28.1729L256.446 27.8709L256.444 27.874L256.901 28.1729ZM256.448 64.0011L255.934 64.1848L255.934 64.1858L256.448 64.0011ZM265.221 79.0569L264.827 79.4351L264.829 79.4371L265.221 79.0569ZM295.224 76.2994C289.223 82.4855 281.558 85.5858 272.183 85.5858V86.6782C281.826 86.6782 289.783 83.477 296.008 77.06L295.224 76.2994ZM272.183 85.5858C262.797 85.5858 255.306 82.6672 249.651 76.8645L248.869 77.6269C254.76 83.6726 262.551 86.6782 272.183 86.6782V85.5858ZM249.652 76.8658C244.032 71.0612 241.203 63.3956 241.203 53.813H240.11C240.11 63.6256 243.016 71.5818 248.867 77.6256L249.652 76.8658ZM241.203 53.813C241.203 44.1229 244.161 36.2666 250.048 30.1945L249.264 29.4341C243.151 35.7387 240.11 43.8815 240.11 53.813H241.203ZM250.047 30.1957C255.969 24.1251 263.652 21.078 273.145 21.078V19.9856C263.394 19.9856 255.417 23.1268 249.265 29.4329L250.047 30.1957ZM273.145 21.078C282.568 21.078 290.078 24.0152 295.733 29.8546L296.517 29.0948C290.626 23.0103 282.816 19.9856 273.145 19.9856V21.078ZM295.733 29.8546C301.395 35.7014 304.239 43.2188 304.239 52.4546H305.331C305.331 42.9744 302.402 35.1719 296.517 29.0948L295.733 29.8546ZM304.239 52.4546C304.239 62.1799 301.225 70.1125 295.224 76.2994L296.008 77.06C302.232 70.6438 305.331 62.4263 305.331 52.4546H304.239ZM276.937 85.2066C281.847 85.2066 285.765 83.0508 288.653 78.7977L287.749 78.1841C285.052 82.157 281.462 84.1142 276.937 84.1142V85.2066ZM288.653 78.7977C291.527 74.564 292.936 68.8783 292.936 61.7937H291.843C291.843 68.7461 290.459 74.1919 287.749 78.1841L288.653 78.7977ZM292.936 61.7937C292.936 55.0495 291.754 48.5319 289.391 42.2441L288.369 42.6284C290.685 48.7928 291.843 55.1802 291.843 61.7937H292.936ZM289.39 42.241C287.029 36.0705 283.914 31.1103 280.033 27.3828L279.276 28.1706C283.017 31.7634 286.053 36.5762 288.37 42.6315L289.39 42.241ZM280.035 27.3846C276.189 23.6543 272.116 21.7402 267.825 21.7402V22.8326C271.759 22.8326 275.573 24.5787 279.274 28.1687L280.035 27.3846ZM267.825 21.7402C262.961 21.7402 259.15 23.7953 256.446 27.8709L257.356 28.4748C259.859 24.7019 263.33 22.8326 267.825 22.8326V21.7402ZM256.444 27.874C253.799 31.9191 252.506 37.414 252.506 44.3041H253.598C253.598 37.5345 254.871 32.2753 257.358 28.4718L256.444 27.874ZM252.506 44.3041C252.506 51.1582 253.648 57.7861 255.934 64.1848L256.962 63.8174C254.72 57.5377 253.598 51.0341 253.598 44.3041H252.506ZM255.934 64.1858C258.217 70.5393 261.176 75.6304 264.827 79.4351L265.615 78.6788C262.097 75.0122 259.207 70.0661 256.962 63.8165L255.934 64.1858ZM264.829 79.4371C268.528 83.2515 272.567 85.2066 276.937 85.2066V84.1142C272.931 84.1142 269.159 82.3336 265.613 78.6767L264.829 79.4371ZM27.068 174L26.5577 174.195L26.6918 174.546H27.068V174ZM6.1823 119.267L5.67053 119.458L5.67201 119.462L6.1823 119.267ZM0.522231 110.494L0.033715 110.25L-0.182811 110.683L0.221147 110.95L0.522231 110.494ZM0.635432 110.268V109.721H0.297876L0.146916 110.023L0.635432 110.268ZM20.5589 110.268L21.0474 110.023L20.8964 109.721H20.5589V110.268ZM20.6721 110.494L20.9387 110.971L21.3938 110.716L21.1606 110.25L20.6721 110.494ZM19.9929 119.267L20.5028 119.072L20.5025 119.071L19.9929 119.267ZM36.5769 162.51L37.0932 162.688L37.158 162.5L37.0868 162.314L36.5769 162.51ZM32.6148 174V174.546H33.0042L33.1312 174.178L32.6148 174ZM54.7457 110.268V109.721H54.3617L54.2318 110.083L54.7457 110.268ZM58.255 110.268L58.7623 110.47L59.0607 109.721H58.255V110.268ZM32.8412 174V174.546H33.2114L33.3486 174.202L32.8412 174ZM31.8224 174L31.3085 173.815L31.0455 174.546H31.8224V174ZM62.1604 174L61.6499 174.194L61.7837 174.546H62.1604V174ZM37.9353 110.268V109.721H37.1434L37.4248 110.462L37.9353 110.268ZM51.4063 110.268L51.9166 110.073L51.7825 109.721H51.4063V110.268ZM71.3297 162.51L71.8468 162.686L71.9102 162.499L71.84 162.315L71.3297 162.51ZM67.4243 174V174.546H67.8155L67.9414 174.176L67.4243 174ZM95.3284 110.268L95.8169 110.023L95.666 109.721H95.3284V110.268ZM95.4416 110.494L95.7214 110.963L96.1569 110.703L95.9301 110.25L95.4416 110.494ZM89.5552 119.267L90.0623 119.47L90.0643 119.465L89.5552 119.267ZM67.6507 174V174.546H68.0204L68.1578 174.203L67.6507 174ZM66.5753 174L66.0614 173.815L65.7982 174.546H66.5753V174ZM86.2723 119.267L86.7863 119.452L86.7896 119.442L86.2723 119.267ZM85.3667 110.494L84.8782 110.25L84.6617 110.683L85.0656 110.95L85.3667 110.494ZM85.4799 110.268V109.721H85.1423L84.9914 110.023L85.4799 110.268ZM43.0294 111.173H42.4832V111.719H43.0294V111.173ZM43.0294 110.268V109.721H42.4832V110.268H43.0294ZM56.3871 110.268H56.9333V109.721H56.3871V110.268ZM56.3871 111.173V111.719H56.9333V111.173H56.3871ZM27.5783 173.805L6.69259 119.072L5.67201 119.462L26.5577 174.195L27.5783 173.805ZM6.69406 119.076C5.02382 114.597 3.08644 111.534 0.823315 110.038L0.221147 110.95C2.1842 112.247 4.02021 115.032 5.67054 119.458L6.69406 119.076ZM1.01075 110.738L1.12395 110.512L0.146916 110.023L0.033715 110.25L1.01075 110.738ZM0.635432 110.814H4.54088V109.721H0.635432V110.814ZM4.54088 110.814H16.5968V109.721H4.54088V110.814ZM16.5968 110.814H20.5589V109.721H16.5968V110.814ZM20.0704 110.512L20.1836 110.738L21.1606 110.25L21.0474 110.023L20.0704 110.512ZM20.4055 110.017C19.1068 110.744 18.4129 111.966 18.288 113.579C18.1656 115.16 18.5846 117.131 19.4832 119.463L20.5025 119.071C19.6277 116.8 19.2731 115.007 19.3771 113.663C19.4787 112.352 20.011 111.49 20.9387 110.971L20.4055 110.017ZM19.4829 119.463L36.0669 162.706L37.0868 162.314L20.5028 119.072L19.4829 119.463ZM36.0605 162.332L32.0985 173.822L33.1312 174.178L37.0932 162.688L36.0605 162.332ZM32.6148 173.454H27.068V174.546H32.6148V173.454ZM54.7457 110.814H58.255V109.721H54.7457V110.814ZM57.7476 110.065L32.3339 173.798L33.3486 174.202L58.7623 110.47L57.7476 110.065ZM32.8412 173.454H31.8224V174.546H32.8412V173.454ZM32.3364 174.185L55.2597 110.452L54.2318 110.083L31.3085 173.815L32.3364 174.185ZM62.6709 173.806L38.4458 110.074L37.4248 110.462L61.6499 174.194L62.6709 173.806ZM37.9353 110.814H51.4063V109.721H37.9353V110.814ZM50.8959 110.462L70.8194 162.705L71.84 162.315L51.9166 110.073L50.8959 110.462ZM70.8126 162.334L66.9072 173.824L67.9414 174.176L71.8468 162.686L70.8126 162.334ZM67.4243 173.454H62.1604V174.546H67.4243V173.454ZM89.4419 110.814H91.3664V109.721H89.4419V110.814ZM91.3664 110.814H95.3284V109.721H91.3664V110.814ZM94.8399 110.512L94.9531 110.738L95.9301 110.25L95.8169 110.023L94.8399 110.512ZM95.1618 110.025C92.8451 111.407 90.8278 114.482 89.046 119.069L90.0643 119.465C91.8295 114.92 93.7364 112.147 95.7214 110.963L95.1618 110.025ZM89.0481 119.064L67.1436 173.797L68.1578 174.203L90.0622 119.47L89.0481 119.064ZM67.6507 173.454H66.5753V174.546H67.6507V173.454ZM67.0892 174.185L86.7862 119.452L85.7584 119.082L66.0614 173.815L67.0892 174.185ZM86.7896 119.442C87.5561 117.181 87.8836 115.252 87.7212 113.678C87.5565 112.083 86.8836 110.842 85.6678 110.038L85.0656 110.95C85.9629 111.543 86.4975 112.462 86.6346 113.79C86.7741 115.142 86.4979 116.9 85.755 119.092L86.7896 119.442ZM85.8552 110.738L85.9684 110.512L84.9914 110.023L84.8782 110.25L85.8552 110.738ZM85.4799 110.814H89.4419V109.721H85.4799V110.814ZM43.5755 111.173V110.268H42.4832V111.173H43.5755ZM43.0294 110.814H56.3871V109.721H43.0294V110.814ZM55.841 110.268V111.173H56.9333V110.268H55.841ZM56.3871 110.627H43.0294V111.719H56.3871V110.627ZM106.846 165.963L106.454 166.344L106.456 166.345L106.846 165.963ZM107.695 118.928L108.08 119.315L108.081 119.314L107.695 118.928ZM150.145 115.871L149.774 116.272L149.776 116.273L150.145 115.871ZM158.692 134.38L158.689 134.926L159.317 134.929L159.233 134.306L158.692 134.38ZM106.336 134.096L105.796 134.013L105.7 134.639L106.333 134.643L106.336 134.096ZM106.563 132.625L106.539 132.079L106.091 132.099L106.023 132.542L106.563 132.625ZM146.523 130.87L146.942 131.22L147.733 130.27L146.499 130.325L146.523 130.87ZM145.957 131.549L145.411 131.583L145.496 132.956L146.376 131.899L145.957 131.549ZM139.674 117.286L139.28 117.665L139.282 117.667L139.674 117.286ZM114.826 116.946L115.266 117.271L115.267 117.269L114.826 116.946ZM114.204 150.454L114.704 150.234L114.702 150.232L114.204 150.454ZM151.956 161.887L152.333 162.283L152.335 162.281L151.956 161.887ZM157.899 147.341V146.795H157.363L157.353 147.331L157.899 147.341ZM158.805 147.341H159.351V146.795H158.805V147.341ZM150.598 166.812L150.22 166.417L150.219 166.419L150.598 166.812ZM129.486 174.133C120.212 174.133 112.815 171.27 107.236 165.58L106.456 166.345C112.272 172.277 119.968 175.225 129.486 175.225V174.133ZM107.237 165.582C101.655 159.852 98.845 152.282 98.845 142.813H97.7526C97.7526 152.513 100.64 160.376 106.454 166.344L107.237 165.582ZM98.845 142.813C98.845 133.245 101.93 125.428 108.08 119.315L107.309 118.54C100.932 124.879 97.7526 132.986 97.7526 142.813H98.845ZM108.081 119.314C114.23 113.165 122.16 110.078 131.92 110.078V108.986C121.907 108.986 113.687 112.163 107.308 118.541L108.081 119.314ZM131.92 110.078C139.398 110.078 145.33 112.159 149.774 116.272L150.516 115.47C145.828 111.131 139.61 108.986 131.92 108.986V110.078ZM149.776 116.273C154.259 120.39 157.068 126.427 158.15 134.453L159.233 134.306C158.127 126.107 155.238 119.805 150.514 115.469L149.776 116.273ZM158.695 133.833L106.339 133.55L106.333 134.643L158.689 134.926L158.695 133.833ZM106.876 134.18L107.102 132.708L106.023 132.542L105.796 134.013L106.876 134.18ZM106.586 133.171L146.547 131.416L146.499 130.325L106.539 132.079L106.586 133.171ZM146.103 130.521L145.537 131.2L146.376 131.899L146.942 131.22L146.103 130.521ZM146.502 131.516C146.154 125.84 144.006 120.962 140.066 116.906L139.282 117.667C143.039 121.534 145.08 126.165 145.411 131.583L146.502 131.516ZM140.067 116.907C136.128 112.813 131.556 110.74 126.373 110.74V111.833C131.226 111.833 135.522 113.759 139.28 117.665L140.067 116.907ZM126.373 110.74C121.267 110.74 117.249 112.701 114.385 116.624L115.267 117.269C117.912 113.645 121.592 111.833 126.373 111.833V110.74ZM114.387 116.622C111.537 120.487 110.148 125.92 110.148 132.851H111.241C111.241 126.047 112.607 120.877 115.266 117.271L114.387 116.622ZM110.148 132.851C110.148 139.408 111.33 145.353 113.705 150.677L114.702 150.232C112.398 145.065 111.241 139.275 111.241 132.851H110.148ZM113.704 150.674C116.075 156.067 119.299 160.298 123.386 163.344L124.039 162.468C120.127 159.553 117.011 155.483 114.704 150.234L113.704 150.674ZM123.386 163.344C127.478 166.394 132.025 167.924 137.014 167.924V166.832C132.267 166.832 127.947 165.381 124.039 162.468L123.386 163.344ZM137.014 167.924C143.244 167.924 148.367 166.055 152.333 162.283L151.58 161.492C147.848 165.041 143.009 166.832 137.014 166.832V167.924ZM152.335 162.281C156.302 158.47 158.33 153.476 158.445 147.351L157.353 147.331C157.242 153.205 155.309 157.909 151.578 161.494L152.335 162.281ZM157.899 147.887H158.805V146.795H157.899V147.887ZM158.259 147.341C158.259 154.931 155.581 161.278 150.22 166.417L150.976 167.206C156.557 161.856 159.351 155.222 159.351 147.341H158.259ZM150.219 166.419C144.902 171.551 138.007 174.133 129.486 174.133V175.225C138.246 175.225 145.427 172.562 150.977 167.205L150.219 166.419ZM238.374 174L237.83 174.049L237.875 174.546H238.374V174ZM234.582 132.285L235.126 132.236L235.126 132.235L234.582 132.285ZM199.659 121.248L199.204 120.946L199.203 120.947L199.659 121.248ZM197.226 125.437V125.983H197.581L197.725 125.658L197.226 125.437ZM196.66 125.437H196.113V125.983H196.66V125.437ZM196.66 110.72L196.616 110.176L196.113 110.216V110.72H196.66ZM234.695 111.173L234.849 110.649L234.842 110.647L234.834 110.645L234.695 111.173ZM243.299 116.89L242.852 117.204L242.857 117.212L243.299 116.89ZM246.864 127.87L246.321 127.923L246.321 127.925L246.864 127.87ZM250.543 164.491L251.088 164.452L251.088 164.444L251.087 164.436L250.543 164.491ZM254.392 173.774L254.881 174.018L255.097 173.585L254.693 173.318L254.392 173.774ZM254.279 174V174.546H254.617L254.768 174.244L254.279 174ZM196.207 169.868L195.827 170.26L195.829 170.262L196.207 169.868ZM195.98 142.587L195.567 142.23L195.563 142.234L195.98 142.587ZM238.714 123.795H239.26V123.123L238.602 123.261L238.714 123.795ZM238.714 124.361L238.826 124.896L239.26 124.805V124.361H238.714ZM207.244 166.189L206.784 166.484L206.786 166.487L207.244 166.189ZM216.243 172.019V172.565L216.249 172.565L216.243 172.019ZM226.432 166.642L226.845 166.998L226.847 166.996L226.432 166.642ZM233.28 152.096L233.81 152.226L233.811 152.226L233.28 152.096ZM234.582 132.285V131.739H233.984L234.038 132.335L234.582 132.285ZM235.374 132.285L235.917 132.22L235.859 131.739H235.374V132.285ZM234.129 154.926L233.603 154.778L233.603 154.78L234.129 154.926ZM238.918 173.951L235.126 132.236L234.038 132.335L237.83 174.049L238.918 173.951ZM235.126 132.235C234.479 125.248 232.568 119.923 229.327 116.34C226.071 112.74 221.533 110.967 215.791 110.967V112.059C221.293 112.059 225.51 113.748 228.517 117.072C231.539 120.413 233.403 125.474 234.038 132.336L235.126 132.235ZM215.791 110.967C209.115 110.967 203.583 114.34 199.204 120.946L200.115 121.55C204.339 115.176 209.561 112.059 215.791 112.059V110.967ZM199.203 120.947C198.029 122.728 197.198 124.154 196.726 125.215L197.725 125.658C198.159 124.682 198.95 123.315 200.115 121.549L199.203 120.947ZM197.226 124.89H196.66V125.983H197.226V124.89ZM197.206 125.437V110.72H196.113V125.437H197.206ZM196.703 111.265C206.548 110.473 213.983 110.078 219.017 110.078V108.986C213.938 108.986 206.468 109.383 196.616 110.176L196.703 111.265ZM219.017 110.078C225.291 110.078 230.467 110.623 234.556 111.701L234.834 110.645C230.623 109.535 225.346 108.986 219.017 108.986V110.078ZM234.541 111.697C238.299 112.802 241.051 114.647 242.852 117.204L243.745 116.575C241.773 113.774 238.789 111.808 234.849 110.649L234.541 111.697ZM242.857 117.212C244.704 119.747 245.873 123.301 246.321 127.923L247.408 127.818C246.95 123.082 245.742 119.316 243.74 116.568L242.857 117.212ZM246.321 127.925L250 164.546L251.087 164.436L247.408 127.816L246.321 127.925ZM249.999 164.53C250.341 169.291 251.644 172.612 254.091 174.229L254.693 173.318C252.688 171.992 251.425 169.125 251.088 164.452L249.999 164.53ZM253.904 173.529L253.791 173.756L254.768 174.244L254.881 174.018L253.904 173.529ZM254.279 173.454H250.317V174.546H254.279V173.454ZM250.317 173.454H238.374V174.546H250.317V173.454ZM210.47 174.586C204.739 174.586 200.128 172.871 196.585 169.474L195.829 170.262C199.606 173.884 204.504 175.678 210.47 175.678V174.586ZM196.587 169.476C193.08 166.079 191.319 161.735 191.319 156.397H190.227C190.227 162.003 192.088 166.639 195.827 170.26L196.587 169.476ZM191.319 156.397C191.319 151.44 193.004 146.959 196.398 142.939L195.563 142.234C192.013 146.44 190.227 151.166 190.227 156.397H191.319ZM196.394 142.943C203.172 135.091 217.255 128.855 238.826 124.33L238.602 123.261C217.005 127.791 202.599 134.083 195.567 142.23L196.394 142.943ZM238.168 123.795V124.361H239.26V123.795H238.168ZM238.602 123.827C225.755 126.509 216.579 129.906 211.157 134.059L211.821 134.926C217.04 130.929 226.014 127.571 238.826 124.896L238.602 123.827ZM211.157 134.059C205.685 138.25 202.962 144.174 202.962 151.756H204.054C204.054 144.471 206.652 138.886 211.821 134.926L211.157 134.059ZM202.962 151.756C202.962 157.571 204.225 162.49 206.784 166.484L207.704 165.894C205.282 162.115 204.054 157.412 204.054 151.756H202.962ZM206.786 166.487C209.377 170.471 212.527 172.565 216.243 172.565V171.473C213.016 171.473 210.167 169.681 207.702 165.891L206.786 166.487ZM216.249 172.565C220.18 172.525 223.714 170.632 226.845 166.998L226.018 166.285C223.036 169.746 219.778 171.437 216.238 171.473L216.249 172.565ZM226.847 166.996C229.974 163.329 232.287 158.395 233.81 152.226L232.75 151.965C231.254 158.022 229.002 162.785 226.016 166.288L226.847 166.996ZM233.811 152.226C235.336 146.01 235.772 139.345 235.126 132.236L234.038 132.335C234.675 139.338 234.243 145.88 232.75 151.965L233.811 152.226ZM234.582 132.831H235.374V131.739H234.582V132.831ZM234.832 132.35C235.845 140.824 235.429 148.296 233.603 154.778L234.655 155.074C236.528 148.423 236.942 140.802 235.917 132.22L234.832 132.35ZM233.603 154.78C231.813 161.229 228.9 166.123 224.891 169.507L225.595 170.342C229.812 166.783 232.823 161.678 234.656 155.072L233.603 154.78ZM224.891 169.507C220.883 172.89 216.086 174.586 210.47 174.586V175.678C216.325 175.678 221.377 173.903 225.595 170.342L224.891 169.507ZM263.476 174L262.987 174.244L263.138 174.546H263.476V174ZM263.362 173.774L263.063 173.317L262.656 173.583L262.874 174.018L263.362 173.774ZM263.023 114.513H262.477V114.939L262.89 115.043L263.023 114.513ZM263.023 114.286L262.879 113.759L262.477 113.869V114.286H263.023ZM266.758 113.267L266.637 112.735L266.626 112.737L266.615 112.741L266.758 113.267ZM279.946 110.268L280.492 110.28L280.509 109.58L279.825 109.735L279.946 110.268ZM279.607 124.871L279.061 124.858L279.048 125.417H279.607V124.871ZM280.173 124.871H280.719V124.324H280.173V124.871ZM283.456 173.774L283.944 174.018L284.173 173.561L283.732 173.302L283.456 173.774ZM283.342 174V174.546H283.68L283.831 174.244L283.342 174ZM280.173 132.512V133.058H280.719V132.512H280.173ZM279.494 132.512L278.948 132.543L278.978 133.058H279.494V132.512ZM282.946 115.645L282.494 115.339L282.493 115.34L282.946 115.645ZM304.171 111.4H304.718V111.06L304.413 110.91L304.171 111.4ZM304.171 126.965V127.511H304.718V126.965H304.171ZM303.719 126.965L303.204 127.148L303.333 127.511H303.719V126.965ZM298.455 118.871L298.093 119.28L298.097 119.283L298.455 118.871ZM283.003 120.06L283.455 120.365L283.457 120.362L283.003 120.06ZM279.38 173.454H267.438V174.546H279.38V173.454ZM267.438 173.454H263.476V174.546H267.438V173.454ZM263.964 173.756L263.851 173.529L262.874 174.018L262.987 174.244L263.964 173.756ZM263.662 174.23C266.096 172.636 267.191 169.283 267.191 164.491H266.099C266.099 169.208 265.006 172.044 263.063 173.317L263.662 174.23ZM267.191 164.491V122.776H266.099V164.491H267.191ZM267.191 122.776C267.191 120.29 266.887 118.289 266.24 116.812C265.584 115.316 264.561 114.334 263.155 113.983L262.89 115.043C263.899 115.295 264.688 115.992 265.239 117.251C265.8 118.529 266.099 120.357 266.099 122.776H267.191ZM263.569 114.513V114.286H262.477V114.513H263.569ZM263.166 114.813L266.902 113.794L266.615 112.741L262.879 113.759L263.166 114.813ZM266.88 113.8L280.068 110.8L279.825 109.735L266.637 112.735L266.88 113.8ZM279.4 110.255L279.061 124.858L280.153 124.883L280.492 110.28L279.4 110.255ZM279.607 125.417H280.173V124.324H279.607V125.417ZM279.627 124.871V164.491H280.719V124.871H279.627ZM279.627 164.491C279.627 169.416 280.714 172.8 283.179 174.245L283.732 173.302C281.82 172.182 280.719 169.377 280.719 164.491H279.627ZM282.967 173.529L282.854 173.756L283.831 174.244L283.944 174.018L282.967 173.529ZM283.342 173.454H279.38V174.546H283.342V173.454ZM280.173 131.966H279.494V133.058H280.173V131.966ZM280.039 132.48C279.627 125.337 280.775 119.85 283.399 115.95L282.493 115.34C279.684 119.514 278.53 125.272 278.948 132.543L280.039 132.48ZM283.399 115.951C286.042 112.039 289.902 110.078 295.059 110.078V108.986C289.574 108.986 285.359 111.099 282.494 115.339L283.399 115.951ZM295.059 110.078C298.543 110.078 301.494 110.69 303.93 111.89L304.413 110.91C301.793 109.619 298.668 108.986 295.059 108.986V110.078ZM303.625 111.4V126.965H304.718V111.4H303.625ZM304.171 126.419H303.719V127.511H304.171V126.419ZM304.233 126.782C303 123.313 301.198 120.531 298.813 118.459L298.097 119.283C300.315 121.211 302.022 123.824 303.204 127.148L304.233 126.782ZM298.817 118.462C296.438 116.356 293.899 115.268 291.21 115.268V116.361C293.577 116.361 295.868 117.311 298.093 119.28L298.817 118.462ZM291.21 115.268C287.454 115.268 284.543 116.765 282.548 119.757L283.457 120.362C285.236 117.694 287.796 116.361 291.21 116.361V115.268ZM282.55 119.754C280.575 122.677 279.627 126.956 279.627 132.512H280.719C280.719 127.049 281.657 123.026 283.455 120.365L282.55 119.754ZM320.217 165.963L319.825 166.344L319.827 166.345L320.217 165.963ZM321.066 118.928L321.451 119.315L321.452 119.314L321.066 118.928ZM363.516 115.871L363.145 116.272L363.147 116.273L363.516 115.871ZM372.063 134.38L372.06 134.926L372.688 134.929L372.604 134.306L372.063 134.38ZM319.707 134.096L319.167 134.013L319.071 134.639L319.704 134.643L319.707 134.096ZM319.934 132.625L319.91 132.079L319.462 132.099L319.394 132.542L319.934 132.625ZM359.894 130.87L360.313 131.22L361.105 130.27L359.87 130.325L359.894 130.87ZM359.328 131.549L358.783 131.583L358.867 132.956L359.747 131.899L359.328 131.549ZM353.045 117.286L352.652 117.665L352.653 117.667L353.045 117.286ZM328.197 116.946L328.637 117.271L328.639 117.269L328.197 116.946ZM327.575 150.454L328.075 150.234L328.074 150.232L327.575 150.454ZM365.327 161.887L365.704 162.283L365.706 162.281L365.327 161.887ZM371.271 147.341V146.795H370.735L370.724 147.331L371.271 147.341ZM372.176 147.341H372.722V146.795H372.176V147.341ZM363.969 166.812L363.591 166.417L363.59 166.419L363.969 166.812ZM342.857 174.133C333.583 174.133 326.186 171.27 320.607 165.58L319.827 166.345C325.643 172.277 333.339 175.225 342.857 175.225V174.133ZM320.608 165.582C315.027 159.852 312.216 152.282 312.216 142.813H311.124C311.124 152.513 314.011 160.376 319.825 166.344L320.608 165.582ZM312.216 142.813C312.216 133.245 315.301 125.428 321.451 119.315L320.681 118.54C314.303 124.879 311.124 132.986 311.124 142.813H312.216ZM321.452 119.314C327.601 113.165 335.531 110.078 345.291 110.078V108.986C335.278 108.986 327.058 112.163 320.679 118.541L321.452 119.314ZM345.291 110.078C352.769 110.078 358.701 112.159 363.145 116.272L363.887 115.47C359.199 111.131 352.981 108.986 345.291 108.986V110.078ZM363.147 116.273C367.631 120.39 370.439 126.427 371.522 134.453L372.604 134.306C371.498 126.107 368.609 119.805 363.886 115.469L363.147 116.273ZM372.066 133.833L319.71 133.55L319.704 134.643L372.06 134.926L372.066 133.833ZM320.247 134.18L320.473 132.708L319.394 132.542L319.167 134.013L320.247 134.18ZM319.958 133.171L359.918 131.416L359.87 130.325L319.91 132.079L319.958 133.171ZM359.474 130.521L358.908 131.2L359.747 131.899L360.313 131.22L359.474 130.521ZM359.873 131.516C359.525 125.84 357.377 120.962 353.437 116.906L352.653 117.667C356.411 121.534 358.451 126.165 358.783 131.583L359.873 131.516ZM353.439 116.907C349.499 112.813 344.928 110.74 339.744 110.74V111.833C344.597 111.833 348.894 113.759 352.652 117.665L353.439 116.907ZM339.744 110.74C334.638 110.74 330.62 112.701 327.756 116.624L328.639 117.269C331.283 113.645 334.963 111.833 339.744 111.833V110.74ZM327.758 116.622C324.908 120.487 323.519 125.92 323.519 132.851H324.612C324.612 126.047 325.978 120.877 328.637 117.271L327.758 116.622ZM323.519 132.851C323.519 139.408 324.701 145.353 327.076 150.677L328.074 150.232C325.769 145.065 324.612 139.275 324.612 132.851H323.519ZM327.075 150.674C329.446 156.067 332.67 160.298 336.757 163.344L337.41 162.468C333.498 159.553 330.383 155.483 328.075 150.234L327.075 150.674ZM336.757 163.344C340.849 166.394 345.396 167.924 350.385 167.924V166.832C345.638 166.832 341.318 165.381 337.41 162.468L336.757 163.344ZM350.385 167.924C356.615 167.924 361.738 166.055 365.704 162.283L364.951 161.492C361.219 165.041 356.38 166.832 350.385 166.832V167.924ZM365.706 162.281C369.673 158.47 371.701 153.476 371.817 147.351L370.724 147.331C370.614 153.205 368.68 157.909 364.949 161.494L365.706 162.281ZM371.271 147.887H372.176V146.795H371.271V147.887ZM371.63 147.341C371.63 154.931 368.953 161.278 363.591 166.417L364.347 167.206C369.928 161.856 372.722 155.222 372.722 147.341H371.63ZM363.59 166.419C358.273 171.551 351.379 174.133 342.857 174.133V175.225C351.617 175.225 358.798 172.562 364.348 167.205L363.59 166.419Z" fill="#EFE9E1" mask="url(#path-1-outside-1_52_527)"/>
</g>
</svg>
