<svg width="1222" height="158" viewBox="0 0 1222 158" fill="none" xmlns="http://www.w3.org/2000/svg">
<g opacity="0.7">
<mask id="path-1-outside-1_52_527" maskUnits="userSpaceOnUse" x="-2" y="-1" width="1225" height="160" fill="black">
<rect fill="white" x="-2" y="-1" width="1225" height="160"/>
<path d="M48.7737 155L10.534 54.7892C7.49419 46.6369 4.03983 41.2826 0.170955 38.7264L0.378216 38.3119H7.52873H29.6021H36.8562L37.0635 38.7264C32.9873 41.0063 32.5728 46.3605 35.8199 54.7892L66.1837 133.963L58.9295 155H48.7737ZM99.4491 38.3119H105.874L59.3441 155H57.4787L99.4491 38.3119ZM113.025 155L68.6708 38.3119H93.3349L129.813 133.963L122.662 155H113.025ZM162.975 38.3119H166.498H173.752L173.96 38.7264C170.022 41.0754 166.429 46.4296 163.182 54.7892L123.077 155H121.108L157.171 54.7892C159.935 46.6369 159.382 41.2826 155.513 38.7264L155.721 38.3119H162.975ZM77.9976 39.97V38.3119H102.454V39.97H77.9976ZM296.086 155H273.598H266.344L266.137 154.585C270.282 152.237 271.837 146.571 270.8 137.59L265.515 78.6242C264.341 66.3958 261.784 57.4145 257.846 51.6802C253.909 45.8769 248.347 42.9753 241.162 42.9753C233.839 42.9753 227.897 46.2569 223.337 52.8202C218.778 59.3144 216.498 67.7085 216.498 78.0024H215.047C215.047 65.0141 218.26 54.9273 224.685 47.7423C231.11 40.5572 240.057 36.9647 251.525 36.9647C262.579 36.9647 271.457 40.2463 278.158 46.8096C284.86 53.3038 288.798 62.4924 289.972 74.3754L296.293 137.59C297.123 146.571 299.541 152.237 303.548 154.585L303.34 155H296.086ZM215.047 155H193.181H185.927L185.72 154.585C189.658 152.237 191.627 146.571 191.627 137.59V23.1818C191.627 14.2005 189.45 9.19168 185.098 8.15537V7.74085L192.145 5.77187L216.083 0.279444L215.254 69.0902H216.498V137.59C216.498 146.571 218.467 152.237 222.405 154.585L222.198 155H215.047ZM413.707 139.766C402.515 151.304 388.214 157.073 370.804 157.073C353.394 157.073 339.404 151.649 328.833 140.803C318.332 129.956 313.082 115.655 313.082 97.8995C313.082 79.9369 318.574 65.2904 329.559 53.9601C340.613 42.6298 354.948 36.9647 372.566 36.9647C390.045 36.9647 404.069 42.4226 414.64 53.3383C425.21 64.2541 430.495 78.2788 430.495 95.4124C430.495 113.444 424.899 128.229 413.707 139.766ZM379.509 154.378C388.145 154.378 395.019 150.613 400.131 143.082C405.244 135.552 407.8 125.362 407.8 112.511C407.8 100.283 405.658 88.4691 401.375 77.0698C397.092 65.8776 391.461 56.9309 384.483 50.2294C377.574 43.528 370.355 40.1772 362.824 40.1772C354.258 40.1772 347.591 43.7698 342.824 50.9548C338.126 58.1399 335.777 67.9848 335.777 80.4896C335.777 92.9252 337.849 104.946 341.995 116.553C346.14 128.091 351.494 137.279 358.057 144.119C364.69 150.958 371.84 154.378 379.509 154.378ZM560.344 155L522.105 54.7892C519.065 46.6369 515.61 41.2826 511.742 38.7264L511.949 38.3119H519.099H541.173H548.427L548.634 38.7264C544.558 41.0063 544.143 46.3605 547.391 54.7892L577.754 133.963L570.5 155H560.344ZM611.02 38.3119H617.445L570.915 155H569.049L611.02 38.3119ZM624.595 155L580.241 38.3119H604.906L641.384 133.963L634.233 155H624.595ZM674.545 38.3119H678.069H685.323L685.53 38.7264C681.592 41.0754 678 46.4296 674.753 54.7892L634.648 155H632.679L668.742 54.7892C671.505 46.6369 670.953 41.2826 667.084 38.7264L667.291 38.3119H674.545ZM589.568 39.97V38.3119H614.025V39.97H589.568ZM745.74 156.244C728.537 156.244 714.719 150.924 704.287 140.284C693.855 129.576 688.639 115.448 688.639 97.8995C688.639 80.1441 694.373 65.5668 705.842 54.1674C717.31 42.6989 732.095 36.9647 750.196 36.9647C764.082 36.9647 775.205 40.8336 783.565 48.5713C791.993 56.3091 797.209 67.6048 799.213 82.4585L703.355 81.9404L703.769 79.246L776.932 76.0334L775.896 77.277C775.274 67.1212 771.44 58.4162 764.393 51.1621C757.346 43.8389 749.228 40.1772 740.04 40.1772C730.989 40.1772 723.943 43.6316 718.899 50.5403C713.856 57.3799 711.334 67.0867 711.334 79.6605C711.334 91.5435 713.476 102.287 717.759 111.89C722.043 121.631 727.846 129.231 735.169 134.688C742.492 140.146 750.61 142.875 759.522 142.875C770.715 142.875 779.834 139.524 786.881 132.823C793.928 126.053 797.555 117.175 797.762 106.19H799.42C799.42 120.353 794.411 132.236 784.394 141.839C774.445 151.442 761.56 156.244 745.74 156.244ZM976.94 155L969.996 78.6242C967.647 53.2692 956.179 40.5918 935.591 40.5918C923.777 40.5918 913.932 46.5333 906.056 58.4162C903.915 61.6633 902.429 64.2196 901.6 66.0849H900.564V39.1409C918.596 37.6901 932.24 36.9647 941.498 36.9647C953.035 36.9647 962.604 37.9665 970.204 39.97C977.25 42.0426 982.501 45.5315 985.955 50.4367C989.479 55.2728 991.655 61.9742 992.484 70.541L999.22 137.59C999.842 146.226 1002.19 151.891 1006.27 154.585L1006.06 155H998.806H976.94ZM925.85 157.073C915.141 157.073 906.436 153.86 899.735 147.435C893.102 141.01 889.786 132.788 889.786 122.771C889.786 113.444 892.964 105.015 899.32 97.485C911.963 82.8385 938.044 71.3701 977.561 63.0796V64.1159C954.072 69.0211 937.456 75.2044 927.715 82.6658C917.974 90.1272 913.103 100.663 913.103 114.273C913.103 124.774 915.383 133.583 919.943 140.699C924.572 147.815 930.064 151.373 936.42 151.373C943.26 151.304 949.477 148.022 955.074 141.528C960.67 134.965 964.849 126.087 967.613 114.895C970.376 103.634 971.171 91.5435 969.996 78.6242H971.447C973.313 94.2379 972.553 108.055 969.167 120.076C965.851 132.029 960.428 141.183 952.897 147.539C945.367 153.895 936.351 157.073 925.85 157.073ZM1054.14 155H1032.27H1025.02L1024.81 154.585C1028.82 151.96 1030.82 146.295 1030.82 137.59V61.2143C1030.82 52.2329 1028.61 47.1896 1024.19 46.0842V45.6697L1031.03 43.8043L1055.18 38.3119L1054.55 65.0486H1055.59V137.59C1055.59 146.571 1057.59 152.237 1061.6 154.585L1061.39 155H1054.14ZM1055.59 79.0387H1054.35C1053.59 65.8431 1055.69 55.5491 1060.67 48.1568C1065.71 40.6954 1073.1 36.9647 1082.85 36.9647C1089.34 36.9647 1094.9 38.1046 1099.53 40.3845V68.8829H1098.7C1096.49 62.6651 1093.28 57.7254 1089.06 54.0637C1084.85 50.333 1080.43 48.4677 1075.8 48.4677C1069.24 48.4677 1064.23 51.0585 1060.77 56.24C1057.32 61.3524 1055.59 68.952 1055.59 79.0387ZM1168.24 156.244C1151.03 156.244 1137.22 150.924 1126.79 140.284C1116.35 129.576 1111.14 115.448 1111.14 97.8995C1111.14 80.1441 1116.87 65.5668 1128.34 54.1674C1139.81 42.6989 1154.59 36.9647 1172.69 36.9647C1186.58 36.9647 1197.7 40.8336 1206.06 48.5713C1214.49 56.3091 1219.71 67.6048 1221.71 82.4585L1125.85 81.9404L1126.27 79.246L1199.43 76.0334L1198.39 77.277C1197.77 67.1212 1193.94 58.4162 1186.89 51.1621C1179.84 43.8389 1171.73 40.1772 1162.54 40.1772C1153.49 40.1772 1146.44 43.6316 1141.4 50.5403C1136.35 57.3799 1133.83 67.0867 1133.83 79.6605C1133.83 91.5435 1135.97 102.287 1140.26 111.89C1144.54 121.631 1150.34 129.231 1157.67 134.688C1164.99 140.146 1173.11 142.875 1182.02 142.875C1193.21 142.875 1202.33 139.524 1209.38 132.823C1216.43 126.053 1220.05 117.175 1220.26 106.19H1221.92C1221.92 120.353 1216.91 132.236 1206.89 141.839C1196.94 151.442 1184.06 156.244 1168.24 156.244Z"/>
</mask>
<path d="M48.7737 155L47.8394 155.357L48.085 156H48.7737V155ZM10.534 54.7892L9.59701 55.1386L9.59973 55.1457L10.534 54.7892ZM0.170955 38.7264L-0.723472 38.2792L-1.11991 39.0721L-0.380302 39.5608L0.170955 38.7264ZM0.378216 38.3119V37.3119H-0.239818L-0.516211 37.8647L0.378216 38.3119ZM36.8562 38.3119L37.7506 37.8647L37.4742 37.3119H36.8562V38.3119ZM37.0635 38.7264L37.5516 39.5992L38.3849 39.1331L37.9579 38.2792L37.0635 38.7264ZM35.8199 54.7892L36.7536 54.4311L36.753 54.4297L35.8199 54.7892ZM66.1837 133.963L67.1291 134.289L67.2477 133.945L67.1174 133.605L66.1837 133.963ZM58.9295 155V156H59.6425L59.8749 155.326L58.9295 155ZM99.4491 38.3119V37.3119H98.7461L98.5081 37.9734L99.4491 38.3119ZM105.874 38.3119L106.803 38.6823L107.35 37.3119H105.874V38.3119ZM59.3441 155V156H60.0219L60.2729 155.37L59.3441 155ZM57.4787 155L56.5377 154.662L56.0563 156H57.4787V155ZM113.025 155L112.09 155.355L112.335 156H113.025V155ZM68.6708 38.3119V37.3119H67.2209L67.7361 38.6672L68.6708 38.3119ZM93.3349 38.3119L94.2693 37.9556L94.0238 37.3119H93.3349V38.3119ZM129.813 133.963L130.76 134.285L130.876 133.943L130.747 133.607L129.813 133.963ZM122.662 155V156H123.379L123.609 155.322L122.662 155ZM173.752 38.3119L174.647 37.8647L174.37 37.3119H173.752V38.3119ZM173.96 38.7264L174.472 39.5852L175.269 39.1096L174.854 38.2792L173.96 38.7264ZM163.182 54.7892L164.11 55.1607L164.114 55.1512L163.182 54.7892ZM123.077 155V156H123.754L124.005 155.372L123.077 155ZM121.108 155L120.167 154.661L119.685 156H121.108V155ZM157.171 54.7892L158.112 55.1278L158.115 55.119L158.118 55.1102L157.171 54.7892ZM155.513 38.7264L154.619 38.2792L154.222 39.0721L154.962 39.5608L155.513 38.7264ZM155.721 38.3119V37.3119H155.103L154.826 37.8647L155.721 38.3119ZM77.9976 39.97H76.9976V40.97H77.9976V39.97ZM77.9976 38.3119V37.3119H76.9976V38.3119H77.9976ZM102.454 38.3119H103.454V37.3119H102.454V38.3119ZM102.454 39.97V40.97H103.454V39.97H102.454ZM49.708 154.643L11.4683 54.4326L9.59973 55.1457L47.8394 155.357L49.708 154.643ZM11.471 54.4398C8.41294 46.2386 4.86579 40.6298 0.722212 37.8921L-0.380302 39.5608C3.21387 41.9355 6.57543 47.0351 9.59704 55.1385L11.471 54.4398ZM1.06538 39.1736L1.27264 38.7591L-0.516211 37.8647L-0.723472 38.2792L1.06538 39.1736ZM0.378216 39.3119H7.52873V37.3119H0.378216V39.3119ZM7.52873 39.3119H29.6021V37.3119H7.52873V39.3119ZM29.6021 39.3119H36.8562V37.3119H29.6021V39.3119ZM35.9618 38.7591L36.169 39.1736L37.9579 38.2792L37.7506 37.8647L35.9618 38.7591ZM36.5753 37.8537C34.1977 39.1835 32.927 41.4223 32.6985 44.3748C32.4744 47.2688 33.2415 50.8779 34.8867 55.1487L36.753 54.4297C35.1512 50.2718 34.502 46.9895 34.6925 44.5292C34.8784 42.1275 35.8531 40.5492 37.5516 39.5992L36.5753 37.8537ZM34.8862 55.1472L65.25 134.321L67.1174 133.605L36.7536 54.4311L34.8862 55.1472ZM65.2383 133.637L57.9842 154.674L59.8749 155.326L67.1291 134.289L65.2383 133.637ZM58.9295 154H48.7737V156H58.9295V154ZM99.4491 39.3119H105.874V37.3119H99.4491V39.3119ZM104.945 37.9415L58.4152 154.63L60.2729 155.37L106.803 38.6823L104.945 37.9415ZM59.3441 154H57.4787V156H59.3441V154ZM58.4197 155.338L100.39 38.6503L98.5081 37.9734L56.5377 154.662L58.4197 155.338ZM113.959 154.645L69.6056 37.9566L67.7361 38.6672L112.09 155.355L113.959 154.645ZM68.6708 39.3119H93.3349V37.3119H68.6708V39.3119ZM92.4006 38.6682L128.879 134.319L130.747 133.607L94.2693 37.9556L92.4006 38.6682ZM128.866 133.641L121.716 154.678L123.609 155.322L130.76 134.285L128.866 133.641ZM122.662 154H113.025V156H122.662V154ZM162.975 39.3119H166.498V37.3119H162.975V39.3119ZM166.498 39.3119H173.752V37.3119H166.498V39.3119ZM172.858 38.7591L173.065 39.1736L174.854 38.2792L174.647 37.8647L172.858 38.7591ZM173.447 37.8676C169.206 40.3977 165.512 46.0285 162.25 54.4271L164.114 55.1512C167.346 46.8308 170.838 41.7531 174.472 39.5852L173.447 37.8676ZM162.254 54.4176L122.148 154.628L124.005 155.372L164.11 55.1607L162.254 54.4176ZM123.077 154H121.108V156H123.077V154ZM122.049 155.339L158.112 55.1278L156.23 54.4505L120.167 154.661L122.049 155.339ZM158.118 55.1102C159.522 50.9703 160.122 47.4371 159.824 44.5566C159.523 41.635 158.291 39.3629 156.065 37.8921L154.962 39.5608C156.605 40.6462 157.584 42.3293 157.835 44.7619C158.09 47.2357 157.584 50.4557 156.224 54.4681L158.118 55.1102ZM156.408 39.1736L156.615 38.7591L154.826 37.8647L154.619 38.2792L156.408 39.1736ZM155.721 39.3119H162.975V37.3119H155.721V39.3119ZM78.9976 39.97V38.3119H76.9976V39.97H78.9976ZM77.9976 39.3119H102.454V37.3119H77.9976V39.3119ZM101.454 38.3119V39.97H103.454V38.3119H101.454ZM102.454 38.97H77.9976V40.97H102.454V38.97ZM266.344 155L265.45 155.447L265.726 156H266.344V155ZM266.137 154.585L265.644 153.715L264.818 154.184L265.243 155.033L266.137 154.585ZM270.8 137.59L269.804 137.679L269.805 137.692L269.807 137.705L270.8 137.59ZM265.515 78.6242L266.511 78.5349L266.511 78.5286L265.515 78.6242ZM257.846 51.6802L257.019 52.2418L257.022 52.2464L257.846 51.6802ZM223.337 52.8202L224.156 53.3948L224.159 53.3907L223.337 52.8202ZM216.498 78.0024V79.0024H217.498V78.0024H216.498ZM215.047 78.0024H214.047V79.0024H215.047V78.0024ZM224.685 47.7423L223.939 47.0757L224.685 47.7423ZM278.158 46.8096L277.458 47.524L277.462 47.5277L278.158 46.8096ZM289.972 74.3754L288.977 74.4737L288.977 74.4749L289.972 74.3754ZM296.293 137.59L297.289 137.498L297.289 137.491L296.293 137.59ZM303.548 154.585L304.442 155.033L304.86 154.196L304.053 153.723L303.548 154.585ZM303.34 155V156H303.958L304.235 155.447L303.34 155ZM185.927 155L185.032 155.447L185.309 156H185.927V155ZM185.72 154.585L185.207 153.727L184.41 154.202L184.825 155.033L185.72 154.585ZM185.098 8.15537H184.098V8.94523L184.866 9.12818L185.098 8.15537ZM185.098 7.74085L184.829 6.77774L184.098 6.98196V7.74085H185.098ZM192.145 5.77187L191.921 4.79719L191.898 4.80244L191.876 4.80876L192.145 5.77187ZM216.083 0.279446L217.083 0.291492L217.099 -0.979473L215.86 -0.695232L216.083 0.279446ZM215.254 69.0902L214.254 69.0781L214.242 70.0902H215.254V69.0902ZM216.498 69.0902H217.498V68.0902H216.498V69.0902ZM222.405 154.585L223.299 155.033L223.714 154.202L222.917 153.727L222.405 154.585ZM222.198 155V156H222.816L223.092 155.447L222.198 155ZM296.086 154H273.598V156H296.086V154ZM273.598 154H266.344V156H273.598V154ZM267.239 154.553L267.031 154.138L265.243 155.033L265.45 155.447L267.239 154.553ZM266.63 155.456C271.361 152.774 272.834 146.487 271.794 137.475L269.807 137.705C270.84 146.655 269.203 151.699 265.644 153.715L266.63 155.456ZM271.796 137.501L266.511 78.5349L264.519 78.7135L269.804 137.679L271.796 137.501ZM266.511 78.5286C265.331 66.2428 262.753 57.058 258.671 51.1141L257.022 52.2464C260.816 57.7709 263.351 66.5488 264.52 78.7198L266.511 78.5286ZM258.674 51.1187C254.544 45.0332 248.669 41.9753 241.162 41.9753V43.9753C248.025 43.9753 253.273 46.7207 257.019 52.2417L258.674 51.1187ZM241.162 41.9753C233.478 41.9753 227.243 45.4461 222.516 52.2496L224.159 53.3907C228.552 47.0677 234.2 43.9753 241.162 43.9753V41.9753ZM222.519 52.2456C217.81 58.9518 215.498 67.5636 215.498 78.0024H217.498C217.498 67.8533 219.745 59.6769 224.156 53.3948L222.519 52.2456ZM216.498 77.0024H215.047V79.0024H216.498V77.0024ZM216.047 78.0024C216.047 65.1735 219.219 55.355 225.43 48.4089L223.939 47.0757C217.3 54.4997 214.047 64.8546 214.047 78.0024H216.047ZM225.43 48.4089C231.629 41.4763 240.282 37.9647 251.525 37.9647V35.9647C239.831 35.9647 230.59 39.6381 223.939 47.0757L225.43 48.4089ZM251.525 37.9647C262.367 37.9647 270.977 41.1761 277.458 47.524L278.858 46.0952C271.936 39.3166 262.79 35.9647 251.525 35.9647V37.9647ZM277.462 47.5277C283.951 53.8156 287.819 62.7589 288.977 74.4737L290.967 74.277C289.776 62.2259 285.768 52.792 278.854 46.0915L277.462 47.5277ZM288.977 74.4749L295.298 137.69L297.289 137.491L290.967 74.2759L288.977 74.4749ZM295.298 137.682C296.13 146.704 298.581 152.833 303.042 155.448L304.053 153.723C300.501 151.64 298.115 146.439 297.289 137.498L295.298 137.682ZM302.653 154.138L302.446 154.553L304.235 155.447L304.442 155.033L302.653 154.138ZM303.34 154H296.086V156H303.34V154ZM215.047 154H193.181V156H215.047V154ZM193.181 154H185.927V156H193.181V154ZM186.821 154.553L186.614 154.138L184.825 155.033L185.032 155.447L186.821 154.553ZM186.232 155.444C190.672 152.796 192.627 146.601 192.627 137.59H190.627C190.627 146.541 188.643 151.677 185.207 153.727L186.232 155.444ZM192.627 137.59V23.1818H190.627V137.59H192.627ZM192.627 23.1818C192.627 18.6313 192.078 14.9764 190.911 12.2907C189.729 9.56885 187.88 7.78989 185.329 7.18257L184.866 9.12818C186.668 9.55716 188.084 10.8008 189.077 13.0877C190.087 15.4109 190.627 18.751 190.627 23.1818H192.627ZM186.098 8.15537V7.74085H184.098V8.15537H186.098ZM185.367 8.70396L192.414 6.73498L191.876 4.80876L184.829 6.77774L185.367 8.70396ZM192.368 6.74654L216.307 1.25412L215.86 -0.695232L191.921 4.79719L192.368 6.74654ZM215.083 0.267395L214.254 69.0781L216.254 69.1022L217.083 0.291492L215.083 0.267395ZM215.254 70.0902H216.498V68.0902H215.254V70.0902ZM215.498 69.0902V137.59H217.498V69.0902H215.498ZM215.498 137.59C215.498 146.601 217.452 152.796 221.893 155.444L222.917 153.727C219.482 151.677 217.498 146.541 217.498 137.59H215.498ZM221.51 154.138L221.303 154.553L223.092 155.447L223.299 155.033L221.51 154.138ZM222.198 154H215.047V156H222.198V154ZM328.833 140.803L328.115 141.498L328.117 141.501L328.833 140.803ZM329.559 53.9601L328.843 53.2618L328.841 53.264L329.559 53.9601ZM414.64 53.3383L415.358 52.6427L414.64 53.3383ZM401.375 77.0698L402.311 76.718L402.309 76.7123L401.375 77.0698ZM384.483 50.2294L383.787 50.9472L383.79 50.9507L384.483 50.2294ZM342.824 50.9548L341.99 50.402L341.987 50.4076L342.824 50.9548ZM341.995 116.553L341.053 116.889L341.053 116.891L341.995 116.553ZM358.057 144.119L357.336 144.811L357.339 144.815L358.057 144.119ZM412.989 139.07C402.002 150.396 387.968 156.073 370.804 156.073V158.073C388.459 158.073 403.028 152.211 414.425 140.463L412.989 139.07ZM370.804 156.073C353.62 156.073 339.903 150.729 329.55 140.105L328.117 141.501C338.904 152.57 353.168 158.073 370.804 158.073V156.073ZM329.552 140.107C319.263 129.479 314.082 115.444 314.082 97.8995H312.082C312.082 115.866 317.402 130.433 328.115 141.498L329.552 140.107ZM314.082 97.8995C314.082 80.1578 319.498 65.7737 330.277 54.6562L328.841 53.264C317.65 64.8071 312.082 79.7159 312.082 97.8995H314.082ZM330.275 54.6584C341.118 43.5438 355.184 37.9647 372.566 37.9647V35.9647C354.712 35.9647 340.107 41.7159 328.843 53.2618L330.275 54.6584ZM372.566 37.9647C389.818 37.9647 403.568 43.3425 413.921 54.034L415.358 52.6427C404.571 41.5027 390.271 35.9647 372.566 35.9647V37.9647ZM413.921 54.034C424.287 64.7389 429.495 78.5025 429.495 95.4124H431.495C431.495 78.0551 426.133 63.7693 415.358 52.6427L413.921 54.034ZM429.495 95.4124C429.495 113.219 423.978 127.742 412.989 139.07L414.425 140.463C425.82 128.715 431.495 113.67 431.495 95.4124H429.495ZM379.509 155.378C388.497 155.378 395.672 151.431 400.959 143.644L399.304 142.521C394.366 149.795 387.793 153.378 379.509 153.378V155.378ZM400.959 143.644C406.221 135.893 408.8 125.483 408.8 112.511H406.8C406.8 125.241 404.266 135.211 399.304 142.521L400.959 143.644ZM408.8 112.511C408.8 100.163 406.637 88.2303 402.311 76.718L400.439 77.4215C404.68 88.7079 406.8 100.403 406.8 112.511H408.8ZM402.309 76.7123C397.985 65.4147 392.282 56.333 385.176 49.5082L383.79 50.9507C390.64 57.5287 396.198 66.3406 400.441 77.4272L402.309 76.7123ZM385.179 49.5116C378.138 42.6817 370.682 39.1772 362.824 39.1772V41.1772C370.028 41.1772 377.011 44.3742 383.787 50.9472L385.179 49.5116ZM362.824 39.1772C353.92 39.1772 346.941 42.9399 341.99 50.402L343.657 51.5077C348.24 44.5997 354.595 41.1772 362.824 41.1772V39.1772ZM341.987 50.4076C337.144 57.8137 334.777 67.8745 334.777 80.4896H336.777C336.777 68.0951 339.107 58.466 343.661 51.5021L341.987 50.4076ZM334.777 80.4896C334.777 93.0388 336.869 105.174 341.053 116.889L342.936 116.217C338.83 104.719 336.777 92.8117 336.777 80.4896H334.777ZM341.053 116.891C345.233 128.524 350.651 137.845 357.336 144.811L358.779 143.426C352.337 136.713 347.047 127.657 342.936 116.215L341.053 116.891ZM357.339 144.815C364.112 151.799 371.507 155.378 379.509 155.378V153.378C372.173 153.378 365.268 150.118 358.775 143.423L357.339 144.815ZM560.344 155L559.41 155.357L559.656 156H560.344V155ZM522.105 54.7892L521.168 55.1386L521.17 55.1457L522.105 54.7892ZM511.742 38.7264L510.847 38.2792L510.451 39.0721L511.19 39.5608L511.742 38.7264ZM511.949 38.3119V37.3119H511.331L511.054 37.8647L511.949 38.3119ZM548.427 38.3119L549.321 37.8647L549.045 37.3119H548.427V38.3119ZM548.634 38.7264L549.122 39.5992L549.955 39.1331L549.529 38.2792L548.634 38.7264ZM547.391 54.7892L548.324 54.4311L548.324 54.4297L547.391 54.7892ZM577.754 133.963L578.7 134.289L578.818 133.945L578.688 133.605L577.754 133.963ZM570.5 155V156H571.213L571.445 155.326L570.5 155ZM611.02 38.3119V37.3119H610.317L610.079 37.9734L611.02 38.3119ZM617.445 38.3119L618.374 38.6823L618.92 37.3119H617.445V38.3119ZM570.915 155V156H571.592L571.844 155.37L570.915 155ZM569.049 155L568.108 154.662L567.627 156H569.049V155ZM624.595 155L623.661 155.355L623.906 156H624.595V155ZM580.241 38.3119V37.3119H578.792L579.307 38.6672L580.241 38.3119ZM604.906 38.3119L605.84 37.9556L605.594 37.3119H604.906V38.3119ZM641.383 133.963L642.33 134.285L642.446 133.943L642.318 133.607L641.383 133.963ZM634.233 155V156H634.949L635.18 155.322L634.233 155ZM685.323 38.3119L686.217 37.8647L685.941 37.3119H685.323V38.3119ZM685.53 38.7264L686.042 39.5852L686.84 39.1096L686.425 38.2792L685.53 38.7264ZM674.753 54.7892L675.681 55.1607L675.685 55.1512L674.753 54.7892ZM634.648 155V156H635.324L635.576 155.372L634.648 155ZM632.679 155L631.738 154.661L631.256 156H632.679V155ZM668.742 54.7892L669.683 55.1278L669.686 55.119L669.689 55.1102L668.742 54.7892ZM667.084 38.7264L666.19 38.2792L665.793 39.0721L666.533 39.5608L667.084 38.7264ZM667.291 38.3119V37.3119H666.673L666.397 37.8647L667.291 38.3119ZM589.568 39.97H588.568V40.97H589.568V39.97ZM589.568 38.3119V37.3119H588.568V38.3119H589.568ZM614.025 38.3119H615.025V37.3119H614.025V38.3119ZM614.025 39.97V40.97H615.025V39.97H614.025ZM561.279 154.643L523.039 54.4326L521.17 55.1457L559.41 155.357L561.279 154.643ZM523.042 54.4398C519.984 46.2386 516.436 40.6298 512.293 37.8921L511.19 39.5608C514.784 41.9355 518.146 47.0351 521.168 55.1385L523.042 54.4398ZM512.636 39.1736L512.843 38.7591L511.054 37.8647L510.847 38.2792L512.636 39.1736ZM511.949 39.3119H519.099V37.3119H511.949V39.3119ZM519.099 39.3119H541.173V37.3119H519.099V39.3119ZM541.173 39.3119H548.427V37.3119H541.173V39.3119ZM547.532 38.7591L547.74 39.1736L549.529 38.2792L549.321 37.8647L547.532 38.7591ZM548.146 37.8537C545.768 39.1835 544.498 41.4223 544.269 44.3748C544.045 47.2688 544.812 50.8779 546.457 55.1487L548.324 54.4297C546.722 50.2718 546.073 46.9895 546.263 44.5292C546.449 42.1275 547.424 40.5492 549.122 39.5992L548.146 37.8537ZM546.457 55.1472L576.821 134.321L578.688 133.605L548.324 54.4311L546.457 55.1472ZM576.809 133.637L569.555 154.674L571.445 155.326L578.7 134.289L576.809 133.637ZM570.5 154H560.344V156H570.5V154ZM611.02 39.3119H617.445V37.3119H611.02V39.3119ZM616.516 37.9415L569.986 154.63L571.844 155.37L618.374 38.6823L616.516 37.9415ZM570.915 154H569.049V156H570.915V154ZM569.99 155.338L611.961 38.6503L610.079 37.9734L568.108 154.662L569.99 155.338ZM625.53 154.645L581.176 37.9566L579.307 38.6672L623.661 155.355L625.53 154.645ZM580.241 39.3119H604.906V37.3119H580.241V39.3119ZM603.971 38.6682L640.449 134.319L642.318 133.607L605.84 37.9556L603.971 38.6682ZM640.437 133.641L633.286 154.678L635.18 155.322L642.33 134.285L640.437 133.641ZM634.233 154H624.595V156H634.233V154ZM674.545 39.3119H678.069V37.3119H674.545V39.3119ZM678.069 39.3119H685.323V37.3119H678.069V39.3119ZM684.428 38.7591L684.636 39.1736L686.425 38.2792L686.217 37.8647L684.428 38.7591ZM685.018 37.8676C680.776 40.3977 677.083 46.0285 673.82 54.4271L675.685 55.1512C678.917 46.8308 682.408 41.7531 686.042 39.5852L685.018 37.8676ZM673.824 54.4176L633.719 154.628L635.576 155.372L675.681 55.1607L673.824 54.4176ZM634.648 154H632.679V156H634.648V154ZM633.619 155.339L669.683 55.1278L667.801 54.4505L631.738 154.661L633.619 155.339ZM669.689 55.1102C671.092 50.9703 671.692 47.4371 671.395 44.5566C671.093 41.635 669.861 39.3629 667.635 37.8921L666.533 39.5608C668.175 40.6462 669.154 42.3293 669.405 44.7619C669.661 47.2357 669.155 50.4557 667.795 54.4681L669.689 55.1102ZM667.978 39.1736L668.186 38.7591L666.397 37.8647L666.19 38.2792L667.978 39.1736ZM667.291 39.3119H674.545V37.3119H667.291V39.3119ZM590.568 39.97V38.3119H588.568V39.97H590.568ZM589.568 39.3119H614.025V37.3119H589.568V39.3119ZM613.025 38.3119V39.97H615.025V38.3119H613.025ZM614.025 38.97H589.568V40.97H614.025V38.97ZM704.287 140.284L703.571 140.982L703.573 140.985L704.287 140.284ZM705.842 54.1674L706.547 54.8766L706.549 54.8745L705.842 54.1674ZM783.565 48.5713L782.885 49.3052L782.888 49.308L783.565 48.5713ZM799.213 82.4585L799.208 83.4585L800.358 83.4648L800.204 82.3249L799.213 82.4585ZM703.355 81.9404L702.366 81.7883L702.19 82.9341L703.349 82.9404L703.355 81.9404ZM703.769 79.246L703.725 78.247L702.906 78.283L702.781 79.0939L703.769 79.246ZM776.932 76.0334L777.701 76.6736L779.149 74.9351L776.888 75.0344L776.932 76.0334ZM775.896 77.277L774.898 77.3381L775.052 79.8521L776.664 77.9172L775.896 77.277ZM764.393 51.1621L763.672 51.8555L763.676 51.8589L764.393 51.1621ZM718.899 50.5403L719.704 51.1338L719.707 51.1299L718.899 50.5403ZM717.759 111.89L718.675 111.487L718.673 111.482L717.759 111.89ZM786.881 132.823L787.57 133.548L787.574 133.544L786.881 132.823ZM797.762 106.19V105.19H796.781L796.762 106.171L797.762 106.19ZM799.42 106.19H800.42V105.19H799.42V106.19ZM784.394 141.839L783.702 141.117L783.699 141.119L784.394 141.839ZM745.74 155.244C728.76 155.244 715.216 150.002 705.001 139.584L703.573 140.985C714.223 151.846 728.313 157.244 745.74 157.244V155.244ZM705.004 139.587C694.785 129.097 689.639 115.236 689.639 97.8995H687.639C687.639 115.66 692.926 130.055 703.571 140.982L705.004 139.587ZM689.639 97.8995C689.639 80.3817 695.287 66.069 706.547 54.8766L705.137 53.4581C693.46 65.0645 687.639 79.9066 687.639 97.8995H689.639ZM706.549 54.8745C717.807 43.6161 732.326 37.9647 750.196 37.9647V35.9647C731.863 35.9647 716.813 41.7817 705.135 53.4603L706.549 54.8745ZM750.196 37.9647C763.888 37.9647 774.749 41.7743 782.885 49.3052L784.244 47.8375C775.661 39.8929 764.276 35.9647 750.196 35.9647V37.9647ZM782.888 49.308C791.098 56.8443 796.24 67.8974 798.222 82.5922L800.204 82.3249C798.179 67.3122 792.889 55.7738 784.241 47.8347L782.888 49.308ZM799.218 81.4586L703.36 80.9404L703.349 82.9404L799.208 83.4585L799.218 81.4586ZM704.343 82.0925L704.758 79.3981L702.781 79.0939L702.366 81.7883L704.343 82.0925ZM703.813 80.245L776.976 77.0325L776.888 75.0344L703.725 78.247L703.813 80.245ZM776.164 75.3933L775.128 76.6368L776.664 77.9172L777.701 76.6736L776.164 75.3933ZM776.894 77.2159C776.258 66.823 772.325 57.8921 765.11 50.4653L763.676 51.8589C770.555 58.9404 774.291 67.4194 774.898 77.3381L776.894 77.2159ZM765.114 50.4687C757.9 42.9725 749.531 39.1772 740.04 39.1772V41.1772C748.926 41.1772 756.792 44.7052 763.672 51.8555L765.114 50.4687ZM740.04 39.1772C730.692 39.1772 723.336 42.767 718.092 49.9507L719.707 51.1299C724.549 44.4962 731.287 41.1772 740.04 41.1772V39.1772ZM718.094 49.9468C712.876 57.0231 710.334 66.9708 710.334 79.6605H712.334C712.334 67.2026 714.835 57.7367 719.704 51.1338L718.094 49.9468ZM710.334 79.6605C710.334 91.6656 712.498 102.55 716.846 112.297L718.673 111.482C714.453 102.023 712.334 91.4214 712.334 79.6605H710.334ZM716.844 112.292C721.185 122.165 727.088 129.913 734.572 135.49L735.767 133.887C728.604 128.548 722.9 121.096 718.675 111.487L716.844 112.292ZM734.572 135.49C742.063 141.073 750.389 143.875 759.522 143.875V141.875C750.831 141.875 742.922 139.219 735.767 133.887L734.572 135.49ZM759.522 143.875C770.929 143.875 780.309 140.453 787.57 133.548L786.192 132.098C779.359 138.596 770.5 141.875 759.522 141.875V143.875ZM787.574 133.544C794.837 126.566 798.55 117.423 798.762 106.209L796.762 106.171C796.559 116.926 793.019 125.539 786.188 132.102L787.574 133.544ZM797.762 107.19H799.42V105.19H797.762V107.19ZM798.42 106.19C798.42 120.087 793.518 131.707 783.702 141.117L785.086 142.561C795.305 132.765 800.42 120.619 800.42 106.19H798.42ZM783.699 141.119C773.964 150.516 761.342 155.244 745.74 155.244V157.244C761.779 157.244 774.926 152.368 785.088 142.558L783.699 141.119ZM976.94 155L975.944 155.091L976.026 156H976.94V155ZM969.996 78.6242L970.992 78.5337L970.992 78.532L969.996 78.6242ZM906.056 58.4162L905.223 57.8638L905.221 57.8656L906.056 58.4162ZM901.6 66.0849V67.0849H902.25L902.514 66.491L901.6 66.0849ZM900.564 66.0849H899.564V67.0849H900.564V66.0849ZM900.564 39.1409L900.484 38.1442L899.564 38.2182V39.1409H900.564ZM970.204 39.97L970.486 39.0106L970.472 39.0066L970.458 39.003L970.204 39.97ZM985.955 50.4367L985.138 51.0125L985.142 51.019L985.147 51.0255L985.955 50.4367ZM992.484 70.541L991.489 70.6373L991.489 70.641L992.484 70.541ZM999.22 137.59L1000.22 137.518L1000.22 137.504L1000.22 137.49L999.22 137.59ZM1006.27 154.585L1007.16 155.033L1007.56 154.24L1006.82 153.751L1006.27 154.585ZM1006.06 155V156H1006.68L1006.95 155.447L1006.06 155ZM899.735 147.435L899.039 148.153L899.043 148.157L899.735 147.435ZM899.32 97.485L898.563 96.8315L898.556 96.84L899.32 97.485ZM977.561 63.0796H978.561V61.8481L977.356 62.1009L977.561 63.0796ZM977.561 64.1159L977.766 65.0948L978.561 64.9287V64.1159H977.561ZM919.943 140.699L919.101 141.238L919.104 141.244L919.943 140.699ZM936.42 151.373V152.373L936.43 152.373L936.42 151.373ZM955.073 141.528L955.831 142.181L955.834 142.177L955.073 141.528ZM967.613 114.895L968.584 115.135L968.584 115.133L967.613 114.895ZM969.996 78.6242V77.6242H968.901L969 78.7148L969.996 78.6242ZM971.447 78.6242L972.44 78.5056L972.335 77.6242H971.447V78.6242ZM969.167 120.076L968.205 119.805L968.204 119.809L969.167 120.076ZM977.935 154.909L970.992 78.5337L969 78.7148L975.944 155.091L977.935 154.909ZM970.992 78.532C969.807 65.7396 966.31 55.9895 960.375 49.429C954.413 42.8383 946.105 39.5918 935.591 39.5918V41.5918C945.665 41.5918 953.385 44.684 958.892 50.7707C964.425 56.8877 967.837 66.1538 969.001 78.7165L970.992 78.532ZM935.591 39.5918C923.369 39.5918 913.24 45.7676 905.223 57.8638L906.89 58.9687C914.624 47.2989 924.185 41.5918 935.591 41.5918V39.5918ZM905.221 57.8656C903.071 61.1254 901.549 63.7366 900.686 65.6788L902.514 66.491C903.309 64.7025 904.758 62.2013 906.891 58.9668L905.221 57.8656ZM901.6 65.0849H900.564V67.0849H901.6V65.0849ZM901.564 66.0849V39.1409H899.564V66.0849H901.564ZM900.644 40.1377C918.669 38.6874 932.281 37.9647 941.498 37.9647V35.9647C932.199 35.9647 918.522 36.6928 900.484 38.1442L900.644 40.1377ZM941.498 37.9647C952.986 37.9647 962.461 38.963 969.949 40.9369L970.458 39.003C962.747 36.9699 953.085 35.9647 941.498 35.9647V37.9647ZM969.921 40.9293C976.802 42.9529 981.841 46.3305 985.138 51.0125L986.773 49.8609C983.161 44.7325 977.699 41.1322 970.486 39.0106L969.921 40.9293ZM985.147 51.0255C988.529 55.6673 990.67 62.175 991.489 70.6373L993.48 70.4447C992.64 61.7735 990.429 54.8783 986.764 49.8478L985.147 51.0255ZM991.489 70.641L998.225 137.69L1000.22 137.49L993.479 70.4411L991.489 70.641ZM998.223 137.662C998.85 146.378 1001.24 152.458 1005.72 155.42L1006.82 153.751C1003.15 151.324 1000.83 146.074 1000.22 137.518L998.223 137.662ZM1005.37 154.138L1005.17 154.553L1006.95 155.447L1007.16 155.033L1005.37 154.138ZM1006.06 154H998.806V156H1006.06V154ZM998.806 154H976.94V156H998.806V154ZM925.85 156.073C915.357 156.073 906.913 152.932 900.427 146.713L899.043 148.157C905.959 154.788 914.926 158.073 925.85 158.073V156.073ZM900.431 146.717C894.01 140.497 890.786 132.543 890.786 122.771H888.786C888.786 133.034 892.195 141.523 899.039 148.153L900.431 146.717ZM890.786 122.771C890.786 113.694 893.871 105.491 900.084 98.13L898.556 96.84C892.057 104.54 888.786 113.194 888.786 122.771H890.786ZM900.077 98.1384C912.487 83.7617 938.272 72.3439 977.767 64.0583L977.356 62.1009C937.815 70.3962 911.439 81.9153 898.563 96.8316L900.077 98.1384ZM976.561 63.0796V64.1159H978.561V63.0796H976.561ZM977.357 63.137C953.835 68.049 937.034 74.2682 927.107 81.8719L928.323 83.4597C937.879 76.1406 954.309 69.9932 977.766 65.0948L977.357 63.137ZM927.107 81.8719C917.089 89.5451 912.103 100.391 912.103 114.273H914.103C914.103 100.935 918.858 90.7094 928.323 83.4597L927.107 81.8719ZM912.103 114.273C912.103 124.919 914.415 133.926 919.101 141.238L920.785 140.159C916.351 133.24 914.103 124.63 914.103 114.273H912.103ZM919.104 141.244C923.849 148.538 929.616 152.373 936.42 152.373V150.373C930.512 150.373 925.294 147.092 920.781 140.154L919.104 141.244ZM936.43 152.373C943.627 152.3 950.099 148.833 955.831 142.181L954.316 140.875C948.856 147.211 942.892 150.308 936.41 150.373L936.43 152.373ZM955.834 142.177C961.559 135.462 965.795 126.429 968.584 115.135L966.642 114.655C963.904 125.745 959.78 134.467 954.313 140.879L955.834 142.177ZM968.584 115.133C971.377 103.753 972.176 91.5502 970.992 78.5337L969 78.7148C970.166 91.5368 969.376 103.515 966.642 114.657L968.584 115.133ZM969.996 79.6242H971.447V77.6242H969.996V79.6242ZM970.454 78.7428C972.308 94.2585 971.546 107.939 968.205 119.805L970.13 120.348C973.559 108.172 974.317 94.2173 972.44 78.5056L970.454 78.7428ZM968.204 119.809C964.927 131.618 959.593 140.578 952.252 146.774L953.542 148.303C961.262 141.787 966.775 132.44 970.131 120.344L968.204 119.809ZM952.252 146.774C944.915 152.968 936.132 156.073 925.85 156.073V158.073C936.57 158.073 945.819 154.822 953.542 148.303L952.252 146.774ZM1025.02 155L1024.13 155.447L1024.4 156H1025.02V155ZM1024.81 154.585L1024.26 153.749L1023.52 154.237L1023.92 155.033L1024.81 154.585ZM1024.19 46.0842H1023.19V46.865L1023.95 47.0543L1024.19 46.0842ZM1024.19 45.6697L1023.93 44.7049L1023.19 44.9059V45.6697H1024.19ZM1031.03 43.8043L1030.81 42.8292L1030.79 42.8339L1030.77 42.8396L1031.03 43.8043ZM1055.18 38.3119L1056.18 38.3351L1056.21 37.0522L1054.95 37.3368L1055.18 38.3119ZM1054.55 65.0486L1053.56 65.0254L1053.53 66.0486H1054.55V65.0486ZM1055.59 65.0486H1056.59V64.0486H1055.59V65.0486ZM1061.6 154.585L1062.5 155.033L1062.91 154.196L1062.11 153.723L1061.6 154.585ZM1061.39 155V156H1062.01L1062.29 155.447L1061.39 155ZM1055.59 79.0387V80.0387H1056.59V79.0387H1055.59ZM1054.35 79.0387L1053.35 79.0962L1053.4 80.0387H1054.35V79.0387ZM1060.67 48.1568L1059.84 47.5968L1059.84 47.5985L1060.67 48.1568ZM1099.53 40.3845H1100.53V39.7623L1099.97 39.4874L1099.53 40.3845ZM1099.53 68.8829V69.8829H1100.53V68.8829H1099.53ZM1098.7 68.8829L1097.76 69.2179L1098 69.8829H1098.7V68.8829ZM1089.06 54.0638L1088.4 54.8125L1088.41 54.8186L1089.06 54.0638ZM1060.77 56.24L1061.6 56.7999L1061.6 56.7947L1060.77 56.24ZM1054.14 154H1032.27V156H1054.14V154ZM1032.27 154H1025.02V156H1032.27V154ZM1025.91 154.553L1025.71 154.138L1023.92 155.033L1024.13 155.447L1025.91 154.553ZM1025.36 155.422C1029.82 152.502 1031.82 146.364 1031.82 137.59H1029.82C1029.82 146.226 1027.82 151.419 1024.26 153.749L1025.36 155.422ZM1031.82 137.59V61.2143H1029.82V137.59H1031.82ZM1031.82 61.2143C1031.82 56.662 1031.27 52.9977 1030.08 50.2943C1028.88 47.5549 1027.01 45.7577 1024.43 45.114L1023.95 47.0543C1025.8 47.5161 1027.24 48.7933 1028.25 51.0972C1029.28 53.4372 1029.82 56.7852 1029.82 61.2143H1031.82ZM1025.19 46.0842V45.6697H1023.19V46.0842H1025.19ZM1024.45 46.6344L1031.29 44.7691L1030.77 42.8396L1023.93 44.7049L1024.45 46.6344ZM1031.25 44.7794L1055.4 39.287L1054.95 37.3368L1030.81 42.8292L1031.25 44.7794ZM1054.18 38.2886L1053.56 65.0254L1055.55 65.0718L1056.18 38.3351L1054.18 38.2886ZM1054.55 66.0486H1055.59V64.0486H1054.55V66.0486ZM1054.59 65.0486V137.59H1056.59V65.0486H1054.59ZM1054.59 137.59C1054.59 146.607 1056.58 152.802 1061.1 155.448L1062.11 153.723C1058.61 151.671 1056.59 146.536 1056.59 137.59H1054.59ZM1060.71 154.138L1060.5 154.553L1062.29 155.447L1062.5 155.033L1060.71 154.138ZM1061.39 154H1054.14V156H1061.39V154ZM1055.59 78.0387H1054.35V80.0387H1055.59V78.0387ZM1055.35 78.9812C1054.59 65.9029 1056.69 55.8571 1061.5 48.7151L1059.84 47.5985C1054.7 55.2411 1052.58 65.7833 1053.35 79.0962L1055.35 78.9812ZM1061.5 48.7168C1066.34 41.5561 1073.4 37.9647 1082.85 37.9647V35.9647C1072.8 35.9647 1065.09 39.8347 1059.84 47.5968L1061.5 48.7168ZM1082.85 37.9647C1089.23 37.9647 1094.63 39.0846 1099.09 41.2816L1099.97 39.4874C1095.18 37.1246 1089.45 35.9647 1082.85 35.9647V37.9647ZM1098.53 40.3845V68.8829H1100.53V40.3845H1098.53ZM1099.53 67.8829H1098.7V69.8829H1099.53V67.8829ZM1099.64 68.5479C1097.39 62.1975 1094.09 57.1024 1089.72 53.3089L1088.41 54.8186C1092.47 58.3483 1095.6 63.1327 1097.76 69.2179L1099.64 68.5479ZM1089.73 53.315C1085.37 49.459 1080.72 47.4677 1075.8 47.4677V49.4677C1080.13 49.4677 1084.33 51.2071 1088.4 54.8125L1089.73 53.315ZM1075.8 47.4677C1068.92 47.4677 1063.59 50.2081 1059.94 55.6853L1061.6 56.7947C1064.86 51.9088 1069.55 49.4677 1075.8 49.4677V47.4677ZM1059.94 55.6801C1056.33 61.0327 1054.59 68.8674 1054.59 79.0387H1056.59C1056.59 69.0366 1058.31 61.6722 1061.6 56.7999L1059.94 55.6801ZM1126.79 140.284L1126.07 140.982L1126.07 140.985L1126.79 140.284ZM1128.34 54.1674L1129.04 54.8766L1129.05 54.8745L1128.34 54.1674ZM1206.06 48.5713L1205.38 49.3052L1205.39 49.308L1206.06 48.5713ZM1221.71 82.4585L1221.71 83.4585L1222.86 83.4648L1222.7 82.3249L1221.71 82.4585ZM1125.85 81.9404L1124.86 81.7883L1124.69 82.9341L1125.85 82.9404L1125.85 81.9404ZM1126.27 79.246L1126.22 78.247L1125.4 78.283L1125.28 79.0939L1126.27 79.246ZM1199.43 76.0334L1200.2 76.6736L1201.65 74.9351L1199.39 75.0344L1199.43 76.0334ZM1198.39 77.277L1197.4 77.3381L1197.55 79.8521L1199.16 77.9172L1198.39 77.277ZM1186.89 51.1621L1186.17 51.8555L1186.17 51.8589L1186.89 51.1621ZM1141.4 50.5403L1142.2 51.1338L1142.2 51.1299L1141.4 50.5403ZM1140.26 111.89L1141.17 111.487L1141.17 111.482L1140.26 111.89ZM1209.38 132.823L1210.07 133.548L1210.07 133.544L1209.38 132.823ZM1220.26 106.19V105.19H1219.28L1219.26 106.171L1220.26 106.19ZM1221.92 106.19H1222.92V105.19H1221.92V106.19ZM1206.89 141.839L1206.2 141.117L1206.2 141.119L1206.89 141.839ZM1168.24 155.244C1151.26 155.244 1137.71 150.002 1127.5 139.584L1126.07 140.985C1136.72 151.846 1150.81 157.244 1168.24 157.244V155.244ZM1127.5 139.587C1117.28 129.097 1112.14 115.236 1112.14 97.8995H1110.14C1110.14 115.66 1115.42 130.055 1126.07 140.982L1127.5 139.587ZM1112.14 97.8995C1112.14 80.3817 1117.78 66.069 1129.04 54.8766L1127.63 53.4581C1115.96 65.0645 1110.14 79.9066 1110.14 97.8995H1112.14ZM1129.05 54.8745C1140.31 43.6161 1154.82 37.9647 1172.69 37.9647V35.9647C1154.36 35.9647 1139.31 41.7817 1127.63 53.4603L1129.05 54.8745ZM1172.69 37.9647C1186.39 37.9647 1197.25 41.7743 1205.38 49.3052L1206.74 47.8375C1198.16 39.8929 1186.77 35.9647 1172.69 35.9647V37.9647ZM1205.39 49.308C1213.6 56.8443 1218.74 67.8974 1220.72 82.5922L1222.7 82.3249C1220.68 67.3122 1215.39 55.7738 1206.74 47.8347L1205.39 49.308ZM1221.72 81.4586L1125.86 80.9404L1125.85 82.9404L1221.71 83.4585L1221.72 81.4586ZM1126.84 82.0925L1127.26 79.3981L1125.28 79.0939L1124.86 81.7883L1126.84 82.0925ZM1126.31 80.245L1199.47 77.0325L1199.39 75.0344L1126.22 78.247L1126.31 80.245ZM1198.66 75.3933L1197.63 76.6368L1199.16 77.9172L1200.2 76.6736L1198.66 75.3933ZM1199.39 77.2159C1198.76 66.823 1194.82 57.8921 1187.61 50.4653L1186.17 51.8589C1193.05 58.9404 1196.79 67.4194 1197.4 77.3381L1199.39 77.2159ZM1187.61 50.4687C1180.4 42.9725 1172.03 39.1772 1162.54 39.1772V41.1772C1171.42 41.1772 1179.29 44.7052 1186.17 51.8555L1187.61 50.4687ZM1162.54 39.1772C1153.19 39.1772 1145.83 42.767 1140.59 49.9507L1142.2 51.1299C1147.05 44.4962 1153.79 41.1772 1162.54 41.1772V39.1772ZM1140.59 49.9468C1135.37 57.0231 1132.83 66.9708 1132.83 79.6605H1134.83C1134.83 67.2026 1137.33 57.7367 1142.2 51.1338L1140.59 49.9468ZM1132.83 79.6605C1132.83 91.6656 1135 102.55 1139.34 112.297L1141.17 111.482C1136.95 102.023 1134.83 91.4214 1134.83 79.6605H1132.83ZM1139.34 112.292C1143.68 122.165 1149.59 129.913 1157.07 135.49L1158.26 133.887C1151.1 128.548 1145.4 121.096 1141.17 111.487L1139.34 112.292ZM1157.07 135.49C1164.56 141.073 1172.89 143.875 1182.02 143.875V141.875C1173.33 141.875 1165.42 139.219 1158.26 133.887L1157.07 135.49ZM1182.02 143.875C1193.43 143.875 1202.81 140.453 1210.07 133.548L1208.69 132.098C1201.86 138.596 1193 141.875 1182.02 141.875V143.875ZM1210.07 133.544C1217.33 126.566 1221.05 117.423 1221.26 106.209L1219.26 106.171C1219.06 116.926 1215.52 125.539 1208.69 132.102L1210.07 133.544ZM1220.26 107.19H1221.92V105.19H1220.26V107.19ZM1220.92 106.19C1220.92 120.087 1216.02 131.707 1206.2 141.117L1207.58 142.561C1217.8 132.765 1222.92 120.619 1222.92 106.19H1220.92ZM1206.2 141.119C1196.46 150.516 1183.84 155.244 1168.24 155.244V157.244C1184.28 157.244 1197.42 152.368 1207.59 142.558L1206.2 141.119Z" fill="#EFE9E1" mask="url(#path-1-outside-1_52_527)"/>
</g>
</svg>
